M48
METRIC,TZ
T1C0.400
T2C2.200
%
G90
G05
T1
X123952Y-99314
X126238Y-95758
X132588Y-105156
X133096Y-93980
X133858Y-102108
X136398Y-102870
X143256Y-94650
X143256Y-104140
X144018Y-104902
X145034Y-104902
X146050Y-104902
X147066Y-104902
X150876Y-103540
X151678Y-102052
X152416Y-105064
X153924Y-102108
X153924Y-103378
X154432Y-105156
X156210Y-105156
X157734Y-105156
X158750Y-103378
X162306Y-96520
X163068Y-105664
X166624Y-103124
X167386Y-102362
X168021Y-96012
X169200Y-105046
X173990Y-105156
T2
X124206Y-103886
X177546Y-103886
T0
M30
