M48
METRIC,TZ
T1C0.400
T2C2.200
%
G90
G05
T1
X123952Y-99441
X124968Y-99441
X126492Y-103886
X126746Y-94234
X127254Y-102108
X128016Y-103886
X128143Y-95631
X128524Y-102108
X129540Y-94234
X129794Y-102108
X131064Y-102108
X132334Y-102108
X132461Y-105410
X132842Y-94234
X133858Y-102108
X134747Y-105410
X136398Y-102870
X136779Y-105410
X143002Y-104902
X144018Y-104902
X145034Y-104902
X146050Y-104902
X147066Y-104902
X150712Y-103664
X152527Y-102997
X153289Y-105537
X153797Y-102997
X154546Y-105546
X155194Y-102997
X156083Y-105537
X156591Y-102997
X157480Y-105537
X162306Y-96520
X166497Y-104648
X167710Y-104648
X168021Y-96012
X168910Y-104648
X169164Y-102362
X170180Y-104648
X171450Y-104648
X172720Y-104648
X173990Y-104648
X175260Y-104648
T2
X124206Y-103886
X177546Y-103886
T0
M30
