G04 #@! TF.FileFunction,Copper,L1,Top,Signal*
%FSLAX46Y46*%
G04 Gerber Fmt 4.6, Leading zero omitted, Abs format (unit mm)*
G04 Created by KiCad (PCBNEW 4.0.7) date Sun Dec  3 23:41:54 2017*
%MOMM*%
%LPD*%
G01*
G04 APERTURE LIST*
%ADD10C,0.100000*%
%ADD11R,4.810000X5.000000*%
%ADD12R,1.000000X5.000000*%
%ADD13R,1.020000X4.000000*%
%ADD14C,0.600000*%
%ADD15C,0.200000*%
G04 APERTURE END LIST*
D10*
D11*
X172466000Y-89916000D03*
X162306000Y-89916000D03*
X150876000Y-89916000D03*
D12*
X175641000Y-89916000D03*
X169291000Y-89916000D03*
X168021000Y-89916000D03*
X166751000Y-89916000D03*
X165481000Y-89916000D03*
X159131000Y-89916000D03*
X157861000Y-89916000D03*
X156591000Y-89916000D03*
X155321000Y-89916000D03*
X154051000Y-89916000D03*
X147701000Y-89916000D03*
X146431000Y-89916000D03*
X145161000Y-89916000D03*
X143891000Y-89916000D03*
X135001000Y-89916000D03*
X133731000Y-89916000D03*
X142621000Y-89916000D03*
D11*
X139446000Y-89916000D03*
D12*
X136271000Y-89916000D03*
X132461000Y-89916000D03*
D11*
X129286000Y-89916000D03*
D12*
X126111000Y-89916000D03*
D13*
X126111000Y-99386000D03*
X127381000Y-99386000D03*
X128651000Y-99386000D03*
X129921000Y-99386000D03*
X131191000Y-99386000D03*
X132461000Y-99386000D03*
X133731000Y-99386000D03*
X135001000Y-99386000D03*
X136271000Y-99386000D03*
X137541000Y-99386000D03*
X138811000Y-99386000D03*
X140081000Y-99386000D03*
X141351000Y-99386000D03*
X142621000Y-99386000D03*
X143891000Y-99386000D03*
X145161000Y-99386000D03*
X146431000Y-99386000D03*
X147701000Y-99386000D03*
X148971000Y-99386000D03*
X150241000Y-99386000D03*
X151511000Y-99386000D03*
X152781000Y-99386000D03*
X154051000Y-99386000D03*
X155321000Y-99386000D03*
X156591000Y-99386000D03*
X157861000Y-99386000D03*
X159131000Y-99386000D03*
X160401000Y-99386000D03*
X161671000Y-99386000D03*
X162941000Y-99386000D03*
X164211000Y-99386000D03*
X165481000Y-99386000D03*
X166751000Y-99386000D03*
X168021000Y-99386000D03*
X169291000Y-99386000D03*
X170561000Y-99386000D03*
X171831000Y-99386000D03*
X173101000Y-99386000D03*
X174371000Y-99386000D03*
X175641000Y-99386000D03*
X175641000Y-108386000D03*
X174371000Y-108386000D03*
X173101000Y-108386000D03*
X171831000Y-108386000D03*
X170561000Y-108386000D03*
X169291000Y-108386000D03*
X168021000Y-108386000D03*
X166751000Y-108386000D03*
X165481000Y-108386000D03*
X164211000Y-108386000D03*
X162941000Y-108386000D03*
X161671000Y-108386000D03*
X160401000Y-108386000D03*
X159131000Y-108386000D03*
X157861000Y-108386000D03*
X156591000Y-108386000D03*
X155321000Y-108386000D03*
X154051000Y-108386000D03*
X152781000Y-108386000D03*
X151511000Y-108386000D03*
X150241000Y-108386000D03*
X148971000Y-108386000D03*
X147701000Y-108386000D03*
X146431000Y-108386000D03*
X145161000Y-108386000D03*
X143891000Y-108386000D03*
X142621000Y-108386000D03*
X141351000Y-108386000D03*
X140081000Y-108386000D03*
X138811000Y-108386000D03*
X137541000Y-108386000D03*
X136271000Y-108386000D03*
X135001000Y-108386000D03*
X133731000Y-108386000D03*
X132461000Y-108386000D03*
X131191000Y-108386000D03*
X129921000Y-108386000D03*
X128651000Y-108386000D03*
X127381000Y-108386000D03*
X126111000Y-108386000D03*
D14*
X169199854Y-105046198D03*
X132588000Y-105156000D03*
X162306000Y-96520000D03*
X123952000Y-99314000D03*
X151678228Y-102051629D03*
X150876000Y-103540042D03*
X126238000Y-95758000D03*
X168021000Y-96012000D03*
X143256000Y-104140052D03*
X158750000Y-103378000D03*
X153924000Y-102108000D03*
X153924000Y-103378000D03*
X152416019Y-105064203D03*
X147066000Y-104902000D03*
X154432000Y-105155994D03*
X146050000Y-104902000D03*
X156210000Y-105156000D03*
X145034000Y-104902000D03*
X157734012Y-105156000D03*
X144018000Y-104902000D03*
X166624000Y-103124000D03*
X136398000Y-102870000D03*
X133858000Y-102108000D03*
X167385994Y-102362000D03*
X163068000Y-105664000D03*
X143256000Y-94649990D03*
X173990006Y-105156000D03*
X133096000Y-93980000D03*
D15*
X174117000Y-96901000D02*
X174371000Y-97155000D01*
X174371000Y-97155000D02*
X174371000Y-99386000D01*
X173101000Y-96901000D02*
X174117000Y-96901000D01*
X170815000Y-96901000D02*
X170561000Y-97155000D01*
X170561000Y-97155000D02*
X170561000Y-99386000D01*
X171831000Y-96901000D02*
X170815000Y-96901000D01*
X172466000Y-96266000D02*
X171831000Y-96901000D01*
X171831000Y-96901000D02*
X171831000Y-99386000D01*
X172466000Y-96266000D02*
X173101000Y-96901000D01*
X173101000Y-96901000D02*
X173101000Y-99386000D01*
X172466000Y-89916000D02*
X172466000Y-96266000D01*
X170995052Y-102415052D02*
X170561000Y-101981000D01*
X170561000Y-101981000D02*
X170561000Y-99386000D01*
X171831000Y-102415052D02*
X170995052Y-102415052D01*
X174117000Y-101981000D02*
X174371000Y-101727000D01*
X174371000Y-101727000D02*
X174371000Y-99386000D01*
X173101000Y-101981000D02*
X174117000Y-101981000D01*
X172666948Y-102415052D02*
X173101000Y-101981000D01*
X173101000Y-101981000D02*
X173101000Y-99386000D01*
X171831000Y-102415052D02*
X172666948Y-102415052D01*
X171831000Y-102415052D02*
X169499853Y-104746199D01*
X171831000Y-99386000D02*
X171831000Y-102415052D01*
X169499853Y-104746199D02*
X169199854Y-105046198D01*
X132588000Y-105156000D02*
X129121000Y-105156000D01*
X129121000Y-105156000D02*
X127381000Y-106896000D01*
X127381000Y-106896000D02*
X127381000Y-108386000D01*
X132588000Y-105156000D02*
X130391000Y-105156000D01*
X130391000Y-105156000D02*
X128651000Y-106896000D01*
X128651000Y-106896000D02*
X128651000Y-108386000D01*
X130391000Y-105156000D02*
X129921000Y-105626000D01*
X129921000Y-105626000D02*
X129921000Y-106186000D01*
X129921000Y-106186000D02*
X129921000Y-108386000D01*
X132221000Y-105156000D02*
X132588000Y-105156000D01*
X131191000Y-106186000D02*
X132221000Y-105156000D01*
X131191000Y-108386000D02*
X131191000Y-106186000D01*
X171271000Y-99386000D02*
X170561000Y-99386000D01*
X160782000Y-96520000D02*
X160401000Y-96901000D01*
X160401000Y-96901000D02*
X160401000Y-99386000D01*
X162306000Y-96520000D02*
X160782000Y-96520000D01*
X162306000Y-96520000D02*
X161881736Y-96520000D01*
X161881736Y-96520000D02*
X161671000Y-96730736D01*
X161671000Y-96730736D02*
X161671000Y-97186000D01*
X161671000Y-97186000D02*
X161671000Y-99386000D01*
X162306000Y-96520000D02*
X162941000Y-97155000D01*
X162941000Y-97155000D02*
X162941000Y-99386000D01*
X162306000Y-96520000D02*
X163830000Y-96520000D01*
X163830000Y-96520000D02*
X164211000Y-96901000D01*
X164211000Y-96901000D02*
X164211000Y-99386000D01*
X140970000Y-105410000D02*
X141351000Y-105791000D01*
X141351000Y-105791000D02*
X141351000Y-108386000D01*
X139700000Y-105410000D02*
X140970000Y-105410000D01*
X139700000Y-105410000D02*
X140081000Y-105791000D01*
X140081000Y-105791000D02*
X140081000Y-108386000D01*
X138430000Y-105410000D02*
X139700000Y-105410000D01*
X136765000Y-105410000D02*
X138430000Y-105410000D01*
X138430000Y-105410000D02*
X138811000Y-105791000D01*
X138811000Y-105791000D02*
X138811000Y-108386000D01*
X136765000Y-105410000D02*
X135510988Y-104155988D01*
X137541000Y-106186000D02*
X136765000Y-105410000D01*
X137541000Y-108386000D02*
X137541000Y-106186000D01*
X123952000Y-100277002D02*
X123952000Y-99738264D01*
X127830986Y-104155988D02*
X123952000Y-100277002D01*
X123952000Y-99738264D02*
X123952000Y-99314000D01*
X135510988Y-104155988D02*
X127830986Y-104155988D01*
X162306000Y-89916000D02*
X162306000Y-96520000D01*
X152527000Y-96901000D02*
X152781000Y-97155000D01*
X152781000Y-97155000D02*
X152781000Y-99386000D01*
X151511000Y-96901000D02*
X152527000Y-96901000D01*
X150876000Y-96266000D02*
X151511000Y-96901000D01*
X151511000Y-96901000D02*
X151511000Y-99386000D01*
X149225000Y-96901000D02*
X148971000Y-97155000D01*
X148971000Y-97155000D02*
X148971000Y-99386000D01*
X150241000Y-96901000D02*
X149225000Y-96901000D01*
X150876000Y-96266000D02*
X150241000Y-96901000D01*
X150241000Y-96901000D02*
X150241000Y-99386000D01*
X150876000Y-89916000D02*
X150876000Y-96266000D01*
X151130000Y-105664000D02*
X152400000Y-105664000D01*
X152400000Y-105664000D02*
X152781000Y-106045000D01*
X152781000Y-106045000D02*
X152781000Y-108386000D01*
X151130000Y-105664000D02*
X151511000Y-106045000D01*
X151511000Y-106045000D02*
X151511000Y-108386000D01*
X150241000Y-105664000D02*
X151130000Y-105664000D01*
X150241000Y-105664000D02*
X149493000Y-105664000D01*
X149493000Y-105664000D02*
X148971000Y-106186000D01*
X148971000Y-106186000D02*
X148971000Y-108386000D01*
X150241000Y-105664000D02*
X150241000Y-104175042D01*
X150241000Y-108386000D02*
X150241000Y-105664000D01*
X151511000Y-101884401D02*
X151678228Y-102051629D01*
X150576001Y-103840041D02*
X150876000Y-103540042D01*
X151511000Y-99386000D02*
X151511000Y-101884401D01*
X150241000Y-104175042D02*
X150576001Y-103840041D01*
X148971000Y-108386000D02*
X152781000Y-108386000D01*
X175641000Y-89916000D02*
X175641000Y-92616000D01*
X175641000Y-92616000D02*
X175641000Y-99386000D01*
X169291000Y-89916000D02*
X169291000Y-99386000D01*
X125938001Y-96057999D02*
X126238000Y-95758000D01*
X123351998Y-98644002D02*
X125938001Y-96057999D01*
X123351998Y-100745998D02*
X123351998Y-98644002D01*
X127161999Y-104555999D02*
X123351998Y-100745998D01*
X132876002Y-104555998D02*
X127161999Y-104555999D01*
X133731000Y-105410996D02*
X132876002Y-104555998D01*
X133731000Y-108386000D02*
X133731000Y-105410996D01*
X168021000Y-89916000D02*
X168021000Y-96012000D01*
X168021000Y-96012000D02*
X168021000Y-99386000D01*
X166751000Y-89916000D02*
X166751000Y-99386000D01*
X165481000Y-89916000D02*
X165481000Y-99386000D01*
X142956001Y-104440051D02*
X143256000Y-104140052D01*
X142621000Y-104775052D02*
X142956001Y-104440051D01*
X142621000Y-108386000D02*
X142621000Y-104775052D01*
X158750000Y-103378000D02*
X159131000Y-102997000D01*
X159131000Y-102997000D02*
X159131000Y-99386000D01*
X159131000Y-89916000D02*
X159131000Y-92616000D01*
X159131000Y-92616000D02*
X159131000Y-99386000D01*
X157861000Y-89916000D02*
X157861000Y-99386000D01*
X156591000Y-89916000D02*
X156591000Y-92616000D01*
X156591000Y-92616000D02*
X156591000Y-99386000D01*
X146431000Y-106531338D02*
X150422309Y-102540029D01*
X155321000Y-101586000D02*
X155321000Y-99386000D01*
X150422309Y-102540029D02*
X151329691Y-102540029D01*
X151329691Y-102540029D02*
X151497663Y-102708001D01*
X154198999Y-102708001D02*
X155321000Y-101586000D01*
X146431000Y-108386000D02*
X146431000Y-106531338D01*
X151497663Y-102708001D02*
X154198999Y-102708001D01*
X155321000Y-89916000D02*
X155321000Y-99386000D01*
X151601962Y-103378000D02*
X153499736Y-103378000D01*
X153499736Y-103378000D02*
X153924000Y-103378000D01*
X150587998Y-102940040D02*
X151164002Y-102940040D01*
X147701000Y-108386000D02*
X147701000Y-105827038D01*
X147701000Y-105827038D02*
X150587998Y-102940040D01*
X151164002Y-102940040D02*
X151601962Y-103378000D01*
X153924000Y-102108000D02*
X153924000Y-99513000D01*
X153924000Y-99513000D02*
X154051000Y-99386000D01*
X154051000Y-89916000D02*
X154051000Y-92616000D01*
X154051000Y-92616000D02*
X154051000Y-99386000D01*
X152840283Y-105064203D02*
X152416019Y-105064203D01*
X152929203Y-105064203D02*
X152840283Y-105064203D01*
X154051000Y-106186000D02*
X152929203Y-105064203D01*
X154051000Y-108386000D02*
X154051000Y-106186000D01*
X147066000Y-104902000D02*
X147066000Y-104477736D01*
X147066000Y-104477736D02*
X147701000Y-103842736D01*
X147701000Y-103842736D02*
X147701000Y-101586000D01*
X147701000Y-101586000D02*
X147701000Y-99386000D01*
X147701000Y-89916000D02*
X147701000Y-99386000D01*
X154731999Y-105455993D02*
X154432000Y-105155994D01*
X155321000Y-106044994D02*
X154731999Y-105455993D01*
X155321000Y-108386000D02*
X155321000Y-106044994D01*
X146050000Y-104902000D02*
X146431000Y-104521000D01*
X146431000Y-104521000D02*
X146431000Y-99386000D01*
X146431000Y-89916000D02*
X146431000Y-92616000D01*
X146431000Y-92616000D02*
X146431000Y-99386000D01*
X156509999Y-105455999D02*
X156210000Y-105156000D01*
X156591000Y-105537000D02*
X156509999Y-105455999D01*
X156591000Y-108386000D02*
X156591000Y-105537000D01*
X145034000Y-104902000D02*
X145034000Y-99513000D01*
X145034000Y-99513000D02*
X145161000Y-99386000D01*
X145161000Y-89916000D02*
X145161000Y-99386000D01*
X157861000Y-105282988D02*
X157734012Y-105156000D01*
X157861000Y-108386000D02*
X157861000Y-105282988D01*
X144018000Y-104902000D02*
X144018000Y-99513000D01*
X144018000Y-99513000D02*
X143891000Y-99386000D01*
X143891000Y-89916000D02*
X143891000Y-99386000D01*
X166624000Y-103124000D02*
X166624000Y-108259000D01*
X166624000Y-108259000D02*
X166751000Y-108386000D01*
X135001000Y-99386000D02*
X135001000Y-101586000D01*
X135001000Y-101586000D02*
X136285000Y-102870000D01*
X136285000Y-102870000D02*
X136398000Y-102870000D01*
X135001000Y-89916000D02*
X135001000Y-99386000D01*
X133731000Y-99386000D02*
X133731000Y-101981000D01*
X133731000Y-101981000D02*
X133858000Y-102108000D01*
X168021000Y-108386000D02*
X168021000Y-102997006D01*
X167685993Y-102661999D02*
X167385994Y-102362000D01*
X168021000Y-102997006D02*
X167685993Y-102661999D01*
X133731000Y-89916000D02*
X133731000Y-92616000D01*
X133731000Y-92616000D02*
X133731000Y-99386000D01*
X136271000Y-89916000D02*
X136271000Y-94996000D01*
X136271000Y-94996000D02*
X136271000Y-99386000D01*
X139446000Y-94996000D02*
X136271000Y-94996000D01*
X142621000Y-94996000D02*
X142621000Y-99386000D01*
X142621000Y-92616000D02*
X142621000Y-94996000D01*
X139446000Y-89916000D02*
X139446000Y-94996000D01*
X142621000Y-94996000D02*
X139446000Y-94996000D01*
X139446000Y-94996000D02*
X139446000Y-96266000D01*
X140081000Y-96901000D02*
X141066000Y-96901000D01*
X141066000Y-96901000D02*
X141351000Y-97186000D01*
X141351000Y-97186000D02*
X141351000Y-99386000D01*
X137795000Y-96901000D02*
X137541000Y-97155000D01*
X137541000Y-97155000D02*
X137541000Y-99386000D01*
X138811000Y-96901000D02*
X137795000Y-96901000D01*
X139446000Y-96266000D02*
X138811000Y-96901000D01*
X138811000Y-96901000D02*
X138811000Y-99386000D01*
X139446000Y-96266000D02*
X140081000Y-96901000D01*
X140081000Y-96901000D02*
X140081000Y-99386000D01*
X159512000Y-105664000D02*
X159131000Y-106045000D01*
X159131000Y-106045000D02*
X159131000Y-108386000D01*
X160782000Y-105664000D02*
X159512000Y-105664000D01*
X160782000Y-105664000D02*
X160401000Y-106045000D01*
X160401000Y-106045000D02*
X160401000Y-108386000D01*
X162306000Y-105664000D02*
X162193000Y-105664000D01*
X163068000Y-105664000D02*
X162306000Y-105664000D01*
X162306000Y-105664000D02*
X160782000Y-105664000D01*
X162193000Y-105664000D02*
X161671000Y-106186000D01*
X161671000Y-106186000D02*
X161671000Y-108386000D01*
X163830000Y-105664000D02*
X164959000Y-105664000D01*
X164959000Y-105664000D02*
X165481000Y-106186000D01*
X165481000Y-106186000D02*
X165481000Y-108386000D01*
X163068000Y-105664000D02*
X163830000Y-105664000D01*
X163830000Y-105664000D02*
X164211000Y-106045000D01*
X164211000Y-106045000D02*
X164211000Y-108386000D01*
X163068000Y-105664000D02*
X163068000Y-108259000D01*
X163068000Y-108259000D02*
X162941000Y-108386000D01*
X142621000Y-95284990D02*
X142956001Y-94949989D01*
X142956001Y-94949989D02*
X143256000Y-94649990D01*
X142621000Y-99386000D02*
X142621000Y-95284990D01*
X164211000Y-108386000D02*
X164211000Y-109876000D01*
X142621000Y-89916000D02*
X142621000Y-92616000D01*
X138811000Y-98826000D02*
X138811000Y-99386000D01*
X127381000Y-96170000D02*
X127508000Y-96170000D01*
X126111000Y-89916000D02*
X126111000Y-94773000D01*
X127508000Y-96170000D02*
X128651000Y-96170000D01*
X126111000Y-94773000D02*
X127508000Y-96170000D01*
X129286000Y-89916000D02*
X129286000Y-94742000D01*
X129286000Y-94742000D02*
X129286000Y-95535000D01*
X132461000Y-94615000D02*
X129413000Y-94615000D01*
X129413000Y-94615000D02*
X129286000Y-94742000D01*
X129286000Y-95535000D02*
X129571000Y-95535000D01*
X129571000Y-95535000D02*
X129921000Y-95885000D01*
X131191000Y-99386000D02*
X131191000Y-97155000D01*
X131191000Y-97155000D02*
X129921000Y-95885000D01*
X129921000Y-95885000D02*
X129921000Y-99386000D01*
X129286000Y-95535000D02*
X128651000Y-96170000D01*
X128651000Y-96170000D02*
X128651000Y-99386000D01*
X127381000Y-96170000D02*
X127285000Y-96266000D01*
X127285000Y-96266000D02*
X127254000Y-96266000D01*
X127254000Y-96266000D02*
X126111000Y-97409000D01*
X126111000Y-97409000D02*
X126111000Y-99386000D01*
X127381000Y-96170000D02*
X127381000Y-99386000D01*
X132461000Y-92616000D02*
X132461000Y-93980000D01*
X132461000Y-93980000D02*
X132461000Y-99386000D01*
X169545000Y-105537000D02*
X169291000Y-105791000D01*
X169291000Y-105791000D02*
X169291000Y-108386000D01*
X171069000Y-105537000D02*
X169545000Y-105537000D01*
X171831000Y-105537000D02*
X171069000Y-105537000D01*
X171069000Y-105537000D02*
X170561000Y-106045000D01*
X170561000Y-106045000D02*
X170561000Y-108386000D01*
X173990006Y-105156000D02*
X172212000Y-105156000D01*
X172212000Y-105156000D02*
X171831000Y-105537000D01*
X171831000Y-105537000D02*
X171831000Y-108386000D01*
X173101000Y-106045006D02*
X173690007Y-105455999D01*
X173101000Y-108386000D02*
X173101000Y-106045006D01*
X173990000Y-105072264D02*
X173990000Y-105155994D01*
X173990000Y-105155994D02*
X173990006Y-105156000D01*
X173690007Y-105455999D02*
X173990006Y-105156000D01*
X173990000Y-105072264D02*
X174371000Y-105453264D01*
X174371000Y-105453264D02*
X174371000Y-108386000D01*
X175641000Y-108386000D02*
X175641000Y-106045000D01*
X175641000Y-106045000D02*
X174668264Y-105072264D01*
X174668264Y-105072264D02*
X173990000Y-105072264D01*
X126111000Y-97896000D02*
X126111000Y-99386000D01*
X132796001Y-94279999D02*
X133096000Y-93980000D01*
X132461000Y-94615000D02*
X132796001Y-94279999D01*
X132461000Y-99386000D02*
X132461000Y-94615000D01*
X132461000Y-89916000D02*
X132461000Y-92616000D01*
M02*
