G04 #@! TF.FileFunction,Legend,Bot*
%FSLAX46Y46*%
G04 Gerber Fmt 4.6, Leading zero omitted, Abs format (unit mm)*
G04 Created by KiCad (PCBNEW 4.0.7) date Mon Dec  4 21:54:59 2017*
%MOMM*%
%LPD*%
G01*
G04 APERTURE LIST*
%ADD10C,0.100000*%
%ADD11C,0.300000*%
%ADD12C,0.010000*%
G04 APERTURE END LIST*
D10*
D11*
X170340287Y-102548571D02*
X170340287Y-103762857D01*
X170411716Y-103905714D01*
X170483144Y-103977143D01*
X170626001Y-104048571D01*
X170840287Y-104048571D01*
X170983144Y-103977143D01*
X170340287Y-103477143D02*
X170483144Y-103548571D01*
X170768858Y-103548571D01*
X170911716Y-103477143D01*
X170983144Y-103405714D01*
X171054573Y-103262857D01*
X171054573Y-102834286D01*
X170983144Y-102691429D01*
X170911716Y-102620000D01*
X170768858Y-102548571D01*
X170483144Y-102548571D01*
X170340287Y-102620000D01*
X169626001Y-103548571D02*
X169626001Y-102548571D01*
X169626001Y-102048571D02*
X169697430Y-102120000D01*
X169626001Y-102191429D01*
X169554573Y-102120000D01*
X169626001Y-102048571D01*
X169626001Y-102191429D01*
X169126001Y-102548571D02*
X168554572Y-102548571D01*
X168911715Y-102048571D02*
X168911715Y-103334286D01*
X168840287Y-103477143D01*
X168697429Y-103548571D01*
X168554572Y-103548571D01*
X168054572Y-103548571D02*
X168054572Y-102048571D01*
X167411715Y-103548571D02*
X167411715Y-102762857D01*
X167483144Y-102620000D01*
X167626001Y-102548571D01*
X167840286Y-102548571D01*
X167983144Y-102620000D01*
X168054572Y-102691429D01*
X166054572Y-102548571D02*
X166054572Y-103548571D01*
X166697429Y-102548571D02*
X166697429Y-103334286D01*
X166626001Y-103477143D01*
X166483143Y-103548571D01*
X166268858Y-103548571D01*
X166126001Y-103477143D01*
X166054572Y-103405714D01*
X165340286Y-103548571D02*
X165340286Y-102048571D01*
X165340286Y-102620000D02*
X165197429Y-102548571D01*
X164911715Y-102548571D01*
X164768858Y-102620000D01*
X164697429Y-102691429D01*
X164626000Y-102834286D01*
X164626000Y-103262857D01*
X164697429Y-103405714D01*
X164768858Y-103477143D01*
X164911715Y-103548571D01*
X165197429Y-103548571D01*
X165340286Y-103477143D01*
X163983143Y-103405714D02*
X163911715Y-103477143D01*
X163983143Y-103548571D01*
X164054572Y-103477143D01*
X163983143Y-103405714D01*
X163983143Y-103548571D01*
X162626000Y-103477143D02*
X162768857Y-103548571D01*
X163054571Y-103548571D01*
X163197429Y-103477143D01*
X163268857Y-103405714D01*
X163340286Y-103262857D01*
X163340286Y-102834286D01*
X163268857Y-102691429D01*
X163197429Y-102620000D01*
X163054571Y-102548571D01*
X162768857Y-102548571D01*
X162626000Y-102620000D01*
X161768857Y-103548571D02*
X161911715Y-103477143D01*
X161983143Y-103405714D01*
X162054572Y-103262857D01*
X162054572Y-102834286D01*
X161983143Y-102691429D01*
X161911715Y-102620000D01*
X161768857Y-102548571D01*
X161554572Y-102548571D01*
X161411715Y-102620000D01*
X161340286Y-102691429D01*
X161268857Y-102834286D01*
X161268857Y-103262857D01*
X161340286Y-103405714D01*
X161411715Y-103477143D01*
X161554572Y-103548571D01*
X161768857Y-103548571D01*
X160626000Y-103548571D02*
X160626000Y-102548571D01*
X160626000Y-102691429D02*
X160554572Y-102620000D01*
X160411714Y-102548571D01*
X160197429Y-102548571D01*
X160054572Y-102620000D01*
X159983143Y-102762857D01*
X159983143Y-103548571D01*
X159983143Y-102762857D02*
X159911714Y-102620000D01*
X159768857Y-102548571D01*
X159554572Y-102548571D01*
X159411714Y-102620000D01*
X159340286Y-102762857D01*
X159340286Y-103548571D01*
X157554572Y-101977143D02*
X158840286Y-103905714D01*
X157054571Y-102548571D02*
X157054571Y-103834286D01*
X157126000Y-103977143D01*
X157268857Y-104048571D01*
X157340285Y-104048571D01*
X157054571Y-102048571D02*
X157126000Y-102120000D01*
X157054571Y-102191429D01*
X156983143Y-102120000D01*
X157054571Y-102048571D01*
X157054571Y-102191429D01*
X156340285Y-103548571D02*
X156340285Y-102548571D01*
X156340285Y-102048571D02*
X156411714Y-102120000D01*
X156340285Y-102191429D01*
X156268857Y-102120000D01*
X156340285Y-102048571D01*
X156340285Y-102191429D01*
X155625999Y-103548571D02*
X155625999Y-102548571D01*
X155625999Y-102691429D02*
X155554571Y-102620000D01*
X155411713Y-102548571D01*
X155197428Y-102548571D01*
X155054571Y-102620000D01*
X154983142Y-102762857D01*
X154983142Y-103548571D01*
X154983142Y-102762857D02*
X154911713Y-102620000D01*
X154768856Y-102548571D01*
X154554571Y-102548571D01*
X154411713Y-102620000D01*
X154340285Y-102762857D01*
X154340285Y-103548571D01*
X153625999Y-103548571D02*
X153625999Y-102548571D01*
X153625999Y-102691429D02*
X153554571Y-102620000D01*
X153411713Y-102548571D01*
X153197428Y-102548571D01*
X153054571Y-102620000D01*
X152983142Y-102762857D01*
X152983142Y-103548571D01*
X152983142Y-102762857D02*
X152911713Y-102620000D01*
X152768856Y-102548571D01*
X152554571Y-102548571D01*
X152411713Y-102620000D01*
X152340285Y-102762857D01*
X152340285Y-103548571D01*
X151411713Y-103548571D02*
X151554571Y-103477143D01*
X151625999Y-103405714D01*
X151697428Y-103262857D01*
X151697428Y-102834286D01*
X151625999Y-102691429D01*
X151554571Y-102620000D01*
X151411713Y-102548571D01*
X151197428Y-102548571D01*
X151054571Y-102620000D01*
X150983142Y-102691429D01*
X150911713Y-102834286D01*
X150911713Y-103262857D01*
X150983142Y-103405714D01*
X151054571Y-103477143D01*
X151197428Y-103548571D01*
X151411713Y-103548571D01*
X149197428Y-101977143D02*
X150483142Y-103905714D01*
X148697427Y-103548571D02*
X148697427Y-102548571D01*
X148697427Y-102691429D02*
X148625999Y-102620000D01*
X148483141Y-102548571D01*
X148268856Y-102548571D01*
X148125999Y-102620000D01*
X148054570Y-102762857D01*
X148054570Y-103548571D01*
X148054570Y-102762857D02*
X147983141Y-102620000D01*
X147840284Y-102548571D01*
X147625999Y-102548571D01*
X147483141Y-102620000D01*
X147411713Y-102762857D01*
X147411713Y-103548571D01*
X146697427Y-103548571D02*
X146697427Y-102548571D01*
X146697427Y-102048571D02*
X146768856Y-102120000D01*
X146697427Y-102191429D01*
X146625999Y-102120000D01*
X146697427Y-102048571D01*
X146697427Y-102191429D01*
X145340284Y-103477143D02*
X145483141Y-103548571D01*
X145768855Y-103548571D01*
X145911713Y-103477143D01*
X145983141Y-103405714D01*
X146054570Y-103262857D01*
X146054570Y-102834286D01*
X145983141Y-102691429D01*
X145911713Y-102620000D01*
X145768855Y-102548571D01*
X145483141Y-102548571D01*
X145340284Y-102620000D01*
X144697427Y-103548571D02*
X144697427Y-102548571D01*
X144697427Y-102834286D02*
X144625999Y-102691429D01*
X144554570Y-102620000D01*
X144411713Y-102548571D01*
X144268856Y-102548571D01*
X143554570Y-103548571D02*
X143697428Y-103477143D01*
X143768856Y-103405714D01*
X143840285Y-103262857D01*
X143840285Y-102834286D01*
X143768856Y-102691429D01*
X143697428Y-102620000D01*
X143554570Y-102548571D01*
X143340285Y-102548571D01*
X143197428Y-102620000D01*
X143125999Y-102691429D01*
X143054570Y-102834286D01*
X143054570Y-103262857D01*
X143125999Y-103405714D01*
X143197428Y-103477143D01*
X143340285Y-103548571D01*
X143554570Y-103548571D01*
X142411713Y-103548571D02*
X142411713Y-102048571D01*
X142411713Y-102620000D02*
X142268856Y-102548571D01*
X141983142Y-102548571D01*
X141840285Y-102620000D01*
X141768856Y-102691429D01*
X141697427Y-102834286D01*
X141697427Y-103262857D01*
X141768856Y-103405714D01*
X141840285Y-103477143D01*
X141983142Y-103548571D01*
X142268856Y-103548571D01*
X142411713Y-103477143D01*
X141054570Y-103548571D02*
X141054570Y-102548571D01*
X141054570Y-102048571D02*
X141125999Y-102120000D01*
X141054570Y-102191429D01*
X140983142Y-102120000D01*
X141054570Y-102048571D01*
X141054570Y-102191429D01*
X140554570Y-102548571D02*
X139983141Y-102548571D01*
X140340284Y-102048571D02*
X140340284Y-103334286D01*
X140268856Y-103477143D01*
X140125998Y-103548571D01*
X139983141Y-103548571D01*
X139483141Y-102977143D02*
X138340284Y-102977143D01*
X137625998Y-103548571D02*
X137625998Y-102048571D01*
X137625998Y-102620000D02*
X137483141Y-102548571D01*
X137197427Y-102548571D01*
X137054570Y-102620000D01*
X136983141Y-102691429D01*
X136911712Y-102834286D01*
X136911712Y-103262857D01*
X136983141Y-103405714D01*
X137054570Y-103477143D01*
X137197427Y-103548571D01*
X137483141Y-103548571D01*
X137625998Y-103477143D01*
X136054569Y-103548571D02*
X136197427Y-103477143D01*
X136268855Y-103405714D01*
X136340284Y-103262857D01*
X136340284Y-102834286D01*
X136268855Y-102691429D01*
X136197427Y-102620000D01*
X136054569Y-102548571D01*
X135840284Y-102548571D01*
X135697427Y-102620000D01*
X135625998Y-102691429D01*
X135554569Y-102834286D01*
X135554569Y-103262857D01*
X135625998Y-103405714D01*
X135697427Y-103477143D01*
X135840284Y-103548571D01*
X136054569Y-103548571D01*
X134268855Y-103548571D02*
X134268855Y-102762857D01*
X134340284Y-102620000D01*
X134483141Y-102548571D01*
X134768855Y-102548571D01*
X134911712Y-102620000D01*
X134268855Y-103477143D02*
X134411712Y-103548571D01*
X134768855Y-103548571D01*
X134911712Y-103477143D01*
X134983141Y-103334286D01*
X134983141Y-103191429D01*
X134911712Y-103048571D01*
X134768855Y-102977143D01*
X134411712Y-102977143D01*
X134268855Y-102905714D01*
X133554569Y-103548571D02*
X133554569Y-102548571D01*
X133554569Y-102834286D02*
X133483141Y-102691429D01*
X133411712Y-102620000D01*
X133268855Y-102548571D01*
X133125998Y-102548571D01*
X131983141Y-103548571D02*
X131983141Y-102048571D01*
X131983141Y-103477143D02*
X132125998Y-103548571D01*
X132411712Y-103548571D01*
X132554570Y-103477143D01*
X132625998Y-103405714D01*
X132697427Y-103262857D01*
X132697427Y-102834286D01*
X132625998Y-102691429D01*
X132554570Y-102620000D01*
X132411712Y-102548571D01*
X132125998Y-102548571D01*
X131983141Y-102620000D01*
X131340284Y-103477143D02*
X131197427Y-103548571D01*
X130911712Y-103548571D01*
X130768855Y-103477143D01*
X130697427Y-103334286D01*
X130697427Y-103262857D01*
X130768855Y-103120000D01*
X130911712Y-103048571D01*
X131125998Y-103048571D01*
X131268855Y-102977143D01*
X131340284Y-102834286D01*
X131340284Y-102762857D01*
X131268855Y-102620000D01*
X131125998Y-102548571D01*
X130911712Y-102548571D01*
X130768855Y-102620000D01*
D12*
G36*
X176644256Y-110123918D02*
X176588799Y-110151568D01*
X176539852Y-110202480D01*
X176526371Y-110221338D01*
X176511686Y-110246015D01*
X176502158Y-110272816D01*
X176496707Y-110308587D01*
X176494253Y-110360169D01*
X176493714Y-110428267D01*
X176496148Y-110521588D01*
X176504606Y-110591657D01*
X176520826Y-110643931D01*
X176546546Y-110683869D01*
X176583503Y-110716929D01*
X176586218Y-110718886D01*
X176622640Y-110738908D01*
X176666498Y-110748815D01*
X176722276Y-110751257D01*
X176812952Y-110751257D01*
X176812990Y-110839283D01*
X176813834Y-110888308D01*
X176818976Y-110917065D01*
X176832413Y-110934311D01*
X176858142Y-110948808D01*
X176864321Y-110951769D01*
X176893236Y-110965648D01*
X176915624Y-110974414D01*
X176932271Y-110975171D01*
X176943964Y-110965023D01*
X176951490Y-110941073D01*
X176955634Y-110900426D01*
X176957185Y-110840186D01*
X176956929Y-110757455D01*
X176955651Y-110649339D01*
X176955252Y-110617000D01*
X176953815Y-110505524D01*
X176952528Y-110432603D01*
X176813029Y-110432603D01*
X176812245Y-110494499D01*
X176808760Y-110534997D01*
X176800876Y-110561708D01*
X176786895Y-110582244D01*
X176777403Y-110592260D01*
X176738596Y-110621567D01*
X176704237Y-110623952D01*
X176668784Y-110599750D01*
X176667886Y-110598857D01*
X176653461Y-110580153D01*
X176644687Y-110554732D01*
X176640261Y-110515584D01*
X176638882Y-110455697D01*
X176638857Y-110442430D01*
X176642188Y-110359901D01*
X176653031Y-110302691D01*
X176672660Y-110267766D01*
X176702350Y-110252094D01*
X176719509Y-110250514D01*
X176760234Y-110257926D01*
X176788168Y-110282330D01*
X176804983Y-110326980D01*
X176812350Y-110395130D01*
X176813029Y-110432603D01*
X176952528Y-110432603D01*
X176952292Y-110419245D01*
X176950323Y-110354333D01*
X176947550Y-110306958D01*
X176943612Y-110273290D01*
X176938151Y-110249498D01*
X176930808Y-110231753D01*
X176921223Y-110216224D01*
X176917113Y-110210381D01*
X176862595Y-110155185D01*
X176793664Y-110123890D01*
X176713928Y-110115165D01*
X176644256Y-110123918D01*
X176644256Y-110123918D01*
G37*
X176644256Y-110123918D02*
X176588799Y-110151568D01*
X176539852Y-110202480D01*
X176526371Y-110221338D01*
X176511686Y-110246015D01*
X176502158Y-110272816D01*
X176496707Y-110308587D01*
X176494253Y-110360169D01*
X176493714Y-110428267D01*
X176496148Y-110521588D01*
X176504606Y-110591657D01*
X176520826Y-110643931D01*
X176546546Y-110683869D01*
X176583503Y-110716929D01*
X176586218Y-110718886D01*
X176622640Y-110738908D01*
X176666498Y-110748815D01*
X176722276Y-110751257D01*
X176812952Y-110751257D01*
X176812990Y-110839283D01*
X176813834Y-110888308D01*
X176818976Y-110917065D01*
X176832413Y-110934311D01*
X176858142Y-110948808D01*
X176864321Y-110951769D01*
X176893236Y-110965648D01*
X176915624Y-110974414D01*
X176932271Y-110975171D01*
X176943964Y-110965023D01*
X176951490Y-110941073D01*
X176955634Y-110900426D01*
X176957185Y-110840186D01*
X176956929Y-110757455D01*
X176955651Y-110649339D01*
X176955252Y-110617000D01*
X176953815Y-110505524D01*
X176952528Y-110432603D01*
X176813029Y-110432603D01*
X176812245Y-110494499D01*
X176808760Y-110534997D01*
X176800876Y-110561708D01*
X176786895Y-110582244D01*
X176777403Y-110592260D01*
X176738596Y-110621567D01*
X176704237Y-110623952D01*
X176668784Y-110599750D01*
X176667886Y-110598857D01*
X176653461Y-110580153D01*
X176644687Y-110554732D01*
X176640261Y-110515584D01*
X176638882Y-110455697D01*
X176638857Y-110442430D01*
X176642188Y-110359901D01*
X176653031Y-110302691D01*
X176672660Y-110267766D01*
X176702350Y-110252094D01*
X176719509Y-110250514D01*
X176760234Y-110257926D01*
X176788168Y-110282330D01*
X176804983Y-110326980D01*
X176812350Y-110395130D01*
X176813029Y-110432603D01*
X176952528Y-110432603D01*
X176952292Y-110419245D01*
X176950323Y-110354333D01*
X176947550Y-110306958D01*
X176943612Y-110273290D01*
X176938151Y-110249498D01*
X176930808Y-110231753D01*
X176921223Y-110216224D01*
X176917113Y-110210381D01*
X176862595Y-110155185D01*
X176793664Y-110123890D01*
X176713928Y-110115165D01*
X176644256Y-110123918D01*
G36*
X175527907Y-110131780D02*
X175481328Y-110158723D01*
X175448943Y-110185466D01*
X175425258Y-110213484D01*
X175408941Y-110247748D01*
X175398661Y-110293227D01*
X175393086Y-110354892D01*
X175390884Y-110437711D01*
X175390629Y-110497246D01*
X175390629Y-110716391D01*
X175452314Y-110744044D01*
X175514000Y-110771697D01*
X175521257Y-110531670D01*
X175524256Y-110442028D01*
X175527402Y-110376962D01*
X175531299Y-110332026D01*
X175536553Y-110302770D01*
X175543769Y-110284748D01*
X175553550Y-110273511D01*
X175556688Y-110271079D01*
X175604239Y-110252083D01*
X175652303Y-110259600D01*
X175680914Y-110279543D01*
X175692553Y-110293675D01*
X175700609Y-110312220D01*
X175705729Y-110340334D01*
X175708559Y-110383173D01*
X175709744Y-110445895D01*
X175709943Y-110511261D01*
X175709982Y-110593268D01*
X175711386Y-110651316D01*
X175716086Y-110690465D01*
X175726013Y-110715780D01*
X175743097Y-110732323D01*
X175769268Y-110745156D01*
X175804225Y-110758491D01*
X175842404Y-110773007D01*
X175837859Y-110515389D01*
X175836029Y-110422519D01*
X175833888Y-110353889D01*
X175830819Y-110304711D01*
X175826206Y-110270198D01*
X175819432Y-110245562D01*
X175809881Y-110226016D01*
X175798366Y-110208770D01*
X175742810Y-110153680D01*
X175675020Y-110121822D01*
X175601287Y-110114191D01*
X175527907Y-110131780D01*
X175527907Y-110131780D01*
G37*
X175527907Y-110131780D02*
X175481328Y-110158723D01*
X175448943Y-110185466D01*
X175425258Y-110213484D01*
X175408941Y-110247748D01*
X175398661Y-110293227D01*
X175393086Y-110354892D01*
X175390884Y-110437711D01*
X175390629Y-110497246D01*
X175390629Y-110716391D01*
X175452314Y-110744044D01*
X175514000Y-110771697D01*
X175521257Y-110531670D01*
X175524256Y-110442028D01*
X175527402Y-110376962D01*
X175531299Y-110332026D01*
X175536553Y-110302770D01*
X175543769Y-110284748D01*
X175553550Y-110273511D01*
X175556688Y-110271079D01*
X175604239Y-110252083D01*
X175652303Y-110259600D01*
X175680914Y-110279543D01*
X175692553Y-110293675D01*
X175700609Y-110312220D01*
X175705729Y-110340334D01*
X175708559Y-110383173D01*
X175709744Y-110445895D01*
X175709943Y-110511261D01*
X175709982Y-110593268D01*
X175711386Y-110651316D01*
X175716086Y-110690465D01*
X175726013Y-110715780D01*
X175743097Y-110732323D01*
X175769268Y-110745156D01*
X175804225Y-110758491D01*
X175842404Y-110773007D01*
X175837859Y-110515389D01*
X175836029Y-110422519D01*
X175833888Y-110353889D01*
X175830819Y-110304711D01*
X175826206Y-110270198D01*
X175819432Y-110245562D01*
X175809881Y-110226016D01*
X175798366Y-110208770D01*
X175742810Y-110153680D01*
X175675020Y-110121822D01*
X175601287Y-110114191D01*
X175527907Y-110131780D01*
G36*
X177202885Y-110125962D02*
X177134855Y-110161733D01*
X177084649Y-110219301D01*
X177066815Y-110256312D01*
X177052937Y-110311882D01*
X177045833Y-110382096D01*
X177045160Y-110458727D01*
X177050573Y-110533552D01*
X177061730Y-110598342D01*
X177078286Y-110644873D01*
X177083374Y-110652887D01*
X177143645Y-110712707D01*
X177215231Y-110748535D01*
X177292908Y-110759020D01*
X177371452Y-110742810D01*
X177393311Y-110733092D01*
X177435878Y-110703143D01*
X177473237Y-110663433D01*
X177476768Y-110658397D01*
X177491119Y-110634124D01*
X177500606Y-110608178D01*
X177506210Y-110574022D01*
X177508914Y-110525119D01*
X177509701Y-110454935D01*
X177509714Y-110439200D01*
X177509678Y-110434192D01*
X177364571Y-110434192D01*
X177363727Y-110500430D01*
X177360404Y-110544386D01*
X177353417Y-110572779D01*
X177341584Y-110592325D01*
X177335543Y-110598857D01*
X177300814Y-110623680D01*
X177267097Y-110622548D01*
X177233005Y-110601016D01*
X177212671Y-110578029D01*
X177200629Y-110544478D01*
X177193866Y-110491569D01*
X177193402Y-110485399D01*
X177192248Y-110389513D01*
X177204312Y-110318299D01*
X177229430Y-110272194D01*
X177267440Y-110251635D01*
X177281008Y-110250514D01*
X177316636Y-110256152D01*
X177341006Y-110275686D01*
X177355907Y-110313042D01*
X177363125Y-110372150D01*
X177364571Y-110434192D01*
X177509678Y-110434192D01*
X177509174Y-110364413D01*
X177506904Y-110312159D01*
X177501932Y-110275949D01*
X177493287Y-110249299D01*
X177479995Y-110225722D01*
X177477057Y-110221338D01*
X177427687Y-110162249D01*
X177373891Y-110127947D01*
X177308398Y-110114331D01*
X177286158Y-110113665D01*
X177202885Y-110125962D01*
X177202885Y-110125962D01*
G37*
X177202885Y-110125962D02*
X177134855Y-110161733D01*
X177084649Y-110219301D01*
X177066815Y-110256312D01*
X177052937Y-110311882D01*
X177045833Y-110382096D01*
X177045160Y-110458727D01*
X177050573Y-110533552D01*
X177061730Y-110598342D01*
X177078286Y-110644873D01*
X177083374Y-110652887D01*
X177143645Y-110712707D01*
X177215231Y-110748535D01*
X177292908Y-110759020D01*
X177371452Y-110742810D01*
X177393311Y-110733092D01*
X177435878Y-110703143D01*
X177473237Y-110663433D01*
X177476768Y-110658397D01*
X177491119Y-110634124D01*
X177500606Y-110608178D01*
X177506210Y-110574022D01*
X177508914Y-110525119D01*
X177509701Y-110454935D01*
X177509714Y-110439200D01*
X177509678Y-110434192D01*
X177364571Y-110434192D01*
X177363727Y-110500430D01*
X177360404Y-110544386D01*
X177353417Y-110572779D01*
X177341584Y-110592325D01*
X177335543Y-110598857D01*
X177300814Y-110623680D01*
X177267097Y-110622548D01*
X177233005Y-110601016D01*
X177212671Y-110578029D01*
X177200629Y-110544478D01*
X177193866Y-110491569D01*
X177193402Y-110485399D01*
X177192248Y-110389513D01*
X177204312Y-110318299D01*
X177229430Y-110272194D01*
X177267440Y-110251635D01*
X177281008Y-110250514D01*
X177316636Y-110256152D01*
X177341006Y-110275686D01*
X177355907Y-110313042D01*
X177363125Y-110372150D01*
X177364571Y-110434192D01*
X177509678Y-110434192D01*
X177509174Y-110364413D01*
X177506904Y-110312159D01*
X177501932Y-110275949D01*
X177493287Y-110249299D01*
X177479995Y-110225722D01*
X177477057Y-110221338D01*
X177427687Y-110162249D01*
X177373891Y-110127947D01*
X177308398Y-110114331D01*
X177286158Y-110113665D01*
X177202885Y-110125962D01*
G36*
X176075697Y-110135239D02*
X176018473Y-110173735D01*
X175974251Y-110229335D01*
X175947833Y-110300086D01*
X175942490Y-110352162D01*
X175943097Y-110373893D01*
X175948178Y-110390531D01*
X175962145Y-110405437D01*
X175989411Y-110421973D01*
X176034388Y-110443498D01*
X176101489Y-110473374D01*
X176101829Y-110473524D01*
X176163593Y-110501813D01*
X176214241Y-110526933D01*
X176248596Y-110546179D01*
X176261482Y-110556848D01*
X176261486Y-110556934D01*
X176250128Y-110580166D01*
X176223569Y-110605774D01*
X176193077Y-110624221D01*
X176177630Y-110627886D01*
X176135485Y-110615212D01*
X176099192Y-110583471D01*
X176081483Y-110548572D01*
X176064448Y-110522845D01*
X176031078Y-110493546D01*
X175991851Y-110468235D01*
X175957244Y-110454471D01*
X175950007Y-110453714D01*
X175941861Y-110466160D01*
X175941370Y-110497972D01*
X175947357Y-110540866D01*
X175958643Y-110586558D01*
X175974050Y-110626761D01*
X175974829Y-110628322D01*
X176021196Y-110693062D01*
X176081289Y-110737097D01*
X176149535Y-110758711D01*
X176220362Y-110756185D01*
X176288196Y-110727804D01*
X176291212Y-110725808D01*
X176344573Y-110677448D01*
X176379660Y-110614352D01*
X176399078Y-110531387D01*
X176401684Y-110508078D01*
X176406299Y-110398055D01*
X176400767Y-110346748D01*
X176261486Y-110346748D01*
X176259676Y-110378753D01*
X176249778Y-110388093D01*
X176225102Y-110381105D01*
X176186205Y-110364587D01*
X176142725Y-110343881D01*
X176141644Y-110343333D01*
X176104791Y-110323949D01*
X176090000Y-110311013D01*
X176093647Y-110297451D01*
X176109005Y-110279632D01*
X176148077Y-110253845D01*
X176190154Y-110251950D01*
X176227897Y-110270717D01*
X176253966Y-110306915D01*
X176261486Y-110346748D01*
X176400767Y-110346748D01*
X176396806Y-110310027D01*
X176372450Y-110240212D01*
X176338544Y-110191302D01*
X176277347Y-110141878D01*
X176209937Y-110117359D01*
X176141120Y-110115797D01*
X176075697Y-110135239D01*
X176075697Y-110135239D01*
G37*
X176075697Y-110135239D02*
X176018473Y-110173735D01*
X175974251Y-110229335D01*
X175947833Y-110300086D01*
X175942490Y-110352162D01*
X175943097Y-110373893D01*
X175948178Y-110390531D01*
X175962145Y-110405437D01*
X175989411Y-110421973D01*
X176034388Y-110443498D01*
X176101489Y-110473374D01*
X176101829Y-110473524D01*
X176163593Y-110501813D01*
X176214241Y-110526933D01*
X176248596Y-110546179D01*
X176261482Y-110556848D01*
X176261486Y-110556934D01*
X176250128Y-110580166D01*
X176223569Y-110605774D01*
X176193077Y-110624221D01*
X176177630Y-110627886D01*
X176135485Y-110615212D01*
X176099192Y-110583471D01*
X176081483Y-110548572D01*
X176064448Y-110522845D01*
X176031078Y-110493546D01*
X175991851Y-110468235D01*
X175957244Y-110454471D01*
X175950007Y-110453714D01*
X175941861Y-110466160D01*
X175941370Y-110497972D01*
X175947357Y-110540866D01*
X175958643Y-110586558D01*
X175974050Y-110626761D01*
X175974829Y-110628322D01*
X176021196Y-110693062D01*
X176081289Y-110737097D01*
X176149535Y-110758711D01*
X176220362Y-110756185D01*
X176288196Y-110727804D01*
X176291212Y-110725808D01*
X176344573Y-110677448D01*
X176379660Y-110614352D01*
X176399078Y-110531387D01*
X176401684Y-110508078D01*
X176406299Y-110398055D01*
X176400767Y-110346748D01*
X176261486Y-110346748D01*
X176259676Y-110378753D01*
X176249778Y-110388093D01*
X176225102Y-110381105D01*
X176186205Y-110364587D01*
X176142725Y-110343881D01*
X176141644Y-110343333D01*
X176104791Y-110323949D01*
X176090000Y-110311013D01*
X176093647Y-110297451D01*
X176109005Y-110279632D01*
X176148077Y-110253845D01*
X176190154Y-110251950D01*
X176227897Y-110270717D01*
X176253966Y-110306915D01*
X176261486Y-110346748D01*
X176400767Y-110346748D01*
X176396806Y-110310027D01*
X176372450Y-110240212D01*
X176338544Y-110191302D01*
X176277347Y-110141878D01*
X176209937Y-110117359D01*
X176141120Y-110115797D01*
X176075697Y-110135239D01*
G36*
X174868114Y-110055289D02*
X174863861Y-110114613D01*
X174858975Y-110149572D01*
X174852205Y-110164820D01*
X174842298Y-110165015D01*
X174839086Y-110163195D01*
X174796356Y-110150015D01*
X174740773Y-110150785D01*
X174684263Y-110164333D01*
X174648918Y-110181861D01*
X174612679Y-110209861D01*
X174586187Y-110241549D01*
X174568001Y-110281813D01*
X174556678Y-110335543D01*
X174550778Y-110407626D01*
X174548857Y-110502951D01*
X174548823Y-110521237D01*
X174548800Y-110726646D01*
X174594509Y-110742580D01*
X174626973Y-110753420D01*
X174644785Y-110758468D01*
X174645309Y-110758514D01*
X174647063Y-110744828D01*
X174648556Y-110707076D01*
X174649674Y-110650224D01*
X174650303Y-110579234D01*
X174650400Y-110536073D01*
X174650602Y-110450973D01*
X174651642Y-110389981D01*
X174654169Y-110348177D01*
X174658836Y-110320642D01*
X174666293Y-110302456D01*
X174677189Y-110288698D01*
X174683993Y-110282073D01*
X174730728Y-110255375D01*
X174781728Y-110253375D01*
X174827999Y-110275955D01*
X174836556Y-110284107D01*
X174849107Y-110299436D01*
X174857812Y-110317618D01*
X174863369Y-110343909D01*
X174866474Y-110383562D01*
X174867824Y-110441832D01*
X174868114Y-110522173D01*
X174868114Y-110726646D01*
X174913823Y-110742580D01*
X174946287Y-110753420D01*
X174964099Y-110758468D01*
X174964623Y-110758514D01*
X174965963Y-110744623D01*
X174967172Y-110705439D01*
X174968199Y-110644700D01*
X174968998Y-110566141D01*
X174969519Y-110473498D01*
X174969714Y-110370509D01*
X174969714Y-109973342D01*
X174922543Y-109953444D01*
X174875371Y-109933547D01*
X174868114Y-110055289D01*
X174868114Y-110055289D01*
G37*
X174868114Y-110055289D02*
X174863861Y-110114613D01*
X174858975Y-110149572D01*
X174852205Y-110164820D01*
X174842298Y-110165015D01*
X174839086Y-110163195D01*
X174796356Y-110150015D01*
X174740773Y-110150785D01*
X174684263Y-110164333D01*
X174648918Y-110181861D01*
X174612679Y-110209861D01*
X174586187Y-110241549D01*
X174568001Y-110281813D01*
X174556678Y-110335543D01*
X174550778Y-110407626D01*
X174548857Y-110502951D01*
X174548823Y-110521237D01*
X174548800Y-110726646D01*
X174594509Y-110742580D01*
X174626973Y-110753420D01*
X174644785Y-110758468D01*
X174645309Y-110758514D01*
X174647063Y-110744828D01*
X174648556Y-110707076D01*
X174649674Y-110650224D01*
X174650303Y-110579234D01*
X174650400Y-110536073D01*
X174650602Y-110450973D01*
X174651642Y-110389981D01*
X174654169Y-110348177D01*
X174658836Y-110320642D01*
X174666293Y-110302456D01*
X174677189Y-110288698D01*
X174683993Y-110282073D01*
X174730728Y-110255375D01*
X174781728Y-110253375D01*
X174827999Y-110275955D01*
X174836556Y-110284107D01*
X174849107Y-110299436D01*
X174857812Y-110317618D01*
X174863369Y-110343909D01*
X174866474Y-110383562D01*
X174867824Y-110441832D01*
X174868114Y-110522173D01*
X174868114Y-110726646D01*
X174913823Y-110742580D01*
X174946287Y-110753420D01*
X174964099Y-110758468D01*
X174964623Y-110758514D01*
X174965963Y-110744623D01*
X174967172Y-110705439D01*
X174968199Y-110644700D01*
X174968998Y-110566141D01*
X174969519Y-110473498D01*
X174969714Y-110370509D01*
X174969714Y-109973342D01*
X174922543Y-109953444D01*
X174875371Y-109933547D01*
X174868114Y-110055289D01*
G36*
X174204256Y-110154968D02*
X174147384Y-110176087D01*
X174146733Y-110176493D01*
X174111560Y-110202380D01*
X174085593Y-110232633D01*
X174067330Y-110272058D01*
X174055268Y-110325462D01*
X174047904Y-110397651D01*
X174043736Y-110493432D01*
X174043371Y-110507078D01*
X174038124Y-110712842D01*
X174082284Y-110735678D01*
X174114237Y-110751110D01*
X174133530Y-110758423D01*
X174134422Y-110758514D01*
X174137761Y-110745022D01*
X174140413Y-110708626D01*
X174142044Y-110655452D01*
X174142400Y-110612393D01*
X174142408Y-110542641D01*
X174145597Y-110498837D01*
X174156712Y-110477944D01*
X174180499Y-110476925D01*
X174221704Y-110492741D01*
X174283914Y-110521815D01*
X174329659Y-110545963D01*
X174353187Y-110566913D01*
X174360104Y-110589747D01*
X174360114Y-110590877D01*
X174348701Y-110630212D01*
X174314908Y-110651462D01*
X174263191Y-110654539D01*
X174225939Y-110654006D01*
X174206297Y-110664735D01*
X174194048Y-110690505D01*
X174186998Y-110723337D01*
X174197158Y-110741966D01*
X174200983Y-110744632D01*
X174236999Y-110755340D01*
X174287434Y-110756856D01*
X174339374Y-110749759D01*
X174376178Y-110736788D01*
X174427062Y-110693585D01*
X174455986Y-110633446D01*
X174461714Y-110586462D01*
X174457343Y-110544082D01*
X174441525Y-110509488D01*
X174410203Y-110478763D01*
X174359322Y-110447990D01*
X174284824Y-110413252D01*
X174280286Y-110411288D01*
X174213179Y-110380287D01*
X174171768Y-110354862D01*
X174154019Y-110332014D01*
X174157893Y-110308745D01*
X174181357Y-110282056D01*
X174188373Y-110275914D01*
X174235370Y-110252100D01*
X174284067Y-110253103D01*
X174326478Y-110276451D01*
X174354616Y-110319675D01*
X174357231Y-110328160D01*
X174382692Y-110369308D01*
X174414999Y-110389128D01*
X174461714Y-110408770D01*
X174461714Y-110357950D01*
X174447504Y-110284082D01*
X174405325Y-110216327D01*
X174383376Y-110193661D01*
X174333483Y-110164569D01*
X174270033Y-110151400D01*
X174204256Y-110154968D01*
X174204256Y-110154968D01*
G37*
X174204256Y-110154968D02*
X174147384Y-110176087D01*
X174146733Y-110176493D01*
X174111560Y-110202380D01*
X174085593Y-110232633D01*
X174067330Y-110272058D01*
X174055268Y-110325462D01*
X174047904Y-110397651D01*
X174043736Y-110493432D01*
X174043371Y-110507078D01*
X174038124Y-110712842D01*
X174082284Y-110735678D01*
X174114237Y-110751110D01*
X174133530Y-110758423D01*
X174134422Y-110758514D01*
X174137761Y-110745022D01*
X174140413Y-110708626D01*
X174142044Y-110655452D01*
X174142400Y-110612393D01*
X174142408Y-110542641D01*
X174145597Y-110498837D01*
X174156712Y-110477944D01*
X174180499Y-110476925D01*
X174221704Y-110492741D01*
X174283914Y-110521815D01*
X174329659Y-110545963D01*
X174353187Y-110566913D01*
X174360104Y-110589747D01*
X174360114Y-110590877D01*
X174348701Y-110630212D01*
X174314908Y-110651462D01*
X174263191Y-110654539D01*
X174225939Y-110654006D01*
X174206297Y-110664735D01*
X174194048Y-110690505D01*
X174186998Y-110723337D01*
X174197158Y-110741966D01*
X174200983Y-110744632D01*
X174236999Y-110755340D01*
X174287434Y-110756856D01*
X174339374Y-110749759D01*
X174376178Y-110736788D01*
X174427062Y-110693585D01*
X174455986Y-110633446D01*
X174461714Y-110586462D01*
X174457343Y-110544082D01*
X174441525Y-110509488D01*
X174410203Y-110478763D01*
X174359322Y-110447990D01*
X174284824Y-110413252D01*
X174280286Y-110411288D01*
X174213179Y-110380287D01*
X174171768Y-110354862D01*
X174154019Y-110332014D01*
X174157893Y-110308745D01*
X174181357Y-110282056D01*
X174188373Y-110275914D01*
X174235370Y-110252100D01*
X174284067Y-110253103D01*
X174326478Y-110276451D01*
X174354616Y-110319675D01*
X174357231Y-110328160D01*
X174382692Y-110369308D01*
X174414999Y-110389128D01*
X174461714Y-110408770D01*
X174461714Y-110357950D01*
X174447504Y-110284082D01*
X174405325Y-110216327D01*
X174383376Y-110193661D01*
X174333483Y-110164569D01*
X174270033Y-110151400D01*
X174204256Y-110154968D01*
G36*
X173714074Y-110153755D02*
X173648142Y-110178084D01*
X173594727Y-110221117D01*
X173573836Y-110251409D01*
X173551061Y-110306994D01*
X173551534Y-110347186D01*
X173575438Y-110374217D01*
X173584283Y-110378813D01*
X173622470Y-110393144D01*
X173641972Y-110389472D01*
X173648578Y-110365407D01*
X173648914Y-110352114D01*
X173661008Y-110303210D01*
X173692529Y-110268999D01*
X173736341Y-110252476D01*
X173785305Y-110256634D01*
X173825106Y-110278227D01*
X173838550Y-110290544D01*
X173848079Y-110305487D01*
X173854515Y-110328075D01*
X173858683Y-110363328D01*
X173861403Y-110416266D01*
X173863498Y-110491907D01*
X173864040Y-110515857D01*
X173866019Y-110597790D01*
X173868269Y-110655455D01*
X173871643Y-110693608D01*
X173876994Y-110717004D01*
X173885176Y-110730398D01*
X173897041Y-110738545D01*
X173904638Y-110742144D01*
X173936898Y-110754452D01*
X173955889Y-110758514D01*
X173962164Y-110744948D01*
X173965994Y-110703934D01*
X173967400Y-110634999D01*
X173966402Y-110537669D01*
X173966092Y-110522657D01*
X173963899Y-110433859D01*
X173961307Y-110369019D01*
X173957618Y-110323067D01*
X173952136Y-110290935D01*
X173944165Y-110267553D01*
X173933007Y-110247852D01*
X173927170Y-110239410D01*
X173893704Y-110202057D01*
X173856273Y-110173003D01*
X173851691Y-110170467D01*
X173784574Y-110150443D01*
X173714074Y-110153755D01*
X173714074Y-110153755D01*
G37*
X173714074Y-110153755D02*
X173648142Y-110178084D01*
X173594727Y-110221117D01*
X173573836Y-110251409D01*
X173551061Y-110306994D01*
X173551534Y-110347186D01*
X173575438Y-110374217D01*
X173584283Y-110378813D01*
X173622470Y-110393144D01*
X173641972Y-110389472D01*
X173648578Y-110365407D01*
X173648914Y-110352114D01*
X173661008Y-110303210D01*
X173692529Y-110268999D01*
X173736341Y-110252476D01*
X173785305Y-110256634D01*
X173825106Y-110278227D01*
X173838550Y-110290544D01*
X173848079Y-110305487D01*
X173854515Y-110328075D01*
X173858683Y-110363328D01*
X173861403Y-110416266D01*
X173863498Y-110491907D01*
X173864040Y-110515857D01*
X173866019Y-110597790D01*
X173868269Y-110655455D01*
X173871643Y-110693608D01*
X173876994Y-110717004D01*
X173885176Y-110730398D01*
X173897041Y-110738545D01*
X173904638Y-110742144D01*
X173936898Y-110754452D01*
X173955889Y-110758514D01*
X173962164Y-110744948D01*
X173965994Y-110703934D01*
X173967400Y-110634999D01*
X173966402Y-110537669D01*
X173966092Y-110522657D01*
X173963899Y-110433859D01*
X173961307Y-110369019D01*
X173957618Y-110323067D01*
X173952136Y-110290935D01*
X173944165Y-110267553D01*
X173933007Y-110247852D01*
X173927170Y-110239410D01*
X173893704Y-110202057D01*
X173856273Y-110173003D01*
X173851691Y-110170467D01*
X173784574Y-110150443D01*
X173714074Y-110153755D01*
G36*
X173053883Y-110269358D02*
X173054067Y-110377837D01*
X173054781Y-110461287D01*
X173056325Y-110523704D01*
X173058999Y-110569085D01*
X173063106Y-110601429D01*
X173068945Y-110624733D01*
X173076818Y-110642995D01*
X173082779Y-110653418D01*
X173132145Y-110709945D01*
X173194736Y-110745377D01*
X173263987Y-110758090D01*
X173333332Y-110746463D01*
X173374625Y-110725568D01*
X173417975Y-110689422D01*
X173447519Y-110645276D01*
X173465345Y-110587462D01*
X173473537Y-110510313D01*
X173474698Y-110453714D01*
X173474542Y-110449647D01*
X173373143Y-110449647D01*
X173372524Y-110514550D01*
X173369686Y-110557514D01*
X173363160Y-110585622D01*
X173351477Y-110605953D01*
X173337517Y-110621288D01*
X173290635Y-110650890D01*
X173240299Y-110653419D01*
X173192724Y-110628705D01*
X173189021Y-110625356D01*
X173173217Y-110607935D01*
X173163307Y-110587209D01*
X173157942Y-110556362D01*
X173155772Y-110508577D01*
X173155429Y-110455748D01*
X173156173Y-110389381D01*
X173159252Y-110345106D01*
X173165939Y-110316009D01*
X173177504Y-110295173D01*
X173186987Y-110284107D01*
X173231040Y-110256198D01*
X173281776Y-110252843D01*
X173330204Y-110274159D01*
X173339550Y-110282073D01*
X173355460Y-110299647D01*
X173365390Y-110320587D01*
X173370722Y-110351782D01*
X173372837Y-110400122D01*
X173373143Y-110449647D01*
X173474542Y-110449647D01*
X173471190Y-110362568D01*
X173459274Y-110294086D01*
X173436865Y-110242600D01*
X173401876Y-110202443D01*
X173374625Y-110181861D01*
X173325093Y-110159625D01*
X173267684Y-110149304D01*
X173214318Y-110152067D01*
X173184457Y-110163212D01*
X173172739Y-110166383D01*
X173164963Y-110154557D01*
X173159535Y-110122866D01*
X173155429Y-110074593D01*
X173150933Y-110020829D01*
X173144687Y-109988482D01*
X173133324Y-109969985D01*
X173113472Y-109957770D01*
X173101000Y-109952362D01*
X173053829Y-109932601D01*
X173053883Y-110269358D01*
X173053883Y-110269358D01*
G37*
X173053883Y-110269358D02*
X173054067Y-110377837D01*
X173054781Y-110461287D01*
X173056325Y-110523704D01*
X173058999Y-110569085D01*
X173063106Y-110601429D01*
X173068945Y-110624733D01*
X173076818Y-110642995D01*
X173082779Y-110653418D01*
X173132145Y-110709945D01*
X173194736Y-110745377D01*
X173263987Y-110758090D01*
X173333332Y-110746463D01*
X173374625Y-110725568D01*
X173417975Y-110689422D01*
X173447519Y-110645276D01*
X173465345Y-110587462D01*
X173473537Y-110510313D01*
X173474698Y-110453714D01*
X173474542Y-110449647D01*
X173373143Y-110449647D01*
X173372524Y-110514550D01*
X173369686Y-110557514D01*
X173363160Y-110585622D01*
X173351477Y-110605953D01*
X173337517Y-110621288D01*
X173290635Y-110650890D01*
X173240299Y-110653419D01*
X173192724Y-110628705D01*
X173189021Y-110625356D01*
X173173217Y-110607935D01*
X173163307Y-110587209D01*
X173157942Y-110556362D01*
X173155772Y-110508577D01*
X173155429Y-110455748D01*
X173156173Y-110389381D01*
X173159252Y-110345106D01*
X173165939Y-110316009D01*
X173177504Y-110295173D01*
X173186987Y-110284107D01*
X173231040Y-110256198D01*
X173281776Y-110252843D01*
X173330204Y-110274159D01*
X173339550Y-110282073D01*
X173355460Y-110299647D01*
X173365390Y-110320587D01*
X173370722Y-110351782D01*
X173372837Y-110400122D01*
X173373143Y-110449647D01*
X173474542Y-110449647D01*
X173471190Y-110362568D01*
X173459274Y-110294086D01*
X173436865Y-110242600D01*
X173401876Y-110202443D01*
X173374625Y-110181861D01*
X173325093Y-110159625D01*
X173267684Y-110149304D01*
X173214318Y-110152067D01*
X173184457Y-110163212D01*
X173172739Y-110166383D01*
X173164963Y-110154557D01*
X173159535Y-110122866D01*
X173155429Y-110074593D01*
X173150933Y-110020829D01*
X173144687Y-109988482D01*
X173133324Y-109969985D01*
X173113472Y-109957770D01*
X173101000Y-109952362D01*
X173053829Y-109932601D01*
X173053883Y-110269358D01*
G36*
X172464167Y-110162663D02*
X172461952Y-110200850D01*
X172460216Y-110258886D01*
X172459101Y-110332180D01*
X172458743Y-110409055D01*
X172458743Y-110669196D01*
X172504674Y-110715127D01*
X172536325Y-110743429D01*
X172564110Y-110754893D01*
X172602085Y-110754168D01*
X172617160Y-110752321D01*
X172664274Y-110746948D01*
X172703244Y-110743869D01*
X172712743Y-110743585D01*
X172744767Y-110745445D01*
X172790568Y-110750114D01*
X172808326Y-110752321D01*
X172851943Y-110755735D01*
X172881255Y-110748320D01*
X172910320Y-110725427D01*
X172920812Y-110715127D01*
X172966743Y-110669196D01*
X172966743Y-110182602D01*
X172929774Y-110165758D01*
X172897941Y-110153282D01*
X172879317Y-110148914D01*
X172874542Y-110162718D01*
X172870079Y-110201286D01*
X172866225Y-110260356D01*
X172863278Y-110335663D01*
X172861857Y-110399286D01*
X172857886Y-110649657D01*
X172823241Y-110654556D01*
X172791732Y-110651131D01*
X172776292Y-110640041D01*
X172771977Y-110619308D01*
X172768292Y-110575145D01*
X172765531Y-110513146D01*
X172763988Y-110438909D01*
X172763765Y-110400706D01*
X172763543Y-110180783D01*
X172717834Y-110164849D01*
X172685482Y-110154015D01*
X172667885Y-110148962D01*
X172667377Y-110148914D01*
X172665612Y-110162648D01*
X172663671Y-110200730D01*
X172661718Y-110258482D01*
X172659916Y-110331227D01*
X172658657Y-110399286D01*
X172654686Y-110649657D01*
X172567600Y-110649657D01*
X172563604Y-110421240D01*
X172559608Y-110192822D01*
X172517153Y-110170868D01*
X172485808Y-110155793D01*
X172467256Y-110148951D01*
X172466721Y-110148914D01*
X172464167Y-110162663D01*
X172464167Y-110162663D01*
G37*
X172464167Y-110162663D02*
X172461952Y-110200850D01*
X172460216Y-110258886D01*
X172459101Y-110332180D01*
X172458743Y-110409055D01*
X172458743Y-110669196D01*
X172504674Y-110715127D01*
X172536325Y-110743429D01*
X172564110Y-110754893D01*
X172602085Y-110754168D01*
X172617160Y-110752321D01*
X172664274Y-110746948D01*
X172703244Y-110743869D01*
X172712743Y-110743585D01*
X172744767Y-110745445D01*
X172790568Y-110750114D01*
X172808326Y-110752321D01*
X172851943Y-110755735D01*
X172881255Y-110748320D01*
X172910320Y-110725427D01*
X172920812Y-110715127D01*
X172966743Y-110669196D01*
X172966743Y-110182602D01*
X172929774Y-110165758D01*
X172897941Y-110153282D01*
X172879317Y-110148914D01*
X172874542Y-110162718D01*
X172870079Y-110201286D01*
X172866225Y-110260356D01*
X172863278Y-110335663D01*
X172861857Y-110399286D01*
X172857886Y-110649657D01*
X172823241Y-110654556D01*
X172791732Y-110651131D01*
X172776292Y-110640041D01*
X172771977Y-110619308D01*
X172768292Y-110575145D01*
X172765531Y-110513146D01*
X172763988Y-110438909D01*
X172763765Y-110400706D01*
X172763543Y-110180783D01*
X172717834Y-110164849D01*
X172685482Y-110154015D01*
X172667885Y-110148962D01*
X172667377Y-110148914D01*
X172665612Y-110162648D01*
X172663671Y-110200730D01*
X172661718Y-110258482D01*
X172659916Y-110331227D01*
X172658657Y-110399286D01*
X172654686Y-110649657D01*
X172567600Y-110649657D01*
X172563604Y-110421240D01*
X172559608Y-110192822D01*
X172517153Y-110170868D01*
X172485808Y-110155793D01*
X172467256Y-110148951D01*
X172466721Y-110148914D01*
X172464167Y-110162663D01*
G36*
X172099124Y-110160335D02*
X172057333Y-110179344D01*
X172024531Y-110202378D01*
X172000497Y-110228133D01*
X171983903Y-110261358D01*
X171973423Y-110306800D01*
X171967729Y-110369207D01*
X171965493Y-110453327D01*
X171965257Y-110508721D01*
X171965257Y-110724826D01*
X172002226Y-110741670D01*
X172031344Y-110753981D01*
X172045769Y-110758514D01*
X172048528Y-110745025D01*
X172050718Y-110708653D01*
X172052058Y-110655542D01*
X172052343Y-110613372D01*
X172053566Y-110552447D01*
X172056864Y-110504115D01*
X172061679Y-110474518D01*
X172065504Y-110468229D01*
X172091217Y-110474652D01*
X172131582Y-110491125D01*
X172178321Y-110513458D01*
X172223155Y-110537457D01*
X172257807Y-110558930D01*
X172273998Y-110573685D01*
X172274062Y-110573845D01*
X172272670Y-110601152D01*
X172260182Y-110627219D01*
X172238257Y-110648392D01*
X172206257Y-110655474D01*
X172178908Y-110654649D01*
X172140174Y-110654042D01*
X172119842Y-110663116D01*
X172107631Y-110687092D01*
X172106091Y-110691613D01*
X172100797Y-110725806D01*
X172114953Y-110746568D01*
X172151852Y-110756462D01*
X172191711Y-110758292D01*
X172263438Y-110744727D01*
X172300568Y-110725355D01*
X172346424Y-110679845D01*
X172370744Y-110623983D01*
X172372927Y-110564957D01*
X172352371Y-110509953D01*
X172321451Y-110475486D01*
X172290580Y-110456189D01*
X172242058Y-110431759D01*
X172185515Y-110406985D01*
X172176090Y-110403199D01*
X172113981Y-110375791D01*
X172078178Y-110351634D01*
X172066663Y-110327619D01*
X172077420Y-110300635D01*
X172095886Y-110279543D01*
X172139531Y-110253572D01*
X172187554Y-110251624D01*
X172231594Y-110271637D01*
X172263291Y-110311551D01*
X172267451Y-110321848D01*
X172291673Y-110359724D01*
X172327035Y-110387842D01*
X172371657Y-110410917D01*
X172371657Y-110345485D01*
X172369031Y-110305506D01*
X172357770Y-110273997D01*
X172332801Y-110240378D01*
X172308831Y-110214484D01*
X172271559Y-110177817D01*
X172242599Y-110158121D01*
X172211495Y-110150220D01*
X172176287Y-110148914D01*
X172099124Y-110160335D01*
X172099124Y-110160335D01*
G37*
X172099124Y-110160335D02*
X172057333Y-110179344D01*
X172024531Y-110202378D01*
X172000497Y-110228133D01*
X171983903Y-110261358D01*
X171973423Y-110306800D01*
X171967729Y-110369207D01*
X171965493Y-110453327D01*
X171965257Y-110508721D01*
X171965257Y-110724826D01*
X172002226Y-110741670D01*
X172031344Y-110753981D01*
X172045769Y-110758514D01*
X172048528Y-110745025D01*
X172050718Y-110708653D01*
X172052058Y-110655542D01*
X172052343Y-110613372D01*
X172053566Y-110552447D01*
X172056864Y-110504115D01*
X172061679Y-110474518D01*
X172065504Y-110468229D01*
X172091217Y-110474652D01*
X172131582Y-110491125D01*
X172178321Y-110513458D01*
X172223155Y-110537457D01*
X172257807Y-110558930D01*
X172273998Y-110573685D01*
X172274062Y-110573845D01*
X172272670Y-110601152D01*
X172260182Y-110627219D01*
X172238257Y-110648392D01*
X172206257Y-110655474D01*
X172178908Y-110654649D01*
X172140174Y-110654042D01*
X172119842Y-110663116D01*
X172107631Y-110687092D01*
X172106091Y-110691613D01*
X172100797Y-110725806D01*
X172114953Y-110746568D01*
X172151852Y-110756462D01*
X172191711Y-110758292D01*
X172263438Y-110744727D01*
X172300568Y-110725355D01*
X172346424Y-110679845D01*
X172370744Y-110623983D01*
X172372927Y-110564957D01*
X172352371Y-110509953D01*
X172321451Y-110475486D01*
X172290580Y-110456189D01*
X172242058Y-110431759D01*
X172185515Y-110406985D01*
X172176090Y-110403199D01*
X172113981Y-110375791D01*
X172078178Y-110351634D01*
X172066663Y-110327619D01*
X172077420Y-110300635D01*
X172095886Y-110279543D01*
X172139531Y-110253572D01*
X172187554Y-110251624D01*
X172231594Y-110271637D01*
X172263291Y-110311551D01*
X172267451Y-110321848D01*
X172291673Y-110359724D01*
X172327035Y-110387842D01*
X172371657Y-110410917D01*
X172371657Y-110345485D01*
X172369031Y-110305506D01*
X172357770Y-110273997D01*
X172332801Y-110240378D01*
X172308831Y-110214484D01*
X172271559Y-110177817D01*
X172242599Y-110158121D01*
X172211495Y-110150220D01*
X172176287Y-110148914D01*
X172099124Y-110160335D01*
G36*
X171591400Y-110162752D02*
X171574052Y-110170334D01*
X171532644Y-110203128D01*
X171497235Y-110250547D01*
X171475336Y-110301151D01*
X171471771Y-110326098D01*
X171483721Y-110360927D01*
X171509933Y-110379357D01*
X171538036Y-110390516D01*
X171550905Y-110392572D01*
X171557171Y-110377649D01*
X171569544Y-110345175D01*
X171574972Y-110330502D01*
X171605410Y-110279744D01*
X171649480Y-110254427D01*
X171705990Y-110255206D01*
X171710175Y-110256203D01*
X171740345Y-110270507D01*
X171762524Y-110298393D01*
X171777673Y-110343287D01*
X171786750Y-110408615D01*
X171790714Y-110497804D01*
X171791086Y-110545261D01*
X171791270Y-110620071D01*
X171792478Y-110671069D01*
X171795691Y-110703471D01*
X171801891Y-110722495D01*
X171812060Y-110733356D01*
X171827181Y-110741272D01*
X171828054Y-110741670D01*
X171857172Y-110753981D01*
X171871597Y-110758514D01*
X171873814Y-110744809D01*
X171875711Y-110706925D01*
X171877153Y-110649715D01*
X171878002Y-110578027D01*
X171878171Y-110525565D01*
X171877308Y-110424047D01*
X171873930Y-110347032D01*
X171866858Y-110290023D01*
X171854912Y-110248526D01*
X171836910Y-110218043D01*
X171811673Y-110194080D01*
X171786753Y-110177355D01*
X171726829Y-110155097D01*
X171657089Y-110150076D01*
X171591400Y-110162752D01*
X171591400Y-110162752D01*
G37*
X171591400Y-110162752D02*
X171574052Y-110170334D01*
X171532644Y-110203128D01*
X171497235Y-110250547D01*
X171475336Y-110301151D01*
X171471771Y-110326098D01*
X171483721Y-110360927D01*
X171509933Y-110379357D01*
X171538036Y-110390516D01*
X171550905Y-110392572D01*
X171557171Y-110377649D01*
X171569544Y-110345175D01*
X171574972Y-110330502D01*
X171605410Y-110279744D01*
X171649480Y-110254427D01*
X171705990Y-110255206D01*
X171710175Y-110256203D01*
X171740345Y-110270507D01*
X171762524Y-110298393D01*
X171777673Y-110343287D01*
X171786750Y-110408615D01*
X171790714Y-110497804D01*
X171791086Y-110545261D01*
X171791270Y-110620071D01*
X171792478Y-110671069D01*
X171795691Y-110703471D01*
X171801891Y-110722495D01*
X171812060Y-110733356D01*
X171827181Y-110741272D01*
X171828054Y-110741670D01*
X171857172Y-110753981D01*
X171871597Y-110758514D01*
X171873814Y-110744809D01*
X171875711Y-110706925D01*
X171877153Y-110649715D01*
X171878002Y-110578027D01*
X171878171Y-110525565D01*
X171877308Y-110424047D01*
X171873930Y-110347032D01*
X171866858Y-110290023D01*
X171854912Y-110248526D01*
X171836910Y-110218043D01*
X171811673Y-110194080D01*
X171786753Y-110177355D01*
X171726829Y-110155097D01*
X171657089Y-110150076D01*
X171591400Y-110162752D01*
G36*
X171090405Y-110170966D02*
X171032979Y-110208497D01*
X171005281Y-110242096D01*
X170983338Y-110303064D01*
X170981595Y-110351308D01*
X170985543Y-110415816D01*
X171134314Y-110480934D01*
X171206651Y-110514202D01*
X171253916Y-110540964D01*
X171278493Y-110564144D01*
X171282763Y-110586667D01*
X171269111Y-110611455D01*
X171254057Y-110627886D01*
X171210254Y-110654235D01*
X171162611Y-110656081D01*
X171118855Y-110635546D01*
X171086711Y-110594752D01*
X171080962Y-110580347D01*
X171053424Y-110535356D01*
X171021742Y-110516182D01*
X170978286Y-110499779D01*
X170978286Y-110561966D01*
X170982128Y-110604283D01*
X170997177Y-110639969D01*
X171028720Y-110680943D01*
X171033408Y-110686267D01*
X171068494Y-110722720D01*
X171098653Y-110742283D01*
X171136385Y-110751283D01*
X171167665Y-110754230D01*
X171223615Y-110754965D01*
X171263445Y-110745660D01*
X171288292Y-110731846D01*
X171327344Y-110701467D01*
X171354375Y-110668613D01*
X171371483Y-110627294D01*
X171380762Y-110571521D01*
X171384307Y-110495305D01*
X171384590Y-110456622D01*
X171383628Y-110410247D01*
X171295993Y-110410247D01*
X171294977Y-110435126D01*
X171292444Y-110439200D01*
X171275726Y-110433665D01*
X171239751Y-110419017D01*
X171191669Y-110398190D01*
X171181614Y-110393714D01*
X171120848Y-110362814D01*
X171087368Y-110335657D01*
X171080010Y-110310220D01*
X171097609Y-110284481D01*
X171112144Y-110273109D01*
X171164590Y-110250364D01*
X171213678Y-110254122D01*
X171254773Y-110281884D01*
X171283242Y-110331152D01*
X171292369Y-110370257D01*
X171295993Y-110410247D01*
X171383628Y-110410247D01*
X171382715Y-110366249D01*
X171375804Y-110299384D01*
X171362116Y-110250695D01*
X171339904Y-110214849D01*
X171307426Y-110186513D01*
X171293267Y-110177355D01*
X171228947Y-110153507D01*
X171158527Y-110152006D01*
X171090405Y-110170966D01*
X171090405Y-110170966D01*
G37*
X171090405Y-110170966D02*
X171032979Y-110208497D01*
X171005281Y-110242096D01*
X170983338Y-110303064D01*
X170981595Y-110351308D01*
X170985543Y-110415816D01*
X171134314Y-110480934D01*
X171206651Y-110514202D01*
X171253916Y-110540964D01*
X171278493Y-110564144D01*
X171282763Y-110586667D01*
X171269111Y-110611455D01*
X171254057Y-110627886D01*
X171210254Y-110654235D01*
X171162611Y-110656081D01*
X171118855Y-110635546D01*
X171086711Y-110594752D01*
X171080962Y-110580347D01*
X171053424Y-110535356D01*
X171021742Y-110516182D01*
X170978286Y-110499779D01*
X170978286Y-110561966D01*
X170982128Y-110604283D01*
X170997177Y-110639969D01*
X171028720Y-110680943D01*
X171033408Y-110686267D01*
X171068494Y-110722720D01*
X171098653Y-110742283D01*
X171136385Y-110751283D01*
X171167665Y-110754230D01*
X171223615Y-110754965D01*
X171263445Y-110745660D01*
X171288292Y-110731846D01*
X171327344Y-110701467D01*
X171354375Y-110668613D01*
X171371483Y-110627294D01*
X171380762Y-110571521D01*
X171384307Y-110495305D01*
X171384590Y-110456622D01*
X171383628Y-110410247D01*
X171295993Y-110410247D01*
X171294977Y-110435126D01*
X171292444Y-110439200D01*
X171275726Y-110433665D01*
X171239751Y-110419017D01*
X171191669Y-110398190D01*
X171181614Y-110393714D01*
X171120848Y-110362814D01*
X171087368Y-110335657D01*
X171080010Y-110310220D01*
X171097609Y-110284481D01*
X171112144Y-110273109D01*
X171164590Y-110250364D01*
X171213678Y-110254122D01*
X171254773Y-110281884D01*
X171283242Y-110331152D01*
X171292369Y-110370257D01*
X171295993Y-110410247D01*
X171383628Y-110410247D01*
X171382715Y-110366249D01*
X171375804Y-110299384D01*
X171362116Y-110250695D01*
X171339904Y-110214849D01*
X171307426Y-110186513D01*
X171293267Y-110177355D01*
X171228947Y-110153507D01*
X171158527Y-110152006D01*
X171090405Y-110170966D01*
M02*
