G04 #@! TF.FileFunction,Legend,Top*
%FSLAX46Y46*%
G04 Gerber Fmt 4.6, Leading zero omitted, Abs format (unit mm)*
G04 Created by KiCad (PCBNEW 4.0.7) date Mon Dec  4 21:54:59 2017*
%MOMM*%
%LPD*%
G01*
G04 APERTURE LIST*
%ADD10C,0.100000*%
%ADD11C,0.406400*%
%ADD12C,0.150000*%
G04 APERTURE END LIST*
D10*
D11*
X122426000Y-99446000D02*
X179326000Y-99446000D01*
X179326000Y-99446000D02*
X179326000Y-108326000D01*
X179326000Y-108326000D02*
X122426000Y-108326000D01*
X122426000Y-108326000D02*
X122426000Y-99446000D01*
D12*
X137668000Y-103051429D02*
X137668000Y-104140000D01*
X137595428Y-104357714D01*
X137450285Y-104502857D01*
X137232571Y-104575429D01*
X137087428Y-104575429D01*
X138321143Y-103196571D02*
X138393714Y-103124000D01*
X138538857Y-103051429D01*
X138901714Y-103051429D01*
X139046857Y-103124000D01*
X139119428Y-103196571D01*
X139192000Y-103341714D01*
X139192000Y-103486857D01*
X139119428Y-103704571D01*
X138248571Y-104575429D01*
X139192000Y-104575429D01*
X153379715Y-104575429D02*
X153379715Y-103559429D01*
X153379715Y-103704571D02*
X153452287Y-103632000D01*
X153597429Y-103559429D01*
X153815144Y-103559429D01*
X153960287Y-103632000D01*
X154032858Y-103777143D01*
X154032858Y-104575429D01*
X154032858Y-103777143D02*
X154105429Y-103632000D01*
X154250572Y-103559429D01*
X154468287Y-103559429D01*
X154613429Y-103632000D01*
X154686001Y-103777143D01*
X154686001Y-104575429D01*
X155411715Y-104575429D02*
X155411715Y-103559429D01*
X155411715Y-103051429D02*
X155339144Y-103124000D01*
X155411715Y-103196571D01*
X155484287Y-103124000D01*
X155411715Y-103051429D01*
X155411715Y-103196571D01*
X156790572Y-104502857D02*
X156645429Y-104575429D01*
X156355143Y-104575429D01*
X156210001Y-104502857D01*
X156137429Y-104430286D01*
X156064858Y-104285143D01*
X156064858Y-103849714D01*
X156137429Y-103704571D01*
X156210001Y-103632000D01*
X156355143Y-103559429D01*
X156645429Y-103559429D01*
X156790572Y-103632000D01*
X157443715Y-104575429D02*
X157443715Y-103559429D01*
X157443715Y-103849714D02*
X157516287Y-103704571D01*
X157588858Y-103632000D01*
X157734001Y-103559429D01*
X157879144Y-103559429D01*
X158604858Y-104575429D02*
X158459716Y-104502857D01*
X158387144Y-104430286D01*
X158314573Y-104285143D01*
X158314573Y-103849714D01*
X158387144Y-103704571D01*
X158459716Y-103632000D01*
X158604858Y-103559429D01*
X158822573Y-103559429D01*
X158967716Y-103632000D01*
X159040287Y-103704571D01*
X159112858Y-103849714D01*
X159112858Y-104285143D01*
X159040287Y-104430286D01*
X158967716Y-104502857D01*
X158822573Y-104575429D01*
X158604858Y-104575429D01*
X159766001Y-104575429D02*
X159766001Y-103051429D01*
X159766001Y-103632000D02*
X159911144Y-103559429D01*
X160201430Y-103559429D01*
X160346573Y-103632000D01*
X160419144Y-103704571D01*
X160491715Y-103849714D01*
X160491715Y-104285143D01*
X160419144Y-104430286D01*
X160346573Y-104502857D01*
X160201430Y-104575429D01*
X159911144Y-104575429D01*
X159766001Y-104502857D01*
X161144858Y-104575429D02*
X161144858Y-103559429D01*
X161144858Y-103051429D02*
X161072287Y-103124000D01*
X161144858Y-103196571D01*
X161217430Y-103124000D01*
X161144858Y-103051429D01*
X161144858Y-103196571D01*
X161652858Y-103559429D02*
X162233429Y-103559429D01*
X161870572Y-103051429D02*
X161870572Y-104357714D01*
X161943144Y-104502857D01*
X162088286Y-104575429D01*
X162233429Y-104575429D01*
X162378572Y-104720571D02*
X163539715Y-104720571D01*
X163830001Y-104502857D02*
X163975144Y-104575429D01*
X164265429Y-104575429D01*
X164410572Y-104502857D01*
X164483144Y-104357714D01*
X164483144Y-104285143D01*
X164410572Y-104140000D01*
X164265429Y-104067429D01*
X164047715Y-104067429D01*
X163902572Y-103994857D01*
X163830001Y-103849714D01*
X163830001Y-103777143D01*
X163902572Y-103632000D01*
X164047715Y-103559429D01*
X164265429Y-103559429D01*
X164410572Y-103632000D01*
X165136286Y-104575429D02*
X165136286Y-103559429D01*
X165136286Y-103704571D02*
X165208858Y-103632000D01*
X165354000Y-103559429D01*
X165571715Y-103559429D01*
X165716858Y-103632000D01*
X165789429Y-103777143D01*
X165789429Y-104575429D01*
X165789429Y-103777143D02*
X165862000Y-103632000D01*
X166007143Y-103559429D01*
X166224858Y-103559429D01*
X166370000Y-103632000D01*
X166442572Y-103777143D01*
X166442572Y-104575429D01*
X167821429Y-104575429D02*
X167821429Y-103051429D01*
X167821429Y-104502857D02*
X167676286Y-104575429D01*
X167386000Y-104575429D01*
X167240858Y-104502857D01*
X167168286Y-104430286D01*
X167095715Y-104285143D01*
X167095715Y-103849714D01*
X167168286Y-103704571D01*
X167240858Y-103632000D01*
X167386000Y-103559429D01*
X167676286Y-103559429D01*
X167821429Y-103632000D01*
X168184286Y-104720571D02*
X169345429Y-104720571D01*
X169635715Y-104502857D02*
X169780858Y-104575429D01*
X170071143Y-104575429D01*
X170216286Y-104502857D01*
X170288858Y-104357714D01*
X170288858Y-104285143D01*
X170216286Y-104140000D01*
X170071143Y-104067429D01*
X169853429Y-104067429D01*
X169708286Y-103994857D01*
X169635715Y-103849714D01*
X169635715Y-103777143D01*
X169708286Y-103632000D01*
X169853429Y-103559429D01*
X170071143Y-103559429D01*
X170216286Y-103632000D01*
X171159714Y-104575429D02*
X171014572Y-104502857D01*
X170942000Y-104430286D01*
X170869429Y-104285143D01*
X170869429Y-103849714D01*
X170942000Y-103704571D01*
X171014572Y-103632000D01*
X171159714Y-103559429D01*
X171377429Y-103559429D01*
X171522572Y-103632000D01*
X171595143Y-103704571D01*
X171667714Y-103849714D01*
X171667714Y-104285143D01*
X171595143Y-104430286D01*
X171522572Y-104502857D01*
X171377429Y-104575429D01*
X171159714Y-104575429D01*
X172974000Y-104502857D02*
X172828857Y-104575429D01*
X172538571Y-104575429D01*
X172393429Y-104502857D01*
X172320857Y-104430286D01*
X172248286Y-104285143D01*
X172248286Y-103849714D01*
X172320857Y-103704571D01*
X172393429Y-103632000D01*
X172538571Y-103559429D01*
X172828857Y-103559429D01*
X172974000Y-103632000D01*
X173627143Y-104575429D02*
X173627143Y-103051429D01*
X173772286Y-103994857D02*
X174207715Y-104575429D01*
X174207715Y-103559429D02*
X173627143Y-104140000D01*
X175441429Y-104502857D02*
X175296286Y-104575429D01*
X175006000Y-104575429D01*
X174860857Y-104502857D01*
X174788286Y-104357714D01*
X174788286Y-103777143D01*
X174860857Y-103632000D01*
X175006000Y-103559429D01*
X175296286Y-103559429D01*
X175441429Y-103632000D01*
X175514000Y-103777143D01*
X175514000Y-103922286D01*
X174788286Y-104067429D01*
X175949429Y-103559429D02*
X176530000Y-103559429D01*
X176167143Y-103051429D02*
X176167143Y-104357714D01*
X176239715Y-104502857D01*
X176384857Y-104575429D01*
X176530000Y-104575429D01*
M02*
