G04 #@! TF.FileFunction,Soldermask,Top*
%FSLAX46Y46*%
G04 Gerber Fmt 4.6, Leading zero omitted, Abs format (unit mm)*
G04 Created by KiCad (PCBNEW 4.0.7) date Mon Dec  4 21:54:59 2017*
%MOMM*%
%LPD*%
G01*
G04 APERTURE LIST*
%ADD10C,0.100000*%
%ADD11R,5.210000X5.400000*%
%ADD12R,1.400000X5.400000*%
%ADD13R,1.040000X4.020000*%
G04 APERTURE END LIST*
D10*
D11*
X172466000Y-89916000D03*
X162306000Y-89916000D03*
X150876000Y-89916000D03*
D12*
X175641000Y-89916000D03*
X169291000Y-89916000D03*
X168021000Y-89916000D03*
X166751000Y-89916000D03*
X165481000Y-89916000D03*
X159131000Y-89916000D03*
X157861000Y-89916000D03*
X156591000Y-89916000D03*
X155321000Y-89916000D03*
X154051000Y-89916000D03*
X147701000Y-89916000D03*
X146431000Y-89916000D03*
X145161000Y-89916000D03*
X143891000Y-89916000D03*
X135001000Y-89916000D03*
X133731000Y-89916000D03*
X142621000Y-89916000D03*
D11*
X139446000Y-89916000D03*
D12*
X136271000Y-89916000D03*
X132461000Y-89916000D03*
D11*
X129286000Y-89916000D03*
D12*
X126111000Y-89916000D03*
D13*
X126111000Y-99386000D03*
X127381000Y-99386000D03*
X128651000Y-99386000D03*
X129921000Y-99386000D03*
X131191000Y-99386000D03*
X132461000Y-99386000D03*
X133731000Y-99386000D03*
X135001000Y-99386000D03*
X136271000Y-99386000D03*
X137541000Y-99386000D03*
X138811000Y-99386000D03*
X140081000Y-99386000D03*
X141351000Y-99386000D03*
X142621000Y-99386000D03*
X143891000Y-99386000D03*
X145161000Y-99386000D03*
X146431000Y-99386000D03*
X147701000Y-99386000D03*
X148971000Y-99386000D03*
X150241000Y-99386000D03*
X151511000Y-99386000D03*
X152781000Y-99386000D03*
X154051000Y-99386000D03*
X155321000Y-99386000D03*
X156591000Y-99386000D03*
X157861000Y-99386000D03*
X159131000Y-99386000D03*
X160401000Y-99386000D03*
X161671000Y-99386000D03*
X162941000Y-99386000D03*
X164211000Y-99386000D03*
X165481000Y-99386000D03*
X166751000Y-99386000D03*
X168021000Y-99386000D03*
X169291000Y-99386000D03*
X170561000Y-99386000D03*
X171831000Y-99386000D03*
X173101000Y-99386000D03*
X174371000Y-99386000D03*
X175641000Y-99386000D03*
X175641000Y-108386000D03*
X174371000Y-108386000D03*
X173101000Y-108386000D03*
X171831000Y-108386000D03*
X170561000Y-108386000D03*
X169291000Y-108386000D03*
X168021000Y-108386000D03*
X166751000Y-108386000D03*
X165481000Y-108386000D03*
X164211000Y-108386000D03*
X162941000Y-108386000D03*
X161671000Y-108386000D03*
X160401000Y-108386000D03*
X159131000Y-108386000D03*
X157861000Y-108386000D03*
X156591000Y-108386000D03*
X155321000Y-108386000D03*
X154051000Y-108386000D03*
X152781000Y-108386000D03*
X151511000Y-108386000D03*
X150241000Y-108386000D03*
X148971000Y-108386000D03*
X147701000Y-108386000D03*
X146431000Y-108386000D03*
X145161000Y-108386000D03*
X143891000Y-108386000D03*
X142621000Y-108386000D03*
X141351000Y-108386000D03*
X140081000Y-108386000D03*
X138811000Y-108386000D03*
X137541000Y-108386000D03*
X136271000Y-108386000D03*
X135001000Y-108386000D03*
X133731000Y-108386000D03*
X132461000Y-108386000D03*
X131191000Y-108386000D03*
X129921000Y-108386000D03*
X128651000Y-108386000D03*
X127381000Y-108386000D03*
X126111000Y-108386000D03*
M02*
