G04 #@! TF.FileFunction,Copper,L1,Top,Signal*
%FSLAX46Y46*%
G04 Gerber Fmt 4.6, Leading zero omitted, Abs format (unit mm)*
G04 Created by KiCad (PCBNEW 4.0.7) date Mon Dec  4 21:54:59 2017*
%MOMM*%
%LPD*%
G01*
G04 APERTURE LIST*
%ADD10C,0.100000*%
%ADD11R,4.810000X5.000000*%
%ADD12R,1.000000X5.000000*%
%ADD13R,1.020000X4.000000*%
%ADD14C,0.600000*%
%ADD15C,0.200000*%
%ADD16C,0.300000*%
G04 APERTURE END LIST*
D10*
D11*
X172466000Y-89916000D03*
X162306000Y-89916000D03*
X150876000Y-89916000D03*
D12*
X175641000Y-89916000D03*
X169291000Y-89916000D03*
X168021000Y-89916000D03*
X166751000Y-89916000D03*
X165481000Y-89916000D03*
X159131000Y-89916000D03*
X157861000Y-89916000D03*
X156591000Y-89916000D03*
X155321000Y-89916000D03*
X154051000Y-89916000D03*
X147701000Y-89916000D03*
X146431000Y-89916000D03*
X145161000Y-89916000D03*
X143891000Y-89916000D03*
X135001000Y-89916000D03*
X133731000Y-89916000D03*
X142621000Y-89916000D03*
D11*
X139446000Y-89916000D03*
D12*
X136271000Y-89916000D03*
X132461000Y-89916000D03*
D11*
X129286000Y-89916000D03*
D12*
X126111000Y-89916000D03*
D13*
X126111000Y-99386000D03*
X127381000Y-99386000D03*
X128651000Y-99386000D03*
X129921000Y-99386000D03*
X131191000Y-99386000D03*
X132461000Y-99386000D03*
X133731000Y-99386000D03*
X135001000Y-99386000D03*
X136271000Y-99386000D03*
X137541000Y-99386000D03*
X138811000Y-99386000D03*
X140081000Y-99386000D03*
X141351000Y-99386000D03*
X142621000Y-99386000D03*
X143891000Y-99386000D03*
X145161000Y-99386000D03*
X146431000Y-99386000D03*
X147701000Y-99386000D03*
X148971000Y-99386000D03*
X150241000Y-99386000D03*
X151511000Y-99386000D03*
X152781000Y-99386000D03*
X154051000Y-99386000D03*
X155321000Y-99386000D03*
X156591000Y-99386000D03*
X157861000Y-99386000D03*
X159131000Y-99386000D03*
X160401000Y-99386000D03*
X161671000Y-99386000D03*
X162941000Y-99386000D03*
X164211000Y-99386000D03*
X165481000Y-99386000D03*
X166751000Y-99386000D03*
X168021000Y-99386000D03*
X169291000Y-99386000D03*
X170561000Y-99386000D03*
X171831000Y-99386000D03*
X173101000Y-99386000D03*
X174371000Y-99386000D03*
X175641000Y-99386000D03*
X175641000Y-108386000D03*
X174371000Y-108386000D03*
X173101000Y-108386000D03*
X171831000Y-108386000D03*
X170561000Y-108386000D03*
X169291000Y-108386000D03*
X168021000Y-108386000D03*
X166751000Y-108386000D03*
X165481000Y-108386000D03*
X164211000Y-108386000D03*
X162941000Y-108386000D03*
X161671000Y-108386000D03*
X160401000Y-108386000D03*
X159131000Y-108386000D03*
X157861000Y-108386000D03*
X156591000Y-108386000D03*
X155321000Y-108386000D03*
X154051000Y-108386000D03*
X152781000Y-108386000D03*
X151511000Y-108386000D03*
X150241000Y-108386000D03*
X148971000Y-108386000D03*
X147701000Y-108386000D03*
X146431000Y-108386000D03*
X145161000Y-108386000D03*
X143891000Y-108386000D03*
X142621000Y-108386000D03*
X141351000Y-108386000D03*
X140081000Y-108386000D03*
X138811000Y-108386000D03*
X137541000Y-108386000D03*
X136271000Y-108386000D03*
X135001000Y-108386000D03*
X133731000Y-108386000D03*
X132461000Y-108386000D03*
X131191000Y-108386000D03*
X129921000Y-108386000D03*
X128651000Y-108386000D03*
X127381000Y-108386000D03*
X126111000Y-108386000D03*
D14*
X132461000Y-105410000D03*
X169164000Y-102362012D03*
X123952000Y-99441004D03*
X128016000Y-103886000D03*
X136779000Y-105410006D03*
X162306000Y-96520000D03*
X152527000Y-102997000D03*
X150712284Y-103664289D03*
X134747000Y-105410000D03*
X126492000Y-103886000D03*
X128143000Y-95631000D03*
X168021000Y-96012000D03*
X156591000Y-102996998D03*
X143002000Y-104902000D03*
X153796998Y-102997000D03*
X155194000Y-102997000D03*
X153289000Y-105537002D03*
X147066000Y-104902000D03*
X154545792Y-105546084D03*
X146050000Y-104902000D03*
X156083004Y-105537000D03*
X145034000Y-104902000D03*
X157480004Y-105537000D03*
X144018000Y-104902000D03*
X166497000Y-104648000D03*
X136398000Y-102870000D03*
X167709989Y-104648000D03*
X133858000Y-102108000D03*
X124968000Y-99441000D03*
X168910000Y-104648000D03*
X170180000Y-104648000D03*
X171450000Y-104648000D03*
X172720000Y-104648000D03*
X173990000Y-104648000D03*
X175260000Y-104648000D03*
X132842000Y-94234000D03*
X129540000Y-94234000D03*
X126746000Y-94234000D03*
X127254000Y-102108000D03*
X132334000Y-102108000D03*
X131064000Y-102108000D03*
X129794000Y-102108000D03*
X128524000Y-102108000D03*
D15*
X131967000Y-105410000D02*
X131826000Y-105551000D01*
X131826000Y-105551000D02*
X131191000Y-106186000D01*
X130429000Y-105537000D02*
X131812000Y-105537000D01*
X131812000Y-105537000D02*
X131826000Y-105551000D01*
X132461000Y-105410000D02*
X131967000Y-105410000D01*
X131191000Y-106186000D02*
X131191000Y-108386000D01*
X169164000Y-102362012D02*
X169545000Y-102362012D01*
X169545000Y-102362012D02*
X170561000Y-102362012D01*
X170561000Y-99386000D02*
X170561000Y-101586000D01*
X170561000Y-101586000D02*
X169784988Y-102362012D01*
X169784988Y-102362012D02*
X169545000Y-102362012D01*
X170561000Y-102362012D02*
X172212000Y-102362012D01*
X171831000Y-99386000D02*
X171831000Y-101586000D01*
X171831000Y-101586000D02*
X171054988Y-102362012D01*
X171054988Y-102362012D02*
X170561000Y-102362012D01*
X172212000Y-102362012D02*
X173735988Y-102362012D01*
X173101000Y-99386000D02*
X173101000Y-101586000D01*
X173101000Y-101586000D02*
X172324988Y-102362012D01*
X172324988Y-102362012D02*
X172212000Y-102362012D01*
X173735988Y-102362012D02*
X174371000Y-101727000D01*
X174371000Y-101727000D02*
X174371000Y-99386000D01*
X130429000Y-105537000D02*
X129286000Y-105537000D01*
X129921000Y-108386000D02*
X129921000Y-106045000D01*
X129921000Y-106045000D02*
X130429000Y-105537000D01*
X129286000Y-105537000D02*
X128030000Y-105537000D01*
X128651000Y-108386000D02*
X128651000Y-106186000D01*
X128651000Y-106186000D02*
X129286000Y-105551000D01*
X129286000Y-105551000D02*
X129286000Y-105537000D01*
X128030000Y-105537000D02*
X127381000Y-106186000D01*
X127381000Y-106186000D02*
X127381000Y-108386000D01*
X174117000Y-96901000D02*
X174371000Y-97155000D01*
X173101000Y-96901000D02*
X174117000Y-96901000D01*
X170561000Y-97155000D02*
X170561000Y-99386000D01*
X171831000Y-96901000D02*
X170815000Y-96901000D01*
X173101000Y-96901000D02*
X173101000Y-99386000D01*
X174371000Y-97155000D02*
X174371000Y-99386000D01*
X172466000Y-89916000D02*
X172466000Y-96266000D01*
X172466000Y-96266000D02*
X171831000Y-96901000D01*
X172466000Y-96266000D02*
X173101000Y-96901000D01*
X170815000Y-96901000D02*
X170561000Y-97155000D01*
X171831000Y-96901000D02*
X171831000Y-99386000D01*
X123952000Y-99865268D02*
X123952000Y-99441004D01*
X127591736Y-103886000D02*
X123952000Y-100246264D01*
X128016000Y-103886000D02*
X127591736Y-103886000D01*
X123952000Y-100246264D02*
X123952000Y-99865268D01*
X162306000Y-96520000D02*
X161671000Y-97155000D01*
X161671000Y-97155000D02*
X161671000Y-97186000D01*
X161671000Y-97186000D02*
X161671000Y-99386000D01*
X137541000Y-108386000D02*
X137541000Y-105918000D01*
X137541000Y-105918000D02*
X137033000Y-105410000D01*
X137033000Y-105410000D02*
X136765000Y-105410000D01*
X136765000Y-105410000D02*
X136778994Y-105410000D01*
X136778994Y-105410000D02*
X136779000Y-105410006D01*
X160782000Y-96520000D02*
X160401000Y-96901000D01*
X160401000Y-96901000D02*
X160401000Y-99386000D01*
X162306000Y-96520000D02*
X160782000Y-96520000D01*
X162306000Y-96520000D02*
X162941000Y-97155000D01*
X162941000Y-97155000D02*
X162941000Y-99386000D01*
X162306000Y-96520000D02*
X163830000Y-96520000D01*
X163830000Y-96520000D02*
X164211000Y-96901000D01*
X164211000Y-96901000D02*
X164211000Y-99386000D01*
X140970000Y-105410000D02*
X141351000Y-105791000D01*
X141351000Y-105791000D02*
X141351000Y-108386000D01*
X139700000Y-105410000D02*
X140970000Y-105410000D01*
X139700000Y-105410000D02*
X140081000Y-105791000D01*
X140081000Y-105791000D02*
X140081000Y-108386000D01*
X138430000Y-105410000D02*
X139700000Y-105410000D01*
X136765000Y-105410000D02*
X138430000Y-105410000D01*
X138430000Y-105410000D02*
X138811000Y-105791000D01*
X138811000Y-105791000D02*
X138811000Y-108386000D01*
X162306000Y-89916000D02*
X162306000Y-96520000D01*
X152227001Y-102697001D02*
X152527000Y-102997000D01*
X151511000Y-101981000D02*
X152227001Y-102697001D01*
X151511000Y-99386000D02*
X151511000Y-101981000D01*
X150241000Y-104135573D02*
X150412285Y-103964288D01*
X150412285Y-103964288D02*
X150712284Y-103664289D01*
X150241000Y-105664000D02*
X150241000Y-104135573D01*
X152781000Y-106896000D02*
X152781000Y-108386000D01*
X151130000Y-105664000D02*
X151549000Y-105664000D01*
X151549000Y-105664000D02*
X152781000Y-106896000D01*
X152527000Y-96901000D02*
X152781000Y-97155000D01*
X152781000Y-97155000D02*
X152781000Y-99386000D01*
X151511000Y-96901000D02*
X152527000Y-96901000D01*
X150876000Y-96266000D02*
X151511000Y-96901000D01*
X151511000Y-96901000D02*
X151511000Y-99386000D01*
X149225000Y-96901000D02*
X148971000Y-97155000D01*
X148971000Y-97155000D02*
X148971000Y-99386000D01*
X150241000Y-96901000D02*
X149225000Y-96901000D01*
X150876000Y-96266000D02*
X150241000Y-96901000D01*
X150241000Y-96901000D02*
X150241000Y-99386000D01*
X150876000Y-89916000D02*
X150876000Y-96266000D01*
X151130000Y-105664000D02*
X151511000Y-106045000D01*
X151511000Y-106045000D02*
X151511000Y-108386000D01*
X150241000Y-105664000D02*
X151130000Y-105664000D01*
X150241000Y-105664000D02*
X149493000Y-105664000D01*
X149493000Y-105664000D02*
X148971000Y-106186000D01*
X148971000Y-106186000D02*
X148971000Y-108386000D01*
X150241000Y-108386000D02*
X150241000Y-105664000D01*
X148971000Y-108386000D02*
X152781000Y-108386000D01*
X175641000Y-89916000D02*
X175641000Y-92616000D01*
X175641000Y-92616000D02*
X175641000Y-99386000D01*
X169291000Y-89916000D02*
X169291000Y-99386000D01*
X134507000Y-105410000D02*
X134747000Y-105410000D01*
X133731000Y-106186000D02*
X134507000Y-105410000D01*
X133731000Y-108386000D02*
X133731000Y-106186000D01*
X126192001Y-103586001D02*
X126492000Y-103886000D01*
X123351998Y-98981738D02*
X123351998Y-100745998D01*
X126702736Y-95631000D02*
X123351998Y-98981738D01*
X123351998Y-100745998D02*
X126192001Y-103586001D01*
X128143000Y-95631000D02*
X126702736Y-95631000D01*
X168021000Y-89916000D02*
X168021000Y-96012000D01*
X168021000Y-96012000D02*
X168021000Y-99386000D01*
X166751000Y-89916000D02*
X166751000Y-99386000D01*
X165481000Y-89916000D02*
X165481000Y-99386000D01*
X157015264Y-102996998D02*
X156591000Y-102996998D01*
X157720002Y-102996998D02*
X157015264Y-102996998D01*
X159131000Y-101586000D02*
X157720002Y-102996998D01*
X159131000Y-99386000D02*
X159131000Y-101586000D01*
X142702001Y-105201999D02*
X143002000Y-104902000D01*
X142621000Y-108386000D02*
X142621000Y-105283000D01*
X142621000Y-105283000D02*
X142702001Y-105201999D01*
X159131000Y-89916000D02*
X159131000Y-92616000D01*
X159131000Y-92616000D02*
X159131000Y-99386000D01*
X157861000Y-89916000D02*
X157861000Y-99386000D01*
X156591000Y-89916000D02*
X156591000Y-92616000D01*
X156591000Y-92616000D02*
X156591000Y-99386000D01*
X152111998Y-103724002D02*
X153958002Y-103724002D01*
X151182030Y-102540031D02*
X151672999Y-103031003D01*
X146431000Y-106531338D02*
X150422309Y-102540029D01*
X153958002Y-103724002D02*
X154397003Y-103285002D01*
X146431000Y-108386000D02*
X146431000Y-106531338D01*
X151672999Y-103285001D02*
X152111998Y-103724002D01*
X151672999Y-103031003D02*
X151672999Y-103285001D01*
X155321000Y-101586000D02*
X155321000Y-99386000D01*
X154397003Y-102509997D02*
X155321000Y-101586000D01*
X150422309Y-102540029D02*
X151182030Y-102540031D01*
X154397003Y-103285002D02*
X154397003Y-102509997D01*
X155321000Y-89916000D02*
X155321000Y-99386000D01*
X151272988Y-103196693D02*
X151272988Y-103450690D01*
X151272988Y-103450690D02*
X151946309Y-104124013D01*
X151946309Y-104124013D02*
X154491251Y-104124013D01*
X151016339Y-102940041D02*
X151272988Y-103196693D01*
X147701000Y-105827038D02*
X150587998Y-102940040D01*
X147701000Y-108386000D02*
X147701000Y-105827038D01*
X155194000Y-103421264D02*
X155194000Y-102997000D01*
X154491251Y-104124013D02*
X155194000Y-103421264D01*
X150587998Y-102940040D02*
X151016339Y-102940041D01*
X153796998Y-102143004D02*
X153796998Y-102572736D01*
X154132001Y-101808001D02*
X153796998Y-102143004D01*
X153796998Y-102572736D02*
X153796998Y-102997000D01*
X153924000Y-99513000D02*
X153924000Y-101600000D01*
X154051000Y-101727000D02*
X154132001Y-101808001D01*
X153924000Y-101600000D02*
X154132001Y-101808001D01*
X154051000Y-99386000D02*
X154051000Y-101727000D01*
X154051000Y-89916000D02*
X154051000Y-92616000D01*
X154051000Y-92616000D02*
X154051000Y-99386000D01*
X154051000Y-106186000D02*
X153402002Y-105537002D01*
X154051000Y-108386000D02*
X154051000Y-106186000D01*
X153402002Y-105537002D02*
X153289000Y-105537002D01*
X147066000Y-104902000D02*
X147066000Y-104477736D01*
X147066000Y-104477736D02*
X147701000Y-103842736D01*
X147701000Y-103842736D02*
X147701000Y-101586000D01*
X147701000Y-101586000D02*
X147701000Y-99386000D01*
X147701000Y-89916000D02*
X147701000Y-99386000D01*
X155321000Y-108386000D02*
X155321000Y-106186000D01*
X155321000Y-106186000D02*
X154681084Y-105546084D01*
X154681084Y-105546084D02*
X154545792Y-105546084D01*
X146050000Y-104902000D02*
X146431000Y-104521000D01*
X146431000Y-104521000D02*
X146431000Y-99386000D01*
X146431000Y-89916000D02*
X146431000Y-92616000D01*
X146431000Y-92616000D02*
X146431000Y-99386000D01*
X156383003Y-105836999D02*
X156083004Y-105537000D01*
X156591000Y-106044996D02*
X156383003Y-105836999D01*
X156591000Y-108386000D02*
X156591000Y-106044996D01*
X145034000Y-104902000D02*
X145034000Y-99513000D01*
X145034000Y-99513000D02*
X145161000Y-99386000D01*
X145161000Y-89916000D02*
X145161000Y-99386000D01*
X157780003Y-105836999D02*
X157480004Y-105537000D01*
X157861000Y-105917996D02*
X157780003Y-105836999D01*
X157861000Y-108386000D02*
X157861000Y-105917996D01*
X144018000Y-104902000D02*
X144018000Y-99513000D01*
X144018000Y-99513000D02*
X143891000Y-99386000D01*
X143891000Y-89916000D02*
X143891000Y-99386000D01*
X166751000Y-108386000D02*
X166751000Y-104902000D01*
X166751000Y-104902000D02*
X166497000Y-104648000D01*
X135001000Y-99386000D02*
X135001000Y-101586000D01*
X135001000Y-101586000D02*
X136285000Y-102870000D01*
X136285000Y-102870000D02*
X136398000Y-102870000D01*
X135001000Y-89916000D02*
X135001000Y-99386000D01*
X168021000Y-108386000D02*
X168021000Y-104959011D01*
X168021000Y-104959011D02*
X168009988Y-104947999D01*
X168009988Y-104947999D02*
X167709989Y-104648000D01*
X133731000Y-99386000D02*
X133731000Y-101981000D01*
X133731000Y-101981000D02*
X133858000Y-102108000D01*
X133731000Y-89916000D02*
X133731000Y-92616000D01*
X133731000Y-92616000D02*
X133731000Y-99386000D01*
X125023000Y-99386000D02*
X124968000Y-99441000D01*
X126111000Y-99386000D02*
X125023000Y-99386000D01*
X169291000Y-108386000D02*
X169291000Y-105029000D01*
X169209999Y-104947999D02*
X168910000Y-104648000D01*
X169291000Y-105029000D02*
X169209999Y-104947999D01*
X170561000Y-108386000D02*
X170561000Y-105029000D01*
X170561000Y-105029000D02*
X170180000Y-104648000D01*
X171831000Y-108386000D02*
X171831000Y-105029000D01*
X171831000Y-105029000D02*
X171450000Y-104648000D01*
X173101000Y-108386000D02*
X173101000Y-105029000D01*
X173101000Y-105029000D02*
X172720000Y-104648000D01*
X174371000Y-108386000D02*
X174371000Y-105029000D01*
X174371000Y-105029000D02*
X173990000Y-104648000D01*
X175641000Y-108386000D02*
X175641000Y-105029000D01*
X175641000Y-105029000D02*
X175260000Y-104648000D01*
X132461000Y-89916000D02*
X132461000Y-93853000D01*
X132461000Y-93853000D02*
X132842000Y-94234000D01*
X129286000Y-89916000D02*
X129286000Y-93980000D01*
X129286000Y-93980000D02*
X129540000Y-94234000D01*
X126111000Y-89916000D02*
X126111000Y-93599000D01*
X126111000Y-93599000D02*
X126746000Y-94234000D01*
X127381000Y-99386000D02*
X127381000Y-101981000D01*
X127381000Y-101981000D02*
X127254000Y-102108000D01*
X132461000Y-99386000D02*
X132461000Y-101981000D01*
X132461000Y-101981000D02*
X132334000Y-102108000D01*
X131191000Y-99386000D02*
X131191000Y-101981000D01*
X131191000Y-101981000D02*
X131064000Y-102108000D01*
X129921000Y-99386000D02*
X129921000Y-101981000D01*
X129921000Y-101981000D02*
X129794000Y-102108000D01*
X128651000Y-99386000D02*
X128651000Y-101981000D01*
X128651000Y-101981000D02*
X128524000Y-102108000D01*
D16*
G36*
X136296000Y-89891000D02*
X139421000Y-89891000D01*
X139421000Y-89871000D01*
X139471000Y-89871000D01*
X139471000Y-89891000D01*
X142596000Y-89891000D01*
X142596000Y-89871000D01*
X142646000Y-89871000D01*
X142646000Y-89891000D01*
X142666000Y-89891000D01*
X142666000Y-89941000D01*
X142646000Y-89941000D01*
X142646000Y-92753500D01*
X142758500Y-92866000D01*
X143210511Y-92866000D01*
X143255481Y-92847373D01*
X143341000Y-92864691D01*
X143341000Y-96934711D01*
X143256007Y-96950703D01*
X143220511Y-96936000D01*
X142758500Y-96936000D01*
X142646000Y-97048500D01*
X142646000Y-99361000D01*
X142666000Y-99361000D01*
X142666000Y-99411000D01*
X142646000Y-99411000D01*
X142646000Y-101723500D01*
X142758500Y-101836000D01*
X143220511Y-101836000D01*
X143258914Y-101820093D01*
X143381000Y-101844816D01*
X143468000Y-101844816D01*
X143468000Y-104307228D01*
X143427395Y-104266552D01*
X143151839Y-104152131D01*
X142853470Y-104151870D01*
X142577714Y-104265811D01*
X142366552Y-104476605D01*
X142252131Y-104752161D01*
X142252024Y-104874158D01*
X142232091Y-104894091D01*
X142112866Y-105072524D01*
X142071000Y-105283000D01*
X142071000Y-105934711D01*
X141981411Y-105951568D01*
X141901000Y-105935284D01*
X141901000Y-105791000D01*
X141859134Y-105580524D01*
X141739909Y-105402091D01*
X141739906Y-105402089D01*
X141358909Y-105021091D01*
X141180476Y-104901866D01*
X140970000Y-104860000D01*
X137289688Y-104860000D01*
X137204395Y-104774558D01*
X136928839Y-104660137D01*
X136630470Y-104659876D01*
X136354714Y-104773817D01*
X136143552Y-104984611D01*
X136029131Y-105260167D01*
X136028870Y-105558536D01*
X136142811Y-105834292D01*
X136235541Y-105927184D01*
X135761000Y-105927184D01*
X135631411Y-105951568D01*
X135511000Y-105927184D01*
X135290499Y-105927184D01*
X135382448Y-105835395D01*
X135496869Y-105559839D01*
X135497130Y-105261470D01*
X135383189Y-104985714D01*
X135172395Y-104774552D01*
X134896839Y-104660131D01*
X134598470Y-104659870D01*
X134322714Y-104773811D01*
X134111552Y-104984605D01*
X134081000Y-105058182D01*
X133342091Y-105797091D01*
X133255166Y-105927184D01*
X133221000Y-105927184D01*
X133091411Y-105951568D01*
X132998849Y-105932824D01*
X133096448Y-105835395D01*
X133210869Y-105559839D01*
X133211130Y-105261470D01*
X133097189Y-104985714D01*
X132886395Y-104774552D01*
X132610839Y-104660131D01*
X132312470Y-104659870D01*
X132036714Y-104773811D01*
X131946237Y-104864130D01*
X131756524Y-104901866D01*
X131629112Y-104987000D01*
X128030005Y-104987000D01*
X128030000Y-104986999D01*
X127825205Y-105027736D01*
X127819524Y-105028866D01*
X127641091Y-105148091D01*
X127641090Y-105148093D01*
X126992091Y-105797091D01*
X126905166Y-105927184D01*
X126871000Y-105927184D01*
X126741411Y-105951568D01*
X126621000Y-105927184D01*
X125601000Y-105927184D01*
X125434240Y-105958562D01*
X125281081Y-106057117D01*
X125178332Y-106207495D01*
X125142184Y-106386000D01*
X125142184Y-110386000D01*
X125173562Y-110552760D01*
X125272117Y-110705919D01*
X125422495Y-110808668D01*
X125601000Y-110844816D01*
X126621000Y-110844816D01*
X126750589Y-110820432D01*
X126871000Y-110844816D01*
X127891000Y-110844816D01*
X128020589Y-110820432D01*
X128141000Y-110844816D01*
X129161000Y-110844816D01*
X129290589Y-110820432D01*
X129411000Y-110844816D01*
X130431000Y-110844816D01*
X130560589Y-110820432D01*
X130681000Y-110844816D01*
X131701000Y-110844816D01*
X131830589Y-110820432D01*
X131951000Y-110844816D01*
X132971000Y-110844816D01*
X133100589Y-110820432D01*
X133221000Y-110844816D01*
X134241000Y-110844816D01*
X134370589Y-110820432D01*
X134491000Y-110844816D01*
X135511000Y-110844816D01*
X135640589Y-110820432D01*
X135761000Y-110844816D01*
X136781000Y-110844816D01*
X136910589Y-110820432D01*
X137031000Y-110844816D01*
X138051000Y-110844816D01*
X138180589Y-110820432D01*
X138301000Y-110844816D01*
X139321000Y-110844816D01*
X139450589Y-110820432D01*
X139571000Y-110844816D01*
X140591000Y-110844816D01*
X140720589Y-110820432D01*
X140841000Y-110844816D01*
X141861000Y-110844816D01*
X141990589Y-110820432D01*
X142111000Y-110844816D01*
X143131000Y-110844816D01*
X143260589Y-110820432D01*
X143381000Y-110844816D01*
X144401000Y-110844816D01*
X144530589Y-110820432D01*
X144651000Y-110844816D01*
X145671000Y-110844816D01*
X145800589Y-110820432D01*
X145921000Y-110844816D01*
X146941000Y-110844816D01*
X147070589Y-110820432D01*
X147191000Y-110844816D01*
X148211000Y-110844816D01*
X148340589Y-110820432D01*
X148461000Y-110844816D01*
X149481000Y-110844816D01*
X149610589Y-110820432D01*
X149731000Y-110844816D01*
X150751000Y-110844816D01*
X150880589Y-110820432D01*
X151001000Y-110844816D01*
X152021000Y-110844816D01*
X152150589Y-110820432D01*
X152271000Y-110844816D01*
X153291000Y-110844816D01*
X153420589Y-110820432D01*
X153541000Y-110844816D01*
X154561000Y-110844816D01*
X154690589Y-110820432D01*
X154811000Y-110844816D01*
X155831000Y-110844816D01*
X155960589Y-110820432D01*
X156081000Y-110844816D01*
X157101000Y-110844816D01*
X157230589Y-110820432D01*
X157351000Y-110844816D01*
X158371000Y-110844816D01*
X158495993Y-110821297D01*
X158531489Y-110836000D01*
X158993500Y-110836000D01*
X159106000Y-110723500D01*
X159106000Y-108411000D01*
X159156000Y-108411000D01*
X159156000Y-110723500D01*
X159268500Y-110836000D01*
X159730511Y-110836000D01*
X159766000Y-110821300D01*
X159801489Y-110836000D01*
X160263500Y-110836000D01*
X160376000Y-110723500D01*
X160376000Y-108411000D01*
X160426000Y-108411000D01*
X160426000Y-110723500D01*
X160538500Y-110836000D01*
X161000511Y-110836000D01*
X161036000Y-110821300D01*
X161071489Y-110836000D01*
X161533500Y-110836000D01*
X161646000Y-110723500D01*
X161646000Y-108411000D01*
X161696000Y-108411000D01*
X161696000Y-110723500D01*
X161808500Y-110836000D01*
X162270511Y-110836000D01*
X162306000Y-110821300D01*
X162341489Y-110836000D01*
X162803500Y-110836000D01*
X162916000Y-110723500D01*
X162916000Y-108411000D01*
X162966000Y-108411000D01*
X162966000Y-110723500D01*
X163078500Y-110836000D01*
X163540511Y-110836000D01*
X163576000Y-110821300D01*
X163611489Y-110836000D01*
X164073500Y-110836000D01*
X164186000Y-110723500D01*
X164186000Y-108411000D01*
X164236000Y-108411000D01*
X164236000Y-110723500D01*
X164348500Y-110836000D01*
X164810511Y-110836000D01*
X164846000Y-110821300D01*
X164881489Y-110836000D01*
X165343500Y-110836000D01*
X165456000Y-110723500D01*
X165456000Y-108411000D01*
X164236000Y-108411000D01*
X164186000Y-108411000D01*
X162966000Y-108411000D01*
X162916000Y-108411000D01*
X161696000Y-108411000D01*
X161646000Y-108411000D01*
X160426000Y-108411000D01*
X160376000Y-108411000D01*
X159156000Y-108411000D01*
X159106000Y-108411000D01*
X159086000Y-108411000D01*
X159086000Y-108361000D01*
X159106000Y-108361000D01*
X159106000Y-106048500D01*
X159156000Y-106048500D01*
X159156000Y-108361000D01*
X160376000Y-108361000D01*
X160376000Y-106048500D01*
X160426000Y-106048500D01*
X160426000Y-108361000D01*
X161646000Y-108361000D01*
X161646000Y-106048500D01*
X161696000Y-106048500D01*
X161696000Y-108361000D01*
X162916000Y-108361000D01*
X162916000Y-106048500D01*
X162966000Y-106048500D01*
X162966000Y-108361000D01*
X164186000Y-108361000D01*
X164186000Y-106048500D01*
X164236000Y-106048500D01*
X164236000Y-108361000D01*
X165456000Y-108361000D01*
X165456000Y-106048500D01*
X165506000Y-106048500D01*
X165506000Y-108361000D01*
X165526000Y-108361000D01*
X165526000Y-108411000D01*
X165506000Y-108411000D01*
X165506000Y-110723500D01*
X165618500Y-110836000D01*
X166080511Y-110836000D01*
X166118914Y-110820093D01*
X166241000Y-110844816D01*
X167261000Y-110844816D01*
X167390589Y-110820432D01*
X167511000Y-110844816D01*
X168531000Y-110844816D01*
X168660589Y-110820432D01*
X168781000Y-110844816D01*
X169801000Y-110844816D01*
X169930589Y-110820432D01*
X170051000Y-110844816D01*
X171071000Y-110844816D01*
X171200589Y-110820432D01*
X171321000Y-110844816D01*
X172341000Y-110844816D01*
X172470589Y-110820432D01*
X172591000Y-110844816D01*
X173611000Y-110844816D01*
X173740589Y-110820432D01*
X173861000Y-110844816D01*
X174881000Y-110844816D01*
X175010589Y-110820432D01*
X175131000Y-110844816D01*
X176151000Y-110844816D01*
X176317760Y-110813438D01*
X176470919Y-110714883D01*
X176573668Y-110564505D01*
X176609816Y-110386000D01*
X176609816Y-106386000D01*
X176578438Y-106219240D01*
X176479883Y-106066081D01*
X176329505Y-105963332D01*
X176191000Y-105935284D01*
X176191000Y-105029000D01*
X176149134Y-104818524D01*
X176029909Y-104640091D01*
X176029906Y-104640089D01*
X176010024Y-104620207D01*
X176010130Y-104499470D01*
X175896189Y-104223714D01*
X175865490Y-104192961D01*
X175995732Y-104192961D01*
X176231208Y-104762857D01*
X176666849Y-105199260D01*
X177236333Y-105435730D01*
X177852961Y-105436268D01*
X178422857Y-105200792D01*
X178859260Y-104765151D01*
X179095730Y-104195667D01*
X179096268Y-103579039D01*
X178860792Y-103009143D01*
X178425151Y-102572740D01*
X177855667Y-102336270D01*
X177239039Y-102335732D01*
X176669143Y-102571208D01*
X176232740Y-103006849D01*
X175996270Y-103576333D01*
X175995732Y-104192961D01*
X175865490Y-104192961D01*
X175685395Y-104012552D01*
X175409839Y-103898131D01*
X175111470Y-103897870D01*
X174835714Y-104011811D01*
X174624817Y-104222340D01*
X174415395Y-104012552D01*
X174139839Y-103898131D01*
X173841470Y-103897870D01*
X173565714Y-104011811D01*
X173354817Y-104222340D01*
X173145395Y-104012552D01*
X172869839Y-103898131D01*
X172571470Y-103897870D01*
X172295714Y-104011811D01*
X172084817Y-104222340D01*
X171875395Y-104012552D01*
X171599839Y-103898131D01*
X171301470Y-103897870D01*
X171025714Y-104011811D01*
X170814817Y-104222340D01*
X170605395Y-104012552D01*
X170329839Y-103898131D01*
X170031470Y-103897870D01*
X169755714Y-104011811D01*
X169544817Y-104222340D01*
X169335395Y-104012552D01*
X169059839Y-103898131D01*
X168761470Y-103897870D01*
X168485714Y-104011811D01*
X168309873Y-104187346D01*
X168135384Y-104012552D01*
X167859828Y-103898131D01*
X167561459Y-103897870D01*
X167285703Y-104011811D01*
X167103362Y-104193835D01*
X166922395Y-104012552D01*
X166646839Y-103898131D01*
X166348470Y-103897870D01*
X166072714Y-104011811D01*
X165861552Y-104222605D01*
X165747131Y-104498161D01*
X165746870Y-104796530D01*
X165860811Y-105072286D01*
X166071605Y-105283448D01*
X166201000Y-105337178D01*
X166201000Y-105934711D01*
X166116007Y-105950703D01*
X166080511Y-105936000D01*
X165618500Y-105936000D01*
X165506000Y-106048500D01*
X165456000Y-106048500D01*
X165343500Y-105936000D01*
X164881489Y-105936000D01*
X164846000Y-105950700D01*
X164810511Y-105936000D01*
X164348500Y-105936000D01*
X164236000Y-106048500D01*
X164186000Y-106048500D01*
X164073500Y-105936000D01*
X163611489Y-105936000D01*
X163576000Y-105950700D01*
X163540511Y-105936000D01*
X163078500Y-105936000D01*
X162966000Y-106048500D01*
X162916000Y-106048500D01*
X162803500Y-105936000D01*
X162341489Y-105936000D01*
X162306000Y-105950700D01*
X162270511Y-105936000D01*
X161808500Y-105936000D01*
X161696000Y-106048500D01*
X161646000Y-106048500D01*
X161533500Y-105936000D01*
X161071489Y-105936000D01*
X161036000Y-105950700D01*
X161000511Y-105936000D01*
X160538500Y-105936000D01*
X160426000Y-106048500D01*
X160376000Y-106048500D01*
X160263500Y-105936000D01*
X159801489Y-105936000D01*
X159766000Y-105950700D01*
X159730511Y-105936000D01*
X159268500Y-105936000D01*
X159156000Y-106048500D01*
X159106000Y-106048500D01*
X158993500Y-105936000D01*
X158531489Y-105936000D01*
X158493086Y-105951907D01*
X158411000Y-105935284D01*
X158411000Y-105917996D01*
X158369134Y-105707520D01*
X158249909Y-105529087D01*
X158230028Y-105509206D01*
X158230134Y-105388470D01*
X158116193Y-105112714D01*
X157905399Y-104901552D01*
X157629843Y-104787131D01*
X157331474Y-104786870D01*
X157055718Y-104900811D01*
X156844556Y-105111605D01*
X156781490Y-105263484D01*
X156719193Y-105112714D01*
X156508399Y-104901552D01*
X156232843Y-104787131D01*
X155934474Y-104786870D01*
X155658718Y-104900811D01*
X155447556Y-105111605D01*
X155333135Y-105387161D01*
X155333106Y-105420288D01*
X155285747Y-105372929D01*
X155181981Y-105121798D01*
X154971187Y-104910636D01*
X154695631Y-104796215D01*
X154397262Y-104795954D01*
X154121506Y-104909895D01*
X153921766Y-105109287D01*
X153714395Y-104901554D01*
X153438839Y-104787133D01*
X153140470Y-104786872D01*
X152864714Y-104900813D01*
X152653552Y-105111607D01*
X152539131Y-105387163D01*
X152538870Y-105685532D01*
X152638719Y-105927184D01*
X152590002Y-105927184D01*
X151937909Y-105275091D01*
X151759476Y-105155866D01*
X151549000Y-105114000D01*
X150791000Y-105114000D01*
X150791000Y-104414358D01*
X150860814Y-104414419D01*
X151136570Y-104300478D01*
X151240855Y-104196375D01*
X151557398Y-104512919D01*
X151557400Y-104512922D01*
X151626497Y-104559091D01*
X151735832Y-104632147D01*
X151946308Y-104674013D01*
X154491251Y-104674013D01*
X154701727Y-104632147D01*
X154880160Y-104512922D01*
X155582909Y-103810173D01*
X155702134Y-103631740D01*
X155722549Y-103529108D01*
X155829448Y-103422395D01*
X155892514Y-103270515D01*
X155954811Y-103421284D01*
X156165605Y-103632446D01*
X156441161Y-103746867D01*
X156739530Y-103747128D01*
X157015286Y-103633187D01*
X157101625Y-103546998D01*
X157720002Y-103546998D01*
X157930478Y-103505132D01*
X158108911Y-103385907D01*
X159519906Y-101974911D01*
X159519909Y-101974909D01*
X159606834Y-101844816D01*
X159641000Y-101844816D01*
X159770589Y-101820432D01*
X159891000Y-101844816D01*
X160911000Y-101844816D01*
X161040589Y-101820432D01*
X161161000Y-101844816D01*
X162181000Y-101844816D01*
X162310589Y-101820432D01*
X162431000Y-101844816D01*
X163451000Y-101844816D01*
X163580589Y-101820432D01*
X163701000Y-101844816D01*
X164721000Y-101844816D01*
X164850589Y-101820432D01*
X164971000Y-101844816D01*
X165991000Y-101844816D01*
X166120589Y-101820432D01*
X166241000Y-101844816D01*
X167261000Y-101844816D01*
X167390589Y-101820432D01*
X167511000Y-101844816D01*
X168531000Y-101844816D01*
X168641305Y-101824061D01*
X168528552Y-101936617D01*
X168414131Y-102212173D01*
X168413870Y-102510542D01*
X168527811Y-102786298D01*
X168738605Y-102997460D01*
X169014161Y-103111881D01*
X169312530Y-103112142D01*
X169588286Y-102998201D01*
X169674625Y-102912012D01*
X173735988Y-102912012D01*
X173946464Y-102870146D01*
X174124897Y-102750921D01*
X174759906Y-102115911D01*
X174759909Y-102115909D01*
X174879134Y-101937476D01*
X174895763Y-101853878D01*
X174898210Y-101841578D01*
X175010589Y-101820432D01*
X175131000Y-101844816D01*
X176151000Y-101844816D01*
X176317760Y-101813438D01*
X176470919Y-101714883D01*
X176573668Y-101564505D01*
X176609816Y-101386000D01*
X176609816Y-97386000D01*
X176578438Y-97219240D01*
X176479883Y-97066081D01*
X176329505Y-96963332D01*
X176191000Y-96935284D01*
X176191000Y-95774953D01*
X176465451Y-96185698D01*
X176465452Y-96185701D01*
X176610300Y-96330548D01*
X177022315Y-96605847D01*
X177022317Y-96605849D01*
X177211570Y-96684239D01*
X177697577Y-96780912D01*
X177749284Y-96780912D01*
X177800000Y-96791000D01*
X179018294Y-96791000D01*
X179351163Y-96857212D01*
X179589522Y-97016478D01*
X179748788Y-97254838D01*
X179815000Y-97587706D01*
X179815000Y-110438294D01*
X179748788Y-110771162D01*
X179589522Y-111009522D01*
X179351163Y-111168788D01*
X179018294Y-111235000D01*
X122733706Y-111235000D01*
X122400838Y-111168788D01*
X122162478Y-111009522D01*
X122003212Y-110771163D01*
X121937000Y-110438294D01*
X121937000Y-97587706D01*
X122003212Y-97254837D01*
X122162478Y-97016478D01*
X122400838Y-96857212D01*
X122733706Y-96791000D01*
X123952000Y-96791000D01*
X124002715Y-96780912D01*
X124054422Y-96780912D01*
X124540425Y-96684240D01*
X124540430Y-96684240D01*
X124729682Y-96605849D01*
X125141698Y-96330549D01*
X125141701Y-96330548D01*
X125286548Y-96185700D01*
X125561847Y-95773685D01*
X125561849Y-95773683D01*
X125640239Y-95584430D01*
X125736912Y-95098423D01*
X125736912Y-95046716D01*
X125747000Y-94996000D01*
X125747000Y-94012818D01*
X125995976Y-94261793D01*
X125995870Y-94382530D01*
X126109811Y-94658286D01*
X126320605Y-94869448D01*
X126596161Y-94983869D01*
X126894530Y-94984130D01*
X127170286Y-94870189D01*
X127381448Y-94659395D01*
X127495869Y-94383839D01*
X127496130Y-94085470D01*
X127382189Y-93809714D01*
X127171395Y-93598552D01*
X126895839Y-93484131D01*
X126773842Y-93484024D01*
X126661000Y-93371182D01*
X126661000Y-92865408D01*
X126750956Y-92848482D01*
X126881000Y-92874816D01*
X128736000Y-92874816D01*
X128736000Y-93980000D01*
X128777866Y-94190476D01*
X128790022Y-94208669D01*
X128789870Y-94382530D01*
X128903811Y-94658286D01*
X129114605Y-94869448D01*
X129390161Y-94983869D01*
X129688530Y-94984130D01*
X129964286Y-94870189D01*
X130175448Y-94659395D01*
X130289869Y-94383839D01*
X130290130Y-94085470D01*
X130176189Y-93809714D01*
X129965395Y-93598552D01*
X129836000Y-93544822D01*
X129836000Y-92874816D01*
X131691000Y-92874816D01*
X131830956Y-92848482D01*
X131911000Y-92864691D01*
X131911000Y-93853000D01*
X131952866Y-94063476D01*
X132072091Y-94241909D01*
X132091976Y-94261794D01*
X132091870Y-94382530D01*
X132205811Y-94658286D01*
X132416605Y-94869448D01*
X132692161Y-94983869D01*
X132990530Y-94984130D01*
X133181000Y-94905429D01*
X133181000Y-96934711D01*
X133091411Y-96951568D01*
X132971000Y-96927184D01*
X131951000Y-96927184D01*
X131821411Y-96951568D01*
X131701000Y-96927184D01*
X130681000Y-96927184D01*
X130551411Y-96951568D01*
X130431000Y-96927184D01*
X129411000Y-96927184D01*
X129281411Y-96951568D01*
X129161000Y-96927184D01*
X128141000Y-96927184D01*
X128011411Y-96951568D01*
X127891000Y-96927184D01*
X126871000Y-96927184D01*
X126741411Y-96951568D01*
X126621000Y-96927184D01*
X126184370Y-96927184D01*
X126930554Y-96181000D01*
X127632306Y-96181000D01*
X127717605Y-96266448D01*
X127993161Y-96380869D01*
X128291530Y-96381130D01*
X128567286Y-96267189D01*
X128778448Y-96056395D01*
X128892869Y-95780839D01*
X128893130Y-95482470D01*
X128779189Y-95206714D01*
X128568395Y-94995552D01*
X128292839Y-94881131D01*
X127994470Y-94880870D01*
X127718714Y-94994811D01*
X127632375Y-95081000D01*
X126702736Y-95081000D01*
X126492260Y-95122866D01*
X126313827Y-95242091D01*
X122963089Y-98592829D01*
X122843864Y-98771262D01*
X122801998Y-98981738D01*
X122801998Y-100745998D01*
X122843864Y-100956474D01*
X122963089Y-101134907D01*
X124164145Y-102335963D01*
X123899039Y-102335732D01*
X123329143Y-102571208D01*
X122892740Y-103006849D01*
X122656270Y-103576333D01*
X122655732Y-104192961D01*
X122891208Y-104762857D01*
X123326849Y-105199260D01*
X123896333Y-105435730D01*
X124512961Y-105436268D01*
X125082857Y-105200792D01*
X125519260Y-104765151D01*
X125755730Y-104195667D01*
X125755841Y-104068342D01*
X125855811Y-104310286D01*
X126066605Y-104521448D01*
X126342161Y-104635869D01*
X126640530Y-104636130D01*
X126916286Y-104522189D01*
X127127448Y-104311395D01*
X127160270Y-104232352D01*
X127202827Y-104274909D01*
X127381260Y-104394134D01*
X127483892Y-104414549D01*
X127590605Y-104521448D01*
X127866161Y-104635869D01*
X128164530Y-104636130D01*
X128440286Y-104522189D01*
X128651448Y-104311395D01*
X128765869Y-104035839D01*
X128766130Y-103737470D01*
X128652189Y-103461714D01*
X128441395Y-103250552D01*
X128165839Y-103136131D01*
X127867470Y-103135870D01*
X127691949Y-103208395D01*
X127341631Y-102858077D01*
X127402530Y-102858130D01*
X127678286Y-102744189D01*
X127889183Y-102533660D01*
X128098605Y-102743448D01*
X128374161Y-102857869D01*
X128672530Y-102858130D01*
X128948286Y-102744189D01*
X129159183Y-102533660D01*
X129368605Y-102743448D01*
X129644161Y-102857869D01*
X129942530Y-102858130D01*
X130218286Y-102744189D01*
X130429183Y-102533660D01*
X130638605Y-102743448D01*
X130914161Y-102857869D01*
X131212530Y-102858130D01*
X131488286Y-102744189D01*
X131699183Y-102533660D01*
X131908605Y-102743448D01*
X132184161Y-102857869D01*
X132482530Y-102858130D01*
X132758286Y-102744189D01*
X132969448Y-102533395D01*
X133083869Y-102257839D01*
X133084130Y-101959470D01*
X133032012Y-101833336D01*
X133100589Y-101820432D01*
X133160300Y-101832524D01*
X133108131Y-101958161D01*
X133107870Y-102256530D01*
X133221811Y-102532286D01*
X133432605Y-102743448D01*
X133708161Y-102857869D01*
X134006530Y-102858130D01*
X134282286Y-102744189D01*
X134493448Y-102533395D01*
X134607869Y-102257839D01*
X134608122Y-101968969D01*
X134612091Y-101974909D01*
X135647877Y-103010695D01*
X135647870Y-103018530D01*
X135761811Y-103294286D01*
X135972605Y-103505448D01*
X136248161Y-103619869D01*
X136546530Y-103620130D01*
X136822286Y-103506189D01*
X137033448Y-103295395D01*
X137147869Y-103019839D01*
X137148130Y-102721470D01*
X137034189Y-102445714D01*
X136823395Y-102234552D01*
X136547839Y-102120131D01*
X136312743Y-102119925D01*
X136028818Y-101836000D01*
X136133500Y-101836000D01*
X136246000Y-101723500D01*
X136246000Y-99411000D01*
X136296000Y-99411000D01*
X136296000Y-101723500D01*
X136408500Y-101836000D01*
X136870511Y-101836000D01*
X136906000Y-101821300D01*
X136941489Y-101836000D01*
X137403500Y-101836000D01*
X137516000Y-101723500D01*
X137516000Y-99411000D01*
X137566000Y-99411000D01*
X137566000Y-101723500D01*
X137678500Y-101836000D01*
X138140511Y-101836000D01*
X138176000Y-101821300D01*
X138211489Y-101836000D01*
X138673500Y-101836000D01*
X138786000Y-101723500D01*
X138786000Y-99411000D01*
X138836000Y-99411000D01*
X138836000Y-101723500D01*
X138948500Y-101836000D01*
X139410511Y-101836000D01*
X139446000Y-101821300D01*
X139481489Y-101836000D01*
X139943500Y-101836000D01*
X140056000Y-101723500D01*
X140056000Y-99411000D01*
X140106000Y-99411000D01*
X140106000Y-101723500D01*
X140218500Y-101836000D01*
X140680511Y-101836000D01*
X140716000Y-101821300D01*
X140751489Y-101836000D01*
X141213500Y-101836000D01*
X141326000Y-101723500D01*
X141326000Y-99411000D01*
X141376000Y-99411000D01*
X141376000Y-101723500D01*
X141488500Y-101836000D01*
X141950511Y-101836000D01*
X141986000Y-101821300D01*
X142021489Y-101836000D01*
X142483500Y-101836000D01*
X142596000Y-101723500D01*
X142596000Y-99411000D01*
X141376000Y-99411000D01*
X141326000Y-99411000D01*
X140106000Y-99411000D01*
X140056000Y-99411000D01*
X138836000Y-99411000D01*
X138786000Y-99411000D01*
X137566000Y-99411000D01*
X137516000Y-99411000D01*
X136296000Y-99411000D01*
X136246000Y-99411000D01*
X136226000Y-99411000D01*
X136226000Y-99361000D01*
X136246000Y-99361000D01*
X136246000Y-97048500D01*
X136296000Y-97048500D01*
X136296000Y-99361000D01*
X137516000Y-99361000D01*
X137516000Y-97048500D01*
X137566000Y-97048500D01*
X137566000Y-99361000D01*
X138786000Y-99361000D01*
X138786000Y-97048500D01*
X138836000Y-97048500D01*
X138836000Y-99361000D01*
X140056000Y-99361000D01*
X140056000Y-97048500D01*
X140106000Y-97048500D01*
X140106000Y-99361000D01*
X141326000Y-99361000D01*
X141326000Y-97048500D01*
X141376000Y-97048500D01*
X141376000Y-99361000D01*
X142596000Y-99361000D01*
X142596000Y-97048500D01*
X142483500Y-96936000D01*
X142021489Y-96936000D01*
X141986000Y-96950700D01*
X141950511Y-96936000D01*
X141488500Y-96936000D01*
X141376000Y-97048500D01*
X141326000Y-97048500D01*
X141213500Y-96936000D01*
X140751489Y-96936000D01*
X140716000Y-96950700D01*
X140680511Y-96936000D01*
X140218500Y-96936000D01*
X140106000Y-97048500D01*
X140056000Y-97048500D01*
X139943500Y-96936000D01*
X139481489Y-96936000D01*
X139446000Y-96950700D01*
X139410511Y-96936000D01*
X138948500Y-96936000D01*
X138836000Y-97048500D01*
X138786000Y-97048500D01*
X138673500Y-96936000D01*
X138211489Y-96936000D01*
X138176000Y-96950700D01*
X138140511Y-96936000D01*
X137678500Y-96936000D01*
X137566000Y-97048500D01*
X137516000Y-97048500D01*
X137403500Y-96936000D01*
X136941489Y-96936000D01*
X136906000Y-96950700D01*
X136870511Y-96936000D01*
X136408500Y-96936000D01*
X136296000Y-97048500D01*
X136246000Y-97048500D01*
X136133500Y-96936000D01*
X135671489Y-96936000D01*
X135633086Y-96951907D01*
X135551000Y-96935284D01*
X135551000Y-92865408D01*
X135639746Y-92848709D01*
X135681489Y-92866000D01*
X136133500Y-92866000D01*
X136246000Y-92753500D01*
X136246000Y-89941000D01*
X136296000Y-89941000D01*
X136296000Y-92753500D01*
X136408500Y-92866000D01*
X136860511Y-92866000D01*
X136906000Y-92847158D01*
X136951489Y-92866000D01*
X139308500Y-92866000D01*
X139421000Y-92753500D01*
X139421000Y-89941000D01*
X139471000Y-89941000D01*
X139471000Y-92753500D01*
X139583500Y-92866000D01*
X141940511Y-92866000D01*
X141986000Y-92847158D01*
X142031489Y-92866000D01*
X142483500Y-92866000D01*
X142596000Y-92753500D01*
X142596000Y-89941000D01*
X139471000Y-89941000D01*
X139421000Y-89941000D01*
X136296000Y-89941000D01*
X136246000Y-89941000D01*
X136226000Y-89941000D01*
X136226000Y-89891000D01*
X136246000Y-89891000D01*
X136246000Y-89871000D01*
X136296000Y-89871000D01*
X136296000Y-89891000D01*
X136296000Y-89891000D01*
G37*
X136296000Y-89891000D02*
X139421000Y-89891000D01*
X139421000Y-89871000D01*
X139471000Y-89871000D01*
X139471000Y-89891000D01*
X142596000Y-89891000D01*
X142596000Y-89871000D01*
X142646000Y-89871000D01*
X142646000Y-89891000D01*
X142666000Y-89891000D01*
X142666000Y-89941000D01*
X142646000Y-89941000D01*
X142646000Y-92753500D01*
X142758500Y-92866000D01*
X143210511Y-92866000D01*
X143255481Y-92847373D01*
X143341000Y-92864691D01*
X143341000Y-96934711D01*
X143256007Y-96950703D01*
X143220511Y-96936000D01*
X142758500Y-96936000D01*
X142646000Y-97048500D01*
X142646000Y-99361000D01*
X142666000Y-99361000D01*
X142666000Y-99411000D01*
X142646000Y-99411000D01*
X142646000Y-101723500D01*
X142758500Y-101836000D01*
X143220511Y-101836000D01*
X143258914Y-101820093D01*
X143381000Y-101844816D01*
X143468000Y-101844816D01*
X143468000Y-104307228D01*
X143427395Y-104266552D01*
X143151839Y-104152131D01*
X142853470Y-104151870D01*
X142577714Y-104265811D01*
X142366552Y-104476605D01*
X142252131Y-104752161D01*
X142252024Y-104874158D01*
X142232091Y-104894091D01*
X142112866Y-105072524D01*
X142071000Y-105283000D01*
X142071000Y-105934711D01*
X141981411Y-105951568D01*
X141901000Y-105935284D01*
X141901000Y-105791000D01*
X141859134Y-105580524D01*
X141739909Y-105402091D01*
X141739906Y-105402089D01*
X141358909Y-105021091D01*
X141180476Y-104901866D01*
X140970000Y-104860000D01*
X137289688Y-104860000D01*
X137204395Y-104774558D01*
X136928839Y-104660137D01*
X136630470Y-104659876D01*
X136354714Y-104773817D01*
X136143552Y-104984611D01*
X136029131Y-105260167D01*
X136028870Y-105558536D01*
X136142811Y-105834292D01*
X136235541Y-105927184D01*
X135761000Y-105927184D01*
X135631411Y-105951568D01*
X135511000Y-105927184D01*
X135290499Y-105927184D01*
X135382448Y-105835395D01*
X135496869Y-105559839D01*
X135497130Y-105261470D01*
X135383189Y-104985714D01*
X135172395Y-104774552D01*
X134896839Y-104660131D01*
X134598470Y-104659870D01*
X134322714Y-104773811D01*
X134111552Y-104984605D01*
X134081000Y-105058182D01*
X133342091Y-105797091D01*
X133255166Y-105927184D01*
X133221000Y-105927184D01*
X133091411Y-105951568D01*
X132998849Y-105932824D01*
X133096448Y-105835395D01*
X133210869Y-105559839D01*
X133211130Y-105261470D01*
X133097189Y-104985714D01*
X132886395Y-104774552D01*
X132610839Y-104660131D01*
X132312470Y-104659870D01*
X132036714Y-104773811D01*
X131946237Y-104864130D01*
X131756524Y-104901866D01*
X131629112Y-104987000D01*
X128030005Y-104987000D01*
X128030000Y-104986999D01*
X127825205Y-105027736D01*
X127819524Y-105028866D01*
X127641091Y-105148091D01*
X127641090Y-105148093D01*
X126992091Y-105797091D01*
X126905166Y-105927184D01*
X126871000Y-105927184D01*
X126741411Y-105951568D01*
X126621000Y-105927184D01*
X125601000Y-105927184D01*
X125434240Y-105958562D01*
X125281081Y-106057117D01*
X125178332Y-106207495D01*
X125142184Y-106386000D01*
X125142184Y-110386000D01*
X125173562Y-110552760D01*
X125272117Y-110705919D01*
X125422495Y-110808668D01*
X125601000Y-110844816D01*
X126621000Y-110844816D01*
X126750589Y-110820432D01*
X126871000Y-110844816D01*
X127891000Y-110844816D01*
X128020589Y-110820432D01*
X128141000Y-110844816D01*
X129161000Y-110844816D01*
X129290589Y-110820432D01*
X129411000Y-110844816D01*
X130431000Y-110844816D01*
X130560589Y-110820432D01*
X130681000Y-110844816D01*
X131701000Y-110844816D01*
X131830589Y-110820432D01*
X131951000Y-110844816D01*
X132971000Y-110844816D01*
X133100589Y-110820432D01*
X133221000Y-110844816D01*
X134241000Y-110844816D01*
X134370589Y-110820432D01*
X134491000Y-110844816D01*
X135511000Y-110844816D01*
X135640589Y-110820432D01*
X135761000Y-110844816D01*
X136781000Y-110844816D01*
X136910589Y-110820432D01*
X137031000Y-110844816D01*
X138051000Y-110844816D01*
X138180589Y-110820432D01*
X138301000Y-110844816D01*
X139321000Y-110844816D01*
X139450589Y-110820432D01*
X139571000Y-110844816D01*
X140591000Y-110844816D01*
X140720589Y-110820432D01*
X140841000Y-110844816D01*
X141861000Y-110844816D01*
X141990589Y-110820432D01*
X142111000Y-110844816D01*
X143131000Y-110844816D01*
X143260589Y-110820432D01*
X143381000Y-110844816D01*
X144401000Y-110844816D01*
X144530589Y-110820432D01*
X144651000Y-110844816D01*
X145671000Y-110844816D01*
X145800589Y-110820432D01*
X145921000Y-110844816D01*
X146941000Y-110844816D01*
X147070589Y-110820432D01*
X147191000Y-110844816D01*
X148211000Y-110844816D01*
X148340589Y-110820432D01*
X148461000Y-110844816D01*
X149481000Y-110844816D01*
X149610589Y-110820432D01*
X149731000Y-110844816D01*
X150751000Y-110844816D01*
X150880589Y-110820432D01*
X151001000Y-110844816D01*
X152021000Y-110844816D01*
X152150589Y-110820432D01*
X152271000Y-110844816D01*
X153291000Y-110844816D01*
X153420589Y-110820432D01*
X153541000Y-110844816D01*
X154561000Y-110844816D01*
X154690589Y-110820432D01*
X154811000Y-110844816D01*
X155831000Y-110844816D01*
X155960589Y-110820432D01*
X156081000Y-110844816D01*
X157101000Y-110844816D01*
X157230589Y-110820432D01*
X157351000Y-110844816D01*
X158371000Y-110844816D01*
X158495993Y-110821297D01*
X158531489Y-110836000D01*
X158993500Y-110836000D01*
X159106000Y-110723500D01*
X159106000Y-108411000D01*
X159156000Y-108411000D01*
X159156000Y-110723500D01*
X159268500Y-110836000D01*
X159730511Y-110836000D01*
X159766000Y-110821300D01*
X159801489Y-110836000D01*
X160263500Y-110836000D01*
X160376000Y-110723500D01*
X160376000Y-108411000D01*
X160426000Y-108411000D01*
X160426000Y-110723500D01*
X160538500Y-110836000D01*
X161000511Y-110836000D01*
X161036000Y-110821300D01*
X161071489Y-110836000D01*
X161533500Y-110836000D01*
X161646000Y-110723500D01*
X161646000Y-108411000D01*
X161696000Y-108411000D01*
X161696000Y-110723500D01*
X161808500Y-110836000D01*
X162270511Y-110836000D01*
X162306000Y-110821300D01*
X162341489Y-110836000D01*
X162803500Y-110836000D01*
X162916000Y-110723500D01*
X162916000Y-108411000D01*
X162966000Y-108411000D01*
X162966000Y-110723500D01*
X163078500Y-110836000D01*
X163540511Y-110836000D01*
X163576000Y-110821300D01*
X163611489Y-110836000D01*
X164073500Y-110836000D01*
X164186000Y-110723500D01*
X164186000Y-108411000D01*
X164236000Y-108411000D01*
X164236000Y-110723500D01*
X164348500Y-110836000D01*
X164810511Y-110836000D01*
X164846000Y-110821300D01*
X164881489Y-110836000D01*
X165343500Y-110836000D01*
X165456000Y-110723500D01*
X165456000Y-108411000D01*
X164236000Y-108411000D01*
X164186000Y-108411000D01*
X162966000Y-108411000D01*
X162916000Y-108411000D01*
X161696000Y-108411000D01*
X161646000Y-108411000D01*
X160426000Y-108411000D01*
X160376000Y-108411000D01*
X159156000Y-108411000D01*
X159106000Y-108411000D01*
X159086000Y-108411000D01*
X159086000Y-108361000D01*
X159106000Y-108361000D01*
X159106000Y-106048500D01*
X159156000Y-106048500D01*
X159156000Y-108361000D01*
X160376000Y-108361000D01*
X160376000Y-106048500D01*
X160426000Y-106048500D01*
X160426000Y-108361000D01*
X161646000Y-108361000D01*
X161646000Y-106048500D01*
X161696000Y-106048500D01*
X161696000Y-108361000D01*
X162916000Y-108361000D01*
X162916000Y-106048500D01*
X162966000Y-106048500D01*
X162966000Y-108361000D01*
X164186000Y-108361000D01*
X164186000Y-106048500D01*
X164236000Y-106048500D01*
X164236000Y-108361000D01*
X165456000Y-108361000D01*
X165456000Y-106048500D01*
X165506000Y-106048500D01*
X165506000Y-108361000D01*
X165526000Y-108361000D01*
X165526000Y-108411000D01*
X165506000Y-108411000D01*
X165506000Y-110723500D01*
X165618500Y-110836000D01*
X166080511Y-110836000D01*
X166118914Y-110820093D01*
X166241000Y-110844816D01*
X167261000Y-110844816D01*
X167390589Y-110820432D01*
X167511000Y-110844816D01*
X168531000Y-110844816D01*
X168660589Y-110820432D01*
X168781000Y-110844816D01*
X169801000Y-110844816D01*
X169930589Y-110820432D01*
X170051000Y-110844816D01*
X171071000Y-110844816D01*
X171200589Y-110820432D01*
X171321000Y-110844816D01*
X172341000Y-110844816D01*
X172470589Y-110820432D01*
X172591000Y-110844816D01*
X173611000Y-110844816D01*
X173740589Y-110820432D01*
X173861000Y-110844816D01*
X174881000Y-110844816D01*
X175010589Y-110820432D01*
X175131000Y-110844816D01*
X176151000Y-110844816D01*
X176317760Y-110813438D01*
X176470919Y-110714883D01*
X176573668Y-110564505D01*
X176609816Y-110386000D01*
X176609816Y-106386000D01*
X176578438Y-106219240D01*
X176479883Y-106066081D01*
X176329505Y-105963332D01*
X176191000Y-105935284D01*
X176191000Y-105029000D01*
X176149134Y-104818524D01*
X176029909Y-104640091D01*
X176029906Y-104640089D01*
X176010024Y-104620207D01*
X176010130Y-104499470D01*
X175896189Y-104223714D01*
X175865490Y-104192961D01*
X175995732Y-104192961D01*
X176231208Y-104762857D01*
X176666849Y-105199260D01*
X177236333Y-105435730D01*
X177852961Y-105436268D01*
X178422857Y-105200792D01*
X178859260Y-104765151D01*
X179095730Y-104195667D01*
X179096268Y-103579039D01*
X178860792Y-103009143D01*
X178425151Y-102572740D01*
X177855667Y-102336270D01*
X177239039Y-102335732D01*
X176669143Y-102571208D01*
X176232740Y-103006849D01*
X175996270Y-103576333D01*
X175995732Y-104192961D01*
X175865490Y-104192961D01*
X175685395Y-104012552D01*
X175409839Y-103898131D01*
X175111470Y-103897870D01*
X174835714Y-104011811D01*
X174624817Y-104222340D01*
X174415395Y-104012552D01*
X174139839Y-103898131D01*
X173841470Y-103897870D01*
X173565714Y-104011811D01*
X173354817Y-104222340D01*
X173145395Y-104012552D01*
X172869839Y-103898131D01*
X172571470Y-103897870D01*
X172295714Y-104011811D01*
X172084817Y-104222340D01*
X171875395Y-104012552D01*
X171599839Y-103898131D01*
X171301470Y-103897870D01*
X171025714Y-104011811D01*
X170814817Y-104222340D01*
X170605395Y-104012552D01*
X170329839Y-103898131D01*
X170031470Y-103897870D01*
X169755714Y-104011811D01*
X169544817Y-104222340D01*
X169335395Y-104012552D01*
X169059839Y-103898131D01*
X168761470Y-103897870D01*
X168485714Y-104011811D01*
X168309873Y-104187346D01*
X168135384Y-104012552D01*
X167859828Y-103898131D01*
X167561459Y-103897870D01*
X167285703Y-104011811D01*
X167103362Y-104193835D01*
X166922395Y-104012552D01*
X166646839Y-103898131D01*
X166348470Y-103897870D01*
X166072714Y-104011811D01*
X165861552Y-104222605D01*
X165747131Y-104498161D01*
X165746870Y-104796530D01*
X165860811Y-105072286D01*
X166071605Y-105283448D01*
X166201000Y-105337178D01*
X166201000Y-105934711D01*
X166116007Y-105950703D01*
X166080511Y-105936000D01*
X165618500Y-105936000D01*
X165506000Y-106048500D01*
X165456000Y-106048500D01*
X165343500Y-105936000D01*
X164881489Y-105936000D01*
X164846000Y-105950700D01*
X164810511Y-105936000D01*
X164348500Y-105936000D01*
X164236000Y-106048500D01*
X164186000Y-106048500D01*
X164073500Y-105936000D01*
X163611489Y-105936000D01*
X163576000Y-105950700D01*
X163540511Y-105936000D01*
X163078500Y-105936000D01*
X162966000Y-106048500D01*
X162916000Y-106048500D01*
X162803500Y-105936000D01*
X162341489Y-105936000D01*
X162306000Y-105950700D01*
X162270511Y-105936000D01*
X161808500Y-105936000D01*
X161696000Y-106048500D01*
X161646000Y-106048500D01*
X161533500Y-105936000D01*
X161071489Y-105936000D01*
X161036000Y-105950700D01*
X161000511Y-105936000D01*
X160538500Y-105936000D01*
X160426000Y-106048500D01*
X160376000Y-106048500D01*
X160263500Y-105936000D01*
X159801489Y-105936000D01*
X159766000Y-105950700D01*
X159730511Y-105936000D01*
X159268500Y-105936000D01*
X159156000Y-106048500D01*
X159106000Y-106048500D01*
X158993500Y-105936000D01*
X158531489Y-105936000D01*
X158493086Y-105951907D01*
X158411000Y-105935284D01*
X158411000Y-105917996D01*
X158369134Y-105707520D01*
X158249909Y-105529087D01*
X158230028Y-105509206D01*
X158230134Y-105388470D01*
X158116193Y-105112714D01*
X157905399Y-104901552D01*
X157629843Y-104787131D01*
X157331474Y-104786870D01*
X157055718Y-104900811D01*
X156844556Y-105111605D01*
X156781490Y-105263484D01*
X156719193Y-105112714D01*
X156508399Y-104901552D01*
X156232843Y-104787131D01*
X155934474Y-104786870D01*
X155658718Y-104900811D01*
X155447556Y-105111605D01*
X155333135Y-105387161D01*
X155333106Y-105420288D01*
X155285747Y-105372929D01*
X155181981Y-105121798D01*
X154971187Y-104910636D01*
X154695631Y-104796215D01*
X154397262Y-104795954D01*
X154121506Y-104909895D01*
X153921766Y-105109287D01*
X153714395Y-104901554D01*
X153438839Y-104787133D01*
X153140470Y-104786872D01*
X152864714Y-104900813D01*
X152653552Y-105111607D01*
X152539131Y-105387163D01*
X152538870Y-105685532D01*
X152638719Y-105927184D01*
X152590002Y-105927184D01*
X151937909Y-105275091D01*
X151759476Y-105155866D01*
X151549000Y-105114000D01*
X150791000Y-105114000D01*
X150791000Y-104414358D01*
X150860814Y-104414419D01*
X151136570Y-104300478D01*
X151240855Y-104196375D01*
X151557398Y-104512919D01*
X151557400Y-104512922D01*
X151626497Y-104559091D01*
X151735832Y-104632147D01*
X151946308Y-104674013D01*
X154491251Y-104674013D01*
X154701727Y-104632147D01*
X154880160Y-104512922D01*
X155582909Y-103810173D01*
X155702134Y-103631740D01*
X155722549Y-103529108D01*
X155829448Y-103422395D01*
X155892514Y-103270515D01*
X155954811Y-103421284D01*
X156165605Y-103632446D01*
X156441161Y-103746867D01*
X156739530Y-103747128D01*
X157015286Y-103633187D01*
X157101625Y-103546998D01*
X157720002Y-103546998D01*
X157930478Y-103505132D01*
X158108911Y-103385907D01*
X159519906Y-101974911D01*
X159519909Y-101974909D01*
X159606834Y-101844816D01*
X159641000Y-101844816D01*
X159770589Y-101820432D01*
X159891000Y-101844816D01*
X160911000Y-101844816D01*
X161040589Y-101820432D01*
X161161000Y-101844816D01*
X162181000Y-101844816D01*
X162310589Y-101820432D01*
X162431000Y-101844816D01*
X163451000Y-101844816D01*
X163580589Y-101820432D01*
X163701000Y-101844816D01*
X164721000Y-101844816D01*
X164850589Y-101820432D01*
X164971000Y-101844816D01*
X165991000Y-101844816D01*
X166120589Y-101820432D01*
X166241000Y-101844816D01*
X167261000Y-101844816D01*
X167390589Y-101820432D01*
X167511000Y-101844816D01*
X168531000Y-101844816D01*
X168641305Y-101824061D01*
X168528552Y-101936617D01*
X168414131Y-102212173D01*
X168413870Y-102510542D01*
X168527811Y-102786298D01*
X168738605Y-102997460D01*
X169014161Y-103111881D01*
X169312530Y-103112142D01*
X169588286Y-102998201D01*
X169674625Y-102912012D01*
X173735988Y-102912012D01*
X173946464Y-102870146D01*
X174124897Y-102750921D01*
X174759906Y-102115911D01*
X174759909Y-102115909D01*
X174879134Y-101937476D01*
X174895763Y-101853878D01*
X174898210Y-101841578D01*
X175010589Y-101820432D01*
X175131000Y-101844816D01*
X176151000Y-101844816D01*
X176317760Y-101813438D01*
X176470919Y-101714883D01*
X176573668Y-101564505D01*
X176609816Y-101386000D01*
X176609816Y-97386000D01*
X176578438Y-97219240D01*
X176479883Y-97066081D01*
X176329505Y-96963332D01*
X176191000Y-96935284D01*
X176191000Y-95774953D01*
X176465451Y-96185698D01*
X176465452Y-96185701D01*
X176610300Y-96330548D01*
X177022315Y-96605847D01*
X177022317Y-96605849D01*
X177211570Y-96684239D01*
X177697577Y-96780912D01*
X177749284Y-96780912D01*
X177800000Y-96791000D01*
X179018294Y-96791000D01*
X179351163Y-96857212D01*
X179589522Y-97016478D01*
X179748788Y-97254838D01*
X179815000Y-97587706D01*
X179815000Y-110438294D01*
X179748788Y-110771162D01*
X179589522Y-111009522D01*
X179351163Y-111168788D01*
X179018294Y-111235000D01*
X122733706Y-111235000D01*
X122400838Y-111168788D01*
X122162478Y-111009522D01*
X122003212Y-110771163D01*
X121937000Y-110438294D01*
X121937000Y-97587706D01*
X122003212Y-97254837D01*
X122162478Y-97016478D01*
X122400838Y-96857212D01*
X122733706Y-96791000D01*
X123952000Y-96791000D01*
X124002715Y-96780912D01*
X124054422Y-96780912D01*
X124540425Y-96684240D01*
X124540430Y-96684240D01*
X124729682Y-96605849D01*
X125141698Y-96330549D01*
X125141701Y-96330548D01*
X125286548Y-96185700D01*
X125561847Y-95773685D01*
X125561849Y-95773683D01*
X125640239Y-95584430D01*
X125736912Y-95098423D01*
X125736912Y-95046716D01*
X125747000Y-94996000D01*
X125747000Y-94012818D01*
X125995976Y-94261793D01*
X125995870Y-94382530D01*
X126109811Y-94658286D01*
X126320605Y-94869448D01*
X126596161Y-94983869D01*
X126894530Y-94984130D01*
X127170286Y-94870189D01*
X127381448Y-94659395D01*
X127495869Y-94383839D01*
X127496130Y-94085470D01*
X127382189Y-93809714D01*
X127171395Y-93598552D01*
X126895839Y-93484131D01*
X126773842Y-93484024D01*
X126661000Y-93371182D01*
X126661000Y-92865408D01*
X126750956Y-92848482D01*
X126881000Y-92874816D01*
X128736000Y-92874816D01*
X128736000Y-93980000D01*
X128777866Y-94190476D01*
X128790022Y-94208669D01*
X128789870Y-94382530D01*
X128903811Y-94658286D01*
X129114605Y-94869448D01*
X129390161Y-94983869D01*
X129688530Y-94984130D01*
X129964286Y-94870189D01*
X130175448Y-94659395D01*
X130289869Y-94383839D01*
X130290130Y-94085470D01*
X130176189Y-93809714D01*
X129965395Y-93598552D01*
X129836000Y-93544822D01*
X129836000Y-92874816D01*
X131691000Y-92874816D01*
X131830956Y-92848482D01*
X131911000Y-92864691D01*
X131911000Y-93853000D01*
X131952866Y-94063476D01*
X132072091Y-94241909D01*
X132091976Y-94261794D01*
X132091870Y-94382530D01*
X132205811Y-94658286D01*
X132416605Y-94869448D01*
X132692161Y-94983869D01*
X132990530Y-94984130D01*
X133181000Y-94905429D01*
X133181000Y-96934711D01*
X133091411Y-96951568D01*
X132971000Y-96927184D01*
X131951000Y-96927184D01*
X131821411Y-96951568D01*
X131701000Y-96927184D01*
X130681000Y-96927184D01*
X130551411Y-96951568D01*
X130431000Y-96927184D01*
X129411000Y-96927184D01*
X129281411Y-96951568D01*
X129161000Y-96927184D01*
X128141000Y-96927184D01*
X128011411Y-96951568D01*
X127891000Y-96927184D01*
X126871000Y-96927184D01*
X126741411Y-96951568D01*
X126621000Y-96927184D01*
X126184370Y-96927184D01*
X126930554Y-96181000D01*
X127632306Y-96181000D01*
X127717605Y-96266448D01*
X127993161Y-96380869D01*
X128291530Y-96381130D01*
X128567286Y-96267189D01*
X128778448Y-96056395D01*
X128892869Y-95780839D01*
X128893130Y-95482470D01*
X128779189Y-95206714D01*
X128568395Y-94995552D01*
X128292839Y-94881131D01*
X127994470Y-94880870D01*
X127718714Y-94994811D01*
X127632375Y-95081000D01*
X126702736Y-95081000D01*
X126492260Y-95122866D01*
X126313827Y-95242091D01*
X122963089Y-98592829D01*
X122843864Y-98771262D01*
X122801998Y-98981738D01*
X122801998Y-100745998D01*
X122843864Y-100956474D01*
X122963089Y-101134907D01*
X124164145Y-102335963D01*
X123899039Y-102335732D01*
X123329143Y-102571208D01*
X122892740Y-103006849D01*
X122656270Y-103576333D01*
X122655732Y-104192961D01*
X122891208Y-104762857D01*
X123326849Y-105199260D01*
X123896333Y-105435730D01*
X124512961Y-105436268D01*
X125082857Y-105200792D01*
X125519260Y-104765151D01*
X125755730Y-104195667D01*
X125755841Y-104068342D01*
X125855811Y-104310286D01*
X126066605Y-104521448D01*
X126342161Y-104635869D01*
X126640530Y-104636130D01*
X126916286Y-104522189D01*
X127127448Y-104311395D01*
X127160270Y-104232352D01*
X127202827Y-104274909D01*
X127381260Y-104394134D01*
X127483892Y-104414549D01*
X127590605Y-104521448D01*
X127866161Y-104635869D01*
X128164530Y-104636130D01*
X128440286Y-104522189D01*
X128651448Y-104311395D01*
X128765869Y-104035839D01*
X128766130Y-103737470D01*
X128652189Y-103461714D01*
X128441395Y-103250552D01*
X128165839Y-103136131D01*
X127867470Y-103135870D01*
X127691949Y-103208395D01*
X127341631Y-102858077D01*
X127402530Y-102858130D01*
X127678286Y-102744189D01*
X127889183Y-102533660D01*
X128098605Y-102743448D01*
X128374161Y-102857869D01*
X128672530Y-102858130D01*
X128948286Y-102744189D01*
X129159183Y-102533660D01*
X129368605Y-102743448D01*
X129644161Y-102857869D01*
X129942530Y-102858130D01*
X130218286Y-102744189D01*
X130429183Y-102533660D01*
X130638605Y-102743448D01*
X130914161Y-102857869D01*
X131212530Y-102858130D01*
X131488286Y-102744189D01*
X131699183Y-102533660D01*
X131908605Y-102743448D01*
X132184161Y-102857869D01*
X132482530Y-102858130D01*
X132758286Y-102744189D01*
X132969448Y-102533395D01*
X133083869Y-102257839D01*
X133084130Y-101959470D01*
X133032012Y-101833336D01*
X133100589Y-101820432D01*
X133160300Y-101832524D01*
X133108131Y-101958161D01*
X133107870Y-102256530D01*
X133221811Y-102532286D01*
X133432605Y-102743448D01*
X133708161Y-102857869D01*
X134006530Y-102858130D01*
X134282286Y-102744189D01*
X134493448Y-102533395D01*
X134607869Y-102257839D01*
X134608122Y-101968969D01*
X134612091Y-101974909D01*
X135647877Y-103010695D01*
X135647870Y-103018530D01*
X135761811Y-103294286D01*
X135972605Y-103505448D01*
X136248161Y-103619869D01*
X136546530Y-103620130D01*
X136822286Y-103506189D01*
X137033448Y-103295395D01*
X137147869Y-103019839D01*
X137148130Y-102721470D01*
X137034189Y-102445714D01*
X136823395Y-102234552D01*
X136547839Y-102120131D01*
X136312743Y-102119925D01*
X136028818Y-101836000D01*
X136133500Y-101836000D01*
X136246000Y-101723500D01*
X136246000Y-99411000D01*
X136296000Y-99411000D01*
X136296000Y-101723500D01*
X136408500Y-101836000D01*
X136870511Y-101836000D01*
X136906000Y-101821300D01*
X136941489Y-101836000D01*
X137403500Y-101836000D01*
X137516000Y-101723500D01*
X137516000Y-99411000D01*
X137566000Y-99411000D01*
X137566000Y-101723500D01*
X137678500Y-101836000D01*
X138140511Y-101836000D01*
X138176000Y-101821300D01*
X138211489Y-101836000D01*
X138673500Y-101836000D01*
X138786000Y-101723500D01*
X138786000Y-99411000D01*
X138836000Y-99411000D01*
X138836000Y-101723500D01*
X138948500Y-101836000D01*
X139410511Y-101836000D01*
X139446000Y-101821300D01*
X139481489Y-101836000D01*
X139943500Y-101836000D01*
X140056000Y-101723500D01*
X140056000Y-99411000D01*
X140106000Y-99411000D01*
X140106000Y-101723500D01*
X140218500Y-101836000D01*
X140680511Y-101836000D01*
X140716000Y-101821300D01*
X140751489Y-101836000D01*
X141213500Y-101836000D01*
X141326000Y-101723500D01*
X141326000Y-99411000D01*
X141376000Y-99411000D01*
X141376000Y-101723500D01*
X141488500Y-101836000D01*
X141950511Y-101836000D01*
X141986000Y-101821300D01*
X142021489Y-101836000D01*
X142483500Y-101836000D01*
X142596000Y-101723500D01*
X142596000Y-99411000D01*
X141376000Y-99411000D01*
X141326000Y-99411000D01*
X140106000Y-99411000D01*
X140056000Y-99411000D01*
X138836000Y-99411000D01*
X138786000Y-99411000D01*
X137566000Y-99411000D01*
X137516000Y-99411000D01*
X136296000Y-99411000D01*
X136246000Y-99411000D01*
X136226000Y-99411000D01*
X136226000Y-99361000D01*
X136246000Y-99361000D01*
X136246000Y-97048500D01*
X136296000Y-97048500D01*
X136296000Y-99361000D01*
X137516000Y-99361000D01*
X137516000Y-97048500D01*
X137566000Y-97048500D01*
X137566000Y-99361000D01*
X138786000Y-99361000D01*
X138786000Y-97048500D01*
X138836000Y-97048500D01*
X138836000Y-99361000D01*
X140056000Y-99361000D01*
X140056000Y-97048500D01*
X140106000Y-97048500D01*
X140106000Y-99361000D01*
X141326000Y-99361000D01*
X141326000Y-97048500D01*
X141376000Y-97048500D01*
X141376000Y-99361000D01*
X142596000Y-99361000D01*
X142596000Y-97048500D01*
X142483500Y-96936000D01*
X142021489Y-96936000D01*
X141986000Y-96950700D01*
X141950511Y-96936000D01*
X141488500Y-96936000D01*
X141376000Y-97048500D01*
X141326000Y-97048500D01*
X141213500Y-96936000D01*
X140751489Y-96936000D01*
X140716000Y-96950700D01*
X140680511Y-96936000D01*
X140218500Y-96936000D01*
X140106000Y-97048500D01*
X140056000Y-97048500D01*
X139943500Y-96936000D01*
X139481489Y-96936000D01*
X139446000Y-96950700D01*
X139410511Y-96936000D01*
X138948500Y-96936000D01*
X138836000Y-97048500D01*
X138786000Y-97048500D01*
X138673500Y-96936000D01*
X138211489Y-96936000D01*
X138176000Y-96950700D01*
X138140511Y-96936000D01*
X137678500Y-96936000D01*
X137566000Y-97048500D01*
X137516000Y-97048500D01*
X137403500Y-96936000D01*
X136941489Y-96936000D01*
X136906000Y-96950700D01*
X136870511Y-96936000D01*
X136408500Y-96936000D01*
X136296000Y-97048500D01*
X136246000Y-97048500D01*
X136133500Y-96936000D01*
X135671489Y-96936000D01*
X135633086Y-96951907D01*
X135551000Y-96935284D01*
X135551000Y-92865408D01*
X135639746Y-92848709D01*
X135681489Y-92866000D01*
X136133500Y-92866000D01*
X136246000Y-92753500D01*
X136246000Y-89941000D01*
X136296000Y-89941000D01*
X136296000Y-92753500D01*
X136408500Y-92866000D01*
X136860511Y-92866000D01*
X136906000Y-92847158D01*
X136951489Y-92866000D01*
X139308500Y-92866000D01*
X139421000Y-92753500D01*
X139421000Y-89941000D01*
X139471000Y-89941000D01*
X139471000Y-92753500D01*
X139583500Y-92866000D01*
X141940511Y-92866000D01*
X141986000Y-92847158D01*
X142031489Y-92866000D01*
X142483500Y-92866000D01*
X142596000Y-92753500D01*
X142596000Y-89941000D01*
X139471000Y-89941000D01*
X139421000Y-89941000D01*
X136296000Y-89941000D01*
X136246000Y-89941000D01*
X136226000Y-89941000D01*
X136226000Y-89891000D01*
X136246000Y-89891000D01*
X136246000Y-89871000D01*
X136296000Y-89871000D01*
X136296000Y-89891000D01*
M02*
