G04 #@! TF.FileFunction,Copper,L2,Bot,Signal*
%FSLAX46Y46*%
G04 Gerber Fmt 4.6, Leading zero omitted, Abs format (unit mm)*
G04 Created by KiCad (PCBNEW 4.0.7) date Mon Dec  4 21:54:59 2017*
%MOMM*%
%LPD*%
G01*
G04 APERTURE LIST*
%ADD10C,0.100000*%
%ADD11C,0.010000*%
%ADD12C,0.600000*%
%ADD13C,0.200000*%
%ADD14C,0.300000*%
G04 APERTURE END LIST*
D10*
D11*
G36*
X131264394Y-109783040D02*
X131348253Y-109749143D01*
X131419491Y-109688381D01*
X131522611Y-109585261D01*
X131522611Y-107608315D01*
X131522525Y-107183898D01*
X131522134Y-106824047D01*
X131521241Y-106522770D01*
X131519646Y-106274077D01*
X131517153Y-106071979D01*
X131513563Y-105910484D01*
X131508677Y-105783602D01*
X131502299Y-105685344D01*
X131494228Y-105609718D01*
X131484268Y-105550734D01*
X131472220Y-105502402D01*
X131457887Y-105458731D01*
X131450879Y-105439648D01*
X131326132Y-105203569D01*
X131144979Y-104999336D01*
X130918847Y-104839382D01*
X130880951Y-104819575D01*
X130664675Y-104711500D01*
X126383325Y-104711500D01*
X126167049Y-104819575D01*
X125935035Y-104971646D01*
X125746250Y-105169901D01*
X125612119Y-105401907D01*
X125597121Y-105439648D01*
X125577430Y-105496314D01*
X125561698Y-105555250D01*
X125549484Y-105624797D01*
X125540348Y-105713296D01*
X125533848Y-105829088D01*
X125529543Y-105980514D01*
X125526994Y-106175916D01*
X125525758Y-106423634D01*
X125525395Y-106732009D01*
X125525389Y-106796926D01*
X125525389Y-107962483D01*
X125625914Y-108063009D01*
X125766726Y-108161571D01*
X125917223Y-108194409D01*
X126065085Y-108162835D01*
X126197990Y-108068159D01*
X126256086Y-107995936D01*
X126279082Y-107960032D01*
X126297234Y-107922859D01*
X126311114Y-107876093D01*
X126321295Y-107811408D01*
X126328350Y-107720482D01*
X126332853Y-107594988D01*
X126335375Y-107426603D01*
X126336490Y-107207003D01*
X126336770Y-106927863D01*
X126336778Y-106823507D01*
X126336778Y-105770947D01*
X126439717Y-105655737D01*
X126542657Y-105540528D01*
X130505343Y-105540528D01*
X130608283Y-105655737D01*
X130711222Y-105770947D01*
X130711222Y-107624225D01*
X130711286Y-108047977D01*
X130711813Y-108406956D01*
X130713307Y-108706943D01*
X130716273Y-108953721D01*
X130721213Y-109153071D01*
X130728631Y-109310777D01*
X130739032Y-109432620D01*
X130752919Y-109524382D01*
X130770796Y-109591846D01*
X130793167Y-109640793D01*
X130820536Y-109677006D01*
X130853405Y-109706266D01*
X130892280Y-109734356D01*
X130895259Y-109736442D01*
X130983174Y-109771749D01*
X131106379Y-109790330D01*
X131145119Y-109791500D01*
X131264394Y-109783040D01*
X131264394Y-109783040D01*
G37*
X131264394Y-109783040D02*
X131348253Y-109749143D01*
X131419491Y-109688381D01*
X131522611Y-109585261D01*
X131522611Y-107608315D01*
X131522525Y-107183898D01*
X131522134Y-106824047D01*
X131521241Y-106522770D01*
X131519646Y-106274077D01*
X131517153Y-106071979D01*
X131513563Y-105910484D01*
X131508677Y-105783602D01*
X131502299Y-105685344D01*
X131494228Y-105609718D01*
X131484268Y-105550734D01*
X131472220Y-105502402D01*
X131457887Y-105458731D01*
X131450879Y-105439648D01*
X131326132Y-105203569D01*
X131144979Y-104999336D01*
X130918847Y-104839382D01*
X130880951Y-104819575D01*
X130664675Y-104711500D01*
X126383325Y-104711500D01*
X126167049Y-104819575D01*
X125935035Y-104971646D01*
X125746250Y-105169901D01*
X125612119Y-105401907D01*
X125597121Y-105439648D01*
X125577430Y-105496314D01*
X125561698Y-105555250D01*
X125549484Y-105624797D01*
X125540348Y-105713296D01*
X125533848Y-105829088D01*
X125529543Y-105980514D01*
X125526994Y-106175916D01*
X125525758Y-106423634D01*
X125525395Y-106732009D01*
X125525389Y-106796926D01*
X125525389Y-107962483D01*
X125625914Y-108063009D01*
X125766726Y-108161571D01*
X125917223Y-108194409D01*
X126065085Y-108162835D01*
X126197990Y-108068159D01*
X126256086Y-107995936D01*
X126279082Y-107960032D01*
X126297234Y-107922859D01*
X126311114Y-107876093D01*
X126321295Y-107811408D01*
X126328350Y-107720482D01*
X126332853Y-107594988D01*
X126335375Y-107426603D01*
X126336490Y-107207003D01*
X126336770Y-106927863D01*
X126336778Y-106823507D01*
X126336778Y-105770947D01*
X126439717Y-105655737D01*
X126542657Y-105540528D01*
X130505343Y-105540528D01*
X130608283Y-105655737D01*
X130711222Y-105770947D01*
X130711222Y-107624225D01*
X130711286Y-108047977D01*
X130711813Y-108406956D01*
X130713307Y-108706943D01*
X130716273Y-108953721D01*
X130721213Y-109153071D01*
X130728631Y-109310777D01*
X130739032Y-109432620D01*
X130752919Y-109524382D01*
X130770796Y-109591846D01*
X130793167Y-109640793D01*
X130820536Y-109677006D01*
X130853405Y-109706266D01*
X130892280Y-109734356D01*
X130895259Y-109736442D01*
X130983174Y-109771749D01*
X131106379Y-109790330D01*
X131145119Y-109791500D01*
X131264394Y-109783040D01*
G36*
X128058728Y-111023982D02*
X128290742Y-110871910D01*
X128479528Y-110673655D01*
X128613659Y-110441649D01*
X128628657Y-110403908D01*
X128648348Y-110347242D01*
X128664079Y-110288306D01*
X128676293Y-110218759D01*
X128685430Y-110130260D01*
X128691930Y-110014468D01*
X128696234Y-109863042D01*
X128698784Y-109667640D01*
X128700020Y-109419922D01*
X128700382Y-109111547D01*
X128700389Y-109046630D01*
X128700389Y-107881073D01*
X128599863Y-107780548D01*
X128459052Y-107681985D01*
X128308554Y-107649147D01*
X128160692Y-107680721D01*
X128027787Y-107775397D01*
X127969692Y-107847620D01*
X127946695Y-107883524D01*
X127928543Y-107920697D01*
X127914663Y-107967463D01*
X127904482Y-108032148D01*
X127897427Y-108123075D01*
X127892925Y-108248568D01*
X127890403Y-108416953D01*
X127889288Y-108636553D01*
X127889007Y-108915693D01*
X127889000Y-109020050D01*
X127889000Y-110072609D01*
X127786060Y-110187819D01*
X127683121Y-110303028D01*
X123720434Y-110303028D01*
X123617495Y-110187819D01*
X123514555Y-110072609D01*
X123514555Y-108237588D01*
X123514423Y-107811365D01*
X123513701Y-107449940D01*
X123511900Y-107147559D01*
X123508533Y-106898465D01*
X123503110Y-106696901D01*
X123495145Y-106537113D01*
X123484148Y-106413343D01*
X123469632Y-106319836D01*
X123451107Y-106250836D01*
X123428086Y-106200585D01*
X123400081Y-106163329D01*
X123366603Y-106133311D01*
X123334043Y-106109583D01*
X123238195Y-106070706D01*
X123106154Y-106052545D01*
X123080659Y-106052056D01*
X122961383Y-106060516D01*
X122877525Y-106094413D01*
X122806286Y-106155175D01*
X122703167Y-106258295D01*
X122703167Y-108235241D01*
X122703253Y-108659658D01*
X122703643Y-109019509D01*
X122704537Y-109320786D01*
X122706131Y-109569479D01*
X122708624Y-109771577D01*
X122712215Y-109933072D01*
X122717100Y-110059954D01*
X122723479Y-110158212D01*
X122731549Y-110233838D01*
X122741509Y-110292822D01*
X122753557Y-110341154D01*
X122767891Y-110384825D01*
X122774898Y-110403908D01*
X122899646Y-110639987D01*
X123080799Y-110844220D01*
X123306930Y-111004174D01*
X123344827Y-111023982D01*
X123561102Y-111132056D01*
X127842453Y-111132056D01*
X128058728Y-111023982D01*
X128058728Y-111023982D01*
G37*
X128058728Y-111023982D02*
X128290742Y-110871910D01*
X128479528Y-110673655D01*
X128613659Y-110441649D01*
X128628657Y-110403908D01*
X128648348Y-110347242D01*
X128664079Y-110288306D01*
X128676293Y-110218759D01*
X128685430Y-110130260D01*
X128691930Y-110014468D01*
X128696234Y-109863042D01*
X128698784Y-109667640D01*
X128700020Y-109419922D01*
X128700382Y-109111547D01*
X128700389Y-109046630D01*
X128700389Y-107881073D01*
X128599863Y-107780548D01*
X128459052Y-107681985D01*
X128308554Y-107649147D01*
X128160692Y-107680721D01*
X128027787Y-107775397D01*
X127969692Y-107847620D01*
X127946695Y-107883524D01*
X127928543Y-107920697D01*
X127914663Y-107967463D01*
X127904482Y-108032148D01*
X127897427Y-108123075D01*
X127892925Y-108248568D01*
X127890403Y-108416953D01*
X127889288Y-108636553D01*
X127889007Y-108915693D01*
X127889000Y-109020050D01*
X127889000Y-110072609D01*
X127786060Y-110187819D01*
X127683121Y-110303028D01*
X123720434Y-110303028D01*
X123617495Y-110187819D01*
X123514555Y-110072609D01*
X123514555Y-108237588D01*
X123514423Y-107811365D01*
X123513701Y-107449940D01*
X123511900Y-107147559D01*
X123508533Y-106898465D01*
X123503110Y-106696901D01*
X123495145Y-106537113D01*
X123484148Y-106413343D01*
X123469632Y-106319836D01*
X123451107Y-106250836D01*
X123428086Y-106200585D01*
X123400081Y-106163329D01*
X123366603Y-106133311D01*
X123334043Y-106109583D01*
X123238195Y-106070706D01*
X123106154Y-106052545D01*
X123080659Y-106052056D01*
X122961383Y-106060516D01*
X122877525Y-106094413D01*
X122806286Y-106155175D01*
X122703167Y-106258295D01*
X122703167Y-108235241D01*
X122703253Y-108659658D01*
X122703643Y-109019509D01*
X122704537Y-109320786D01*
X122706131Y-109569479D01*
X122708624Y-109771577D01*
X122712215Y-109933072D01*
X122717100Y-110059954D01*
X122723479Y-110158212D01*
X122731549Y-110233838D01*
X122741509Y-110292822D01*
X122753557Y-110341154D01*
X122767891Y-110384825D01*
X122774898Y-110403908D01*
X122899646Y-110639987D01*
X123080799Y-110844220D01*
X123306930Y-111004174D01*
X123344827Y-111023982D01*
X123561102Y-111132056D01*
X127842453Y-111132056D01*
X128058728Y-111023982D01*
G36*
X126205868Y-109789252D02*
X126438795Y-109780715D01*
X126623194Y-109763204D01*
X126770032Y-109734031D01*
X126890278Y-109690510D01*
X126994898Y-109629954D01*
X127094860Y-109549676D01*
X127162719Y-109485464D01*
X127249945Y-109398311D01*
X127319696Y-109321387D01*
X127374083Y-109245592D01*
X127415213Y-109161824D01*
X127445195Y-109060985D01*
X127466137Y-108933973D01*
X127480150Y-108771688D01*
X127489341Y-108565030D01*
X127495820Y-108304899D01*
X127500926Y-108025949D01*
X127506716Y-107714606D01*
X127513081Y-107465651D01*
X127521677Y-107270927D01*
X127534160Y-107122273D01*
X127552187Y-107011531D01*
X127577411Y-106930543D01*
X127611490Y-106871149D01*
X127656078Y-106825191D01*
X127712832Y-106784510D01*
X127758625Y-106756059D01*
X127808544Y-106730032D01*
X127867519Y-106711449D01*
X127947749Y-106699092D01*
X128061435Y-106691742D01*
X128220773Y-106688181D01*
X128437964Y-106687191D01*
X128448113Y-106687188D01*
X128703286Y-106689531D01*
X128898615Y-106698512D01*
X129044703Y-106716861D01*
X129152153Y-106747308D01*
X129231568Y-106792581D01*
X129293552Y-106855411D01*
X129334833Y-106915462D01*
X129353583Y-106948748D01*
X129368717Y-106986639D01*
X129380621Y-107036598D01*
X129389680Y-107106091D01*
X129396282Y-107202583D01*
X129400812Y-107333537D01*
X129403657Y-107506420D01*
X129405203Y-107728695D01*
X129405836Y-108007827D01*
X129405944Y-108289858D01*
X129406250Y-108635098D01*
X129407619Y-108916899D01*
X129410723Y-109142377D01*
X129416239Y-109318648D01*
X129424840Y-109452828D01*
X129437201Y-109552032D01*
X129453996Y-109623378D01*
X129475901Y-109673980D01*
X129503589Y-109710954D01*
X129537736Y-109741417D01*
X129543998Y-109746281D01*
X129645921Y-109786662D01*
X129773594Y-109789306D01*
X129895003Y-109756988D01*
X129964239Y-109709852D01*
X129983627Y-109687822D01*
X129999435Y-109662460D01*
X130012027Y-109626846D01*
X130021767Y-109574058D01*
X130029017Y-109497176D01*
X130034140Y-109389278D01*
X130037500Y-109243444D01*
X130039460Y-109052752D01*
X130040383Y-108810283D01*
X130040633Y-108509115D01*
X130040600Y-108254643D01*
X130040255Y-106881084D01*
X129954248Y-106696351D01*
X129825627Y-106489389D01*
X129651498Y-106307958D01*
X129451006Y-106170189D01*
X129350680Y-106124763D01*
X129275869Y-106099368D01*
X129198619Y-106080603D01*
X129106906Y-106067493D01*
X128988703Y-106059063D01*
X128831983Y-106054340D01*
X128624722Y-106052348D01*
X128453444Y-106052056D01*
X128205006Y-106052819D01*
X128015193Y-106055736D01*
X127872082Y-106061749D01*
X127763753Y-106071800D01*
X127678286Y-106086833D01*
X127603758Y-106107789D01*
X127562260Y-106122499D01*
X127356140Y-106233882D01*
X127169466Y-106400168D01*
X127018425Y-106605783D01*
X126975594Y-106687056D01*
X126948651Y-106745573D01*
X126927391Y-106800457D01*
X126910962Y-106860913D01*
X126898516Y-106936145D01*
X126889202Y-107035361D01*
X126882171Y-107167766D01*
X126876573Y-107342564D01*
X126871558Y-107568962D01*
X126866277Y-107856165D01*
X126865944Y-107874924D01*
X126848305Y-108868765D01*
X126760111Y-108963068D01*
X126691054Y-109031397D01*
X126622310Y-109081517D01*
X126541663Y-109116212D01*
X126436895Y-109138269D01*
X126295789Y-109150472D01*
X126106127Y-109155608D01*
X125911708Y-109156500D01*
X125657621Y-109154029D01*
X125463309Y-109144768D01*
X125318106Y-109125948D01*
X125211347Y-109094801D01*
X125132366Y-109048556D01*
X125070497Y-108984444D01*
X125032056Y-108928094D01*
X125013152Y-108894511D01*
X124997927Y-108856285D01*
X124985983Y-108805874D01*
X124976926Y-108735733D01*
X124970356Y-108638318D01*
X124965878Y-108506087D01*
X124963096Y-108331494D01*
X124961611Y-108106996D01*
X124961028Y-107825049D01*
X124960944Y-107575952D01*
X124960466Y-107225357D01*
X124958611Y-106938337D01*
X124954746Y-106707913D01*
X124948239Y-106527109D01*
X124938460Y-106388947D01*
X124924774Y-106286450D01*
X124906551Y-106212640D01*
X124883159Y-106160541D01*
X124853965Y-106123174D01*
X124827266Y-106100150D01*
X124721976Y-106057805D01*
X124592216Y-106054350D01*
X124469845Y-106087267D01*
X124402649Y-106133705D01*
X124383262Y-106155734D01*
X124367454Y-106181096D01*
X124354861Y-106216710D01*
X124345122Y-106269498D01*
X124337872Y-106346381D01*
X124332748Y-106454278D01*
X124329388Y-106600112D01*
X124327428Y-106790804D01*
X124326505Y-107033273D01*
X124326256Y-107334441D01*
X124326289Y-107588913D01*
X124326634Y-108962472D01*
X124412640Y-109147205D01*
X124541261Y-109354167D01*
X124715391Y-109535598D01*
X124915883Y-109673367D01*
X125016208Y-109718793D01*
X125091020Y-109744188D01*
X125168269Y-109762953D01*
X125259983Y-109776063D01*
X125378186Y-109784493D01*
X125534905Y-109789216D01*
X125742167Y-109791208D01*
X125913444Y-109791500D01*
X126205868Y-109789252D01*
X126205868Y-109789252D01*
G37*
X126205868Y-109789252D02*
X126438795Y-109780715D01*
X126623194Y-109763204D01*
X126770032Y-109734031D01*
X126890278Y-109690510D01*
X126994898Y-109629954D01*
X127094860Y-109549676D01*
X127162719Y-109485464D01*
X127249945Y-109398311D01*
X127319696Y-109321387D01*
X127374083Y-109245592D01*
X127415213Y-109161824D01*
X127445195Y-109060985D01*
X127466137Y-108933973D01*
X127480150Y-108771688D01*
X127489341Y-108565030D01*
X127495820Y-108304899D01*
X127500926Y-108025949D01*
X127506716Y-107714606D01*
X127513081Y-107465651D01*
X127521677Y-107270927D01*
X127534160Y-107122273D01*
X127552187Y-107011531D01*
X127577411Y-106930543D01*
X127611490Y-106871149D01*
X127656078Y-106825191D01*
X127712832Y-106784510D01*
X127758625Y-106756059D01*
X127808544Y-106730032D01*
X127867519Y-106711449D01*
X127947749Y-106699092D01*
X128061435Y-106691742D01*
X128220773Y-106688181D01*
X128437964Y-106687191D01*
X128448113Y-106687188D01*
X128703286Y-106689531D01*
X128898615Y-106698512D01*
X129044703Y-106716861D01*
X129152153Y-106747308D01*
X129231568Y-106792581D01*
X129293552Y-106855411D01*
X129334833Y-106915462D01*
X129353583Y-106948748D01*
X129368717Y-106986639D01*
X129380621Y-107036598D01*
X129389680Y-107106091D01*
X129396282Y-107202583D01*
X129400812Y-107333537D01*
X129403657Y-107506420D01*
X129405203Y-107728695D01*
X129405836Y-108007827D01*
X129405944Y-108289858D01*
X129406250Y-108635098D01*
X129407619Y-108916899D01*
X129410723Y-109142377D01*
X129416239Y-109318648D01*
X129424840Y-109452828D01*
X129437201Y-109552032D01*
X129453996Y-109623378D01*
X129475901Y-109673980D01*
X129503589Y-109710954D01*
X129537736Y-109741417D01*
X129543998Y-109746281D01*
X129645921Y-109786662D01*
X129773594Y-109789306D01*
X129895003Y-109756988D01*
X129964239Y-109709852D01*
X129983627Y-109687822D01*
X129999435Y-109662460D01*
X130012027Y-109626846D01*
X130021767Y-109574058D01*
X130029017Y-109497176D01*
X130034140Y-109389278D01*
X130037500Y-109243444D01*
X130039460Y-109052752D01*
X130040383Y-108810283D01*
X130040633Y-108509115D01*
X130040600Y-108254643D01*
X130040255Y-106881084D01*
X129954248Y-106696351D01*
X129825627Y-106489389D01*
X129651498Y-106307958D01*
X129451006Y-106170189D01*
X129350680Y-106124763D01*
X129275869Y-106099368D01*
X129198619Y-106080603D01*
X129106906Y-106067493D01*
X128988703Y-106059063D01*
X128831983Y-106054340D01*
X128624722Y-106052348D01*
X128453444Y-106052056D01*
X128205006Y-106052819D01*
X128015193Y-106055736D01*
X127872082Y-106061749D01*
X127763753Y-106071800D01*
X127678286Y-106086833D01*
X127603758Y-106107789D01*
X127562260Y-106122499D01*
X127356140Y-106233882D01*
X127169466Y-106400168D01*
X127018425Y-106605783D01*
X126975594Y-106687056D01*
X126948651Y-106745573D01*
X126927391Y-106800457D01*
X126910962Y-106860913D01*
X126898516Y-106936145D01*
X126889202Y-107035361D01*
X126882171Y-107167766D01*
X126876573Y-107342564D01*
X126871558Y-107568962D01*
X126866277Y-107856165D01*
X126865944Y-107874924D01*
X126848305Y-108868765D01*
X126760111Y-108963068D01*
X126691054Y-109031397D01*
X126622310Y-109081517D01*
X126541663Y-109116212D01*
X126436895Y-109138269D01*
X126295789Y-109150472D01*
X126106127Y-109155608D01*
X125911708Y-109156500D01*
X125657621Y-109154029D01*
X125463309Y-109144768D01*
X125318106Y-109125948D01*
X125211347Y-109094801D01*
X125132366Y-109048556D01*
X125070497Y-108984444D01*
X125032056Y-108928094D01*
X125013152Y-108894511D01*
X124997927Y-108856285D01*
X124985983Y-108805874D01*
X124976926Y-108735733D01*
X124970356Y-108638318D01*
X124965878Y-108506087D01*
X124963096Y-108331494D01*
X124961611Y-108106996D01*
X124961028Y-107825049D01*
X124960944Y-107575952D01*
X124960466Y-107225357D01*
X124958611Y-106938337D01*
X124954746Y-106707913D01*
X124948239Y-106527109D01*
X124938460Y-106388947D01*
X124924774Y-106286450D01*
X124906551Y-106212640D01*
X124883159Y-106160541D01*
X124853965Y-106123174D01*
X124827266Y-106100150D01*
X124721976Y-106057805D01*
X124592216Y-106054350D01*
X124469845Y-106087267D01*
X124402649Y-106133705D01*
X124383262Y-106155734D01*
X124367454Y-106181096D01*
X124354861Y-106216710D01*
X124345122Y-106269498D01*
X124337872Y-106346381D01*
X124332748Y-106454278D01*
X124329388Y-106600112D01*
X124327428Y-106790804D01*
X124326505Y-107033273D01*
X124326256Y-107334441D01*
X124326289Y-107588913D01*
X124326634Y-108962472D01*
X124412640Y-109147205D01*
X124541261Y-109354167D01*
X124715391Y-109535598D01*
X124915883Y-109673367D01*
X125016208Y-109718793D01*
X125091020Y-109744188D01*
X125168269Y-109762953D01*
X125259983Y-109776063D01*
X125378186Y-109784493D01*
X125534905Y-109789216D01*
X125742167Y-109791208D01*
X125913444Y-109791500D01*
X126205868Y-109789252D01*
G36*
X174140090Y-105446348D02*
X174061546Y-105446778D01*
X174004702Y-105447942D01*
X173965895Y-105450207D01*
X173941462Y-105453940D01*
X173927738Y-105459506D01*
X173921060Y-105467273D01*
X173917764Y-105477605D01*
X173917444Y-105478943D01*
X173912438Y-105503079D01*
X173903171Y-105550701D01*
X173890608Y-105616741D01*
X173875713Y-105696128D01*
X173859449Y-105783796D01*
X173858881Y-105786875D01*
X173842590Y-105872789D01*
X173827348Y-105948696D01*
X173814139Y-106010045D01*
X173803946Y-106052282D01*
X173797752Y-106070855D01*
X173797457Y-106071184D01*
X173779212Y-106080253D01*
X173741595Y-106095367D01*
X173692729Y-106113262D01*
X173692457Y-106113358D01*
X173630907Y-106136493D01*
X173558343Y-106165965D01*
X173489943Y-106195597D01*
X173486706Y-106197062D01*
X173375298Y-106247626D01*
X173128601Y-106079160D01*
X173052923Y-106027803D01*
X172984369Y-105981889D01*
X172926912Y-105944030D01*
X172884524Y-105916837D01*
X172861175Y-105902921D01*
X172858958Y-105901889D01*
X172841990Y-105906484D01*
X172810299Y-105928655D01*
X172762648Y-105969447D01*
X172697802Y-106029905D01*
X172631603Y-106094227D01*
X172567786Y-106157612D01*
X172510671Y-106215451D01*
X172463695Y-106264175D01*
X172430297Y-106300210D01*
X172413915Y-106319984D01*
X172413306Y-106321002D01*
X172411495Y-106334572D01*
X172418317Y-106356733D01*
X172435460Y-106390478D01*
X172464607Y-106438800D01*
X172507445Y-106504692D01*
X172564552Y-106589517D01*
X172615234Y-106664177D01*
X172660539Y-106731140D01*
X172697850Y-106786516D01*
X172724548Y-106826420D01*
X172738015Y-106846962D01*
X172738863Y-106848356D01*
X172737219Y-106868038D01*
X172724755Y-106906293D01*
X172703952Y-106955889D01*
X172696538Y-106971728D01*
X172664186Y-107042290D01*
X172629672Y-107122353D01*
X172601635Y-107191629D01*
X172581432Y-107243045D01*
X172565385Y-107282119D01*
X172556112Y-107302541D01*
X172554959Y-107304114D01*
X172537904Y-107306721D01*
X172497702Y-107313863D01*
X172439698Y-107324523D01*
X172369237Y-107337685D01*
X172291665Y-107352333D01*
X172212328Y-107367449D01*
X172136569Y-107382018D01*
X172069736Y-107395022D01*
X172017172Y-107405445D01*
X171984224Y-107412270D01*
X171976143Y-107414199D01*
X171967795Y-107418962D01*
X171961494Y-107429718D01*
X171956955Y-107450098D01*
X171953896Y-107483734D01*
X171952033Y-107534255D01*
X171951082Y-107605292D01*
X171950760Y-107700476D01*
X171950743Y-107739492D01*
X171950743Y-108056799D01*
X172026943Y-108071839D01*
X172069337Y-108079995D01*
X172132600Y-108091899D01*
X172209038Y-108106116D01*
X172290957Y-108121210D01*
X172313600Y-108125355D01*
X172389194Y-108140053D01*
X172455047Y-108154505D01*
X172505634Y-108167375D01*
X172535426Y-108177322D01*
X172540388Y-108180287D01*
X172552574Y-108201283D01*
X172570047Y-108241967D01*
X172589423Y-108294322D01*
X172593266Y-108305600D01*
X172618661Y-108375523D01*
X172650183Y-108454418D01*
X172681031Y-108525266D01*
X172681183Y-108525595D01*
X172732553Y-108636733D01*
X172563601Y-108885253D01*
X172394648Y-109133772D01*
X172611571Y-109351058D01*
X172677181Y-109415726D01*
X172737021Y-109472733D01*
X172787733Y-109519033D01*
X172825954Y-109551584D01*
X172848325Y-109567343D01*
X172851534Y-109568343D01*
X172870374Y-109560469D01*
X172908820Y-109538578D01*
X172962670Y-109505267D01*
X173027724Y-109463131D01*
X173098060Y-109415943D01*
X173169445Y-109367810D01*
X173233092Y-109325928D01*
X173284959Y-109292871D01*
X173321005Y-109271218D01*
X173337133Y-109263543D01*
X173356811Y-109270037D01*
X173394125Y-109287150D01*
X173441379Y-109311326D01*
X173446388Y-109314013D01*
X173510023Y-109345927D01*
X173553659Y-109361579D01*
X173580798Y-109361745D01*
X173594943Y-109347204D01*
X173595025Y-109347000D01*
X173602095Y-109329779D01*
X173618958Y-109288899D01*
X173644305Y-109227525D01*
X173676829Y-109148819D01*
X173715222Y-109055947D01*
X173758178Y-108952072D01*
X173799778Y-108851502D01*
X173845496Y-108740516D01*
X173887474Y-108637703D01*
X173924452Y-108546215D01*
X173955173Y-108469201D01*
X173978378Y-108409815D01*
X173992810Y-108371209D01*
X173997257Y-108356800D01*
X173986104Y-108340272D01*
X173956931Y-108313930D01*
X173918029Y-108284887D01*
X173807243Y-108193039D01*
X173720649Y-108087759D01*
X173659284Y-107971266D01*
X173624185Y-107845776D01*
X173616392Y-107713507D01*
X173622057Y-107652457D01*
X173652922Y-107525795D01*
X173706080Y-107413941D01*
X173778233Y-107318001D01*
X173866083Y-107239076D01*
X173966335Y-107178270D01*
X174075690Y-107136687D01*
X174190853Y-107115428D01*
X174308525Y-107115599D01*
X174425410Y-107138301D01*
X174538211Y-107184638D01*
X174643631Y-107255713D01*
X174687632Y-107295911D01*
X174772021Y-107399129D01*
X174830778Y-107511925D01*
X174864296Y-107631010D01*
X174872965Y-107753095D01*
X174857177Y-107874893D01*
X174817322Y-107993116D01*
X174753793Y-108104475D01*
X174666979Y-108205684D01*
X174569971Y-108284887D01*
X174529563Y-108315162D01*
X174501018Y-108341219D01*
X174490743Y-108356825D01*
X174496123Y-108373843D01*
X174511425Y-108414500D01*
X174535388Y-108475642D01*
X174566756Y-108554119D01*
X174604268Y-108646780D01*
X174646667Y-108750472D01*
X174688337Y-108851526D01*
X174734310Y-108962607D01*
X174776893Y-109065541D01*
X174814779Y-109157165D01*
X174846660Y-109234316D01*
X174871229Y-109293831D01*
X174887180Y-109332544D01*
X174893090Y-109347000D01*
X174907052Y-109361685D01*
X174934060Y-109361642D01*
X174977587Y-109346099D01*
X175041110Y-109314284D01*
X175041612Y-109314013D01*
X175089440Y-109289323D01*
X175128103Y-109271338D01*
X175149905Y-109263614D01*
X175150867Y-109263543D01*
X175167279Y-109271378D01*
X175203513Y-109293165D01*
X175255526Y-109326328D01*
X175319275Y-109368291D01*
X175389940Y-109415943D01*
X175461884Y-109464191D01*
X175526726Y-109506151D01*
X175580265Y-109539227D01*
X175618303Y-109560821D01*
X175636467Y-109568343D01*
X175653192Y-109558457D01*
X175686820Y-109530826D01*
X175733990Y-109488495D01*
X175791342Y-109434505D01*
X175855516Y-109371899D01*
X175876503Y-109350983D01*
X176093501Y-109133623D01*
X175928332Y-108891220D01*
X175878136Y-108816781D01*
X175834081Y-108749972D01*
X175798638Y-108694665D01*
X175774281Y-108654729D01*
X175763478Y-108634036D01*
X175763162Y-108632563D01*
X175768857Y-108613058D01*
X175784174Y-108573822D01*
X175806463Y-108521430D01*
X175822107Y-108486355D01*
X175851359Y-108419201D01*
X175878906Y-108351358D01*
X175900263Y-108294034D01*
X175906065Y-108276572D01*
X175922548Y-108229938D01*
X175938660Y-108193905D01*
X175947510Y-108180287D01*
X175967040Y-108171952D01*
X176009666Y-108160137D01*
X176069855Y-108146181D01*
X176142078Y-108131422D01*
X176174400Y-108125355D01*
X176256478Y-108110273D01*
X176335205Y-108095669D01*
X176402891Y-108082980D01*
X176451840Y-108073642D01*
X176461057Y-108071839D01*
X176537257Y-108056799D01*
X176537257Y-107739492D01*
X176537086Y-107635154D01*
X176536384Y-107556213D01*
X176534866Y-107499038D01*
X176532251Y-107459999D01*
X176528254Y-107435465D01*
X176522591Y-107421805D01*
X176514980Y-107415389D01*
X176511857Y-107414199D01*
X176493022Y-107409980D01*
X176451412Y-107401562D01*
X176392370Y-107389961D01*
X176321243Y-107376195D01*
X176243375Y-107361280D01*
X176164113Y-107346232D01*
X176088802Y-107332069D01*
X176022787Y-107319806D01*
X175971413Y-107310461D01*
X175940025Y-107305050D01*
X175933041Y-107304114D01*
X175926715Y-107291596D01*
X175912710Y-107258246D01*
X175893645Y-107210377D01*
X175886366Y-107191629D01*
X175857004Y-107119195D01*
X175822429Y-107039170D01*
X175791463Y-106971728D01*
X175768677Y-106920159D01*
X175753518Y-106877785D01*
X175748458Y-106851834D01*
X175749264Y-106848356D01*
X175759959Y-106831936D01*
X175784380Y-106795417D01*
X175819905Y-106742687D01*
X175863913Y-106677635D01*
X175913783Y-106604151D01*
X175923644Y-106589645D01*
X175981508Y-106503704D01*
X176024044Y-106438261D01*
X176052946Y-106390304D01*
X176069910Y-106356820D01*
X176076633Y-106334795D01*
X176074810Y-106321217D01*
X176074764Y-106321131D01*
X176060414Y-106303297D01*
X176028677Y-106268817D01*
X175982990Y-106221268D01*
X175926796Y-106164222D01*
X175863532Y-106101255D01*
X175856398Y-106094227D01*
X175776670Y-106017020D01*
X175715143Y-105960330D01*
X175670579Y-105923110D01*
X175641743Y-105904315D01*
X175629042Y-105901889D01*
X175610506Y-105912471D01*
X175572039Y-105936916D01*
X175517614Y-105972612D01*
X175451202Y-106016947D01*
X175376775Y-106067311D01*
X175359399Y-106079160D01*
X175112703Y-106247626D01*
X175001294Y-106197062D01*
X174933543Y-106167595D01*
X174860817Y-106137959D01*
X174798297Y-106114330D01*
X174795543Y-106113358D01*
X174746640Y-106095457D01*
X174708943Y-106080320D01*
X174690575Y-106071210D01*
X174690544Y-106071184D01*
X174684715Y-106054717D01*
X174674808Y-106014219D01*
X174661805Y-105954242D01*
X174646691Y-105879340D01*
X174630448Y-105794064D01*
X174629119Y-105786875D01*
X174612825Y-105699014D01*
X174597867Y-105619260D01*
X174585209Y-105552681D01*
X174575814Y-105504347D01*
X174570646Y-105479325D01*
X174570556Y-105478943D01*
X174567411Y-105468299D01*
X174561296Y-105460262D01*
X174548547Y-105454467D01*
X174525500Y-105450547D01*
X174488491Y-105448135D01*
X174433856Y-105446865D01*
X174357933Y-105446371D01*
X174257056Y-105446286D01*
X174244000Y-105446286D01*
X174140090Y-105446348D01*
X174140090Y-105446348D01*
G37*
X174140090Y-105446348D02*
X174061546Y-105446778D01*
X174004702Y-105447942D01*
X173965895Y-105450207D01*
X173941462Y-105453940D01*
X173927738Y-105459506D01*
X173921060Y-105467273D01*
X173917764Y-105477605D01*
X173917444Y-105478943D01*
X173912438Y-105503079D01*
X173903171Y-105550701D01*
X173890608Y-105616741D01*
X173875713Y-105696128D01*
X173859449Y-105783796D01*
X173858881Y-105786875D01*
X173842590Y-105872789D01*
X173827348Y-105948696D01*
X173814139Y-106010045D01*
X173803946Y-106052282D01*
X173797752Y-106070855D01*
X173797457Y-106071184D01*
X173779212Y-106080253D01*
X173741595Y-106095367D01*
X173692729Y-106113262D01*
X173692457Y-106113358D01*
X173630907Y-106136493D01*
X173558343Y-106165965D01*
X173489943Y-106195597D01*
X173486706Y-106197062D01*
X173375298Y-106247626D01*
X173128601Y-106079160D01*
X173052923Y-106027803D01*
X172984369Y-105981889D01*
X172926912Y-105944030D01*
X172884524Y-105916837D01*
X172861175Y-105902921D01*
X172858958Y-105901889D01*
X172841990Y-105906484D01*
X172810299Y-105928655D01*
X172762648Y-105969447D01*
X172697802Y-106029905D01*
X172631603Y-106094227D01*
X172567786Y-106157612D01*
X172510671Y-106215451D01*
X172463695Y-106264175D01*
X172430297Y-106300210D01*
X172413915Y-106319984D01*
X172413306Y-106321002D01*
X172411495Y-106334572D01*
X172418317Y-106356733D01*
X172435460Y-106390478D01*
X172464607Y-106438800D01*
X172507445Y-106504692D01*
X172564552Y-106589517D01*
X172615234Y-106664177D01*
X172660539Y-106731140D01*
X172697850Y-106786516D01*
X172724548Y-106826420D01*
X172738015Y-106846962D01*
X172738863Y-106848356D01*
X172737219Y-106868038D01*
X172724755Y-106906293D01*
X172703952Y-106955889D01*
X172696538Y-106971728D01*
X172664186Y-107042290D01*
X172629672Y-107122353D01*
X172601635Y-107191629D01*
X172581432Y-107243045D01*
X172565385Y-107282119D01*
X172556112Y-107302541D01*
X172554959Y-107304114D01*
X172537904Y-107306721D01*
X172497702Y-107313863D01*
X172439698Y-107324523D01*
X172369237Y-107337685D01*
X172291665Y-107352333D01*
X172212328Y-107367449D01*
X172136569Y-107382018D01*
X172069736Y-107395022D01*
X172017172Y-107405445D01*
X171984224Y-107412270D01*
X171976143Y-107414199D01*
X171967795Y-107418962D01*
X171961494Y-107429718D01*
X171956955Y-107450098D01*
X171953896Y-107483734D01*
X171952033Y-107534255D01*
X171951082Y-107605292D01*
X171950760Y-107700476D01*
X171950743Y-107739492D01*
X171950743Y-108056799D01*
X172026943Y-108071839D01*
X172069337Y-108079995D01*
X172132600Y-108091899D01*
X172209038Y-108106116D01*
X172290957Y-108121210D01*
X172313600Y-108125355D01*
X172389194Y-108140053D01*
X172455047Y-108154505D01*
X172505634Y-108167375D01*
X172535426Y-108177322D01*
X172540388Y-108180287D01*
X172552574Y-108201283D01*
X172570047Y-108241967D01*
X172589423Y-108294322D01*
X172593266Y-108305600D01*
X172618661Y-108375523D01*
X172650183Y-108454418D01*
X172681031Y-108525266D01*
X172681183Y-108525595D01*
X172732553Y-108636733D01*
X172563601Y-108885253D01*
X172394648Y-109133772D01*
X172611571Y-109351058D01*
X172677181Y-109415726D01*
X172737021Y-109472733D01*
X172787733Y-109519033D01*
X172825954Y-109551584D01*
X172848325Y-109567343D01*
X172851534Y-109568343D01*
X172870374Y-109560469D01*
X172908820Y-109538578D01*
X172962670Y-109505267D01*
X173027724Y-109463131D01*
X173098060Y-109415943D01*
X173169445Y-109367810D01*
X173233092Y-109325928D01*
X173284959Y-109292871D01*
X173321005Y-109271218D01*
X173337133Y-109263543D01*
X173356811Y-109270037D01*
X173394125Y-109287150D01*
X173441379Y-109311326D01*
X173446388Y-109314013D01*
X173510023Y-109345927D01*
X173553659Y-109361579D01*
X173580798Y-109361745D01*
X173594943Y-109347204D01*
X173595025Y-109347000D01*
X173602095Y-109329779D01*
X173618958Y-109288899D01*
X173644305Y-109227525D01*
X173676829Y-109148819D01*
X173715222Y-109055947D01*
X173758178Y-108952072D01*
X173799778Y-108851502D01*
X173845496Y-108740516D01*
X173887474Y-108637703D01*
X173924452Y-108546215D01*
X173955173Y-108469201D01*
X173978378Y-108409815D01*
X173992810Y-108371209D01*
X173997257Y-108356800D01*
X173986104Y-108340272D01*
X173956931Y-108313930D01*
X173918029Y-108284887D01*
X173807243Y-108193039D01*
X173720649Y-108087759D01*
X173659284Y-107971266D01*
X173624185Y-107845776D01*
X173616392Y-107713507D01*
X173622057Y-107652457D01*
X173652922Y-107525795D01*
X173706080Y-107413941D01*
X173778233Y-107318001D01*
X173866083Y-107239076D01*
X173966335Y-107178270D01*
X174075690Y-107136687D01*
X174190853Y-107115428D01*
X174308525Y-107115599D01*
X174425410Y-107138301D01*
X174538211Y-107184638D01*
X174643631Y-107255713D01*
X174687632Y-107295911D01*
X174772021Y-107399129D01*
X174830778Y-107511925D01*
X174864296Y-107631010D01*
X174872965Y-107753095D01*
X174857177Y-107874893D01*
X174817322Y-107993116D01*
X174753793Y-108104475D01*
X174666979Y-108205684D01*
X174569971Y-108284887D01*
X174529563Y-108315162D01*
X174501018Y-108341219D01*
X174490743Y-108356825D01*
X174496123Y-108373843D01*
X174511425Y-108414500D01*
X174535388Y-108475642D01*
X174566756Y-108554119D01*
X174604268Y-108646780D01*
X174646667Y-108750472D01*
X174688337Y-108851526D01*
X174734310Y-108962607D01*
X174776893Y-109065541D01*
X174814779Y-109157165D01*
X174846660Y-109234316D01*
X174871229Y-109293831D01*
X174887180Y-109332544D01*
X174893090Y-109347000D01*
X174907052Y-109361685D01*
X174934060Y-109361642D01*
X174977587Y-109346099D01*
X175041110Y-109314284D01*
X175041612Y-109314013D01*
X175089440Y-109289323D01*
X175128103Y-109271338D01*
X175149905Y-109263614D01*
X175150867Y-109263543D01*
X175167279Y-109271378D01*
X175203513Y-109293165D01*
X175255526Y-109326328D01*
X175319275Y-109368291D01*
X175389940Y-109415943D01*
X175461884Y-109464191D01*
X175526726Y-109506151D01*
X175580265Y-109539227D01*
X175618303Y-109560821D01*
X175636467Y-109568343D01*
X175653192Y-109558457D01*
X175686820Y-109530826D01*
X175733990Y-109488495D01*
X175791342Y-109434505D01*
X175855516Y-109371899D01*
X175876503Y-109350983D01*
X176093501Y-109133623D01*
X175928332Y-108891220D01*
X175878136Y-108816781D01*
X175834081Y-108749972D01*
X175798638Y-108694665D01*
X175774281Y-108654729D01*
X175763478Y-108634036D01*
X175763162Y-108632563D01*
X175768857Y-108613058D01*
X175784174Y-108573822D01*
X175806463Y-108521430D01*
X175822107Y-108486355D01*
X175851359Y-108419201D01*
X175878906Y-108351358D01*
X175900263Y-108294034D01*
X175906065Y-108276572D01*
X175922548Y-108229938D01*
X175938660Y-108193905D01*
X175947510Y-108180287D01*
X175967040Y-108171952D01*
X176009666Y-108160137D01*
X176069855Y-108146181D01*
X176142078Y-108131422D01*
X176174400Y-108125355D01*
X176256478Y-108110273D01*
X176335205Y-108095669D01*
X176402891Y-108082980D01*
X176451840Y-108073642D01*
X176461057Y-108071839D01*
X176537257Y-108056799D01*
X176537257Y-107739492D01*
X176537086Y-107635154D01*
X176536384Y-107556213D01*
X176534866Y-107499038D01*
X176532251Y-107459999D01*
X176528254Y-107435465D01*
X176522591Y-107421805D01*
X176514980Y-107415389D01*
X176511857Y-107414199D01*
X176493022Y-107409980D01*
X176451412Y-107401562D01*
X176392370Y-107389961D01*
X176321243Y-107376195D01*
X176243375Y-107361280D01*
X176164113Y-107346232D01*
X176088802Y-107332069D01*
X176022787Y-107319806D01*
X175971413Y-107310461D01*
X175940025Y-107305050D01*
X175933041Y-107304114D01*
X175926715Y-107291596D01*
X175912710Y-107258246D01*
X175893645Y-107210377D01*
X175886366Y-107191629D01*
X175857004Y-107119195D01*
X175822429Y-107039170D01*
X175791463Y-106971728D01*
X175768677Y-106920159D01*
X175753518Y-106877785D01*
X175748458Y-106851834D01*
X175749264Y-106848356D01*
X175759959Y-106831936D01*
X175784380Y-106795417D01*
X175819905Y-106742687D01*
X175863913Y-106677635D01*
X175913783Y-106604151D01*
X175923644Y-106589645D01*
X175981508Y-106503704D01*
X176024044Y-106438261D01*
X176052946Y-106390304D01*
X176069910Y-106356820D01*
X176076633Y-106334795D01*
X176074810Y-106321217D01*
X176074764Y-106321131D01*
X176060414Y-106303297D01*
X176028677Y-106268817D01*
X175982990Y-106221268D01*
X175926796Y-106164222D01*
X175863532Y-106101255D01*
X175856398Y-106094227D01*
X175776670Y-106017020D01*
X175715143Y-105960330D01*
X175670579Y-105923110D01*
X175641743Y-105904315D01*
X175629042Y-105901889D01*
X175610506Y-105912471D01*
X175572039Y-105936916D01*
X175517614Y-105972612D01*
X175451202Y-106016947D01*
X175376775Y-106067311D01*
X175359399Y-106079160D01*
X175112703Y-106247626D01*
X175001294Y-106197062D01*
X174933543Y-106167595D01*
X174860817Y-106137959D01*
X174798297Y-106114330D01*
X174795543Y-106113358D01*
X174746640Y-106095457D01*
X174708943Y-106080320D01*
X174690575Y-106071210D01*
X174690544Y-106071184D01*
X174684715Y-106054717D01*
X174674808Y-106014219D01*
X174661805Y-105954242D01*
X174646691Y-105879340D01*
X174630448Y-105794064D01*
X174629119Y-105786875D01*
X174612825Y-105699014D01*
X174597867Y-105619260D01*
X174585209Y-105552681D01*
X174575814Y-105504347D01*
X174570646Y-105479325D01*
X174570556Y-105478943D01*
X174567411Y-105468299D01*
X174561296Y-105460262D01*
X174548547Y-105454467D01*
X174525500Y-105450547D01*
X174488491Y-105448135D01*
X174433856Y-105446865D01*
X174357933Y-105446371D01*
X174257056Y-105446286D01*
X174244000Y-105446286D01*
X174140090Y-105446348D01*
D12*
X132461000Y-105410000D03*
X169164000Y-102362012D03*
X123952000Y-99441004D03*
X128016000Y-103886000D03*
X136779000Y-105410006D03*
X162306000Y-96520000D03*
X152527000Y-102997000D03*
X150712284Y-103664289D03*
X134747000Y-105410000D03*
X126492000Y-103886000D03*
X128143000Y-95631000D03*
X168021000Y-96012000D03*
X156591000Y-102996998D03*
X143002000Y-104902000D03*
X153796998Y-102997000D03*
X155194000Y-102997000D03*
X153289000Y-105537002D03*
X147066000Y-104902000D03*
X154545792Y-105546084D03*
X146050000Y-104902000D03*
X156083004Y-105537000D03*
X145034000Y-104902000D03*
X157480004Y-105537000D03*
X144018000Y-104902000D03*
X166497000Y-104648000D03*
X136398000Y-102870000D03*
X167709989Y-104648000D03*
X133858000Y-102108000D03*
X124968000Y-99441000D03*
X168910000Y-104648000D03*
X170180000Y-104648000D03*
X171450000Y-104648000D03*
X172720000Y-104648000D03*
X173990000Y-104648000D03*
X175260000Y-104648000D03*
X132842000Y-94234000D03*
X129540000Y-94234000D03*
X126746000Y-94234000D03*
X127254000Y-102108000D03*
X132334000Y-102108000D03*
X131064000Y-102108000D03*
X129794000Y-102108000D03*
X128524000Y-102108000D03*
D13*
X135001000Y-107950000D02*
X132760999Y-105709999D01*
X165734002Y-107950000D02*
X135001000Y-107950000D01*
X168309999Y-105374003D02*
X165734002Y-107950000D01*
X169164000Y-102362012D02*
X168309999Y-103216013D01*
X168309999Y-103216013D02*
X168309999Y-105374003D01*
X132760999Y-105709999D02*
X132461000Y-105410000D01*
X128315999Y-103586001D02*
X128016000Y-103886000D01*
X136779000Y-105410006D02*
X134954995Y-103586001D01*
X134954995Y-103586001D02*
X128315999Y-103586001D01*
X124251999Y-99141005D02*
X123952000Y-99441004D01*
X126873004Y-96520000D02*
X124251999Y-99141005D01*
X162306000Y-96520000D02*
X126873004Y-96520000D01*
X152102736Y-102997000D02*
X152527000Y-102997000D01*
X151379573Y-102997000D02*
X152102736Y-102997000D01*
X150712284Y-103664289D02*
X151379573Y-102997000D01*
X134447001Y-105110001D02*
X134747000Y-105410000D01*
X134146998Y-104809998D02*
X134447001Y-105110001D01*
X127415998Y-104809998D02*
X134146998Y-104809998D01*
X126492000Y-103886000D02*
X127415998Y-104809998D01*
X167640000Y-95631000D02*
X128567264Y-95631000D01*
X128567264Y-95631000D02*
X128143000Y-95631000D01*
X168021000Y-96012000D02*
X167640000Y-95631000D01*
X155323707Y-104264291D02*
X156291001Y-103296997D01*
X143002000Y-104902000D02*
X143639709Y-104264291D01*
X156291001Y-103296997D02*
X156591000Y-102996998D01*
X143639709Y-104264291D02*
X155323707Y-104264291D01*
X155194000Y-102997000D02*
X153796998Y-102997000D01*
X147066000Y-104902000D02*
X152653998Y-104902000D01*
X152653998Y-104902000D02*
X152989001Y-105237003D01*
X152989001Y-105237003D02*
X153289000Y-105537002D01*
X147412001Y-106264001D02*
X153827875Y-106264001D01*
X146050000Y-104902000D02*
X147412001Y-106264001D01*
X154245793Y-105846083D02*
X154545792Y-105546084D01*
X153827875Y-106264001D02*
X154245793Y-105846083D01*
X155783005Y-105836999D02*
X156083004Y-105537000D01*
X145034000Y-104902000D02*
X146812000Y-106680000D01*
X146812000Y-106680000D02*
X154940004Y-106680000D01*
X154940004Y-106680000D02*
X155783005Y-105836999D01*
X157180005Y-105836999D02*
X157480004Y-105537000D01*
X155829004Y-107188000D02*
X157180005Y-105836999D01*
X146304000Y-107188000D02*
X155829004Y-107188000D01*
X144018000Y-104902000D02*
X146304000Y-107188000D01*
X166197001Y-104348001D02*
X166497000Y-104648000D01*
X164118999Y-102269999D02*
X166197001Y-104348001D01*
X136998001Y-102269999D02*
X164118999Y-102269999D01*
X136398000Y-102870000D02*
X136998001Y-102269999D01*
X133858000Y-102108000D02*
X134157999Y-101808001D01*
X167409990Y-104348001D02*
X167709989Y-104648000D01*
X134157999Y-101808001D02*
X164869990Y-101808001D01*
X164869990Y-101808001D02*
X167409990Y-104348001D01*
D14*
G36*
X176005000Y-94996000D02*
X176015088Y-95046715D01*
X176015088Y-95098422D01*
X176111760Y-95584425D01*
X176111760Y-95584430D01*
X176190151Y-95773682D01*
X176465451Y-96185698D01*
X176465452Y-96185701D01*
X176610300Y-96330548D01*
X177022315Y-96605847D01*
X177022317Y-96605849D01*
X177211570Y-96684239D01*
X177697577Y-96780912D01*
X177749284Y-96780912D01*
X177800000Y-96791000D01*
X179018294Y-96791000D01*
X179351163Y-96857212D01*
X179589522Y-97016478D01*
X179748788Y-97254838D01*
X179815000Y-97587706D01*
X179815000Y-110438294D01*
X179748788Y-110771162D01*
X179589522Y-111009522D01*
X179351163Y-111168788D01*
X179018294Y-111235000D01*
X128557931Y-111235000D01*
X128577482Y-111215792D01*
X128620248Y-111185678D01*
X128809034Y-110987424D01*
X128837875Y-110941888D01*
X128873435Y-110901387D01*
X129007567Y-110669381D01*
X129018330Y-110637736D01*
X129036495Y-110609681D01*
X129051493Y-110571940D01*
X129053324Y-110561987D01*
X129058448Y-110553257D01*
X129078139Y-110496591D01*
X129080473Y-110479796D01*
X129087958Y-110464581D01*
X129103688Y-110405645D01*
X129104978Y-110385671D01*
X129112220Y-110367010D01*
X129124434Y-110297463D01*
X129124066Y-110281114D01*
X129128887Y-110265487D01*
X129138024Y-110176988D01*
X129137015Y-110166228D01*
X129139715Y-110155761D01*
X129146215Y-110039970D01*
X129145320Y-110033632D01*
X129146746Y-110027395D01*
X129147774Y-109991216D01*
X129173275Y-110014115D01*
X129200692Y-110050481D01*
X129234839Y-110080944D01*
X129248353Y-110088900D01*
X129258623Y-110100751D01*
X129264885Y-110105615D01*
X129322390Y-110134396D01*
X129376405Y-110169291D01*
X129478328Y-110209672D01*
X129557698Y-110224186D01*
X129636500Y-110241564D01*
X129764173Y-110244208D01*
X129826976Y-110233062D01*
X129890635Y-110228995D01*
X130012045Y-110196677D01*
X130080689Y-110162966D01*
X130151060Y-110133099D01*
X130220296Y-110085963D01*
X130247485Y-110058298D01*
X130248266Y-110057945D01*
X130257476Y-110048132D01*
X130260375Y-110045183D01*
X130305801Y-110010452D01*
X130325189Y-109988422D01*
X130338174Y-109966022D01*
X130344736Y-109959345D01*
X130347704Y-109951999D01*
X130369762Y-109928498D01*
X130385570Y-109903136D01*
X130401576Y-109860745D01*
X130408477Y-109870310D01*
X130430176Y-109915134D01*
X130457545Y-109951346D01*
X130491002Y-109981122D01*
X130518002Y-110016856D01*
X130550871Y-110046116D01*
X130571017Y-110057948D01*
X130586922Y-110075064D01*
X130625797Y-110103154D01*
X130628922Y-110104585D01*
X130631296Y-110107065D01*
X130634275Y-110109152D01*
X130682017Y-110130160D01*
X130725693Y-110158665D01*
X130813608Y-110193972D01*
X130865578Y-110203727D01*
X130915321Y-110221661D01*
X131038526Y-110240242D01*
X131065919Y-110238963D01*
X131092644Y-110245123D01*
X131131384Y-110246293D01*
X131154279Y-110242453D01*
X131177311Y-110245360D01*
X131296586Y-110236900D01*
X131365114Y-110218144D01*
X131434908Y-110204881D01*
X131518767Y-110170984D01*
X131579807Y-110130950D01*
X131643524Y-110095322D01*
X131714763Y-110034560D01*
X131726062Y-110020246D01*
X131741225Y-110010115D01*
X131844342Y-109906997D01*
X131844345Y-109906995D01*
X131942976Y-109759382D01*
X131944763Y-109750396D01*
X131977612Y-109585261D01*
X131977611Y-109585256D01*
X131977611Y-107608315D01*
X131977602Y-107608269D01*
X131977611Y-107608223D01*
X131977525Y-107183806D01*
X131977485Y-107183605D01*
X131977525Y-107183403D01*
X131977134Y-106823553D01*
X131977048Y-106823125D01*
X131977132Y-106822698D01*
X131976239Y-106521421D01*
X131976081Y-106520638D01*
X131976232Y-106519852D01*
X131974637Y-106271159D01*
X131974360Y-106269812D01*
X131974611Y-106268464D01*
X131972118Y-106066367D01*
X131971644Y-106064127D01*
X131972041Y-106061867D01*
X131970220Y-105979949D01*
X132035605Y-106045448D01*
X132311161Y-106159869D01*
X132433158Y-106159976D01*
X134612091Y-108338909D01*
X134790524Y-108458134D01*
X135001000Y-108500001D01*
X135001005Y-108500000D01*
X165734002Y-108500000D01*
X165944478Y-108458134D01*
X166122911Y-108338909D01*
X166722526Y-107739294D01*
X171495743Y-107739294D01*
X171495763Y-107739393D01*
X171495743Y-107739492D01*
X171495743Y-108056799D01*
X171504551Y-108101080D01*
X171504618Y-108146225D01*
X171521700Y-108187294D01*
X171530378Y-108230920D01*
X171555459Y-108268457D01*
X171572798Y-108310143D01*
X171604297Y-108341549D01*
X171629009Y-108378533D01*
X171666548Y-108403615D01*
X171698518Y-108435491D01*
X171739638Y-108452452D01*
X171776622Y-108477164D01*
X171820901Y-108485972D01*
X171862637Y-108503187D01*
X171938837Y-108518227D01*
X171939953Y-108518225D01*
X171940984Y-108518645D01*
X171983377Y-108526801D01*
X171984320Y-108526795D01*
X171985198Y-108527148D01*
X172048460Y-108539052D01*
X172048949Y-108539047D01*
X172049400Y-108539227D01*
X172125838Y-108553444D01*
X172126226Y-108553439D01*
X172126590Y-108553584D01*
X172205652Y-108568152D01*
X172214291Y-108589773D01*
X172187322Y-108629442D01*
X172187321Y-108629443D01*
X172018368Y-108877962D01*
X172000255Y-108920718D01*
X171974429Y-108959300D01*
X171965967Y-109001657D01*
X171949117Y-109041431D01*
X171948745Y-109087860D01*
X171939648Y-109133392D01*
X171948039Y-109175764D01*
X171947693Y-109218957D01*
X171965117Y-109261994D01*
X171974137Y-109307541D01*
X171998106Y-109343478D01*
X172014315Y-109383515D01*
X172046882Y-109416609D01*
X172072646Y-109455237D01*
X172289568Y-109672522D01*
X172291122Y-109673562D01*
X172292172Y-109675109D01*
X172357782Y-109739778D01*
X172361074Y-109741943D01*
X172363340Y-109745163D01*
X172423180Y-109802171D01*
X172427329Y-109804800D01*
X172430237Y-109808751D01*
X172480949Y-109855052D01*
X172487775Y-109859177D01*
X172492721Y-109865433D01*
X172530942Y-109897984D01*
X172549372Y-109908271D01*
X172554036Y-109913171D01*
X172557025Y-109916870D01*
X172558128Y-109917471D01*
X172563922Y-109923557D01*
X172586292Y-109939316D01*
X172638110Y-109962292D01*
X172678749Y-109989260D01*
X172696355Y-109992704D01*
X172712957Y-110001740D01*
X172716166Y-110002740D01*
X172733477Y-110004577D01*
X172748587Y-110011277D01*
X172797466Y-110012482D01*
X172852979Y-110023341D01*
X172872701Y-110019353D01*
X172892706Y-110021476D01*
X172913489Y-110015343D01*
X172926065Y-110015653D01*
X172964729Y-110000743D01*
X173026990Y-109988153D01*
X173045829Y-109980279D01*
X173056394Y-109973171D01*
X173062979Y-109971228D01*
X173072523Y-109963515D01*
X173095511Y-109955865D01*
X173133958Y-109933974D01*
X173140311Y-109928470D01*
X173148183Y-109925528D01*
X173202033Y-109892217D01*
X173205553Y-109888936D01*
X173210024Y-109887158D01*
X173275078Y-109845022D01*
X173277762Y-109842414D01*
X173281217Y-109840975D01*
X173351554Y-109793787D01*
X173351935Y-109793404D01*
X173352432Y-109793196D01*
X173372191Y-109779873D01*
X173400036Y-109789861D01*
X173475828Y-109801164D01*
X173550876Y-109816570D01*
X173578015Y-109816736D01*
X173582542Y-109815864D01*
X173587079Y-109816702D01*
X173669581Y-109799104D01*
X173752345Y-109783167D01*
X173756194Y-109780629D01*
X173760705Y-109779667D01*
X173830147Y-109731868D01*
X173900559Y-109685441D01*
X173903146Y-109681620D01*
X173906942Y-109679007D01*
X173921087Y-109664466D01*
X173968932Y-109590675D01*
X173971016Y-109587485D01*
X174015934Y-109519802D01*
X174022715Y-109503285D01*
X174039502Y-109462586D01*
X174039505Y-109462582D01*
X174064815Y-109401296D01*
X174064816Y-109401294D01*
X174097340Y-109322589D01*
X174097341Y-109322584D01*
X174135709Y-109229775D01*
X174135709Y-109229773D01*
X174178644Y-109125949D01*
X174220228Y-109025418D01*
X174220294Y-109025085D01*
X174220483Y-109024801D01*
X174244040Y-108967612D01*
X174267696Y-109024979D01*
X174267863Y-109025229D01*
X174267921Y-109025523D01*
X174313867Y-109136539D01*
X174313867Y-109136541D01*
X174356421Y-109239404D01*
X174394307Y-109331028D01*
X174394309Y-109331031D01*
X174426088Y-109407936D01*
X174426088Y-109407937D01*
X174450540Y-109467168D01*
X174466205Y-109505188D01*
X174471927Y-109519182D01*
X174518359Y-109589371D01*
X174563341Y-109660514D01*
X174577303Y-109675199D01*
X174582375Y-109678776D01*
X174585831Y-109683931D01*
X174654749Y-109729822D01*
X174722381Y-109777523D01*
X174728433Y-109778886D01*
X174733600Y-109782327D01*
X174814803Y-109798345D01*
X174895572Y-109816541D01*
X174901691Y-109815484D01*
X174907776Y-109816684D01*
X174934784Y-109816641D01*
X175010585Y-109801438D01*
X175087072Y-109790142D01*
X175115818Y-109779877D01*
X175135552Y-109793185D01*
X175136097Y-109793413D01*
X175136515Y-109793833D01*
X175208459Y-109842081D01*
X175211967Y-109843541D01*
X175214691Y-109846186D01*
X175279532Y-109888146D01*
X175284038Y-109889935D01*
X175287586Y-109893239D01*
X175341125Y-109926315D01*
X175349154Y-109929310D01*
X175355636Y-109934912D01*
X175393674Y-109956506D01*
X175420615Y-109965433D01*
X175444217Y-109981201D01*
X175462381Y-109988723D01*
X175494081Y-109995026D01*
X175523213Y-110009023D01*
X175557954Y-110010943D01*
X175562195Y-110012348D01*
X175571336Y-110011682D01*
X175580365Y-110012181D01*
X175636505Y-110023343D01*
X175668205Y-110017035D01*
X175700474Y-110018818D01*
X175754480Y-109999866D01*
X175784535Y-109993885D01*
X175785528Y-109993787D01*
X175785823Y-109993629D01*
X175810623Y-109988694D01*
X175837496Y-109970734D01*
X175867992Y-109960033D01*
X175884716Y-109950147D01*
X175910975Y-109926639D01*
X175942048Y-109910006D01*
X175975677Y-109882375D01*
X175982057Y-109874592D01*
X175990715Y-109869460D01*
X176037885Y-109827129D01*
X176041192Y-109822716D01*
X176045867Y-109819792D01*
X176103219Y-109765802D01*
X176105613Y-109762443D01*
X176109072Y-109760193D01*
X176173246Y-109697587D01*
X176174646Y-109695547D01*
X176176704Y-109694177D01*
X176197691Y-109673261D01*
X176198017Y-109672774D01*
X176198505Y-109672448D01*
X176415503Y-109455088D01*
X176441399Y-109416262D01*
X176474097Y-109382965D01*
X176490176Y-109343130D01*
X176514011Y-109307393D01*
X176523077Y-109261616D01*
X176540546Y-109218337D01*
X176540156Y-109175383D01*
X176548502Y-109133244D01*
X176539358Y-109087477D01*
X176538935Y-109040812D01*
X176522137Y-109001276D01*
X176513721Y-108959152D01*
X176487761Y-108920370D01*
X176469511Y-108877417D01*
X176304927Y-108635872D01*
X176273427Y-108589159D01*
X176281931Y-108568214D01*
X176338708Y-108557781D01*
X176339073Y-108557636D01*
X176339466Y-108557641D01*
X176418192Y-108543037D01*
X176418603Y-108542873D01*
X176419043Y-108542878D01*
X176486729Y-108530189D01*
X176487414Y-108529914D01*
X176488154Y-108529920D01*
X176537103Y-108520582D01*
X176538106Y-108520176D01*
X176539190Y-108520179D01*
X176548407Y-108518376D01*
X176548771Y-108518226D01*
X176549163Y-108518227D01*
X176625363Y-108503187D01*
X176667099Y-108485972D01*
X176711378Y-108477164D01*
X176748362Y-108452452D01*
X176789482Y-108435491D01*
X176821452Y-108403615D01*
X176858991Y-108378533D01*
X176883703Y-108341549D01*
X176915202Y-108310143D01*
X176932541Y-108268457D01*
X176957622Y-108230920D01*
X176966300Y-108187294D01*
X176983382Y-108146225D01*
X176983449Y-108101080D01*
X176992257Y-108056799D01*
X176992257Y-107739492D01*
X176992183Y-107739118D01*
X176992256Y-107738746D01*
X176992085Y-107634408D01*
X176991755Y-107632761D01*
X176992068Y-107631108D01*
X176991366Y-107552167D01*
X176990533Y-107548166D01*
X176991224Y-107544137D01*
X176989706Y-107486962D01*
X176987646Y-107477871D01*
X176988849Y-107468628D01*
X176986234Y-107429589D01*
X176980572Y-107408579D01*
X176981330Y-107386836D01*
X176977333Y-107362302D01*
X176958867Y-107312920D01*
X176948566Y-107261217D01*
X176942903Y-107247557D01*
X176932071Y-107231356D01*
X176926659Y-107212630D01*
X176916703Y-107200168D01*
X176915151Y-107196016D01*
X176902853Y-107182829D01*
X176899017Y-107178028D01*
X176896136Y-107170570D01*
X176880365Y-107154023D01*
X176844227Y-107099974D01*
X176832967Y-107092455D01*
X176827368Y-107084574D01*
X176821341Y-107080792D01*
X176815853Y-107073922D01*
X176808242Y-107067506D01*
X176786448Y-107055485D01*
X176773652Y-107042059D01*
X176726017Y-107020974D01*
X176724380Y-107019947D01*
X176696585Y-107001387D01*
X176693978Y-107000869D01*
X176676992Y-106990210D01*
X176673869Y-106989020D01*
X176662443Y-106987086D01*
X176652790Y-106981761D01*
X176632233Y-106979462D01*
X176611312Y-106970202D01*
X176592477Y-106965982D01*
X176587673Y-106965867D01*
X176583244Y-106964015D01*
X176541634Y-106955597D01*
X176540336Y-106955593D01*
X176539136Y-106955099D01*
X176480094Y-106943498D01*
X176479436Y-106943500D01*
X176478827Y-106943251D01*
X176407700Y-106929485D01*
X176407254Y-106929487D01*
X176406839Y-106929319D01*
X176328971Y-106914404D01*
X176328593Y-106914407D01*
X176328242Y-106914265D01*
X176261773Y-106901646D01*
X176290072Y-106859947D01*
X176299933Y-106845442D01*
X176300336Y-106844491D01*
X176301068Y-106843764D01*
X176358931Y-106757823D01*
X176360381Y-106754358D01*
X176363005Y-106751666D01*
X176405541Y-106686223D01*
X176408455Y-106678927D01*
X176413744Y-106673120D01*
X176442646Y-106625163D01*
X176448384Y-106609246D01*
X176458828Y-106595936D01*
X176475792Y-106562452D01*
X176486419Y-106524437D01*
X176505088Y-106489655D01*
X176511811Y-106467631D01*
X176512665Y-106459116D01*
X176516430Y-106451431D01*
X176519222Y-106407093D01*
X176523588Y-106391475D01*
X176522706Y-106384167D01*
X176527122Y-106370100D01*
X176524523Y-106340819D01*
X176529519Y-106290984D01*
X176527049Y-106282791D01*
X176527160Y-106281031D01*
X176527606Y-106276489D01*
X176527473Y-106276053D01*
X176527587Y-106274250D01*
X176525764Y-106260671D01*
X176514486Y-106227724D01*
X176511427Y-106193262D01*
X176489695Y-106151642D01*
X176476022Y-106106616D01*
X176475976Y-106106529D01*
X176470869Y-106100310D01*
X176468267Y-106092708D01*
X176445343Y-106066703D01*
X176429255Y-106035892D01*
X176414905Y-106018058D01*
X176403160Y-106008228D01*
X176395188Y-105995156D01*
X176363451Y-105960675D01*
X176359442Y-105957749D01*
X176356770Y-105953572D01*
X176311083Y-105906023D01*
X176308720Y-105904375D01*
X176307135Y-105901964D01*
X176250941Y-105844918D01*
X176249049Y-105843633D01*
X176247772Y-105841732D01*
X176184508Y-105778765D01*
X176183516Y-105778105D01*
X176182848Y-105777122D01*
X176175715Y-105770094D01*
X176174052Y-105769001D01*
X176172922Y-105767367D01*
X176093194Y-105690160D01*
X176088366Y-105687045D01*
X176084981Y-105682402D01*
X176023454Y-105625712D01*
X176013864Y-105619857D01*
X176006812Y-105611111D01*
X175962248Y-105573891D01*
X175938432Y-105560896D01*
X175919028Y-105541930D01*
X175890192Y-105523135D01*
X175811162Y-105491452D01*
X175806406Y-105488857D01*
X175804129Y-105488613D01*
X175783805Y-105480375D01*
X175748939Y-105462970D01*
X175739165Y-105462282D01*
X175727109Y-105457395D01*
X175714408Y-105454969D01*
X175643048Y-105455512D01*
X175571846Y-105450498D01*
X175554823Y-105456184D01*
X175536880Y-105456321D01*
X175471150Y-105484135D01*
X175403460Y-105506747D01*
X175384924Y-105517329D01*
X175377527Y-105523753D01*
X175373384Y-105525506D01*
X175372962Y-105525934D01*
X175366469Y-105528451D01*
X175328002Y-105552896D01*
X175325590Y-105555200D01*
X175322500Y-105556449D01*
X175268075Y-105592145D01*
X175266730Y-105593467D01*
X175264988Y-105594188D01*
X175198575Y-105638523D01*
X175197546Y-105639551D01*
X175196204Y-105640116D01*
X175121778Y-105690480D01*
X175121194Y-105691071D01*
X175120432Y-105691395D01*
X175103055Y-105703244D01*
X175102947Y-105703354D01*
X175102806Y-105703414D01*
X175079406Y-105719394D01*
X175077646Y-105710155D01*
X175076538Y-105704163D01*
X175076489Y-105704041D01*
X175076491Y-105703909D01*
X175060197Y-105616048D01*
X175060023Y-105615612D01*
X175060028Y-105615141D01*
X175045070Y-105535386D01*
X175044855Y-105534851D01*
X175044860Y-105534278D01*
X175032202Y-105467699D01*
X175031846Y-105466818D01*
X175031850Y-105465865D01*
X175022455Y-105417530D01*
X175021429Y-105415022D01*
X175021409Y-105412314D01*
X175016241Y-105387293D01*
X175013745Y-105381389D01*
X175013520Y-105374982D01*
X175013430Y-105374601D01*
X175008079Y-105362863D01*
X175007935Y-105361290D01*
X175007385Y-105352333D01*
X175007057Y-105351661D01*
X175006907Y-105350014D01*
X175003762Y-105339370D01*
X174989131Y-105311515D01*
X174987326Y-105300501D01*
X174962871Y-105261068D01*
X174947103Y-105223776D01*
X174942689Y-105219426D01*
X174939788Y-105213063D01*
X174939096Y-105212418D01*
X174929516Y-105192790D01*
X174923400Y-105184753D01*
X174921809Y-105183346D01*
X174921207Y-105182200D01*
X174909259Y-105172249D01*
X174906001Y-105169368D01*
X174893758Y-105149627D01*
X174839994Y-105111002D01*
X174790404Y-105067153D01*
X174768439Y-105059597D01*
X174749576Y-105046045D01*
X174736827Y-105040250D01*
X174679677Y-105026852D01*
X174624841Y-105005909D01*
X174601794Y-105001989D01*
X174578045Y-105002651D01*
X174555092Y-104996510D01*
X174518082Y-104994098D01*
X174508498Y-104995363D01*
X174499065Y-104993258D01*
X174444430Y-104991988D01*
X174440612Y-104992656D01*
X174436817Y-104991875D01*
X174360893Y-104991381D01*
X174359605Y-104991629D01*
X174358316Y-104991371D01*
X174257439Y-104991286D01*
X174257247Y-104991324D01*
X174257056Y-104991286D01*
X174244000Y-104991286D01*
X174243864Y-104991313D01*
X174243728Y-104991286D01*
X174139819Y-104991348D01*
X174138709Y-104991569D01*
X174137599Y-104991355D01*
X174059055Y-104991785D01*
X174055653Y-104992481D01*
X174052231Y-104991873D01*
X173995387Y-104993037D01*
X173986849Y-104994918D01*
X173978191Y-104993715D01*
X173939384Y-104995980D01*
X173918616Y-105001386D01*
X173897176Y-105000426D01*
X173872742Y-105004159D01*
X173822720Y-105022303D01*
X173770458Y-105032297D01*
X173756734Y-105037863D01*
X173740837Y-105048316D01*
X173722508Y-105053420D01*
X173710058Y-105063169D01*
X173705850Y-105064695D01*
X173692378Y-105077012D01*
X173667144Y-105096771D01*
X173608395Y-105135400D01*
X173597708Y-105151140D01*
X173582728Y-105162870D01*
X173576050Y-105170637D01*
X173575065Y-105172382D01*
X173573498Y-105173631D01*
X173556992Y-105203479D01*
X173549430Y-105210481D01*
X173545647Y-105218706D01*
X173541201Y-105223080D01*
X173528470Y-105253119D01*
X173508673Y-105282278D01*
X173506148Y-105294497D01*
X173488795Y-105325246D01*
X173488553Y-105327234D01*
X173487582Y-105328990D01*
X173484286Y-105339322D01*
X173482372Y-105356274D01*
X173475244Y-105371770D01*
X173474924Y-105373109D01*
X173474655Y-105380099D01*
X173471926Y-105386539D01*
X173466920Y-105410675D01*
X173466897Y-105413529D01*
X173465816Y-105416169D01*
X173456549Y-105463791D01*
X173456553Y-105464765D01*
X173456187Y-105465670D01*
X173443624Y-105531710D01*
X173443629Y-105532293D01*
X173443411Y-105532836D01*
X173428516Y-105612223D01*
X173428521Y-105612694D01*
X173428346Y-105613133D01*
X173412082Y-105700801D01*
X173412085Y-105701036D01*
X173411999Y-105701252D01*
X173411657Y-105703108D01*
X173408572Y-105719378D01*
X173385193Y-105703413D01*
X173384571Y-105703148D01*
X173384098Y-105702668D01*
X173308420Y-105651311D01*
X173307117Y-105650760D01*
X173306118Y-105649759D01*
X173237564Y-105603845D01*
X173235954Y-105603176D01*
X173234714Y-105601952D01*
X173177257Y-105564092D01*
X173174634Y-105563025D01*
X173172596Y-105561062D01*
X173130208Y-105533869D01*
X173123123Y-105531088D01*
X173117469Y-105525989D01*
X173094120Y-105512074D01*
X173088770Y-105510175D01*
X173085409Y-105507243D01*
X173068301Y-105501486D01*
X173053190Y-105490422D01*
X173050974Y-105489390D01*
X172984614Y-105473199D01*
X172926817Y-105452681D01*
X172923730Y-105452840D01*
X172917146Y-105450625D01*
X172897566Y-105451961D01*
X172878501Y-105447309D01*
X172809587Y-105457963D01*
X172763212Y-105461126D01*
X172749521Y-105461833D01*
X172748964Y-105462098D01*
X172748583Y-105462124D01*
X172743692Y-105462229D01*
X172743075Y-105462500D01*
X172740026Y-105462708D01*
X172723058Y-105467303D01*
X172711251Y-105473165D01*
X172703053Y-105474432D01*
X172677866Y-105489739D01*
X172652893Y-105502137D01*
X172581165Y-105533663D01*
X172549474Y-105555834D01*
X172533959Y-105572028D01*
X172514405Y-105583008D01*
X172466754Y-105623800D01*
X172460700Y-105631498D01*
X172452372Y-105636650D01*
X172387525Y-105697109D01*
X172384736Y-105700983D01*
X172380728Y-105703578D01*
X172314529Y-105767900D01*
X172313084Y-105769997D01*
X172310964Y-105771403D01*
X172247147Y-105834788D01*
X172245894Y-105836650D01*
X172244032Y-105837911D01*
X172186918Y-105895750D01*
X172185393Y-105898064D01*
X172183115Y-105899647D01*
X172136139Y-105948371D01*
X172133676Y-105952208D01*
X172129983Y-105954883D01*
X172096585Y-105990919D01*
X172089870Y-106001844D01*
X172079918Y-106009935D01*
X172063536Y-106029709D01*
X172046911Y-106060469D01*
X172023451Y-106086397D01*
X172022842Y-106087414D01*
X172021771Y-106090414D01*
X172019668Y-106092804D01*
X172010113Y-106120790D01*
X172009343Y-106121736D01*
X172006206Y-106132232D01*
X172002916Y-106141869D01*
X171979124Y-106185889D01*
X171975635Y-106219701D01*
X171963175Y-106254619D01*
X171963334Y-106257799D01*
X171962305Y-106260813D01*
X171960494Y-106274383D01*
X171961062Y-106283287D01*
X171958507Y-106291835D01*
X171963337Y-106338898D01*
X171960904Y-106362484D01*
X171966107Y-106379927D01*
X171964677Y-106391888D01*
X171968959Y-106407140D01*
X171971791Y-106451556D01*
X171975722Y-106459563D01*
X171976633Y-106468439D01*
X171983455Y-106490600D01*
X172002071Y-106525086D01*
X172012662Y-106562812D01*
X172029805Y-106596558D01*
X172040161Y-106609727D01*
X172045849Y-106625485D01*
X172074996Y-106673807D01*
X172080246Y-106679567D01*
X172083137Y-106686803D01*
X172125975Y-106752695D01*
X172128573Y-106755360D01*
X172130010Y-106758794D01*
X172187117Y-106843619D01*
X172187749Y-106844247D01*
X172188097Y-106845069D01*
X172226474Y-106901602D01*
X172207239Y-106905234D01*
X172206886Y-106905376D01*
X172206506Y-106905373D01*
X172127169Y-106920489D01*
X172126800Y-106920639D01*
X172126403Y-106920636D01*
X172050644Y-106935205D01*
X172050174Y-106935396D01*
X172049667Y-106935394D01*
X171982834Y-106948398D01*
X171982066Y-106948712D01*
X171928672Y-106959135D01*
X171926850Y-106959888D01*
X171924880Y-106959904D01*
X171891932Y-106966728D01*
X171885528Y-106969440D01*
X171878580Y-106969704D01*
X171870499Y-106971633D01*
X171855385Y-106978577D01*
X171852814Y-106978729D01*
X171813042Y-106998031D01*
X171811863Y-106998573D01*
X171750660Y-107019000D01*
X171742312Y-107023763D01*
X171725755Y-107038134D01*
X171709178Y-107045750D01*
X171704651Y-107050635D01*
X171693097Y-107056242D01*
X171653393Y-107100943D01*
X171608240Y-107140134D01*
X171598785Y-107159063D01*
X171589035Y-107168378D01*
X171584634Y-107178354D01*
X171575200Y-107188975D01*
X171568899Y-107199731D01*
X171556425Y-107235728D01*
X171554088Y-107238620D01*
X171546927Y-107262878D01*
X171528906Y-107298955D01*
X171528425Y-107305761D01*
X171517376Y-107330805D01*
X171512837Y-107351185D01*
X171512585Y-107362242D01*
X171510771Y-107367477D01*
X171511653Y-107382372D01*
X171503825Y-107408888D01*
X171500766Y-107442524D01*
X171502076Y-107454879D01*
X171499205Y-107466967D01*
X171497342Y-107517488D01*
X171498205Y-107522852D01*
X171497074Y-107528165D01*
X171496123Y-107599201D01*
X171496545Y-107601480D01*
X171496085Y-107603752D01*
X171495763Y-107698937D01*
X171495894Y-107699607D01*
X171495760Y-107700278D01*
X171495743Y-107739294D01*
X166722526Y-107739294D01*
X168698908Y-105762912D01*
X168818133Y-105584479D01*
X168859999Y-105374003D01*
X168859999Y-104192961D01*
X175995732Y-104192961D01*
X176231208Y-104762857D01*
X176666849Y-105199260D01*
X177236333Y-105435730D01*
X177852961Y-105436268D01*
X178422857Y-105200792D01*
X178859260Y-104765151D01*
X179095730Y-104195667D01*
X179096268Y-103579039D01*
X178860792Y-103009143D01*
X178425151Y-102572740D01*
X177855667Y-102336270D01*
X177239039Y-102335732D01*
X176669143Y-102571208D01*
X176232740Y-103006849D01*
X175996270Y-103576333D01*
X175995732Y-104192961D01*
X168859999Y-104192961D01*
X168859999Y-103443831D01*
X169191794Y-103112036D01*
X169312530Y-103112142D01*
X169588286Y-102998201D01*
X169799448Y-102787407D01*
X169913869Y-102511851D01*
X169914130Y-102213482D01*
X169800189Y-101937726D01*
X169589395Y-101726564D01*
X169313839Y-101612143D01*
X169015470Y-101611882D01*
X168739714Y-101725823D01*
X168528552Y-101936617D01*
X168414131Y-102212173D01*
X168414024Y-102334170D01*
X167921090Y-102827104D01*
X167801865Y-103005537D01*
X167759999Y-103216013D01*
X167759999Y-103898044D01*
X167737830Y-103898024D01*
X165258899Y-101419092D01*
X165080466Y-101299867D01*
X164869990Y-101258001D01*
X134158004Y-101258001D01*
X134157999Y-101258000D01*
X133947523Y-101299867D01*
X133860518Y-101358002D01*
X133709470Y-101357870D01*
X133433714Y-101471811D01*
X133222552Y-101682605D01*
X133108131Y-101958161D01*
X133107870Y-102256530D01*
X133221811Y-102532286D01*
X133432605Y-102743448D01*
X133708161Y-102857869D01*
X134006530Y-102858130D01*
X134282286Y-102744189D01*
X134493448Y-102533395D01*
X134566278Y-102358001D01*
X135849307Y-102358001D01*
X135762552Y-102444605D01*
X135648131Y-102720161D01*
X135647870Y-103018530D01*
X135761811Y-103294286D01*
X135972605Y-103505448D01*
X136248161Y-103619869D01*
X136546530Y-103620130D01*
X136822286Y-103506189D01*
X137033448Y-103295395D01*
X137147869Y-103019839D01*
X137147976Y-102897842D01*
X137225818Y-102819999D01*
X150778756Y-102819999D01*
X150684490Y-102914265D01*
X150563754Y-102914159D01*
X150287998Y-103028100D01*
X150076836Y-103238894D01*
X149962415Y-103514450D01*
X149962240Y-103714291D01*
X143639714Y-103714291D01*
X143639709Y-103714290D01*
X143429233Y-103756157D01*
X143250800Y-103875382D01*
X142974206Y-104151976D01*
X142853470Y-104151870D01*
X142577714Y-104265811D01*
X142366552Y-104476605D01*
X142252131Y-104752161D01*
X142251870Y-105050530D01*
X142365811Y-105326286D01*
X142576605Y-105537448D01*
X142852161Y-105651869D01*
X143150530Y-105652130D01*
X143426286Y-105538189D01*
X143509961Y-105454660D01*
X143592605Y-105537448D01*
X143868161Y-105651869D01*
X143990158Y-105651976D01*
X145738182Y-107400000D01*
X135228818Y-107400000D01*
X133211024Y-105382206D01*
X133211044Y-105359998D01*
X133919180Y-105359998D01*
X133996976Y-105437794D01*
X133996870Y-105558530D01*
X134110811Y-105834286D01*
X134321605Y-106045448D01*
X134597161Y-106159869D01*
X134895530Y-106160130D01*
X135171286Y-106046189D01*
X135382448Y-105835395D01*
X135496869Y-105559839D01*
X135497130Y-105261470D01*
X135383189Y-104985714D01*
X135172395Y-104774552D01*
X134896839Y-104660131D01*
X134774842Y-104660024D01*
X134535907Y-104421089D01*
X134357474Y-104301864D01*
X134146998Y-104259998D01*
X130705453Y-104259998D01*
X130696824Y-104257637D01*
X130680656Y-104259679D01*
X130664675Y-104256500D01*
X128674242Y-104256500D01*
X128724278Y-104136001D01*
X134727177Y-104136001D01*
X136028976Y-105437799D01*
X136028870Y-105558536D01*
X136142811Y-105834292D01*
X136353605Y-106045454D01*
X136629161Y-106159875D01*
X136927530Y-106160136D01*
X137203286Y-106046195D01*
X137414448Y-105835401D01*
X137528869Y-105559845D01*
X137529130Y-105261476D01*
X137415189Y-104985720D01*
X137204395Y-104774558D01*
X136928839Y-104660137D01*
X136806841Y-104660030D01*
X135343904Y-103197092D01*
X135165471Y-103077867D01*
X134954995Y-103036001D01*
X128316004Y-103036001D01*
X128315999Y-103036000D01*
X128105523Y-103077867D01*
X128018518Y-103136002D01*
X127867470Y-103135870D01*
X127591714Y-103249811D01*
X127380552Y-103460605D01*
X127266131Y-103736161D01*
X127266003Y-103882186D01*
X127242024Y-103858207D01*
X127242130Y-103737470D01*
X127128189Y-103461714D01*
X126917395Y-103250552D01*
X126641839Y-103136131D01*
X126343470Y-103135870D01*
X126067714Y-103249811D01*
X125856552Y-103460605D01*
X125756160Y-103702375D01*
X125756268Y-103579039D01*
X125520792Y-103009143D01*
X125085151Y-102572740D01*
X124515667Y-102336270D01*
X123899039Y-102335732D01*
X123329143Y-102571208D01*
X122892740Y-103006849D01*
X122656270Y-103576333D01*
X122655732Y-104192961D01*
X122891208Y-104762857D01*
X123326849Y-105199260D01*
X123896333Y-105435730D01*
X124512961Y-105436268D01*
X125082857Y-105200792D01*
X125397186Y-104887012D01*
X125387903Y-104901669D01*
X125352343Y-104942169D01*
X125218212Y-105174175D01*
X125207450Y-105205817D01*
X125189283Y-105233875D01*
X125174285Y-105271616D01*
X125172454Y-105281572D01*
X125167331Y-105290299D01*
X125147639Y-105346965D01*
X125145305Y-105363757D01*
X125137822Y-105378968D01*
X125122090Y-105437904D01*
X125120799Y-105457885D01*
X125113557Y-105476547D01*
X125101343Y-105546093D01*
X125101711Y-105562444D01*
X125096889Y-105578075D01*
X125087753Y-105666573D01*
X125088762Y-105677332D01*
X125086063Y-105687795D01*
X125083584Y-105731957D01*
X125078020Y-105727163D01*
X125068959Y-105724175D01*
X125059492Y-105718814D01*
X124997040Y-105678010D01*
X124891750Y-105635665D01*
X124812614Y-105620771D01*
X124734087Y-105602966D01*
X124604327Y-105599511D01*
X124539572Y-105610609D01*
X124474025Y-105614969D01*
X124351654Y-105647886D01*
X124282240Y-105682201D01*
X124211164Y-105712955D01*
X124143968Y-105759393D01*
X124105263Y-105799330D01*
X124061086Y-105833106D01*
X124041699Y-105855135D01*
X124027587Y-105879480D01*
X124020416Y-105886879D01*
X124018110Y-105892701D01*
X123997127Y-105915058D01*
X123981319Y-105940420D01*
X123963807Y-105986800D01*
X123938482Y-106029413D01*
X123925889Y-106065027D01*
X123920736Y-106100682D01*
X123907412Y-106134159D01*
X123900685Y-106170623D01*
X123890545Y-106132856D01*
X123873607Y-106098552D01*
X123864765Y-106061331D01*
X123841744Y-106011080D01*
X123813031Y-105971361D01*
X123791791Y-105927192D01*
X123763786Y-105889936D01*
X123730571Y-105860220D01*
X123703832Y-105824566D01*
X123670354Y-105794548D01*
X123650341Y-105782698D01*
X123634576Y-105765594D01*
X123602016Y-105741866D01*
X123551533Y-105718505D01*
X123505063Y-105687947D01*
X123409215Y-105649070D01*
X123353651Y-105638442D01*
X123300192Y-105619950D01*
X123168151Y-105601789D01*
X123141228Y-105603397D01*
X123114880Y-105597629D01*
X123089384Y-105597140D01*
X123069008Y-105600788D01*
X123048468Y-105598196D01*
X122929192Y-105606656D01*
X122860663Y-105625413D01*
X122790867Y-105638676D01*
X122707009Y-105672573D01*
X122645973Y-105712604D01*
X122582256Y-105748232D01*
X122511017Y-105808994D01*
X122499716Y-105823310D01*
X122484551Y-105833443D01*
X122381436Y-105936559D01*
X122381433Y-105936561D01*
X122283392Y-106083291D01*
X122282801Y-106084176D01*
X122248166Y-106258297D01*
X122248167Y-106258302D01*
X122248167Y-108235241D01*
X122248176Y-108235287D01*
X122248167Y-108235333D01*
X122248253Y-108659750D01*
X122248293Y-108659950D01*
X122248253Y-108660151D01*
X122248643Y-109020002D01*
X122248729Y-109020431D01*
X122248645Y-109020859D01*
X122249539Y-109322136D01*
X122249697Y-109322917D01*
X122249546Y-109323702D01*
X122251140Y-109572395D01*
X122251417Y-109573742D01*
X122251166Y-109575091D01*
X122253659Y-109777189D01*
X122254134Y-109779431D01*
X122253736Y-109781692D01*
X122257327Y-109943187D01*
X122258143Y-109946862D01*
X122257552Y-109950577D01*
X122262437Y-110077459D01*
X122263855Y-110083388D01*
X122263056Y-110089431D01*
X122269435Y-110187689D01*
X122271910Y-110196948D01*
X122271048Y-110206491D01*
X122279118Y-110282116D01*
X122283309Y-110295538D01*
X122282900Y-110309597D01*
X122292860Y-110368581D01*
X122299169Y-110385159D01*
X122300019Y-110402875D01*
X122312067Y-110451207D01*
X122319225Y-110466387D01*
X122321248Y-110483049D01*
X122335582Y-110526720D01*
X122339529Y-110533719D01*
X122340774Y-110541656D01*
X122347781Y-110560739D01*
X122363817Y-110586998D01*
X122372609Y-110616484D01*
X122497357Y-110852563D01*
X122531734Y-110894860D01*
X122559254Y-110941912D01*
X122740407Y-111146144D01*
X122782066Y-111177739D01*
X122818044Y-111215683D01*
X122845353Y-111235000D01*
X122733706Y-111235000D01*
X122400838Y-111168788D01*
X122162478Y-111009522D01*
X122003212Y-110771163D01*
X121937000Y-110438294D01*
X121937000Y-99589534D01*
X123201870Y-99589534D01*
X123315811Y-99865290D01*
X123526605Y-100076452D01*
X123802161Y-100190873D01*
X124100530Y-100191134D01*
X124376286Y-100077193D01*
X124587448Y-99866399D01*
X124701869Y-99590843D01*
X124701976Y-99468846D01*
X127100822Y-97070000D01*
X161795306Y-97070000D01*
X161880605Y-97155448D01*
X162156161Y-97269869D01*
X162454530Y-97270130D01*
X162730286Y-97156189D01*
X162941448Y-96945395D01*
X163055869Y-96669839D01*
X163056130Y-96371470D01*
X162977429Y-96181000D01*
X167279328Y-96181000D01*
X167384811Y-96436286D01*
X167595605Y-96647448D01*
X167871161Y-96761869D01*
X168169530Y-96762130D01*
X168445286Y-96648189D01*
X168656448Y-96437395D01*
X168770869Y-96161839D01*
X168771130Y-95863470D01*
X168657189Y-95587714D01*
X168446395Y-95376552D01*
X168170839Y-95262131D01*
X168048842Y-95262024D01*
X168028909Y-95242091D01*
X167850476Y-95122866D01*
X167640000Y-95081000D01*
X128653694Y-95081000D01*
X128568395Y-94995552D01*
X128292839Y-94881131D01*
X127994470Y-94880870D01*
X127718714Y-94994811D01*
X127507552Y-95205605D01*
X127393131Y-95481161D01*
X127392870Y-95779530D01*
X127471571Y-95970000D01*
X126873009Y-95970000D01*
X126873004Y-95969999D01*
X126662528Y-96011866D01*
X126484095Y-96131091D01*
X123924206Y-98690980D01*
X123803470Y-98690874D01*
X123527714Y-98804815D01*
X123316552Y-99015609D01*
X123202131Y-99291165D01*
X123201870Y-99589534D01*
X121937000Y-99589534D01*
X121937000Y-97587706D01*
X122003212Y-97254837D01*
X122162478Y-97016478D01*
X122400838Y-96857212D01*
X122733706Y-96791000D01*
X123952000Y-96791000D01*
X124002715Y-96780912D01*
X124054422Y-96780912D01*
X124540425Y-96684240D01*
X124540430Y-96684240D01*
X124729682Y-96605849D01*
X125141698Y-96330549D01*
X125141701Y-96330548D01*
X125286548Y-96185700D01*
X125561847Y-95773685D01*
X125561849Y-95773683D01*
X125640239Y-95584430D01*
X125736912Y-95098423D01*
X125736912Y-95046716D01*
X125747000Y-94996000D01*
X125747000Y-92860000D01*
X176005000Y-92860000D01*
X176005000Y-94996000D01*
X176005000Y-94996000D01*
G37*
X176005000Y-94996000D02*
X176015088Y-95046715D01*
X176015088Y-95098422D01*
X176111760Y-95584425D01*
X176111760Y-95584430D01*
X176190151Y-95773682D01*
X176465451Y-96185698D01*
X176465452Y-96185701D01*
X176610300Y-96330548D01*
X177022315Y-96605847D01*
X177022317Y-96605849D01*
X177211570Y-96684239D01*
X177697577Y-96780912D01*
X177749284Y-96780912D01*
X177800000Y-96791000D01*
X179018294Y-96791000D01*
X179351163Y-96857212D01*
X179589522Y-97016478D01*
X179748788Y-97254838D01*
X179815000Y-97587706D01*
X179815000Y-110438294D01*
X179748788Y-110771162D01*
X179589522Y-111009522D01*
X179351163Y-111168788D01*
X179018294Y-111235000D01*
X128557931Y-111235000D01*
X128577482Y-111215792D01*
X128620248Y-111185678D01*
X128809034Y-110987424D01*
X128837875Y-110941888D01*
X128873435Y-110901387D01*
X129007567Y-110669381D01*
X129018330Y-110637736D01*
X129036495Y-110609681D01*
X129051493Y-110571940D01*
X129053324Y-110561987D01*
X129058448Y-110553257D01*
X129078139Y-110496591D01*
X129080473Y-110479796D01*
X129087958Y-110464581D01*
X129103688Y-110405645D01*
X129104978Y-110385671D01*
X129112220Y-110367010D01*
X129124434Y-110297463D01*
X129124066Y-110281114D01*
X129128887Y-110265487D01*
X129138024Y-110176988D01*
X129137015Y-110166228D01*
X129139715Y-110155761D01*
X129146215Y-110039970D01*
X129145320Y-110033632D01*
X129146746Y-110027395D01*
X129147774Y-109991216D01*
X129173275Y-110014115D01*
X129200692Y-110050481D01*
X129234839Y-110080944D01*
X129248353Y-110088900D01*
X129258623Y-110100751D01*
X129264885Y-110105615D01*
X129322390Y-110134396D01*
X129376405Y-110169291D01*
X129478328Y-110209672D01*
X129557698Y-110224186D01*
X129636500Y-110241564D01*
X129764173Y-110244208D01*
X129826976Y-110233062D01*
X129890635Y-110228995D01*
X130012045Y-110196677D01*
X130080689Y-110162966D01*
X130151060Y-110133099D01*
X130220296Y-110085963D01*
X130247485Y-110058298D01*
X130248266Y-110057945D01*
X130257476Y-110048132D01*
X130260375Y-110045183D01*
X130305801Y-110010452D01*
X130325189Y-109988422D01*
X130338174Y-109966022D01*
X130344736Y-109959345D01*
X130347704Y-109951999D01*
X130369762Y-109928498D01*
X130385570Y-109903136D01*
X130401576Y-109860745D01*
X130408477Y-109870310D01*
X130430176Y-109915134D01*
X130457545Y-109951346D01*
X130491002Y-109981122D01*
X130518002Y-110016856D01*
X130550871Y-110046116D01*
X130571017Y-110057948D01*
X130586922Y-110075064D01*
X130625797Y-110103154D01*
X130628922Y-110104585D01*
X130631296Y-110107065D01*
X130634275Y-110109152D01*
X130682017Y-110130160D01*
X130725693Y-110158665D01*
X130813608Y-110193972D01*
X130865578Y-110203727D01*
X130915321Y-110221661D01*
X131038526Y-110240242D01*
X131065919Y-110238963D01*
X131092644Y-110245123D01*
X131131384Y-110246293D01*
X131154279Y-110242453D01*
X131177311Y-110245360D01*
X131296586Y-110236900D01*
X131365114Y-110218144D01*
X131434908Y-110204881D01*
X131518767Y-110170984D01*
X131579807Y-110130950D01*
X131643524Y-110095322D01*
X131714763Y-110034560D01*
X131726062Y-110020246D01*
X131741225Y-110010115D01*
X131844342Y-109906997D01*
X131844345Y-109906995D01*
X131942976Y-109759382D01*
X131944763Y-109750396D01*
X131977612Y-109585261D01*
X131977611Y-109585256D01*
X131977611Y-107608315D01*
X131977602Y-107608269D01*
X131977611Y-107608223D01*
X131977525Y-107183806D01*
X131977485Y-107183605D01*
X131977525Y-107183403D01*
X131977134Y-106823553D01*
X131977048Y-106823125D01*
X131977132Y-106822698D01*
X131976239Y-106521421D01*
X131976081Y-106520638D01*
X131976232Y-106519852D01*
X131974637Y-106271159D01*
X131974360Y-106269812D01*
X131974611Y-106268464D01*
X131972118Y-106066367D01*
X131971644Y-106064127D01*
X131972041Y-106061867D01*
X131970220Y-105979949D01*
X132035605Y-106045448D01*
X132311161Y-106159869D01*
X132433158Y-106159976D01*
X134612091Y-108338909D01*
X134790524Y-108458134D01*
X135001000Y-108500001D01*
X135001005Y-108500000D01*
X165734002Y-108500000D01*
X165944478Y-108458134D01*
X166122911Y-108338909D01*
X166722526Y-107739294D01*
X171495743Y-107739294D01*
X171495763Y-107739393D01*
X171495743Y-107739492D01*
X171495743Y-108056799D01*
X171504551Y-108101080D01*
X171504618Y-108146225D01*
X171521700Y-108187294D01*
X171530378Y-108230920D01*
X171555459Y-108268457D01*
X171572798Y-108310143D01*
X171604297Y-108341549D01*
X171629009Y-108378533D01*
X171666548Y-108403615D01*
X171698518Y-108435491D01*
X171739638Y-108452452D01*
X171776622Y-108477164D01*
X171820901Y-108485972D01*
X171862637Y-108503187D01*
X171938837Y-108518227D01*
X171939953Y-108518225D01*
X171940984Y-108518645D01*
X171983377Y-108526801D01*
X171984320Y-108526795D01*
X171985198Y-108527148D01*
X172048460Y-108539052D01*
X172048949Y-108539047D01*
X172049400Y-108539227D01*
X172125838Y-108553444D01*
X172126226Y-108553439D01*
X172126590Y-108553584D01*
X172205652Y-108568152D01*
X172214291Y-108589773D01*
X172187322Y-108629442D01*
X172187321Y-108629443D01*
X172018368Y-108877962D01*
X172000255Y-108920718D01*
X171974429Y-108959300D01*
X171965967Y-109001657D01*
X171949117Y-109041431D01*
X171948745Y-109087860D01*
X171939648Y-109133392D01*
X171948039Y-109175764D01*
X171947693Y-109218957D01*
X171965117Y-109261994D01*
X171974137Y-109307541D01*
X171998106Y-109343478D01*
X172014315Y-109383515D01*
X172046882Y-109416609D01*
X172072646Y-109455237D01*
X172289568Y-109672522D01*
X172291122Y-109673562D01*
X172292172Y-109675109D01*
X172357782Y-109739778D01*
X172361074Y-109741943D01*
X172363340Y-109745163D01*
X172423180Y-109802171D01*
X172427329Y-109804800D01*
X172430237Y-109808751D01*
X172480949Y-109855052D01*
X172487775Y-109859177D01*
X172492721Y-109865433D01*
X172530942Y-109897984D01*
X172549372Y-109908271D01*
X172554036Y-109913171D01*
X172557025Y-109916870D01*
X172558128Y-109917471D01*
X172563922Y-109923557D01*
X172586292Y-109939316D01*
X172638110Y-109962292D01*
X172678749Y-109989260D01*
X172696355Y-109992704D01*
X172712957Y-110001740D01*
X172716166Y-110002740D01*
X172733477Y-110004577D01*
X172748587Y-110011277D01*
X172797466Y-110012482D01*
X172852979Y-110023341D01*
X172872701Y-110019353D01*
X172892706Y-110021476D01*
X172913489Y-110015343D01*
X172926065Y-110015653D01*
X172964729Y-110000743D01*
X173026990Y-109988153D01*
X173045829Y-109980279D01*
X173056394Y-109973171D01*
X173062979Y-109971228D01*
X173072523Y-109963515D01*
X173095511Y-109955865D01*
X173133958Y-109933974D01*
X173140311Y-109928470D01*
X173148183Y-109925528D01*
X173202033Y-109892217D01*
X173205553Y-109888936D01*
X173210024Y-109887158D01*
X173275078Y-109845022D01*
X173277762Y-109842414D01*
X173281217Y-109840975D01*
X173351554Y-109793787D01*
X173351935Y-109793404D01*
X173352432Y-109793196D01*
X173372191Y-109779873D01*
X173400036Y-109789861D01*
X173475828Y-109801164D01*
X173550876Y-109816570D01*
X173578015Y-109816736D01*
X173582542Y-109815864D01*
X173587079Y-109816702D01*
X173669581Y-109799104D01*
X173752345Y-109783167D01*
X173756194Y-109780629D01*
X173760705Y-109779667D01*
X173830147Y-109731868D01*
X173900559Y-109685441D01*
X173903146Y-109681620D01*
X173906942Y-109679007D01*
X173921087Y-109664466D01*
X173968932Y-109590675D01*
X173971016Y-109587485D01*
X174015934Y-109519802D01*
X174022715Y-109503285D01*
X174039502Y-109462586D01*
X174039505Y-109462582D01*
X174064815Y-109401296D01*
X174064816Y-109401294D01*
X174097340Y-109322589D01*
X174097341Y-109322584D01*
X174135709Y-109229775D01*
X174135709Y-109229773D01*
X174178644Y-109125949D01*
X174220228Y-109025418D01*
X174220294Y-109025085D01*
X174220483Y-109024801D01*
X174244040Y-108967612D01*
X174267696Y-109024979D01*
X174267863Y-109025229D01*
X174267921Y-109025523D01*
X174313867Y-109136539D01*
X174313867Y-109136541D01*
X174356421Y-109239404D01*
X174394307Y-109331028D01*
X174394309Y-109331031D01*
X174426088Y-109407936D01*
X174426088Y-109407937D01*
X174450540Y-109467168D01*
X174466205Y-109505188D01*
X174471927Y-109519182D01*
X174518359Y-109589371D01*
X174563341Y-109660514D01*
X174577303Y-109675199D01*
X174582375Y-109678776D01*
X174585831Y-109683931D01*
X174654749Y-109729822D01*
X174722381Y-109777523D01*
X174728433Y-109778886D01*
X174733600Y-109782327D01*
X174814803Y-109798345D01*
X174895572Y-109816541D01*
X174901691Y-109815484D01*
X174907776Y-109816684D01*
X174934784Y-109816641D01*
X175010585Y-109801438D01*
X175087072Y-109790142D01*
X175115818Y-109779877D01*
X175135552Y-109793185D01*
X175136097Y-109793413D01*
X175136515Y-109793833D01*
X175208459Y-109842081D01*
X175211967Y-109843541D01*
X175214691Y-109846186D01*
X175279532Y-109888146D01*
X175284038Y-109889935D01*
X175287586Y-109893239D01*
X175341125Y-109926315D01*
X175349154Y-109929310D01*
X175355636Y-109934912D01*
X175393674Y-109956506D01*
X175420615Y-109965433D01*
X175444217Y-109981201D01*
X175462381Y-109988723D01*
X175494081Y-109995026D01*
X175523213Y-110009023D01*
X175557954Y-110010943D01*
X175562195Y-110012348D01*
X175571336Y-110011682D01*
X175580365Y-110012181D01*
X175636505Y-110023343D01*
X175668205Y-110017035D01*
X175700474Y-110018818D01*
X175754480Y-109999866D01*
X175784535Y-109993885D01*
X175785528Y-109993787D01*
X175785823Y-109993629D01*
X175810623Y-109988694D01*
X175837496Y-109970734D01*
X175867992Y-109960033D01*
X175884716Y-109950147D01*
X175910975Y-109926639D01*
X175942048Y-109910006D01*
X175975677Y-109882375D01*
X175982057Y-109874592D01*
X175990715Y-109869460D01*
X176037885Y-109827129D01*
X176041192Y-109822716D01*
X176045867Y-109819792D01*
X176103219Y-109765802D01*
X176105613Y-109762443D01*
X176109072Y-109760193D01*
X176173246Y-109697587D01*
X176174646Y-109695547D01*
X176176704Y-109694177D01*
X176197691Y-109673261D01*
X176198017Y-109672774D01*
X176198505Y-109672448D01*
X176415503Y-109455088D01*
X176441399Y-109416262D01*
X176474097Y-109382965D01*
X176490176Y-109343130D01*
X176514011Y-109307393D01*
X176523077Y-109261616D01*
X176540546Y-109218337D01*
X176540156Y-109175383D01*
X176548502Y-109133244D01*
X176539358Y-109087477D01*
X176538935Y-109040812D01*
X176522137Y-109001276D01*
X176513721Y-108959152D01*
X176487761Y-108920370D01*
X176469511Y-108877417D01*
X176304927Y-108635872D01*
X176273427Y-108589159D01*
X176281931Y-108568214D01*
X176338708Y-108557781D01*
X176339073Y-108557636D01*
X176339466Y-108557641D01*
X176418192Y-108543037D01*
X176418603Y-108542873D01*
X176419043Y-108542878D01*
X176486729Y-108530189D01*
X176487414Y-108529914D01*
X176488154Y-108529920D01*
X176537103Y-108520582D01*
X176538106Y-108520176D01*
X176539190Y-108520179D01*
X176548407Y-108518376D01*
X176548771Y-108518226D01*
X176549163Y-108518227D01*
X176625363Y-108503187D01*
X176667099Y-108485972D01*
X176711378Y-108477164D01*
X176748362Y-108452452D01*
X176789482Y-108435491D01*
X176821452Y-108403615D01*
X176858991Y-108378533D01*
X176883703Y-108341549D01*
X176915202Y-108310143D01*
X176932541Y-108268457D01*
X176957622Y-108230920D01*
X176966300Y-108187294D01*
X176983382Y-108146225D01*
X176983449Y-108101080D01*
X176992257Y-108056799D01*
X176992257Y-107739492D01*
X176992183Y-107739118D01*
X176992256Y-107738746D01*
X176992085Y-107634408D01*
X176991755Y-107632761D01*
X176992068Y-107631108D01*
X176991366Y-107552167D01*
X176990533Y-107548166D01*
X176991224Y-107544137D01*
X176989706Y-107486962D01*
X176987646Y-107477871D01*
X176988849Y-107468628D01*
X176986234Y-107429589D01*
X176980572Y-107408579D01*
X176981330Y-107386836D01*
X176977333Y-107362302D01*
X176958867Y-107312920D01*
X176948566Y-107261217D01*
X176942903Y-107247557D01*
X176932071Y-107231356D01*
X176926659Y-107212630D01*
X176916703Y-107200168D01*
X176915151Y-107196016D01*
X176902853Y-107182829D01*
X176899017Y-107178028D01*
X176896136Y-107170570D01*
X176880365Y-107154023D01*
X176844227Y-107099974D01*
X176832967Y-107092455D01*
X176827368Y-107084574D01*
X176821341Y-107080792D01*
X176815853Y-107073922D01*
X176808242Y-107067506D01*
X176786448Y-107055485D01*
X176773652Y-107042059D01*
X176726017Y-107020974D01*
X176724380Y-107019947D01*
X176696585Y-107001387D01*
X176693978Y-107000869D01*
X176676992Y-106990210D01*
X176673869Y-106989020D01*
X176662443Y-106987086D01*
X176652790Y-106981761D01*
X176632233Y-106979462D01*
X176611312Y-106970202D01*
X176592477Y-106965982D01*
X176587673Y-106965867D01*
X176583244Y-106964015D01*
X176541634Y-106955597D01*
X176540336Y-106955593D01*
X176539136Y-106955099D01*
X176480094Y-106943498D01*
X176479436Y-106943500D01*
X176478827Y-106943251D01*
X176407700Y-106929485D01*
X176407254Y-106929487D01*
X176406839Y-106929319D01*
X176328971Y-106914404D01*
X176328593Y-106914407D01*
X176328242Y-106914265D01*
X176261773Y-106901646D01*
X176290072Y-106859947D01*
X176299933Y-106845442D01*
X176300336Y-106844491D01*
X176301068Y-106843764D01*
X176358931Y-106757823D01*
X176360381Y-106754358D01*
X176363005Y-106751666D01*
X176405541Y-106686223D01*
X176408455Y-106678927D01*
X176413744Y-106673120D01*
X176442646Y-106625163D01*
X176448384Y-106609246D01*
X176458828Y-106595936D01*
X176475792Y-106562452D01*
X176486419Y-106524437D01*
X176505088Y-106489655D01*
X176511811Y-106467631D01*
X176512665Y-106459116D01*
X176516430Y-106451431D01*
X176519222Y-106407093D01*
X176523588Y-106391475D01*
X176522706Y-106384167D01*
X176527122Y-106370100D01*
X176524523Y-106340819D01*
X176529519Y-106290984D01*
X176527049Y-106282791D01*
X176527160Y-106281031D01*
X176527606Y-106276489D01*
X176527473Y-106276053D01*
X176527587Y-106274250D01*
X176525764Y-106260671D01*
X176514486Y-106227724D01*
X176511427Y-106193262D01*
X176489695Y-106151642D01*
X176476022Y-106106616D01*
X176475976Y-106106529D01*
X176470869Y-106100310D01*
X176468267Y-106092708D01*
X176445343Y-106066703D01*
X176429255Y-106035892D01*
X176414905Y-106018058D01*
X176403160Y-106008228D01*
X176395188Y-105995156D01*
X176363451Y-105960675D01*
X176359442Y-105957749D01*
X176356770Y-105953572D01*
X176311083Y-105906023D01*
X176308720Y-105904375D01*
X176307135Y-105901964D01*
X176250941Y-105844918D01*
X176249049Y-105843633D01*
X176247772Y-105841732D01*
X176184508Y-105778765D01*
X176183516Y-105778105D01*
X176182848Y-105777122D01*
X176175715Y-105770094D01*
X176174052Y-105769001D01*
X176172922Y-105767367D01*
X176093194Y-105690160D01*
X176088366Y-105687045D01*
X176084981Y-105682402D01*
X176023454Y-105625712D01*
X176013864Y-105619857D01*
X176006812Y-105611111D01*
X175962248Y-105573891D01*
X175938432Y-105560896D01*
X175919028Y-105541930D01*
X175890192Y-105523135D01*
X175811162Y-105491452D01*
X175806406Y-105488857D01*
X175804129Y-105488613D01*
X175783805Y-105480375D01*
X175748939Y-105462970D01*
X175739165Y-105462282D01*
X175727109Y-105457395D01*
X175714408Y-105454969D01*
X175643048Y-105455512D01*
X175571846Y-105450498D01*
X175554823Y-105456184D01*
X175536880Y-105456321D01*
X175471150Y-105484135D01*
X175403460Y-105506747D01*
X175384924Y-105517329D01*
X175377527Y-105523753D01*
X175373384Y-105525506D01*
X175372962Y-105525934D01*
X175366469Y-105528451D01*
X175328002Y-105552896D01*
X175325590Y-105555200D01*
X175322500Y-105556449D01*
X175268075Y-105592145D01*
X175266730Y-105593467D01*
X175264988Y-105594188D01*
X175198575Y-105638523D01*
X175197546Y-105639551D01*
X175196204Y-105640116D01*
X175121778Y-105690480D01*
X175121194Y-105691071D01*
X175120432Y-105691395D01*
X175103055Y-105703244D01*
X175102947Y-105703354D01*
X175102806Y-105703414D01*
X175079406Y-105719394D01*
X175077646Y-105710155D01*
X175076538Y-105704163D01*
X175076489Y-105704041D01*
X175076491Y-105703909D01*
X175060197Y-105616048D01*
X175060023Y-105615612D01*
X175060028Y-105615141D01*
X175045070Y-105535386D01*
X175044855Y-105534851D01*
X175044860Y-105534278D01*
X175032202Y-105467699D01*
X175031846Y-105466818D01*
X175031850Y-105465865D01*
X175022455Y-105417530D01*
X175021429Y-105415022D01*
X175021409Y-105412314D01*
X175016241Y-105387293D01*
X175013745Y-105381389D01*
X175013520Y-105374982D01*
X175013430Y-105374601D01*
X175008079Y-105362863D01*
X175007935Y-105361290D01*
X175007385Y-105352333D01*
X175007057Y-105351661D01*
X175006907Y-105350014D01*
X175003762Y-105339370D01*
X174989131Y-105311515D01*
X174987326Y-105300501D01*
X174962871Y-105261068D01*
X174947103Y-105223776D01*
X174942689Y-105219426D01*
X174939788Y-105213063D01*
X174939096Y-105212418D01*
X174929516Y-105192790D01*
X174923400Y-105184753D01*
X174921809Y-105183346D01*
X174921207Y-105182200D01*
X174909259Y-105172249D01*
X174906001Y-105169368D01*
X174893758Y-105149627D01*
X174839994Y-105111002D01*
X174790404Y-105067153D01*
X174768439Y-105059597D01*
X174749576Y-105046045D01*
X174736827Y-105040250D01*
X174679677Y-105026852D01*
X174624841Y-105005909D01*
X174601794Y-105001989D01*
X174578045Y-105002651D01*
X174555092Y-104996510D01*
X174518082Y-104994098D01*
X174508498Y-104995363D01*
X174499065Y-104993258D01*
X174444430Y-104991988D01*
X174440612Y-104992656D01*
X174436817Y-104991875D01*
X174360893Y-104991381D01*
X174359605Y-104991629D01*
X174358316Y-104991371D01*
X174257439Y-104991286D01*
X174257247Y-104991324D01*
X174257056Y-104991286D01*
X174244000Y-104991286D01*
X174243864Y-104991313D01*
X174243728Y-104991286D01*
X174139819Y-104991348D01*
X174138709Y-104991569D01*
X174137599Y-104991355D01*
X174059055Y-104991785D01*
X174055653Y-104992481D01*
X174052231Y-104991873D01*
X173995387Y-104993037D01*
X173986849Y-104994918D01*
X173978191Y-104993715D01*
X173939384Y-104995980D01*
X173918616Y-105001386D01*
X173897176Y-105000426D01*
X173872742Y-105004159D01*
X173822720Y-105022303D01*
X173770458Y-105032297D01*
X173756734Y-105037863D01*
X173740837Y-105048316D01*
X173722508Y-105053420D01*
X173710058Y-105063169D01*
X173705850Y-105064695D01*
X173692378Y-105077012D01*
X173667144Y-105096771D01*
X173608395Y-105135400D01*
X173597708Y-105151140D01*
X173582728Y-105162870D01*
X173576050Y-105170637D01*
X173575065Y-105172382D01*
X173573498Y-105173631D01*
X173556992Y-105203479D01*
X173549430Y-105210481D01*
X173545647Y-105218706D01*
X173541201Y-105223080D01*
X173528470Y-105253119D01*
X173508673Y-105282278D01*
X173506148Y-105294497D01*
X173488795Y-105325246D01*
X173488553Y-105327234D01*
X173487582Y-105328990D01*
X173484286Y-105339322D01*
X173482372Y-105356274D01*
X173475244Y-105371770D01*
X173474924Y-105373109D01*
X173474655Y-105380099D01*
X173471926Y-105386539D01*
X173466920Y-105410675D01*
X173466897Y-105413529D01*
X173465816Y-105416169D01*
X173456549Y-105463791D01*
X173456553Y-105464765D01*
X173456187Y-105465670D01*
X173443624Y-105531710D01*
X173443629Y-105532293D01*
X173443411Y-105532836D01*
X173428516Y-105612223D01*
X173428521Y-105612694D01*
X173428346Y-105613133D01*
X173412082Y-105700801D01*
X173412085Y-105701036D01*
X173411999Y-105701252D01*
X173411657Y-105703108D01*
X173408572Y-105719378D01*
X173385193Y-105703413D01*
X173384571Y-105703148D01*
X173384098Y-105702668D01*
X173308420Y-105651311D01*
X173307117Y-105650760D01*
X173306118Y-105649759D01*
X173237564Y-105603845D01*
X173235954Y-105603176D01*
X173234714Y-105601952D01*
X173177257Y-105564092D01*
X173174634Y-105563025D01*
X173172596Y-105561062D01*
X173130208Y-105533869D01*
X173123123Y-105531088D01*
X173117469Y-105525989D01*
X173094120Y-105512074D01*
X173088770Y-105510175D01*
X173085409Y-105507243D01*
X173068301Y-105501486D01*
X173053190Y-105490422D01*
X173050974Y-105489390D01*
X172984614Y-105473199D01*
X172926817Y-105452681D01*
X172923730Y-105452840D01*
X172917146Y-105450625D01*
X172897566Y-105451961D01*
X172878501Y-105447309D01*
X172809587Y-105457963D01*
X172763212Y-105461126D01*
X172749521Y-105461833D01*
X172748964Y-105462098D01*
X172748583Y-105462124D01*
X172743692Y-105462229D01*
X172743075Y-105462500D01*
X172740026Y-105462708D01*
X172723058Y-105467303D01*
X172711251Y-105473165D01*
X172703053Y-105474432D01*
X172677866Y-105489739D01*
X172652893Y-105502137D01*
X172581165Y-105533663D01*
X172549474Y-105555834D01*
X172533959Y-105572028D01*
X172514405Y-105583008D01*
X172466754Y-105623800D01*
X172460700Y-105631498D01*
X172452372Y-105636650D01*
X172387525Y-105697109D01*
X172384736Y-105700983D01*
X172380728Y-105703578D01*
X172314529Y-105767900D01*
X172313084Y-105769997D01*
X172310964Y-105771403D01*
X172247147Y-105834788D01*
X172245894Y-105836650D01*
X172244032Y-105837911D01*
X172186918Y-105895750D01*
X172185393Y-105898064D01*
X172183115Y-105899647D01*
X172136139Y-105948371D01*
X172133676Y-105952208D01*
X172129983Y-105954883D01*
X172096585Y-105990919D01*
X172089870Y-106001844D01*
X172079918Y-106009935D01*
X172063536Y-106029709D01*
X172046911Y-106060469D01*
X172023451Y-106086397D01*
X172022842Y-106087414D01*
X172021771Y-106090414D01*
X172019668Y-106092804D01*
X172010113Y-106120790D01*
X172009343Y-106121736D01*
X172006206Y-106132232D01*
X172002916Y-106141869D01*
X171979124Y-106185889D01*
X171975635Y-106219701D01*
X171963175Y-106254619D01*
X171963334Y-106257799D01*
X171962305Y-106260813D01*
X171960494Y-106274383D01*
X171961062Y-106283287D01*
X171958507Y-106291835D01*
X171963337Y-106338898D01*
X171960904Y-106362484D01*
X171966107Y-106379927D01*
X171964677Y-106391888D01*
X171968959Y-106407140D01*
X171971791Y-106451556D01*
X171975722Y-106459563D01*
X171976633Y-106468439D01*
X171983455Y-106490600D01*
X172002071Y-106525086D01*
X172012662Y-106562812D01*
X172029805Y-106596558D01*
X172040161Y-106609727D01*
X172045849Y-106625485D01*
X172074996Y-106673807D01*
X172080246Y-106679567D01*
X172083137Y-106686803D01*
X172125975Y-106752695D01*
X172128573Y-106755360D01*
X172130010Y-106758794D01*
X172187117Y-106843619D01*
X172187749Y-106844247D01*
X172188097Y-106845069D01*
X172226474Y-106901602D01*
X172207239Y-106905234D01*
X172206886Y-106905376D01*
X172206506Y-106905373D01*
X172127169Y-106920489D01*
X172126800Y-106920639D01*
X172126403Y-106920636D01*
X172050644Y-106935205D01*
X172050174Y-106935396D01*
X172049667Y-106935394D01*
X171982834Y-106948398D01*
X171982066Y-106948712D01*
X171928672Y-106959135D01*
X171926850Y-106959888D01*
X171924880Y-106959904D01*
X171891932Y-106966728D01*
X171885528Y-106969440D01*
X171878580Y-106969704D01*
X171870499Y-106971633D01*
X171855385Y-106978577D01*
X171852814Y-106978729D01*
X171813042Y-106998031D01*
X171811863Y-106998573D01*
X171750660Y-107019000D01*
X171742312Y-107023763D01*
X171725755Y-107038134D01*
X171709178Y-107045750D01*
X171704651Y-107050635D01*
X171693097Y-107056242D01*
X171653393Y-107100943D01*
X171608240Y-107140134D01*
X171598785Y-107159063D01*
X171589035Y-107168378D01*
X171584634Y-107178354D01*
X171575200Y-107188975D01*
X171568899Y-107199731D01*
X171556425Y-107235728D01*
X171554088Y-107238620D01*
X171546927Y-107262878D01*
X171528906Y-107298955D01*
X171528425Y-107305761D01*
X171517376Y-107330805D01*
X171512837Y-107351185D01*
X171512585Y-107362242D01*
X171510771Y-107367477D01*
X171511653Y-107382372D01*
X171503825Y-107408888D01*
X171500766Y-107442524D01*
X171502076Y-107454879D01*
X171499205Y-107466967D01*
X171497342Y-107517488D01*
X171498205Y-107522852D01*
X171497074Y-107528165D01*
X171496123Y-107599201D01*
X171496545Y-107601480D01*
X171496085Y-107603752D01*
X171495763Y-107698937D01*
X171495894Y-107699607D01*
X171495760Y-107700278D01*
X171495743Y-107739294D01*
X166722526Y-107739294D01*
X168698908Y-105762912D01*
X168818133Y-105584479D01*
X168859999Y-105374003D01*
X168859999Y-104192961D01*
X175995732Y-104192961D01*
X176231208Y-104762857D01*
X176666849Y-105199260D01*
X177236333Y-105435730D01*
X177852961Y-105436268D01*
X178422857Y-105200792D01*
X178859260Y-104765151D01*
X179095730Y-104195667D01*
X179096268Y-103579039D01*
X178860792Y-103009143D01*
X178425151Y-102572740D01*
X177855667Y-102336270D01*
X177239039Y-102335732D01*
X176669143Y-102571208D01*
X176232740Y-103006849D01*
X175996270Y-103576333D01*
X175995732Y-104192961D01*
X168859999Y-104192961D01*
X168859999Y-103443831D01*
X169191794Y-103112036D01*
X169312530Y-103112142D01*
X169588286Y-102998201D01*
X169799448Y-102787407D01*
X169913869Y-102511851D01*
X169914130Y-102213482D01*
X169800189Y-101937726D01*
X169589395Y-101726564D01*
X169313839Y-101612143D01*
X169015470Y-101611882D01*
X168739714Y-101725823D01*
X168528552Y-101936617D01*
X168414131Y-102212173D01*
X168414024Y-102334170D01*
X167921090Y-102827104D01*
X167801865Y-103005537D01*
X167759999Y-103216013D01*
X167759999Y-103898044D01*
X167737830Y-103898024D01*
X165258899Y-101419092D01*
X165080466Y-101299867D01*
X164869990Y-101258001D01*
X134158004Y-101258001D01*
X134157999Y-101258000D01*
X133947523Y-101299867D01*
X133860518Y-101358002D01*
X133709470Y-101357870D01*
X133433714Y-101471811D01*
X133222552Y-101682605D01*
X133108131Y-101958161D01*
X133107870Y-102256530D01*
X133221811Y-102532286D01*
X133432605Y-102743448D01*
X133708161Y-102857869D01*
X134006530Y-102858130D01*
X134282286Y-102744189D01*
X134493448Y-102533395D01*
X134566278Y-102358001D01*
X135849307Y-102358001D01*
X135762552Y-102444605D01*
X135648131Y-102720161D01*
X135647870Y-103018530D01*
X135761811Y-103294286D01*
X135972605Y-103505448D01*
X136248161Y-103619869D01*
X136546530Y-103620130D01*
X136822286Y-103506189D01*
X137033448Y-103295395D01*
X137147869Y-103019839D01*
X137147976Y-102897842D01*
X137225818Y-102819999D01*
X150778756Y-102819999D01*
X150684490Y-102914265D01*
X150563754Y-102914159D01*
X150287998Y-103028100D01*
X150076836Y-103238894D01*
X149962415Y-103514450D01*
X149962240Y-103714291D01*
X143639714Y-103714291D01*
X143639709Y-103714290D01*
X143429233Y-103756157D01*
X143250800Y-103875382D01*
X142974206Y-104151976D01*
X142853470Y-104151870D01*
X142577714Y-104265811D01*
X142366552Y-104476605D01*
X142252131Y-104752161D01*
X142251870Y-105050530D01*
X142365811Y-105326286D01*
X142576605Y-105537448D01*
X142852161Y-105651869D01*
X143150530Y-105652130D01*
X143426286Y-105538189D01*
X143509961Y-105454660D01*
X143592605Y-105537448D01*
X143868161Y-105651869D01*
X143990158Y-105651976D01*
X145738182Y-107400000D01*
X135228818Y-107400000D01*
X133211024Y-105382206D01*
X133211044Y-105359998D01*
X133919180Y-105359998D01*
X133996976Y-105437794D01*
X133996870Y-105558530D01*
X134110811Y-105834286D01*
X134321605Y-106045448D01*
X134597161Y-106159869D01*
X134895530Y-106160130D01*
X135171286Y-106046189D01*
X135382448Y-105835395D01*
X135496869Y-105559839D01*
X135497130Y-105261470D01*
X135383189Y-104985714D01*
X135172395Y-104774552D01*
X134896839Y-104660131D01*
X134774842Y-104660024D01*
X134535907Y-104421089D01*
X134357474Y-104301864D01*
X134146998Y-104259998D01*
X130705453Y-104259998D01*
X130696824Y-104257637D01*
X130680656Y-104259679D01*
X130664675Y-104256500D01*
X128674242Y-104256500D01*
X128724278Y-104136001D01*
X134727177Y-104136001D01*
X136028976Y-105437799D01*
X136028870Y-105558536D01*
X136142811Y-105834292D01*
X136353605Y-106045454D01*
X136629161Y-106159875D01*
X136927530Y-106160136D01*
X137203286Y-106046195D01*
X137414448Y-105835401D01*
X137528869Y-105559845D01*
X137529130Y-105261476D01*
X137415189Y-104985720D01*
X137204395Y-104774558D01*
X136928839Y-104660137D01*
X136806841Y-104660030D01*
X135343904Y-103197092D01*
X135165471Y-103077867D01*
X134954995Y-103036001D01*
X128316004Y-103036001D01*
X128315999Y-103036000D01*
X128105523Y-103077867D01*
X128018518Y-103136002D01*
X127867470Y-103135870D01*
X127591714Y-103249811D01*
X127380552Y-103460605D01*
X127266131Y-103736161D01*
X127266003Y-103882186D01*
X127242024Y-103858207D01*
X127242130Y-103737470D01*
X127128189Y-103461714D01*
X126917395Y-103250552D01*
X126641839Y-103136131D01*
X126343470Y-103135870D01*
X126067714Y-103249811D01*
X125856552Y-103460605D01*
X125756160Y-103702375D01*
X125756268Y-103579039D01*
X125520792Y-103009143D01*
X125085151Y-102572740D01*
X124515667Y-102336270D01*
X123899039Y-102335732D01*
X123329143Y-102571208D01*
X122892740Y-103006849D01*
X122656270Y-103576333D01*
X122655732Y-104192961D01*
X122891208Y-104762857D01*
X123326849Y-105199260D01*
X123896333Y-105435730D01*
X124512961Y-105436268D01*
X125082857Y-105200792D01*
X125397186Y-104887012D01*
X125387903Y-104901669D01*
X125352343Y-104942169D01*
X125218212Y-105174175D01*
X125207450Y-105205817D01*
X125189283Y-105233875D01*
X125174285Y-105271616D01*
X125172454Y-105281572D01*
X125167331Y-105290299D01*
X125147639Y-105346965D01*
X125145305Y-105363757D01*
X125137822Y-105378968D01*
X125122090Y-105437904D01*
X125120799Y-105457885D01*
X125113557Y-105476547D01*
X125101343Y-105546093D01*
X125101711Y-105562444D01*
X125096889Y-105578075D01*
X125087753Y-105666573D01*
X125088762Y-105677332D01*
X125086063Y-105687795D01*
X125083584Y-105731957D01*
X125078020Y-105727163D01*
X125068959Y-105724175D01*
X125059492Y-105718814D01*
X124997040Y-105678010D01*
X124891750Y-105635665D01*
X124812614Y-105620771D01*
X124734087Y-105602966D01*
X124604327Y-105599511D01*
X124539572Y-105610609D01*
X124474025Y-105614969D01*
X124351654Y-105647886D01*
X124282240Y-105682201D01*
X124211164Y-105712955D01*
X124143968Y-105759393D01*
X124105263Y-105799330D01*
X124061086Y-105833106D01*
X124041699Y-105855135D01*
X124027587Y-105879480D01*
X124020416Y-105886879D01*
X124018110Y-105892701D01*
X123997127Y-105915058D01*
X123981319Y-105940420D01*
X123963807Y-105986800D01*
X123938482Y-106029413D01*
X123925889Y-106065027D01*
X123920736Y-106100682D01*
X123907412Y-106134159D01*
X123900685Y-106170623D01*
X123890545Y-106132856D01*
X123873607Y-106098552D01*
X123864765Y-106061331D01*
X123841744Y-106011080D01*
X123813031Y-105971361D01*
X123791791Y-105927192D01*
X123763786Y-105889936D01*
X123730571Y-105860220D01*
X123703832Y-105824566D01*
X123670354Y-105794548D01*
X123650341Y-105782698D01*
X123634576Y-105765594D01*
X123602016Y-105741866D01*
X123551533Y-105718505D01*
X123505063Y-105687947D01*
X123409215Y-105649070D01*
X123353651Y-105638442D01*
X123300192Y-105619950D01*
X123168151Y-105601789D01*
X123141228Y-105603397D01*
X123114880Y-105597629D01*
X123089384Y-105597140D01*
X123069008Y-105600788D01*
X123048468Y-105598196D01*
X122929192Y-105606656D01*
X122860663Y-105625413D01*
X122790867Y-105638676D01*
X122707009Y-105672573D01*
X122645973Y-105712604D01*
X122582256Y-105748232D01*
X122511017Y-105808994D01*
X122499716Y-105823310D01*
X122484551Y-105833443D01*
X122381436Y-105936559D01*
X122381433Y-105936561D01*
X122283392Y-106083291D01*
X122282801Y-106084176D01*
X122248166Y-106258297D01*
X122248167Y-106258302D01*
X122248167Y-108235241D01*
X122248176Y-108235287D01*
X122248167Y-108235333D01*
X122248253Y-108659750D01*
X122248293Y-108659950D01*
X122248253Y-108660151D01*
X122248643Y-109020002D01*
X122248729Y-109020431D01*
X122248645Y-109020859D01*
X122249539Y-109322136D01*
X122249697Y-109322917D01*
X122249546Y-109323702D01*
X122251140Y-109572395D01*
X122251417Y-109573742D01*
X122251166Y-109575091D01*
X122253659Y-109777189D01*
X122254134Y-109779431D01*
X122253736Y-109781692D01*
X122257327Y-109943187D01*
X122258143Y-109946862D01*
X122257552Y-109950577D01*
X122262437Y-110077459D01*
X122263855Y-110083388D01*
X122263056Y-110089431D01*
X122269435Y-110187689D01*
X122271910Y-110196948D01*
X122271048Y-110206491D01*
X122279118Y-110282116D01*
X122283309Y-110295538D01*
X122282900Y-110309597D01*
X122292860Y-110368581D01*
X122299169Y-110385159D01*
X122300019Y-110402875D01*
X122312067Y-110451207D01*
X122319225Y-110466387D01*
X122321248Y-110483049D01*
X122335582Y-110526720D01*
X122339529Y-110533719D01*
X122340774Y-110541656D01*
X122347781Y-110560739D01*
X122363817Y-110586998D01*
X122372609Y-110616484D01*
X122497357Y-110852563D01*
X122531734Y-110894860D01*
X122559254Y-110941912D01*
X122740407Y-111146144D01*
X122782066Y-111177739D01*
X122818044Y-111215683D01*
X122845353Y-111235000D01*
X122733706Y-111235000D01*
X122400838Y-111168788D01*
X122162478Y-111009522D01*
X122003212Y-110771163D01*
X121937000Y-110438294D01*
X121937000Y-99589534D01*
X123201870Y-99589534D01*
X123315811Y-99865290D01*
X123526605Y-100076452D01*
X123802161Y-100190873D01*
X124100530Y-100191134D01*
X124376286Y-100077193D01*
X124587448Y-99866399D01*
X124701869Y-99590843D01*
X124701976Y-99468846D01*
X127100822Y-97070000D01*
X161795306Y-97070000D01*
X161880605Y-97155448D01*
X162156161Y-97269869D01*
X162454530Y-97270130D01*
X162730286Y-97156189D01*
X162941448Y-96945395D01*
X163055869Y-96669839D01*
X163056130Y-96371470D01*
X162977429Y-96181000D01*
X167279328Y-96181000D01*
X167384811Y-96436286D01*
X167595605Y-96647448D01*
X167871161Y-96761869D01*
X168169530Y-96762130D01*
X168445286Y-96648189D01*
X168656448Y-96437395D01*
X168770869Y-96161839D01*
X168771130Y-95863470D01*
X168657189Y-95587714D01*
X168446395Y-95376552D01*
X168170839Y-95262131D01*
X168048842Y-95262024D01*
X168028909Y-95242091D01*
X167850476Y-95122866D01*
X167640000Y-95081000D01*
X128653694Y-95081000D01*
X128568395Y-94995552D01*
X128292839Y-94881131D01*
X127994470Y-94880870D01*
X127718714Y-94994811D01*
X127507552Y-95205605D01*
X127393131Y-95481161D01*
X127392870Y-95779530D01*
X127471571Y-95970000D01*
X126873009Y-95970000D01*
X126873004Y-95969999D01*
X126662528Y-96011866D01*
X126484095Y-96131091D01*
X123924206Y-98690980D01*
X123803470Y-98690874D01*
X123527714Y-98804815D01*
X123316552Y-99015609D01*
X123202131Y-99291165D01*
X123201870Y-99589534D01*
X121937000Y-99589534D01*
X121937000Y-97587706D01*
X122003212Y-97254837D01*
X122162478Y-97016478D01*
X122400838Y-96857212D01*
X122733706Y-96791000D01*
X123952000Y-96791000D01*
X124002715Y-96780912D01*
X124054422Y-96780912D01*
X124540425Y-96684240D01*
X124540430Y-96684240D01*
X124729682Y-96605849D01*
X125141698Y-96330549D01*
X125141701Y-96330548D01*
X125286548Y-96185700D01*
X125561847Y-95773685D01*
X125561849Y-95773683D01*
X125640239Y-95584430D01*
X125736912Y-95098423D01*
X125736912Y-95046716D01*
X125747000Y-94996000D01*
X125747000Y-92860000D01*
X176005000Y-92860000D01*
X176005000Y-94996000D01*
M02*
