G04 #@! TF.GenerationSoftware,KiCad,Pcbnew,5.0.1*
G04 #@! TF.CreationDate,2018-11-17T00:42:23+11:00*
G04 #@! TF.ProjectId,grove-level-shifter,67726F76652D6C6576656C2D73686966,rev?*
G04 #@! TF.SameCoordinates,Original*
G04 #@! TF.FileFunction,Soldermask,Bot*
G04 #@! TF.FilePolarity,Negative*
%FSLAX46Y46*%
G04 Gerber Fmt 4.6, Leading zero omitted, Abs format (unit mm)*
G04 Created by KiCad (PCBNEW 5.0.1) date Sat 17 Nov 2018 00:42:23 AEDT*
%MOMM*%
%LPD*%
G01*
G04 APERTURE LIST*
%ADD10C,0.010000*%
%ADD11C,0.050000*%
G04 APERTURE END LIST*
D10*
G04 #@! TO.C,Z1*
G36*
X38838910Y-44667652D02*
X38917454Y-44667222D01*
X38974298Y-44666058D01*
X39013105Y-44663793D01*
X39037538Y-44660060D01*
X39051262Y-44654494D01*
X39057940Y-44646727D01*
X39061236Y-44636395D01*
X39061556Y-44635057D01*
X39066562Y-44610921D01*
X39075829Y-44563299D01*
X39088392Y-44497259D01*
X39103287Y-44417872D01*
X39119551Y-44330204D01*
X39120119Y-44327125D01*
X39136410Y-44241211D01*
X39151652Y-44165304D01*
X39164861Y-44103955D01*
X39175054Y-44061718D01*
X39181248Y-44043145D01*
X39181543Y-44042816D01*
X39199788Y-44033747D01*
X39237405Y-44018633D01*
X39286271Y-44000738D01*
X39286543Y-44000642D01*
X39348093Y-43977507D01*
X39420657Y-43948035D01*
X39489057Y-43918403D01*
X39492294Y-43916938D01*
X39603702Y-43866374D01*
X39850399Y-44034840D01*
X39926077Y-44086197D01*
X39994631Y-44132111D01*
X40052088Y-44169970D01*
X40094476Y-44197163D01*
X40117825Y-44211079D01*
X40120042Y-44212111D01*
X40137010Y-44207516D01*
X40168701Y-44185345D01*
X40216352Y-44144553D01*
X40281198Y-44084095D01*
X40347397Y-44019773D01*
X40411214Y-43956388D01*
X40468329Y-43898549D01*
X40515305Y-43849825D01*
X40548703Y-43813790D01*
X40565085Y-43794016D01*
X40565694Y-43792998D01*
X40567505Y-43779428D01*
X40560683Y-43757267D01*
X40543540Y-43723522D01*
X40514393Y-43675200D01*
X40471555Y-43609308D01*
X40414448Y-43524483D01*
X40363766Y-43449823D01*
X40318461Y-43382860D01*
X40281150Y-43327484D01*
X40254452Y-43287580D01*
X40240985Y-43267038D01*
X40240137Y-43265644D01*
X40241781Y-43245962D01*
X40254245Y-43207707D01*
X40275048Y-43158111D01*
X40282462Y-43142272D01*
X40314814Y-43071710D01*
X40349328Y-42991647D01*
X40377365Y-42922371D01*
X40397568Y-42870955D01*
X40413615Y-42831881D01*
X40422888Y-42811459D01*
X40424041Y-42809886D01*
X40441096Y-42807279D01*
X40481298Y-42800137D01*
X40539302Y-42789477D01*
X40609763Y-42776315D01*
X40687335Y-42761667D01*
X40766672Y-42746551D01*
X40842431Y-42731982D01*
X40909264Y-42718978D01*
X40961828Y-42708555D01*
X40994776Y-42701730D01*
X41002857Y-42699801D01*
X41011205Y-42695038D01*
X41017506Y-42684282D01*
X41022045Y-42663902D01*
X41025104Y-42630266D01*
X41026967Y-42579745D01*
X41027918Y-42508708D01*
X41028240Y-42413524D01*
X41028257Y-42374508D01*
X41028257Y-42057201D01*
X40952057Y-42042161D01*
X40909663Y-42034005D01*
X40846400Y-42022101D01*
X40769962Y-42007884D01*
X40688043Y-41992790D01*
X40665400Y-41988645D01*
X40589806Y-41973947D01*
X40523953Y-41959495D01*
X40473366Y-41946625D01*
X40443574Y-41936678D01*
X40438612Y-41933713D01*
X40426426Y-41912717D01*
X40408953Y-41872033D01*
X40389577Y-41819678D01*
X40385734Y-41808400D01*
X40360339Y-41738477D01*
X40328817Y-41659582D01*
X40297969Y-41588734D01*
X40297817Y-41588405D01*
X40246447Y-41477267D01*
X40415399Y-41228747D01*
X40584352Y-40980228D01*
X40367429Y-40762942D01*
X40301819Y-40698274D01*
X40241979Y-40641267D01*
X40191267Y-40594967D01*
X40153046Y-40562416D01*
X40130675Y-40546657D01*
X40127466Y-40545657D01*
X40108626Y-40553531D01*
X40070180Y-40575422D01*
X40016330Y-40608733D01*
X39951276Y-40650869D01*
X39880940Y-40698057D01*
X39809555Y-40746190D01*
X39745908Y-40788072D01*
X39694041Y-40821129D01*
X39657995Y-40842782D01*
X39641867Y-40850457D01*
X39622189Y-40843963D01*
X39584875Y-40826850D01*
X39537621Y-40802674D01*
X39532612Y-40799987D01*
X39468977Y-40768073D01*
X39425341Y-40752421D01*
X39398202Y-40752255D01*
X39384057Y-40766796D01*
X39383975Y-40767000D01*
X39376905Y-40784221D01*
X39360042Y-40825101D01*
X39334695Y-40886475D01*
X39302171Y-40965181D01*
X39263778Y-41058053D01*
X39220822Y-41161928D01*
X39179222Y-41262498D01*
X39133504Y-41373484D01*
X39091526Y-41476297D01*
X39054548Y-41567785D01*
X39023827Y-41644799D01*
X39000622Y-41704185D01*
X38986190Y-41742791D01*
X38981743Y-41757200D01*
X38992896Y-41773728D01*
X39022069Y-41800070D01*
X39060971Y-41829113D01*
X39171757Y-41920961D01*
X39258351Y-42026241D01*
X39319716Y-42142734D01*
X39354815Y-42268224D01*
X39362608Y-42400493D01*
X39356943Y-42461543D01*
X39326078Y-42588205D01*
X39272920Y-42700059D01*
X39200767Y-42795999D01*
X39112917Y-42874924D01*
X39012665Y-42935730D01*
X38903310Y-42977313D01*
X38788147Y-42998572D01*
X38670475Y-42998401D01*
X38553590Y-42975699D01*
X38440789Y-42929362D01*
X38335369Y-42858287D01*
X38291368Y-42818089D01*
X38206979Y-42714871D01*
X38148222Y-42602075D01*
X38114704Y-42482990D01*
X38106035Y-42360905D01*
X38121823Y-42239107D01*
X38161678Y-42120884D01*
X38225207Y-42009525D01*
X38312021Y-41908316D01*
X38409029Y-41829113D01*
X38449437Y-41798838D01*
X38477982Y-41772781D01*
X38488257Y-41757175D01*
X38482877Y-41740157D01*
X38467575Y-41699500D01*
X38443612Y-41638358D01*
X38412244Y-41559881D01*
X38374732Y-41467220D01*
X38332333Y-41363528D01*
X38290663Y-41262474D01*
X38244690Y-41151393D01*
X38202107Y-41048459D01*
X38164221Y-40956835D01*
X38132340Y-40879684D01*
X38107771Y-40820169D01*
X38091820Y-40781456D01*
X38085910Y-40767000D01*
X38071948Y-40752315D01*
X38044940Y-40752358D01*
X38001413Y-40767901D01*
X37937890Y-40799716D01*
X37937388Y-40799987D01*
X37889560Y-40824677D01*
X37850897Y-40842662D01*
X37829095Y-40850386D01*
X37828133Y-40850457D01*
X37811721Y-40842622D01*
X37775487Y-40820835D01*
X37723474Y-40787672D01*
X37659725Y-40745709D01*
X37589060Y-40698057D01*
X37517116Y-40649809D01*
X37452274Y-40607849D01*
X37398735Y-40574773D01*
X37360697Y-40553179D01*
X37342533Y-40545657D01*
X37325808Y-40555543D01*
X37292180Y-40583174D01*
X37245010Y-40625505D01*
X37187658Y-40679495D01*
X37123484Y-40742101D01*
X37102497Y-40763017D01*
X36885499Y-40980377D01*
X37050668Y-41222780D01*
X37100864Y-41297219D01*
X37144919Y-41364028D01*
X37180362Y-41419335D01*
X37204719Y-41459271D01*
X37215522Y-41479964D01*
X37215838Y-41481437D01*
X37210143Y-41500942D01*
X37194826Y-41540178D01*
X37172537Y-41592570D01*
X37156893Y-41627645D01*
X37127641Y-41694799D01*
X37100094Y-41762642D01*
X37078737Y-41819966D01*
X37072935Y-41837428D01*
X37056452Y-41884062D01*
X37040340Y-41920095D01*
X37031490Y-41933713D01*
X37011960Y-41942048D01*
X36969334Y-41953863D01*
X36909145Y-41967819D01*
X36836922Y-41982578D01*
X36804600Y-41988645D01*
X36722522Y-42003727D01*
X36643795Y-42018331D01*
X36576109Y-42031020D01*
X36527160Y-42040358D01*
X36517943Y-42042161D01*
X36441743Y-42057201D01*
X36441743Y-42374508D01*
X36441914Y-42478846D01*
X36442616Y-42557787D01*
X36444134Y-42614962D01*
X36446749Y-42654001D01*
X36450746Y-42678535D01*
X36456409Y-42692195D01*
X36464020Y-42698611D01*
X36467143Y-42699801D01*
X36485978Y-42704020D01*
X36527588Y-42712438D01*
X36586630Y-42724039D01*
X36657757Y-42737805D01*
X36735625Y-42752720D01*
X36814887Y-42767768D01*
X36890198Y-42781931D01*
X36956213Y-42794194D01*
X37007587Y-42803539D01*
X37038975Y-42808950D01*
X37045959Y-42809886D01*
X37052285Y-42822404D01*
X37066290Y-42855754D01*
X37085355Y-42903623D01*
X37092634Y-42922371D01*
X37121996Y-42994805D01*
X37156571Y-43074830D01*
X37187537Y-43142272D01*
X37210323Y-43193841D01*
X37225482Y-43236215D01*
X37230542Y-43262166D01*
X37229736Y-43265644D01*
X37219041Y-43282064D01*
X37194620Y-43318583D01*
X37159095Y-43371313D01*
X37115087Y-43436365D01*
X37065217Y-43509849D01*
X37055356Y-43524355D01*
X36997492Y-43610296D01*
X36954956Y-43675739D01*
X36926054Y-43723696D01*
X36909090Y-43757180D01*
X36902367Y-43779205D01*
X36904190Y-43792783D01*
X36904236Y-43792869D01*
X36918586Y-43810703D01*
X36950323Y-43845183D01*
X36996010Y-43892732D01*
X37052204Y-43949778D01*
X37115468Y-44012745D01*
X37122602Y-44019773D01*
X37202330Y-44096980D01*
X37263857Y-44153670D01*
X37308421Y-44190890D01*
X37337257Y-44209685D01*
X37349958Y-44212111D01*
X37368494Y-44201529D01*
X37406961Y-44177084D01*
X37461386Y-44141388D01*
X37527798Y-44097053D01*
X37602225Y-44046689D01*
X37619601Y-44034840D01*
X37866297Y-43866374D01*
X37977706Y-43916938D01*
X38045457Y-43946405D01*
X38118183Y-43976041D01*
X38180703Y-43999670D01*
X38183457Y-44000642D01*
X38232360Y-44018543D01*
X38270057Y-44033680D01*
X38288425Y-44042790D01*
X38288456Y-44042816D01*
X38294285Y-44059283D01*
X38304192Y-44099781D01*
X38317195Y-44159758D01*
X38332309Y-44234660D01*
X38348552Y-44319936D01*
X38349881Y-44327125D01*
X38366175Y-44414986D01*
X38381133Y-44494740D01*
X38393791Y-44561319D01*
X38403186Y-44609653D01*
X38408354Y-44634675D01*
X38408444Y-44635057D01*
X38411589Y-44645701D01*
X38417704Y-44653738D01*
X38430453Y-44659533D01*
X38453500Y-44663453D01*
X38490509Y-44665865D01*
X38545144Y-44667135D01*
X38621067Y-44667629D01*
X38721944Y-44667714D01*
X38735000Y-44667714D01*
X38838910Y-44667652D01*
X38838910Y-44667652D01*
G37*
X38838910Y-44667652D02*
X38917454Y-44667222D01*
X38974298Y-44666058D01*
X39013105Y-44663793D01*
X39037538Y-44660060D01*
X39051262Y-44654494D01*
X39057940Y-44646727D01*
X39061236Y-44636395D01*
X39061556Y-44635057D01*
X39066562Y-44610921D01*
X39075829Y-44563299D01*
X39088392Y-44497259D01*
X39103287Y-44417872D01*
X39119551Y-44330204D01*
X39120119Y-44327125D01*
X39136410Y-44241211D01*
X39151652Y-44165304D01*
X39164861Y-44103955D01*
X39175054Y-44061718D01*
X39181248Y-44043145D01*
X39181543Y-44042816D01*
X39199788Y-44033747D01*
X39237405Y-44018633D01*
X39286271Y-44000738D01*
X39286543Y-44000642D01*
X39348093Y-43977507D01*
X39420657Y-43948035D01*
X39489057Y-43918403D01*
X39492294Y-43916938D01*
X39603702Y-43866374D01*
X39850399Y-44034840D01*
X39926077Y-44086197D01*
X39994631Y-44132111D01*
X40052088Y-44169970D01*
X40094476Y-44197163D01*
X40117825Y-44211079D01*
X40120042Y-44212111D01*
X40137010Y-44207516D01*
X40168701Y-44185345D01*
X40216352Y-44144553D01*
X40281198Y-44084095D01*
X40347397Y-44019773D01*
X40411214Y-43956388D01*
X40468329Y-43898549D01*
X40515305Y-43849825D01*
X40548703Y-43813790D01*
X40565085Y-43794016D01*
X40565694Y-43792998D01*
X40567505Y-43779428D01*
X40560683Y-43757267D01*
X40543540Y-43723522D01*
X40514393Y-43675200D01*
X40471555Y-43609308D01*
X40414448Y-43524483D01*
X40363766Y-43449823D01*
X40318461Y-43382860D01*
X40281150Y-43327484D01*
X40254452Y-43287580D01*
X40240985Y-43267038D01*
X40240137Y-43265644D01*
X40241781Y-43245962D01*
X40254245Y-43207707D01*
X40275048Y-43158111D01*
X40282462Y-43142272D01*
X40314814Y-43071710D01*
X40349328Y-42991647D01*
X40377365Y-42922371D01*
X40397568Y-42870955D01*
X40413615Y-42831881D01*
X40422888Y-42811459D01*
X40424041Y-42809886D01*
X40441096Y-42807279D01*
X40481298Y-42800137D01*
X40539302Y-42789477D01*
X40609763Y-42776315D01*
X40687335Y-42761667D01*
X40766672Y-42746551D01*
X40842431Y-42731982D01*
X40909264Y-42718978D01*
X40961828Y-42708555D01*
X40994776Y-42701730D01*
X41002857Y-42699801D01*
X41011205Y-42695038D01*
X41017506Y-42684282D01*
X41022045Y-42663902D01*
X41025104Y-42630266D01*
X41026967Y-42579745D01*
X41027918Y-42508708D01*
X41028240Y-42413524D01*
X41028257Y-42374508D01*
X41028257Y-42057201D01*
X40952057Y-42042161D01*
X40909663Y-42034005D01*
X40846400Y-42022101D01*
X40769962Y-42007884D01*
X40688043Y-41992790D01*
X40665400Y-41988645D01*
X40589806Y-41973947D01*
X40523953Y-41959495D01*
X40473366Y-41946625D01*
X40443574Y-41936678D01*
X40438612Y-41933713D01*
X40426426Y-41912717D01*
X40408953Y-41872033D01*
X40389577Y-41819678D01*
X40385734Y-41808400D01*
X40360339Y-41738477D01*
X40328817Y-41659582D01*
X40297969Y-41588734D01*
X40297817Y-41588405D01*
X40246447Y-41477267D01*
X40415399Y-41228747D01*
X40584352Y-40980228D01*
X40367429Y-40762942D01*
X40301819Y-40698274D01*
X40241979Y-40641267D01*
X40191267Y-40594967D01*
X40153046Y-40562416D01*
X40130675Y-40546657D01*
X40127466Y-40545657D01*
X40108626Y-40553531D01*
X40070180Y-40575422D01*
X40016330Y-40608733D01*
X39951276Y-40650869D01*
X39880940Y-40698057D01*
X39809555Y-40746190D01*
X39745908Y-40788072D01*
X39694041Y-40821129D01*
X39657995Y-40842782D01*
X39641867Y-40850457D01*
X39622189Y-40843963D01*
X39584875Y-40826850D01*
X39537621Y-40802674D01*
X39532612Y-40799987D01*
X39468977Y-40768073D01*
X39425341Y-40752421D01*
X39398202Y-40752255D01*
X39384057Y-40766796D01*
X39383975Y-40767000D01*
X39376905Y-40784221D01*
X39360042Y-40825101D01*
X39334695Y-40886475D01*
X39302171Y-40965181D01*
X39263778Y-41058053D01*
X39220822Y-41161928D01*
X39179222Y-41262498D01*
X39133504Y-41373484D01*
X39091526Y-41476297D01*
X39054548Y-41567785D01*
X39023827Y-41644799D01*
X39000622Y-41704185D01*
X38986190Y-41742791D01*
X38981743Y-41757200D01*
X38992896Y-41773728D01*
X39022069Y-41800070D01*
X39060971Y-41829113D01*
X39171757Y-41920961D01*
X39258351Y-42026241D01*
X39319716Y-42142734D01*
X39354815Y-42268224D01*
X39362608Y-42400493D01*
X39356943Y-42461543D01*
X39326078Y-42588205D01*
X39272920Y-42700059D01*
X39200767Y-42795999D01*
X39112917Y-42874924D01*
X39012665Y-42935730D01*
X38903310Y-42977313D01*
X38788147Y-42998572D01*
X38670475Y-42998401D01*
X38553590Y-42975699D01*
X38440789Y-42929362D01*
X38335369Y-42858287D01*
X38291368Y-42818089D01*
X38206979Y-42714871D01*
X38148222Y-42602075D01*
X38114704Y-42482990D01*
X38106035Y-42360905D01*
X38121823Y-42239107D01*
X38161678Y-42120884D01*
X38225207Y-42009525D01*
X38312021Y-41908316D01*
X38409029Y-41829113D01*
X38449437Y-41798838D01*
X38477982Y-41772781D01*
X38488257Y-41757175D01*
X38482877Y-41740157D01*
X38467575Y-41699500D01*
X38443612Y-41638358D01*
X38412244Y-41559881D01*
X38374732Y-41467220D01*
X38332333Y-41363528D01*
X38290663Y-41262474D01*
X38244690Y-41151393D01*
X38202107Y-41048459D01*
X38164221Y-40956835D01*
X38132340Y-40879684D01*
X38107771Y-40820169D01*
X38091820Y-40781456D01*
X38085910Y-40767000D01*
X38071948Y-40752315D01*
X38044940Y-40752358D01*
X38001413Y-40767901D01*
X37937890Y-40799716D01*
X37937388Y-40799987D01*
X37889560Y-40824677D01*
X37850897Y-40842662D01*
X37829095Y-40850386D01*
X37828133Y-40850457D01*
X37811721Y-40842622D01*
X37775487Y-40820835D01*
X37723474Y-40787672D01*
X37659725Y-40745709D01*
X37589060Y-40698057D01*
X37517116Y-40649809D01*
X37452274Y-40607849D01*
X37398735Y-40574773D01*
X37360697Y-40553179D01*
X37342533Y-40545657D01*
X37325808Y-40555543D01*
X37292180Y-40583174D01*
X37245010Y-40625505D01*
X37187658Y-40679495D01*
X37123484Y-40742101D01*
X37102497Y-40763017D01*
X36885499Y-40980377D01*
X37050668Y-41222780D01*
X37100864Y-41297219D01*
X37144919Y-41364028D01*
X37180362Y-41419335D01*
X37204719Y-41459271D01*
X37215522Y-41479964D01*
X37215838Y-41481437D01*
X37210143Y-41500942D01*
X37194826Y-41540178D01*
X37172537Y-41592570D01*
X37156893Y-41627645D01*
X37127641Y-41694799D01*
X37100094Y-41762642D01*
X37078737Y-41819966D01*
X37072935Y-41837428D01*
X37056452Y-41884062D01*
X37040340Y-41920095D01*
X37031490Y-41933713D01*
X37011960Y-41942048D01*
X36969334Y-41953863D01*
X36909145Y-41967819D01*
X36836922Y-41982578D01*
X36804600Y-41988645D01*
X36722522Y-42003727D01*
X36643795Y-42018331D01*
X36576109Y-42031020D01*
X36527160Y-42040358D01*
X36517943Y-42042161D01*
X36441743Y-42057201D01*
X36441743Y-42374508D01*
X36441914Y-42478846D01*
X36442616Y-42557787D01*
X36444134Y-42614962D01*
X36446749Y-42654001D01*
X36450746Y-42678535D01*
X36456409Y-42692195D01*
X36464020Y-42698611D01*
X36467143Y-42699801D01*
X36485978Y-42704020D01*
X36527588Y-42712438D01*
X36586630Y-42724039D01*
X36657757Y-42737805D01*
X36735625Y-42752720D01*
X36814887Y-42767768D01*
X36890198Y-42781931D01*
X36956213Y-42794194D01*
X37007587Y-42803539D01*
X37038975Y-42808950D01*
X37045959Y-42809886D01*
X37052285Y-42822404D01*
X37066290Y-42855754D01*
X37085355Y-42903623D01*
X37092634Y-42922371D01*
X37121996Y-42994805D01*
X37156571Y-43074830D01*
X37187537Y-43142272D01*
X37210323Y-43193841D01*
X37225482Y-43236215D01*
X37230542Y-43262166D01*
X37229736Y-43265644D01*
X37219041Y-43282064D01*
X37194620Y-43318583D01*
X37159095Y-43371313D01*
X37115087Y-43436365D01*
X37065217Y-43509849D01*
X37055356Y-43524355D01*
X36997492Y-43610296D01*
X36954956Y-43675739D01*
X36926054Y-43723696D01*
X36909090Y-43757180D01*
X36902367Y-43779205D01*
X36904190Y-43792783D01*
X36904236Y-43792869D01*
X36918586Y-43810703D01*
X36950323Y-43845183D01*
X36996010Y-43892732D01*
X37052204Y-43949778D01*
X37115468Y-44012745D01*
X37122602Y-44019773D01*
X37202330Y-44096980D01*
X37263857Y-44153670D01*
X37308421Y-44190890D01*
X37337257Y-44209685D01*
X37349958Y-44212111D01*
X37368494Y-44201529D01*
X37406961Y-44177084D01*
X37461386Y-44141388D01*
X37527798Y-44097053D01*
X37602225Y-44046689D01*
X37619601Y-44034840D01*
X37866297Y-43866374D01*
X37977706Y-43916938D01*
X38045457Y-43946405D01*
X38118183Y-43976041D01*
X38180703Y-43999670D01*
X38183457Y-44000642D01*
X38232360Y-44018543D01*
X38270057Y-44033680D01*
X38288425Y-44042790D01*
X38288456Y-44042816D01*
X38294285Y-44059283D01*
X38304192Y-44099781D01*
X38317195Y-44159758D01*
X38332309Y-44234660D01*
X38348552Y-44319936D01*
X38349881Y-44327125D01*
X38366175Y-44414986D01*
X38381133Y-44494740D01*
X38393791Y-44561319D01*
X38403186Y-44609653D01*
X38408354Y-44634675D01*
X38408444Y-44635057D01*
X38411589Y-44645701D01*
X38417704Y-44653738D01*
X38430453Y-44659533D01*
X38453500Y-44663453D01*
X38490509Y-44665865D01*
X38545144Y-44667135D01*
X38621067Y-44667629D01*
X38721944Y-44667714D01*
X38735000Y-44667714D01*
X38838910Y-44667652D01*
D11*
G36*
X46837800Y-69909890D02*
X45237200Y-69909890D01*
X45237200Y-66808150D01*
X46837800Y-66808150D01*
X46837800Y-69909890D01*
X46837800Y-69909890D01*
G37*
G36*
X36042800Y-69909890D02*
X34442200Y-69909890D01*
X34442200Y-66808150D01*
X36042800Y-66808150D01*
X36042800Y-69909890D01*
X36042800Y-69909890D01*
G37*
G36*
X31381000Y-68211000D02*
X29579000Y-68211000D01*
X29579000Y-66409000D01*
X31381000Y-66409000D01*
X31381000Y-68211000D01*
X31381000Y-68211000D01*
G37*
G36*
X30590442Y-63875518D02*
X30656627Y-63882037D01*
X30769853Y-63916384D01*
X30826467Y-63933557D01*
X30965087Y-64007652D01*
X30982991Y-64017222D01*
X31018729Y-64046552D01*
X31120186Y-64129814D01*
X31203448Y-64231271D01*
X31232778Y-64267009D01*
X31232779Y-64267011D01*
X31316443Y-64423533D01*
X31316443Y-64423534D01*
X31367963Y-64593373D01*
X31385359Y-64770000D01*
X31367963Y-64946627D01*
X31333616Y-65059853D01*
X31316443Y-65116467D01*
X31242348Y-65255087D01*
X31232778Y-65272991D01*
X31203448Y-65308729D01*
X31120186Y-65410186D01*
X31018729Y-65493448D01*
X30982991Y-65522778D01*
X30982989Y-65522779D01*
X30826467Y-65606443D01*
X30769853Y-65623616D01*
X30656627Y-65657963D01*
X30590442Y-65664482D01*
X30524260Y-65671000D01*
X30435740Y-65671000D01*
X30369558Y-65664482D01*
X30303373Y-65657963D01*
X30190147Y-65623616D01*
X30133533Y-65606443D01*
X29977011Y-65522779D01*
X29977009Y-65522778D01*
X29941271Y-65493448D01*
X29839814Y-65410186D01*
X29756552Y-65308729D01*
X29727222Y-65272991D01*
X29717652Y-65255087D01*
X29643557Y-65116467D01*
X29626384Y-65059853D01*
X29592037Y-64946627D01*
X29574641Y-64770000D01*
X29592037Y-64593373D01*
X29643557Y-64423534D01*
X29643557Y-64423533D01*
X29727221Y-64267011D01*
X29727222Y-64267009D01*
X29756552Y-64231271D01*
X29839814Y-64129814D01*
X29941271Y-64046552D01*
X29977009Y-64017222D01*
X29994913Y-64007652D01*
X30133533Y-63933557D01*
X30190147Y-63916384D01*
X30303373Y-63882037D01*
X30369558Y-63875518D01*
X30435740Y-63869000D01*
X30524260Y-63869000D01*
X30590442Y-63875518D01*
X30590442Y-63875518D01*
G37*
G36*
X30590443Y-61335519D02*
X30656627Y-61342037D01*
X30769853Y-61376384D01*
X30826467Y-61393557D01*
X30965087Y-61467652D01*
X30982991Y-61477222D01*
X31018729Y-61506552D01*
X31120186Y-61589814D01*
X31203448Y-61691271D01*
X31232778Y-61727009D01*
X31232779Y-61727011D01*
X31316443Y-61883533D01*
X31316443Y-61883534D01*
X31367963Y-62053373D01*
X31385359Y-62230000D01*
X31367963Y-62406627D01*
X31333616Y-62519853D01*
X31316443Y-62576467D01*
X31242348Y-62715087D01*
X31232778Y-62732991D01*
X31203448Y-62768729D01*
X31120186Y-62870186D01*
X31018729Y-62953448D01*
X30982991Y-62982778D01*
X30982989Y-62982779D01*
X30826467Y-63066443D01*
X30769853Y-63083616D01*
X30656627Y-63117963D01*
X30590443Y-63124481D01*
X30524260Y-63131000D01*
X30435740Y-63131000D01*
X30369557Y-63124481D01*
X30303373Y-63117963D01*
X30190147Y-63083616D01*
X30133533Y-63066443D01*
X29977011Y-62982779D01*
X29977009Y-62982778D01*
X29941271Y-62953448D01*
X29839814Y-62870186D01*
X29756552Y-62768729D01*
X29727222Y-62732991D01*
X29717652Y-62715087D01*
X29643557Y-62576467D01*
X29626384Y-62519853D01*
X29592037Y-62406627D01*
X29574641Y-62230000D01*
X29592037Y-62053373D01*
X29643557Y-61883534D01*
X29643557Y-61883533D01*
X29727221Y-61727011D01*
X29727222Y-61727009D01*
X29756552Y-61691271D01*
X29839814Y-61589814D01*
X29941271Y-61506552D01*
X29977009Y-61477222D01*
X29994913Y-61467652D01*
X30133533Y-61393557D01*
X30190147Y-61376384D01*
X30303373Y-61342037D01*
X30369557Y-61335519D01*
X30435740Y-61329000D01*
X30524260Y-61329000D01*
X30590443Y-61335519D01*
X30590443Y-61335519D01*
G37*
G36*
X44194930Y-62281000D02*
X43084550Y-62281000D01*
X43084550Y-59440880D01*
X44194930Y-59440880D01*
X44194930Y-62281000D01*
X44194930Y-62281000D01*
G37*
G36*
X38195450Y-62281000D02*
X37085070Y-62281000D01*
X37085070Y-59440880D01*
X38195450Y-59440880D01*
X38195450Y-62281000D01*
X38195450Y-62281000D01*
G37*
G36*
X40196970Y-62281000D02*
X39086590Y-62281000D01*
X39086590Y-59440880D01*
X40196970Y-59440880D01*
X40196970Y-62281000D01*
X40196970Y-62281000D01*
G37*
G36*
X42193410Y-62281000D02*
X41083030Y-62281000D01*
X41083030Y-59440880D01*
X42193410Y-59440880D01*
X42193410Y-62281000D01*
X42193410Y-62281000D01*
G37*
G36*
X30590442Y-58795518D02*
X30656627Y-58802037D01*
X30769853Y-58836384D01*
X30826467Y-58853557D01*
X30965087Y-58927652D01*
X30982991Y-58937222D01*
X31018729Y-58966552D01*
X31120186Y-59049814D01*
X31203448Y-59151271D01*
X31232778Y-59187009D01*
X31232779Y-59187011D01*
X31316443Y-59343533D01*
X31316443Y-59343534D01*
X31367963Y-59513373D01*
X31385359Y-59690000D01*
X31367963Y-59866627D01*
X31333616Y-59979853D01*
X31316443Y-60036467D01*
X31242348Y-60175087D01*
X31232778Y-60192991D01*
X31203448Y-60228729D01*
X31120186Y-60330186D01*
X31018729Y-60413448D01*
X30982991Y-60442778D01*
X30982989Y-60442779D01*
X30826467Y-60526443D01*
X30769853Y-60543616D01*
X30656627Y-60577963D01*
X30590443Y-60584481D01*
X30524260Y-60591000D01*
X30435740Y-60591000D01*
X30369557Y-60584481D01*
X30303373Y-60577963D01*
X30190147Y-60543616D01*
X30133533Y-60526443D01*
X29977011Y-60442779D01*
X29977009Y-60442778D01*
X29941271Y-60413448D01*
X29839814Y-60330186D01*
X29756552Y-60228729D01*
X29727222Y-60192991D01*
X29717652Y-60175087D01*
X29643557Y-60036467D01*
X29626384Y-59979853D01*
X29592037Y-59866627D01*
X29574641Y-59690000D01*
X29592037Y-59513373D01*
X29643557Y-59343534D01*
X29643557Y-59343533D01*
X29727221Y-59187011D01*
X29727222Y-59187009D01*
X29756552Y-59151271D01*
X29839814Y-59049814D01*
X29941271Y-58966552D01*
X29977009Y-58937222D01*
X29994913Y-58927652D01*
X30133533Y-58853557D01*
X30190147Y-58836384D01*
X30303373Y-58802037D01*
X30369558Y-58795518D01*
X30435740Y-58789000D01*
X30524260Y-58789000D01*
X30590442Y-58795518D01*
X30590442Y-58795518D01*
G37*
G36*
X47742200Y-56088548D02*
X47742203Y-56088549D01*
X47847575Y-56120513D01*
X47944686Y-56172420D01*
X47944688Y-56172421D01*
X47944687Y-56172421D01*
X48029805Y-56242275D01*
X48099659Y-56327393D01*
X48151566Y-56424503D01*
X48183532Y-56529880D01*
X48194324Y-56639460D01*
X48183532Y-56749040D01*
X48183531Y-56749043D01*
X48151567Y-56854415D01*
X48099660Y-56951526D01*
X48029805Y-57036645D01*
X47944686Y-57106500D01*
X47847575Y-57158407D01*
X47761817Y-57184421D01*
X47742200Y-57190372D01*
X47660078Y-57198460D01*
X46589162Y-57198460D01*
X46507040Y-57190372D01*
X46487423Y-57184421D01*
X46401665Y-57158407D01*
X46304554Y-57106500D01*
X46219435Y-57036645D01*
X46149580Y-56951526D01*
X46097673Y-56854415D01*
X46065709Y-56749043D01*
X46065708Y-56749040D01*
X46054916Y-56639460D01*
X46065708Y-56529880D01*
X46097674Y-56424503D01*
X46149581Y-56327393D01*
X46219435Y-56242275D01*
X46304553Y-56172421D01*
X46304552Y-56172421D01*
X46304554Y-56172420D01*
X46401665Y-56120513D01*
X46507037Y-56088549D01*
X46507040Y-56088548D01*
X46589162Y-56080460D01*
X47660078Y-56080460D01*
X47742200Y-56088548D01*
X47742200Y-56088548D01*
G37*
G36*
X31381000Y-53733000D02*
X29579000Y-53733000D01*
X29579000Y-51931000D01*
X31381000Y-51931000D01*
X31381000Y-53733000D01*
X31381000Y-53733000D01*
G37*
G36*
X30590442Y-49397518D02*
X30656627Y-49404037D01*
X30769853Y-49438384D01*
X30826467Y-49455557D01*
X30890208Y-49489628D01*
X30982991Y-49539222D01*
X31018729Y-49568552D01*
X31120186Y-49651814D01*
X31183097Y-49728473D01*
X31232778Y-49789009D01*
X31232779Y-49789011D01*
X31316443Y-49945533D01*
X31316443Y-49945534D01*
X31367963Y-50115373D01*
X31385359Y-50292000D01*
X31367963Y-50468627D01*
X31340401Y-50559486D01*
X31316443Y-50638467D01*
X31242348Y-50777087D01*
X31232778Y-50794991D01*
X31203448Y-50830729D01*
X31120186Y-50932186D01*
X31018729Y-51015448D01*
X30982991Y-51044778D01*
X30982989Y-51044779D01*
X30826467Y-51128443D01*
X30769853Y-51145616D01*
X30656627Y-51179963D01*
X30590443Y-51186481D01*
X30524260Y-51193000D01*
X30435740Y-51193000D01*
X30369558Y-51186482D01*
X30303373Y-51179963D01*
X30190147Y-51145616D01*
X30133533Y-51128443D01*
X29977011Y-51044779D01*
X29977009Y-51044778D01*
X29941271Y-51015448D01*
X29839814Y-50932186D01*
X29756552Y-50830729D01*
X29727222Y-50794991D01*
X29717652Y-50777087D01*
X29643557Y-50638467D01*
X29619599Y-50559486D01*
X29592037Y-50468627D01*
X29574641Y-50292000D01*
X29592037Y-50115373D01*
X29643557Y-49945534D01*
X29643557Y-49945533D01*
X29727221Y-49789011D01*
X29727222Y-49789009D01*
X29776903Y-49728473D01*
X29839814Y-49651814D01*
X29941271Y-49568552D01*
X29977009Y-49539222D01*
X30069792Y-49489628D01*
X30133533Y-49455557D01*
X30190147Y-49438384D01*
X30303373Y-49404037D01*
X30369558Y-49397518D01*
X30435740Y-49391000D01*
X30524260Y-49391000D01*
X30590442Y-49397518D01*
X30590442Y-49397518D01*
G37*
G36*
X47742200Y-49489628D02*
X47742203Y-49489629D01*
X47847575Y-49521593D01*
X47944686Y-49573500D01*
X47944688Y-49573501D01*
X47944687Y-49573501D01*
X48029805Y-49643355D01*
X48099659Y-49728473D01*
X48151566Y-49825583D01*
X48183532Y-49930960D01*
X48194324Y-50040540D01*
X48183532Y-50150120D01*
X48183531Y-50150123D01*
X48151567Y-50255495D01*
X48099660Y-50352606D01*
X48029805Y-50437725D01*
X47944686Y-50507580D01*
X47847575Y-50559487D01*
X47761817Y-50585501D01*
X47742200Y-50591452D01*
X47660078Y-50599540D01*
X46589162Y-50599540D01*
X46507040Y-50591452D01*
X46487423Y-50585501D01*
X46401665Y-50559487D01*
X46304554Y-50507580D01*
X46219435Y-50437725D01*
X46149580Y-50352606D01*
X46097673Y-50255495D01*
X46065709Y-50150123D01*
X46065708Y-50150120D01*
X46054916Y-50040540D01*
X46065708Y-49930960D01*
X46097674Y-49825583D01*
X46149581Y-49728473D01*
X46219435Y-49643355D01*
X46304553Y-49573501D01*
X46304552Y-49573501D01*
X46304554Y-49573500D01*
X46401665Y-49521593D01*
X46507037Y-49489629D01*
X46507040Y-49489628D01*
X46589162Y-49481540D01*
X47660078Y-49481540D01*
X47742200Y-49489628D01*
X47742200Y-49489628D01*
G37*
G36*
X36823000Y-50011000D02*
X35821000Y-50011000D01*
X35821000Y-48709000D01*
X36823000Y-48709000D01*
X36823000Y-50011000D01*
X36823000Y-50011000D01*
G37*
G36*
X39071000Y-49702000D02*
X37769000Y-49702000D01*
X37769000Y-48850000D01*
X39071000Y-48850000D01*
X39071000Y-49702000D01*
X39071000Y-49702000D01*
G37*
G36*
X40971000Y-49702000D02*
X39669000Y-49702000D01*
X39669000Y-48850000D01*
X40971000Y-48850000D01*
X40971000Y-49702000D01*
X40971000Y-49702000D01*
G37*
G36*
X30590442Y-46857518D02*
X30656627Y-46864037D01*
X30769853Y-46898384D01*
X30826467Y-46915557D01*
X30965087Y-46989652D01*
X30982991Y-46999222D01*
X31018729Y-47028552D01*
X31120186Y-47111814D01*
X31203448Y-47213271D01*
X31232778Y-47249009D01*
X31232779Y-47249011D01*
X31316443Y-47405533D01*
X31316443Y-47405534D01*
X31367963Y-47575373D01*
X31385359Y-47752000D01*
X31367963Y-47928627D01*
X31333616Y-48041853D01*
X31316443Y-48098467D01*
X31242348Y-48237087D01*
X31232778Y-48254991D01*
X31203448Y-48290729D01*
X31120186Y-48392186D01*
X31018729Y-48475448D01*
X30982991Y-48504778D01*
X30982989Y-48504779D01*
X30826467Y-48588443D01*
X30769853Y-48605616D01*
X30656627Y-48639963D01*
X30590443Y-48646481D01*
X30524260Y-48653000D01*
X30435740Y-48653000D01*
X30369557Y-48646481D01*
X30303373Y-48639963D01*
X30190147Y-48605616D01*
X30133533Y-48588443D01*
X29977011Y-48504779D01*
X29977009Y-48504778D01*
X29941271Y-48475448D01*
X29839814Y-48392186D01*
X29756552Y-48290729D01*
X29727222Y-48254991D01*
X29717652Y-48237087D01*
X29643557Y-48098467D01*
X29626384Y-48041853D01*
X29592037Y-47928627D01*
X29574641Y-47752000D01*
X29592037Y-47575373D01*
X29643557Y-47405534D01*
X29643557Y-47405533D01*
X29727221Y-47249011D01*
X29727222Y-47249009D01*
X29756552Y-47213271D01*
X29839814Y-47111814D01*
X29941271Y-47028552D01*
X29977009Y-46999222D01*
X29994913Y-46989652D01*
X30133533Y-46915557D01*
X30190147Y-46898384D01*
X30303373Y-46864037D01*
X30369558Y-46857518D01*
X30435740Y-46851000D01*
X30524260Y-46851000D01*
X30590442Y-46857518D01*
X30590442Y-46857518D01*
G37*
G36*
X39071000Y-47924000D02*
X37769000Y-47924000D01*
X37769000Y-47072000D01*
X39071000Y-47072000D01*
X39071000Y-47924000D01*
X39071000Y-47924000D01*
G37*
G36*
X40971000Y-47924000D02*
X39669000Y-47924000D01*
X39669000Y-47072000D01*
X40971000Y-47072000D01*
X40971000Y-47924000D01*
X40971000Y-47924000D01*
G37*
G36*
X36823000Y-47811000D02*
X35821000Y-47811000D01*
X35821000Y-46509000D01*
X36823000Y-46509000D01*
X36823000Y-47811000D01*
X36823000Y-47811000D01*
G37*
G36*
X30590443Y-44317519D02*
X30656627Y-44324037D01*
X30769853Y-44358384D01*
X30826467Y-44375557D01*
X30965087Y-44449652D01*
X30982991Y-44459222D01*
X31018729Y-44488552D01*
X31120186Y-44571814D01*
X31203448Y-44673271D01*
X31232778Y-44709009D01*
X31232779Y-44709011D01*
X31316443Y-44865533D01*
X31316443Y-44865534D01*
X31367963Y-45035373D01*
X31385359Y-45212000D01*
X31367963Y-45388627D01*
X31333616Y-45501853D01*
X31316443Y-45558467D01*
X31242348Y-45697087D01*
X31232778Y-45714991D01*
X31203448Y-45750729D01*
X31120186Y-45852186D01*
X31018729Y-45935448D01*
X30982991Y-45964778D01*
X30982989Y-45964779D01*
X30826467Y-46048443D01*
X30769853Y-46065616D01*
X30656627Y-46099963D01*
X30590442Y-46106482D01*
X30524260Y-46113000D01*
X30435740Y-46113000D01*
X30369558Y-46106482D01*
X30303373Y-46099963D01*
X30190147Y-46065616D01*
X30133533Y-46048443D01*
X29977011Y-45964779D01*
X29977009Y-45964778D01*
X29941271Y-45935448D01*
X29839814Y-45852186D01*
X29756552Y-45750729D01*
X29727222Y-45714991D01*
X29717652Y-45697087D01*
X29643557Y-45558467D01*
X29626384Y-45501853D01*
X29592037Y-45388627D01*
X29574641Y-45212000D01*
X29592037Y-45035373D01*
X29643557Y-44865534D01*
X29643557Y-44865533D01*
X29727221Y-44709011D01*
X29727222Y-44709009D01*
X29756552Y-44673271D01*
X29839814Y-44571814D01*
X29941271Y-44488552D01*
X29977009Y-44459222D01*
X29994913Y-44449652D01*
X30133533Y-44375557D01*
X30190147Y-44358384D01*
X30303373Y-44324037D01*
X30369557Y-44317519D01*
X30435740Y-44311000D01*
X30524260Y-44311000D01*
X30590443Y-44317519D01*
X30590443Y-44317519D01*
G37*
G36*
X46695560Y-45903080D02*
X44744440Y-45903080D01*
X44744440Y-43951960D01*
X46695560Y-43951960D01*
X46695560Y-45903080D01*
X46695560Y-45903080D01*
G37*
G36*
X46004557Y-40494410D02*
X46004559Y-40494411D01*
X46004560Y-40494411D01*
X46182101Y-40567950D01*
X46182102Y-40567951D01*
X46341886Y-40674715D01*
X46477765Y-40810594D01*
X46477767Y-40810597D01*
X46584530Y-40970379D01*
X46658069Y-41147920D01*
X46695560Y-41336396D01*
X46695560Y-41528564D01*
X46658069Y-41717040D01*
X46584530Y-41894581D01*
X46584529Y-41894582D01*
X46477765Y-42054366D01*
X46341886Y-42190245D01*
X46341883Y-42190247D01*
X46182101Y-42297010D01*
X46004560Y-42370549D01*
X46004559Y-42370549D01*
X46004557Y-42370550D01*
X45816086Y-42408040D01*
X45623914Y-42408040D01*
X45435443Y-42370550D01*
X45435441Y-42370549D01*
X45435440Y-42370549D01*
X45257899Y-42297010D01*
X45098117Y-42190247D01*
X45098114Y-42190245D01*
X44962235Y-42054366D01*
X44855471Y-41894582D01*
X44855470Y-41894581D01*
X44781931Y-41717040D01*
X44744440Y-41528564D01*
X44744440Y-41336396D01*
X44781931Y-41147920D01*
X44855470Y-40970379D01*
X44962233Y-40810597D01*
X44962235Y-40810594D01*
X45098114Y-40674715D01*
X45257898Y-40567951D01*
X45257899Y-40567950D01*
X45435440Y-40494411D01*
X45435441Y-40494411D01*
X45435443Y-40494410D01*
X45623914Y-40456920D01*
X45816086Y-40456920D01*
X46004557Y-40494410D01*
X46004557Y-40494410D01*
G37*
G36*
X30590442Y-37205518D02*
X30656627Y-37212037D01*
X30769853Y-37246384D01*
X30826467Y-37263557D01*
X30965087Y-37337652D01*
X30982991Y-37347222D01*
X31018729Y-37376552D01*
X31120186Y-37459814D01*
X31203448Y-37561271D01*
X31232778Y-37597009D01*
X31232779Y-37597011D01*
X31316443Y-37753533D01*
X31316443Y-37753534D01*
X31367963Y-37923373D01*
X31385359Y-38100000D01*
X31367963Y-38276627D01*
X31333616Y-38389853D01*
X31316443Y-38446467D01*
X31242348Y-38585087D01*
X31232778Y-38602991D01*
X31203448Y-38638729D01*
X31120186Y-38740186D01*
X31018729Y-38823448D01*
X30982991Y-38852778D01*
X30982989Y-38852779D01*
X30826467Y-38936443D01*
X30769853Y-38953616D01*
X30656627Y-38987963D01*
X30590443Y-38994481D01*
X30524260Y-39001000D01*
X30435740Y-39001000D01*
X30369557Y-38994481D01*
X30303373Y-38987963D01*
X30190147Y-38953616D01*
X30133533Y-38936443D01*
X29977011Y-38852779D01*
X29977009Y-38852778D01*
X29941271Y-38823448D01*
X29839814Y-38740186D01*
X29756552Y-38638729D01*
X29727222Y-38602991D01*
X29717652Y-38585087D01*
X29643557Y-38446467D01*
X29626384Y-38389853D01*
X29592037Y-38276627D01*
X29574641Y-38100000D01*
X29592037Y-37923373D01*
X29643557Y-37753534D01*
X29643557Y-37753533D01*
X29727221Y-37597011D01*
X29727222Y-37597009D01*
X29756552Y-37561271D01*
X29839814Y-37459814D01*
X29941271Y-37376552D01*
X29977009Y-37347222D01*
X29994913Y-37337652D01*
X30133533Y-37263557D01*
X30190147Y-37246384D01*
X30303373Y-37212037D01*
X30369558Y-37205518D01*
X30435740Y-37199000D01*
X30524260Y-37199000D01*
X30590442Y-37205518D01*
X30590442Y-37205518D01*
G37*
G36*
X44194930Y-37079120D02*
X43084550Y-37079120D01*
X43084550Y-34239000D01*
X44194930Y-34239000D01*
X44194930Y-37079120D01*
X44194930Y-37079120D01*
G37*
G36*
X42193410Y-37079120D02*
X41083030Y-37079120D01*
X41083030Y-34239000D01*
X42193410Y-34239000D01*
X42193410Y-37079120D01*
X42193410Y-37079120D01*
G37*
G36*
X40196970Y-37079120D02*
X39086590Y-37079120D01*
X39086590Y-34239000D01*
X40196970Y-34239000D01*
X40196970Y-37079120D01*
X40196970Y-37079120D01*
G37*
G36*
X38195450Y-37079120D02*
X37085070Y-37079120D01*
X37085070Y-34239000D01*
X38195450Y-34239000D01*
X38195450Y-37079120D01*
X38195450Y-37079120D01*
G37*
G36*
X30590443Y-34665519D02*
X30656627Y-34672037D01*
X30769853Y-34706384D01*
X30826467Y-34723557D01*
X30965087Y-34797652D01*
X30982991Y-34807222D01*
X31018729Y-34836552D01*
X31120186Y-34919814D01*
X31203448Y-35021271D01*
X31232778Y-35057009D01*
X31232779Y-35057011D01*
X31316443Y-35213533D01*
X31316443Y-35213534D01*
X31367963Y-35383373D01*
X31385359Y-35560000D01*
X31367963Y-35736627D01*
X31333616Y-35849853D01*
X31316443Y-35906467D01*
X31242348Y-36045087D01*
X31232778Y-36062991D01*
X31203448Y-36098729D01*
X31120186Y-36200186D01*
X31018729Y-36283448D01*
X30982991Y-36312778D01*
X30982989Y-36312779D01*
X30826467Y-36396443D01*
X30769853Y-36413616D01*
X30656627Y-36447963D01*
X30590442Y-36454482D01*
X30524260Y-36461000D01*
X30435740Y-36461000D01*
X30369558Y-36454482D01*
X30303373Y-36447963D01*
X30190147Y-36413616D01*
X30133533Y-36396443D01*
X29977011Y-36312779D01*
X29977009Y-36312778D01*
X29941271Y-36283448D01*
X29839814Y-36200186D01*
X29756552Y-36098729D01*
X29727222Y-36062991D01*
X29717652Y-36045087D01*
X29643557Y-35906467D01*
X29626384Y-35849853D01*
X29592037Y-35736627D01*
X29574641Y-35560000D01*
X29592037Y-35383373D01*
X29643557Y-35213534D01*
X29643557Y-35213533D01*
X29727221Y-35057011D01*
X29727222Y-35057009D01*
X29756552Y-35021271D01*
X29839814Y-34919814D01*
X29941271Y-34836552D01*
X29977009Y-34807222D01*
X29994913Y-34797652D01*
X30133533Y-34723557D01*
X30190147Y-34706384D01*
X30303373Y-34672037D01*
X30369557Y-34665519D01*
X30435740Y-34659000D01*
X30524260Y-34659000D01*
X30590443Y-34665519D01*
X30590443Y-34665519D01*
G37*
G36*
X30590443Y-32125519D02*
X30656627Y-32132037D01*
X30769853Y-32166384D01*
X30826467Y-32183557D01*
X30965087Y-32257652D01*
X30982991Y-32267222D01*
X31018729Y-32296552D01*
X31120186Y-32379814D01*
X31203448Y-32481271D01*
X31232778Y-32517009D01*
X31232779Y-32517011D01*
X31316443Y-32673533D01*
X31316443Y-32673534D01*
X31367963Y-32843373D01*
X31385359Y-33020000D01*
X31367963Y-33196627D01*
X31333616Y-33309853D01*
X31316443Y-33366467D01*
X31242348Y-33505087D01*
X31232778Y-33522991D01*
X31203448Y-33558729D01*
X31120186Y-33660186D01*
X31018729Y-33743448D01*
X30982991Y-33772778D01*
X30982989Y-33772779D01*
X30826467Y-33856443D01*
X30769853Y-33873616D01*
X30656627Y-33907963D01*
X30590443Y-33914481D01*
X30524260Y-33921000D01*
X30435740Y-33921000D01*
X30369557Y-33914481D01*
X30303373Y-33907963D01*
X30190147Y-33873616D01*
X30133533Y-33856443D01*
X29977011Y-33772779D01*
X29977009Y-33772778D01*
X29941271Y-33743448D01*
X29839814Y-33660186D01*
X29756552Y-33558729D01*
X29727222Y-33522991D01*
X29717652Y-33505087D01*
X29643557Y-33366467D01*
X29626384Y-33309853D01*
X29592037Y-33196627D01*
X29574641Y-33020000D01*
X29592037Y-32843373D01*
X29643557Y-32673534D01*
X29643557Y-32673533D01*
X29727221Y-32517011D01*
X29727222Y-32517009D01*
X29756552Y-32481271D01*
X29839814Y-32379814D01*
X29941271Y-32296552D01*
X29977009Y-32267222D01*
X29994913Y-32257652D01*
X30133533Y-32183557D01*
X30190147Y-32166384D01*
X30303373Y-32132037D01*
X30369557Y-32125519D01*
X30435740Y-32119000D01*
X30524260Y-32119000D01*
X30590443Y-32125519D01*
X30590443Y-32125519D01*
G37*
G36*
X31381000Y-31381000D02*
X29579000Y-31381000D01*
X29579000Y-29579000D01*
X31381000Y-29579000D01*
X31381000Y-31381000D01*
X31381000Y-31381000D01*
G37*
G36*
X46837800Y-29711850D02*
X45237200Y-29711850D01*
X45237200Y-26610110D01*
X46837800Y-26610110D01*
X46837800Y-29711850D01*
X46837800Y-29711850D01*
G37*
G36*
X36042800Y-29711850D02*
X34442200Y-29711850D01*
X34442200Y-26610110D01*
X36042800Y-26610110D01*
X36042800Y-29711850D01*
X36042800Y-29711850D01*
G37*
M02*
