%FSLAX45Y45*%
G04 Gerber Fmt 4.5, Leading zero omitted, Abs format (unit mm)*
G04 Created by KiCad (PCBNEW 5.0.1) date Sat 17 Nov 2018 00:43:47 AEDT*
%MOMM*%
%LPD*%
G01*
G04 APERTURE LIST*
%ADD10C,0.150000*%
%ADD11C,0.200000*%
%ADD12C,0.300000*%
G04 APERTURE END LIST*
D10*
X3048000Y-2540000D02*
X4699000Y-2540000D01*
X2794000Y-6858000D02*
X2794000Y-2794000D01*
X4699000Y-7112000D02*
X3048000Y-7112000D01*
X4953000Y-2794000D02*
X4953000Y-6858000D01*
X4953000Y-6858000D02*
G75*
G02X4699000Y-7112000I-254000J0D01*
G01*
X3048000Y-7112000D02*
G75*
G02X2794000Y-6858000I0J254000D01*
G01*
X2794000Y-2794000D02*
G75*
G02X3048000Y-2540000I254000J0D01*
G01*
X4699000Y-2540000D02*
G75*
G02X4953000Y-2794000I0J-254000D01*
G01*
D11*
X3510600Y-4653600D02*
X3550600Y-4693600D01*
X3550600Y-4653600D02*
X3510600Y-4693600D01*
X3764600Y-6317300D02*
X3804600Y-6357300D01*
X3804600Y-6317300D02*
X3764600Y-6357300D01*
X3790000Y-3155000D02*
X3830000Y-3195000D01*
X3830000Y-3155000D02*
X3790000Y-3195000D01*
X3790000Y-3282000D02*
X3830000Y-3322000D01*
X3830000Y-3282000D02*
X3790000Y-3322000D01*
X3790000Y-5822000D02*
X3830000Y-5862000D01*
X3830000Y-5822000D02*
X3790000Y-5862000D01*
X3917000Y-5822000D02*
X3957000Y-5862000D01*
X3957000Y-5822000D02*
X3917000Y-5862000D01*
X4018600Y-4628200D02*
X4058600Y-4668200D01*
X4058600Y-4628200D02*
X4018600Y-4668200D01*
X4018600Y-4983800D02*
X4058600Y-5023800D01*
X4058600Y-4983800D02*
X4018600Y-5023800D01*
X4018600Y-6355400D02*
X4058600Y-6395400D01*
X4058600Y-6355400D02*
X4018600Y-6395400D01*
X4031300Y-5569778D02*
X4071300Y-5609778D01*
X4071300Y-5569778D02*
X4031300Y-5609778D01*
X4069400Y-3764600D02*
X4109400Y-3804600D01*
X4109400Y-3764600D02*
X4069400Y-3804600D01*
X4272600Y-5441000D02*
X4312600Y-5481000D01*
X4312600Y-5441000D02*
X4272600Y-5481000D01*
X4737862Y-5004054D02*
G75*
G03X4737862Y-5004054I-25400J0D01*
G01*
X4737862Y-5663946D02*
G75*
G03X4737862Y-5663946I-25400J0D01*
G01*
X4572000Y-4093337D02*
X4572000Y-4193159D01*
X4522089Y-4143248D02*
X4621911Y-4143248D01*
X4572000Y-4442841D02*
X4572000Y-4542663D01*
X4522089Y-4492752D02*
X4621911Y-4492752D01*
X3083356Y-3083356D02*
X3083356Y-3012644D01*
X3012644Y-3012644D01*
X3012644Y-3083356D01*
X3083356Y-3083356D01*
X3083356Y-3337356D02*
X3083356Y-3266644D01*
X3012644Y-3266644D01*
X3012644Y-3337356D01*
X3083356Y-3337356D01*
X3083356Y-3591356D02*
X3083356Y-3520644D01*
X3012644Y-3520644D01*
X3012644Y-3591356D01*
X3083356Y-3591356D01*
X3083356Y-3845356D02*
X3083356Y-3774644D01*
X3012644Y-3774644D01*
X3012644Y-3845356D01*
X3083356Y-3845356D01*
X3083356Y-4556556D02*
X3083356Y-4485844D01*
X3012644Y-4485844D01*
X3012644Y-4556556D01*
X3083356Y-4556556D01*
X3083356Y-4810556D02*
X3083356Y-4739844D01*
X3012644Y-4739844D01*
X3012644Y-4810556D01*
X3083356Y-4810556D01*
X3083356Y-5064556D02*
X3083356Y-4993844D01*
X3012644Y-4993844D01*
X3012644Y-5064556D01*
X3083356Y-5064556D01*
X3083356Y-5318556D02*
X3083356Y-5247844D01*
X3012644Y-5247844D01*
X3012644Y-5318556D01*
X3083356Y-5318556D01*
X3083356Y-6004356D02*
X3083356Y-5933644D01*
X3012644Y-5933644D01*
X3012644Y-6004356D01*
X3083356Y-6004356D01*
X3083356Y-6258356D02*
X3083356Y-6187644D01*
X3012644Y-6187644D01*
X3012644Y-6258356D01*
X3083356Y-6258356D01*
X3083356Y-6512356D02*
X3083356Y-6441644D01*
X3012644Y-6441644D01*
X3012644Y-6512356D01*
X3083356Y-6512356D01*
X3083356Y-6766356D02*
X3083356Y-6695644D01*
X3012644Y-6695644D01*
X3012644Y-6766356D01*
X3083356Y-6766356D01*
D12*
X3072928Y-7585214D02*
X3072928Y-7285214D01*
X3144357Y-7285214D01*
X3187214Y-7299500D01*
X3215786Y-7328071D01*
X3230071Y-7356643D01*
X3244357Y-7413786D01*
X3244357Y-7456643D01*
X3230071Y-7513786D01*
X3215786Y-7542357D01*
X3187214Y-7570929D01*
X3144357Y-7585214D01*
X3072928Y-7585214D01*
X3372928Y-7585214D02*
X3372928Y-7385214D01*
X3372928Y-7442357D02*
X3387214Y-7413786D01*
X3401500Y-7399500D01*
X3430071Y-7385214D01*
X3458643Y-7385214D01*
X3558643Y-7585214D02*
X3558643Y-7385214D01*
X3558643Y-7285214D02*
X3544357Y-7299500D01*
X3558643Y-7313786D01*
X3572928Y-7299500D01*
X3558643Y-7285214D01*
X3558643Y-7313786D01*
X3744357Y-7585214D02*
X3715786Y-7570929D01*
X3701500Y-7542357D01*
X3701500Y-7285214D01*
X3901500Y-7585214D02*
X3872928Y-7570929D01*
X3858643Y-7542357D01*
X3858643Y-7285214D01*
X4244357Y-7585214D02*
X4244357Y-7285214D01*
X4344357Y-7499500D01*
X4444357Y-7285214D01*
X4444357Y-7585214D01*
X4715786Y-7585214D02*
X4715786Y-7428071D01*
X4701500Y-7399500D01*
X4672928Y-7385214D01*
X4615786Y-7385214D01*
X4587214Y-7399500D01*
X4715786Y-7570929D02*
X4687214Y-7585214D01*
X4615786Y-7585214D01*
X4587214Y-7570929D01*
X4572928Y-7542357D01*
X4572928Y-7513786D01*
X4587214Y-7485214D01*
X4615786Y-7470929D01*
X4687214Y-7470929D01*
X4715786Y-7456643D01*
X4858643Y-7385214D02*
X4858643Y-7685214D01*
X4858643Y-7399500D02*
X4887214Y-7385214D01*
X4944357Y-7385214D01*
X4972928Y-7399500D01*
X4987214Y-7413786D01*
X5001500Y-7442357D01*
X5001500Y-7528071D01*
X4987214Y-7556643D01*
X4972928Y-7570929D01*
X4944357Y-7585214D01*
X4887214Y-7585214D01*
X4858643Y-7570929D01*
X5130071Y-7556643D02*
X5144357Y-7570929D01*
X5130071Y-7585214D01*
X5115786Y-7570929D01*
X5130071Y-7556643D01*
X5130071Y-7585214D01*
X5130071Y-7399500D02*
X5144357Y-7413786D01*
X5130071Y-7428071D01*
X5115786Y-7413786D01*
X5130071Y-7399500D01*
X5130071Y-7428071D01*
X2746500Y-8059500D02*
X2786500Y-8099500D01*
X2786500Y-8059500D02*
X2746500Y-8099500D01*
X3130071Y-7915214D02*
X3158643Y-7915214D01*
X3187214Y-7929500D01*
X3201500Y-7943786D01*
X3215786Y-7972357D01*
X3230071Y-8029500D01*
X3230071Y-8100929D01*
X3215786Y-8158071D01*
X3201500Y-8186643D01*
X3187214Y-8200929D01*
X3158643Y-8215214D01*
X3130071Y-8215214D01*
X3101500Y-8200929D01*
X3087214Y-8186643D01*
X3072928Y-8158071D01*
X3058643Y-8100929D01*
X3058643Y-8029500D01*
X3072928Y-7972357D01*
X3087214Y-7943786D01*
X3101500Y-7929500D01*
X3130071Y-7915214D01*
X3358643Y-8186643D02*
X3372928Y-8200929D01*
X3358643Y-8215214D01*
X3344357Y-8200929D01*
X3358643Y-8186643D01*
X3358643Y-8215214D01*
X3630071Y-8015214D02*
X3630071Y-8215214D01*
X3558643Y-7900929D02*
X3487214Y-8115214D01*
X3672928Y-8115214D01*
X3844357Y-7915214D02*
X3872928Y-7915214D01*
X3901500Y-7929500D01*
X3915786Y-7943786D01*
X3930071Y-7972357D01*
X3944357Y-8029500D01*
X3944357Y-8100929D01*
X3930071Y-8158071D01*
X3915786Y-8186643D01*
X3901500Y-8200929D01*
X3872928Y-8215214D01*
X3844357Y-8215214D01*
X3815786Y-8200929D01*
X3801500Y-8186643D01*
X3787214Y-8158071D01*
X3772928Y-8100929D01*
X3772928Y-8029500D01*
X3787214Y-7972357D01*
X3801500Y-7943786D01*
X3815786Y-7929500D01*
X3844357Y-7915214D01*
X4072928Y-8215214D02*
X4072928Y-8015214D01*
X4072928Y-8043786D02*
X4087214Y-8029500D01*
X4115786Y-8015214D01*
X4158643Y-8015214D01*
X4187214Y-8029500D01*
X4201500Y-8058071D01*
X4201500Y-8215214D01*
X4201500Y-8058071D02*
X4215786Y-8029500D01*
X4244357Y-8015214D01*
X4287214Y-8015214D01*
X4315786Y-8029500D01*
X4330071Y-8058071D01*
X4330071Y-8215214D01*
X4472928Y-8215214D02*
X4472928Y-8015214D01*
X4472928Y-8043786D02*
X4487214Y-8029500D01*
X4515786Y-8015214D01*
X4558643Y-8015214D01*
X4587214Y-8029500D01*
X4601500Y-8058071D01*
X4601500Y-8215214D01*
X4601500Y-8058071D02*
X4615786Y-8029500D01*
X4644357Y-8015214D01*
X4687214Y-8015214D01*
X4715786Y-8029500D01*
X4730071Y-8058071D01*
X4730071Y-8215214D01*
X5315786Y-7900929D02*
X5058643Y-8286643D01*
X5701500Y-7915214D02*
X5730071Y-7915214D01*
X5758643Y-7929500D01*
X5772928Y-7943786D01*
X5787214Y-7972357D01*
X5801500Y-8029500D01*
X5801500Y-8100929D01*
X5787214Y-8158071D01*
X5772928Y-8186643D01*
X5758643Y-8200929D01*
X5730071Y-8215214D01*
X5701500Y-8215214D01*
X5672928Y-8200929D01*
X5658643Y-8186643D01*
X5644357Y-8158071D01*
X5630071Y-8100929D01*
X5630071Y-8029500D01*
X5644357Y-7972357D01*
X5658643Y-7943786D01*
X5672928Y-7929500D01*
X5701500Y-7915214D01*
X5930071Y-8186643D02*
X5944357Y-8200929D01*
X5930071Y-8215214D01*
X5915786Y-8200929D01*
X5930071Y-8186643D01*
X5930071Y-8215214D01*
X6130071Y-7915214D02*
X6158643Y-7915214D01*
X6187214Y-7929500D01*
X6201500Y-7943786D01*
X6215786Y-7972357D01*
X6230071Y-8029500D01*
X6230071Y-8100929D01*
X6215786Y-8158071D01*
X6201500Y-8186643D01*
X6187214Y-8200929D01*
X6158643Y-8215214D01*
X6130071Y-8215214D01*
X6101500Y-8200929D01*
X6087214Y-8186643D01*
X6072928Y-8158071D01*
X6058643Y-8100929D01*
X6058643Y-8029500D01*
X6072928Y-7972357D01*
X6087214Y-7943786D01*
X6101500Y-7929500D01*
X6130071Y-7915214D01*
X6515786Y-8215214D02*
X6344357Y-8215214D01*
X6430071Y-8215214D02*
X6430071Y-7915214D01*
X6401500Y-7958071D01*
X6372928Y-7986643D01*
X6344357Y-8000929D01*
X6772928Y-7915214D02*
X6715786Y-7915214D01*
X6687214Y-7929500D01*
X6672928Y-7943786D01*
X6644357Y-7986643D01*
X6630071Y-8043786D01*
X6630071Y-8158071D01*
X6644357Y-8186643D01*
X6658643Y-8200929D01*
X6687214Y-8215214D01*
X6744357Y-8215214D01*
X6772928Y-8200929D01*
X6787214Y-8186643D01*
X6801500Y-8158071D01*
X6801500Y-8086643D01*
X6787214Y-8058071D01*
X6772928Y-8043786D01*
X6744357Y-8029500D01*
X6687214Y-8029500D01*
X6658643Y-8043786D01*
X6644357Y-8058071D01*
X6630071Y-8086643D01*
X6915786Y-7915214D02*
X6915786Y-7972357D01*
X7030071Y-7915214D02*
X7030071Y-7972357D01*
X7472928Y-8329500D02*
X7458643Y-8315214D01*
X7430071Y-8272357D01*
X7415786Y-8243786D01*
X7401500Y-8200929D01*
X7387214Y-8129500D01*
X7387214Y-8072357D01*
X7401500Y-8000929D01*
X7415786Y-7958071D01*
X7430071Y-7929500D01*
X7458643Y-7886643D01*
X7472928Y-7872357D01*
X7744357Y-8215214D02*
X7572928Y-8215214D01*
X7658643Y-8215214D02*
X7658643Y-7915214D01*
X7630071Y-7958071D01*
X7601500Y-7986643D01*
X7572928Y-8000929D01*
X7858643Y-7943786D02*
X7872928Y-7929500D01*
X7901500Y-7915214D01*
X7972928Y-7915214D01*
X8001500Y-7929500D01*
X8015786Y-7943786D01*
X8030071Y-7972357D01*
X8030071Y-8000929D01*
X8015786Y-8043786D01*
X7844357Y-8215214D01*
X8030071Y-8215214D01*
X8387214Y-8215214D02*
X8387214Y-7915214D01*
X8515786Y-8215214D02*
X8515786Y-8058071D01*
X8501500Y-8029500D01*
X8472928Y-8015214D01*
X8430071Y-8015214D01*
X8401500Y-8029500D01*
X8387214Y-8043786D01*
X8701500Y-8215214D02*
X8672928Y-8200929D01*
X8658643Y-8186643D01*
X8644357Y-8158071D01*
X8644357Y-8072357D01*
X8658643Y-8043786D01*
X8672928Y-8029500D01*
X8701500Y-8015214D01*
X8744357Y-8015214D01*
X8772928Y-8029500D01*
X8787214Y-8043786D01*
X8801500Y-8072357D01*
X8801500Y-8158071D01*
X8787214Y-8186643D01*
X8772928Y-8200929D01*
X8744357Y-8215214D01*
X8701500Y-8215214D01*
X8972928Y-8215214D02*
X8944357Y-8200929D01*
X8930071Y-8172357D01*
X8930071Y-7915214D01*
X9201500Y-8200929D02*
X9172928Y-8215214D01*
X9115786Y-8215214D01*
X9087214Y-8200929D01*
X9072928Y-8172357D01*
X9072928Y-8058071D01*
X9087214Y-8029500D01*
X9115786Y-8015214D01*
X9172928Y-8015214D01*
X9201500Y-8029500D01*
X9215786Y-8058071D01*
X9215786Y-8086643D01*
X9072928Y-8115214D01*
X9330071Y-8200929D02*
X9358643Y-8215214D01*
X9415786Y-8215214D01*
X9444357Y-8200929D01*
X9458643Y-8172357D01*
X9458643Y-8158071D01*
X9444357Y-8129500D01*
X9415786Y-8115214D01*
X9372928Y-8115214D01*
X9344357Y-8100929D01*
X9330071Y-8072357D01*
X9330071Y-8058071D01*
X9344357Y-8029500D01*
X9372928Y-8015214D01*
X9415786Y-8015214D01*
X9444357Y-8029500D01*
X9558643Y-8329500D02*
X9572928Y-8315214D01*
X9601500Y-8272357D01*
X9615786Y-8243786D01*
X9630071Y-8200929D01*
X9644357Y-8129500D01*
X9644357Y-8072357D01*
X9630071Y-8000929D01*
X9615786Y-7958071D01*
X9601500Y-7929500D01*
X9572928Y-7886643D01*
X9558643Y-7872357D01*
X2786500Y-8475500D02*
G75*
G03X2786500Y-8475500I-25400J0D01*
G01*
X3130071Y-8311214D02*
X3158643Y-8311214D01*
X3187214Y-8325500D01*
X3201500Y-8339786D01*
X3215786Y-8368357D01*
X3230071Y-8425500D01*
X3230071Y-8496929D01*
X3215786Y-8554072D01*
X3201500Y-8582643D01*
X3187214Y-8596929D01*
X3158643Y-8611214D01*
X3130071Y-8611214D01*
X3101500Y-8596929D01*
X3087214Y-8582643D01*
X3072928Y-8554072D01*
X3058643Y-8496929D01*
X3058643Y-8425500D01*
X3072928Y-8368357D01*
X3087214Y-8339786D01*
X3101500Y-8325500D01*
X3130071Y-8311214D01*
X3358643Y-8582643D02*
X3372928Y-8596929D01*
X3358643Y-8611214D01*
X3344357Y-8596929D01*
X3358643Y-8582643D01*
X3358643Y-8611214D01*
X3644357Y-8311214D02*
X3501500Y-8311214D01*
X3487214Y-8454072D01*
X3501500Y-8439786D01*
X3530071Y-8425500D01*
X3601500Y-8425500D01*
X3630071Y-8439786D01*
X3644357Y-8454072D01*
X3658643Y-8482643D01*
X3658643Y-8554072D01*
X3644357Y-8582643D01*
X3630071Y-8596929D01*
X3601500Y-8611214D01*
X3530071Y-8611214D01*
X3501500Y-8596929D01*
X3487214Y-8582643D01*
X3944357Y-8611214D02*
X3772928Y-8611214D01*
X3858643Y-8611214D02*
X3858643Y-8311214D01*
X3830071Y-8354071D01*
X3801500Y-8382643D01*
X3772928Y-8396929D01*
X4072928Y-8611214D02*
X4072928Y-8411214D01*
X4072928Y-8439786D02*
X4087214Y-8425500D01*
X4115786Y-8411214D01*
X4158643Y-8411214D01*
X4187214Y-8425500D01*
X4201500Y-8454072D01*
X4201500Y-8611214D01*
X4201500Y-8454072D02*
X4215786Y-8425500D01*
X4244357Y-8411214D01*
X4287214Y-8411214D01*
X4315786Y-8425500D01*
X4330071Y-8454072D01*
X4330071Y-8611214D01*
X4472928Y-8611214D02*
X4472928Y-8411214D01*
X4472928Y-8439786D02*
X4487214Y-8425500D01*
X4515786Y-8411214D01*
X4558643Y-8411214D01*
X4587214Y-8425500D01*
X4601500Y-8454072D01*
X4601500Y-8611214D01*
X4601500Y-8454072D02*
X4615786Y-8425500D01*
X4644357Y-8411214D01*
X4687214Y-8411214D01*
X4715786Y-8425500D01*
X4730071Y-8454072D01*
X4730071Y-8611214D01*
X5315786Y-8296929D02*
X5058643Y-8682643D01*
X5701500Y-8311214D02*
X5730071Y-8311214D01*
X5758643Y-8325500D01*
X5772928Y-8339786D01*
X5787214Y-8368357D01*
X5801500Y-8425500D01*
X5801500Y-8496929D01*
X5787214Y-8554072D01*
X5772928Y-8582643D01*
X5758643Y-8596929D01*
X5730071Y-8611214D01*
X5701500Y-8611214D01*
X5672928Y-8596929D01*
X5658643Y-8582643D01*
X5644357Y-8554072D01*
X5630071Y-8496929D01*
X5630071Y-8425500D01*
X5644357Y-8368357D01*
X5658643Y-8339786D01*
X5672928Y-8325500D01*
X5701500Y-8311214D01*
X5930071Y-8582643D02*
X5944357Y-8596929D01*
X5930071Y-8611214D01*
X5915786Y-8596929D01*
X5930071Y-8582643D01*
X5930071Y-8611214D01*
X6130071Y-8311214D02*
X6158643Y-8311214D01*
X6187214Y-8325500D01*
X6201500Y-8339786D01*
X6215786Y-8368357D01*
X6230071Y-8425500D01*
X6230071Y-8496929D01*
X6215786Y-8554072D01*
X6201500Y-8582643D01*
X6187214Y-8596929D01*
X6158643Y-8611214D01*
X6130071Y-8611214D01*
X6101500Y-8596929D01*
X6087214Y-8582643D01*
X6072928Y-8554072D01*
X6058643Y-8496929D01*
X6058643Y-8425500D01*
X6072928Y-8368357D01*
X6087214Y-8339786D01*
X6101500Y-8325500D01*
X6130071Y-8311214D01*
X6344357Y-8339786D02*
X6358643Y-8325500D01*
X6387214Y-8311214D01*
X6458643Y-8311214D01*
X6487214Y-8325500D01*
X6501500Y-8339786D01*
X6515786Y-8368357D01*
X6515786Y-8396929D01*
X6501500Y-8439786D01*
X6330071Y-8611214D01*
X6515786Y-8611214D01*
X6701500Y-8311214D02*
X6730071Y-8311214D01*
X6758643Y-8325500D01*
X6772928Y-8339786D01*
X6787214Y-8368357D01*
X6801500Y-8425500D01*
X6801500Y-8496929D01*
X6787214Y-8554072D01*
X6772928Y-8582643D01*
X6758643Y-8596929D01*
X6730071Y-8611214D01*
X6701500Y-8611214D01*
X6672928Y-8596929D01*
X6658643Y-8582643D01*
X6644357Y-8554072D01*
X6630071Y-8496929D01*
X6630071Y-8425500D01*
X6644357Y-8368357D01*
X6658643Y-8339786D01*
X6672928Y-8325500D01*
X6701500Y-8311214D01*
X6915786Y-8311214D02*
X6915786Y-8368357D01*
X7030071Y-8311214D02*
X7030071Y-8368357D01*
X7472928Y-8725500D02*
X7458643Y-8711214D01*
X7430071Y-8668357D01*
X7415786Y-8639786D01*
X7401500Y-8596929D01*
X7387214Y-8525500D01*
X7387214Y-8468357D01*
X7401500Y-8396929D01*
X7415786Y-8354071D01*
X7430071Y-8325500D01*
X7458643Y-8282643D01*
X7472928Y-8268357D01*
X7572928Y-8339786D02*
X7587214Y-8325500D01*
X7615786Y-8311214D01*
X7687214Y-8311214D01*
X7715786Y-8325500D01*
X7730071Y-8339786D01*
X7744357Y-8368357D01*
X7744357Y-8396929D01*
X7730071Y-8439786D01*
X7558643Y-8611214D01*
X7744357Y-8611214D01*
X8101500Y-8611214D02*
X8101500Y-8311214D01*
X8230071Y-8611214D02*
X8230071Y-8454072D01*
X8215786Y-8425500D01*
X8187214Y-8411214D01*
X8144357Y-8411214D01*
X8115786Y-8425500D01*
X8101500Y-8439786D01*
X8415786Y-8611214D02*
X8387214Y-8596929D01*
X8372928Y-8582643D01*
X8358643Y-8554072D01*
X8358643Y-8468357D01*
X8372928Y-8439786D01*
X8387214Y-8425500D01*
X8415786Y-8411214D01*
X8458643Y-8411214D01*
X8487214Y-8425500D01*
X8501500Y-8439786D01*
X8515786Y-8468357D01*
X8515786Y-8554072D01*
X8501500Y-8582643D01*
X8487214Y-8596929D01*
X8458643Y-8611214D01*
X8415786Y-8611214D01*
X8687214Y-8611214D02*
X8658643Y-8596929D01*
X8644357Y-8568357D01*
X8644357Y-8311214D01*
X8915786Y-8596929D02*
X8887214Y-8611214D01*
X8830071Y-8611214D01*
X8801500Y-8596929D01*
X8787214Y-8568357D01*
X8787214Y-8454072D01*
X8801500Y-8425500D01*
X8830071Y-8411214D01*
X8887214Y-8411214D01*
X8915786Y-8425500D01*
X8930071Y-8454072D01*
X8930071Y-8482643D01*
X8787214Y-8511214D01*
X9044357Y-8596929D02*
X9072928Y-8611214D01*
X9130071Y-8611214D01*
X9158643Y-8596929D01*
X9172928Y-8568357D01*
X9172928Y-8554072D01*
X9158643Y-8525500D01*
X9130071Y-8511214D01*
X9087214Y-8511214D01*
X9058643Y-8496929D01*
X9044357Y-8468357D01*
X9044357Y-8454072D01*
X9058643Y-8425500D01*
X9087214Y-8411214D01*
X9130071Y-8411214D01*
X9158643Y-8425500D01*
X9272928Y-8725500D02*
X9287214Y-8711214D01*
X9315786Y-8668357D01*
X9330071Y-8639786D01*
X9344357Y-8596929D01*
X9358643Y-8525500D01*
X9358643Y-8468357D01*
X9344357Y-8396929D01*
X9330071Y-8354071D01*
X9315786Y-8325500D01*
X9287214Y-8282643D01*
X9272928Y-8268357D01*
X2736589Y-8821589D02*
X2736589Y-8921411D01*
X2686678Y-8871500D02*
X2786500Y-8871500D01*
X3230071Y-9007214D02*
X3058643Y-9007214D01*
X3144357Y-9007214D02*
X3144357Y-8707214D01*
X3115786Y-8750072D01*
X3087214Y-8778643D01*
X3058643Y-8792929D01*
X3358643Y-8978643D02*
X3372928Y-8992929D01*
X3358643Y-9007214D01*
X3344357Y-8992929D01*
X3358643Y-8978643D01*
X3358643Y-9007214D01*
X3558643Y-8707214D02*
X3587214Y-8707214D01*
X3615786Y-8721500D01*
X3630071Y-8735786D01*
X3644357Y-8764357D01*
X3658643Y-8821500D01*
X3658643Y-8892929D01*
X3644357Y-8950072D01*
X3630071Y-8978643D01*
X3615786Y-8992929D01*
X3587214Y-9007214D01*
X3558643Y-9007214D01*
X3530071Y-8992929D01*
X3515786Y-8978643D01*
X3501500Y-8950072D01*
X3487214Y-8892929D01*
X3487214Y-8821500D01*
X3501500Y-8764357D01*
X3515786Y-8735786D01*
X3530071Y-8721500D01*
X3558643Y-8707214D01*
X3844357Y-8707214D02*
X3872928Y-8707214D01*
X3901500Y-8721500D01*
X3915786Y-8735786D01*
X3930071Y-8764357D01*
X3944357Y-8821500D01*
X3944357Y-8892929D01*
X3930071Y-8950072D01*
X3915786Y-8978643D01*
X3901500Y-8992929D01*
X3872928Y-9007214D01*
X3844357Y-9007214D01*
X3815786Y-8992929D01*
X3801500Y-8978643D01*
X3787214Y-8950072D01*
X3772928Y-8892929D01*
X3772928Y-8821500D01*
X3787214Y-8764357D01*
X3801500Y-8735786D01*
X3815786Y-8721500D01*
X3844357Y-8707214D01*
X4072928Y-9007214D02*
X4072928Y-8807214D01*
X4072928Y-8835786D02*
X4087214Y-8821500D01*
X4115786Y-8807214D01*
X4158643Y-8807214D01*
X4187214Y-8821500D01*
X4201500Y-8850072D01*
X4201500Y-9007214D01*
X4201500Y-8850072D02*
X4215786Y-8821500D01*
X4244357Y-8807214D01*
X4287214Y-8807214D01*
X4315786Y-8821500D01*
X4330071Y-8850072D01*
X4330071Y-9007214D01*
X4472928Y-9007214D02*
X4472928Y-8807214D01*
X4472928Y-8835786D02*
X4487214Y-8821500D01*
X4515786Y-8807214D01*
X4558643Y-8807214D01*
X4587214Y-8821500D01*
X4601500Y-8850072D01*
X4601500Y-9007214D01*
X4601500Y-8850072D02*
X4615786Y-8821500D01*
X4644357Y-8807214D01*
X4687214Y-8807214D01*
X4715786Y-8821500D01*
X4730071Y-8850072D01*
X4730071Y-9007214D01*
X5315786Y-8692929D02*
X5058643Y-9078643D01*
X5701500Y-8707214D02*
X5730071Y-8707214D01*
X5758643Y-8721500D01*
X5772928Y-8735786D01*
X5787214Y-8764357D01*
X5801500Y-8821500D01*
X5801500Y-8892929D01*
X5787214Y-8950072D01*
X5772928Y-8978643D01*
X5758643Y-8992929D01*
X5730071Y-9007214D01*
X5701500Y-9007214D01*
X5672928Y-8992929D01*
X5658643Y-8978643D01*
X5644357Y-8950072D01*
X5630071Y-8892929D01*
X5630071Y-8821500D01*
X5644357Y-8764357D01*
X5658643Y-8735786D01*
X5672928Y-8721500D01*
X5701500Y-8707214D01*
X5930071Y-8978643D02*
X5944357Y-8992929D01*
X5930071Y-9007214D01*
X5915786Y-8992929D01*
X5930071Y-8978643D01*
X5930071Y-9007214D01*
X6130071Y-8707214D02*
X6158643Y-8707214D01*
X6187214Y-8721500D01*
X6201500Y-8735786D01*
X6215786Y-8764357D01*
X6230071Y-8821500D01*
X6230071Y-8892929D01*
X6215786Y-8950072D01*
X6201500Y-8978643D01*
X6187214Y-8992929D01*
X6158643Y-9007214D01*
X6130071Y-9007214D01*
X6101500Y-8992929D01*
X6087214Y-8978643D01*
X6072928Y-8950072D01*
X6058643Y-8892929D01*
X6058643Y-8821500D01*
X6072928Y-8764357D01*
X6087214Y-8735786D01*
X6101500Y-8721500D01*
X6130071Y-8707214D01*
X6330071Y-8707214D02*
X6515786Y-8707214D01*
X6415786Y-8821500D01*
X6458643Y-8821500D01*
X6487214Y-8835786D01*
X6501500Y-8850072D01*
X6515786Y-8878643D01*
X6515786Y-8950072D01*
X6501500Y-8978643D01*
X6487214Y-8992929D01*
X6458643Y-9007214D01*
X6372928Y-9007214D01*
X6344357Y-8992929D01*
X6330071Y-8978643D01*
X6658643Y-9007214D02*
X6715786Y-9007214D01*
X6744357Y-8992929D01*
X6758643Y-8978643D01*
X6787214Y-8935786D01*
X6801500Y-8878643D01*
X6801500Y-8764357D01*
X6787214Y-8735786D01*
X6772928Y-8721500D01*
X6744357Y-8707214D01*
X6687214Y-8707214D01*
X6658643Y-8721500D01*
X6644357Y-8735786D01*
X6630071Y-8764357D01*
X6630071Y-8835786D01*
X6644357Y-8864357D01*
X6658643Y-8878643D01*
X6687214Y-8892929D01*
X6744357Y-8892929D01*
X6772928Y-8878643D01*
X6787214Y-8864357D01*
X6801500Y-8835786D01*
X6915786Y-8707214D02*
X6915786Y-8764357D01*
X7030071Y-8707214D02*
X7030071Y-8764357D01*
X7472928Y-9121500D02*
X7458643Y-9107214D01*
X7430071Y-9064357D01*
X7415786Y-9035786D01*
X7401500Y-8992929D01*
X7387214Y-8921500D01*
X7387214Y-8864357D01*
X7401500Y-8792929D01*
X7415786Y-8750072D01*
X7430071Y-8721500D01*
X7458643Y-8678643D01*
X7472928Y-8664357D01*
X7572928Y-8735786D02*
X7587214Y-8721500D01*
X7615786Y-8707214D01*
X7687214Y-8707214D01*
X7715786Y-8721500D01*
X7730071Y-8735786D01*
X7744357Y-8764357D01*
X7744357Y-8792929D01*
X7730071Y-8835786D01*
X7558643Y-9007214D01*
X7744357Y-9007214D01*
X8101500Y-9007214D02*
X8101500Y-8707214D01*
X8230071Y-9007214D02*
X8230071Y-8850072D01*
X8215786Y-8821500D01*
X8187214Y-8807214D01*
X8144357Y-8807214D01*
X8115786Y-8821500D01*
X8101500Y-8835786D01*
X8415786Y-9007214D02*
X8387214Y-8992929D01*
X8372928Y-8978643D01*
X8358643Y-8950072D01*
X8358643Y-8864357D01*
X8372928Y-8835786D01*
X8387214Y-8821500D01*
X8415786Y-8807214D01*
X8458643Y-8807214D01*
X8487214Y-8821500D01*
X8501500Y-8835786D01*
X8515786Y-8864357D01*
X8515786Y-8950072D01*
X8501500Y-8978643D01*
X8487214Y-8992929D01*
X8458643Y-9007214D01*
X8415786Y-9007214D01*
X8687214Y-9007214D02*
X8658643Y-8992929D01*
X8644357Y-8964357D01*
X8644357Y-8707214D01*
X8915786Y-8992929D02*
X8887214Y-9007214D01*
X8830071Y-9007214D01*
X8801500Y-8992929D01*
X8787214Y-8964357D01*
X8787214Y-8850072D01*
X8801500Y-8821500D01*
X8830071Y-8807214D01*
X8887214Y-8807214D01*
X8915786Y-8821500D01*
X8930071Y-8850072D01*
X8930071Y-8878643D01*
X8787214Y-8907214D01*
X9044357Y-8992929D02*
X9072928Y-9007214D01*
X9130071Y-9007214D01*
X9158643Y-8992929D01*
X9172928Y-8964357D01*
X9172928Y-8950072D01*
X9158643Y-8921500D01*
X9130071Y-8907214D01*
X9087214Y-8907214D01*
X9058643Y-8892929D01*
X9044357Y-8864357D01*
X9044357Y-8850072D01*
X9058643Y-8821500D01*
X9087214Y-8807214D01*
X9130071Y-8807214D01*
X9158643Y-8821500D01*
X9272928Y-9121500D02*
X9287214Y-9107214D01*
X9315786Y-9064357D01*
X9330071Y-9035786D01*
X9344357Y-8992929D01*
X9358643Y-8921500D01*
X9358643Y-8864357D01*
X9344357Y-8792929D01*
X9330071Y-8750072D01*
X9315786Y-8721500D01*
X9287214Y-8678643D01*
X9272928Y-8664357D01*
X2771856Y-9302856D02*
X2771856Y-9232144D01*
X2701144Y-9232144D01*
X2701144Y-9302856D01*
X2771856Y-9302856D01*
X3230071Y-9403214D02*
X3058643Y-9403214D01*
X3144357Y-9403214D02*
X3144357Y-9103214D01*
X3115786Y-9146072D01*
X3087214Y-9174643D01*
X3058643Y-9188929D01*
X3358643Y-9374643D02*
X3372928Y-9388929D01*
X3358643Y-9403214D01*
X3344357Y-9388929D01*
X3358643Y-9374643D01*
X3358643Y-9403214D01*
X3558643Y-9103214D02*
X3587214Y-9103214D01*
X3615786Y-9117500D01*
X3630071Y-9131786D01*
X3644357Y-9160357D01*
X3658643Y-9217500D01*
X3658643Y-9288929D01*
X3644357Y-9346072D01*
X3630071Y-9374643D01*
X3615786Y-9388929D01*
X3587214Y-9403214D01*
X3558643Y-9403214D01*
X3530071Y-9388929D01*
X3515786Y-9374643D01*
X3501500Y-9346072D01*
X3487214Y-9288929D01*
X3487214Y-9217500D01*
X3501500Y-9160357D01*
X3515786Y-9131786D01*
X3530071Y-9117500D01*
X3558643Y-9103214D01*
X3844357Y-9103214D02*
X3872928Y-9103214D01*
X3901500Y-9117500D01*
X3915786Y-9131786D01*
X3930071Y-9160357D01*
X3944357Y-9217500D01*
X3944357Y-9288929D01*
X3930071Y-9346072D01*
X3915786Y-9374643D01*
X3901500Y-9388929D01*
X3872928Y-9403214D01*
X3844357Y-9403214D01*
X3815786Y-9388929D01*
X3801500Y-9374643D01*
X3787214Y-9346072D01*
X3772928Y-9288929D01*
X3772928Y-9217500D01*
X3787214Y-9160357D01*
X3801500Y-9131786D01*
X3815786Y-9117500D01*
X3844357Y-9103214D01*
X4072928Y-9403214D02*
X4072928Y-9203214D01*
X4072928Y-9231786D02*
X4087214Y-9217500D01*
X4115786Y-9203214D01*
X4158643Y-9203214D01*
X4187214Y-9217500D01*
X4201500Y-9246072D01*
X4201500Y-9403214D01*
X4201500Y-9246072D02*
X4215786Y-9217500D01*
X4244357Y-9203214D01*
X4287214Y-9203214D01*
X4315786Y-9217500D01*
X4330071Y-9246072D01*
X4330071Y-9403214D01*
X4472928Y-9403214D02*
X4472928Y-9203214D01*
X4472928Y-9231786D02*
X4487214Y-9217500D01*
X4515786Y-9203214D01*
X4558643Y-9203214D01*
X4587214Y-9217500D01*
X4601500Y-9246072D01*
X4601500Y-9403214D01*
X4601500Y-9246072D02*
X4615786Y-9217500D01*
X4644357Y-9203214D01*
X4687214Y-9203214D01*
X4715786Y-9217500D01*
X4730071Y-9246072D01*
X4730071Y-9403214D01*
X5315786Y-9088929D02*
X5058643Y-9474643D01*
X5701500Y-9103214D02*
X5730071Y-9103214D01*
X5758643Y-9117500D01*
X5772928Y-9131786D01*
X5787214Y-9160357D01*
X5801500Y-9217500D01*
X5801500Y-9288929D01*
X5787214Y-9346072D01*
X5772928Y-9374643D01*
X5758643Y-9388929D01*
X5730071Y-9403214D01*
X5701500Y-9403214D01*
X5672928Y-9388929D01*
X5658643Y-9374643D01*
X5644357Y-9346072D01*
X5630071Y-9288929D01*
X5630071Y-9217500D01*
X5644357Y-9160357D01*
X5658643Y-9131786D01*
X5672928Y-9117500D01*
X5701500Y-9103214D01*
X5930071Y-9374643D02*
X5944357Y-9388929D01*
X5930071Y-9403214D01*
X5915786Y-9388929D01*
X5930071Y-9374643D01*
X5930071Y-9403214D01*
X6130071Y-9103214D02*
X6158643Y-9103214D01*
X6187214Y-9117500D01*
X6201500Y-9131786D01*
X6215786Y-9160357D01*
X6230071Y-9217500D01*
X6230071Y-9288929D01*
X6215786Y-9346072D01*
X6201500Y-9374643D01*
X6187214Y-9388929D01*
X6158643Y-9403214D01*
X6130071Y-9403214D01*
X6101500Y-9388929D01*
X6087214Y-9374643D01*
X6072928Y-9346072D01*
X6058643Y-9288929D01*
X6058643Y-9217500D01*
X6072928Y-9160357D01*
X6087214Y-9131786D01*
X6101500Y-9117500D01*
X6130071Y-9103214D01*
X6330071Y-9103214D02*
X6515786Y-9103214D01*
X6415786Y-9217500D01*
X6458643Y-9217500D01*
X6487214Y-9231786D01*
X6501500Y-9246072D01*
X6515786Y-9274643D01*
X6515786Y-9346072D01*
X6501500Y-9374643D01*
X6487214Y-9388929D01*
X6458643Y-9403214D01*
X6372928Y-9403214D01*
X6344357Y-9388929D01*
X6330071Y-9374643D01*
X6658643Y-9403214D02*
X6715786Y-9403214D01*
X6744357Y-9388929D01*
X6758643Y-9374643D01*
X6787214Y-9331786D01*
X6801500Y-9274643D01*
X6801500Y-9160357D01*
X6787214Y-9131786D01*
X6772928Y-9117500D01*
X6744357Y-9103214D01*
X6687214Y-9103214D01*
X6658643Y-9117500D01*
X6644357Y-9131786D01*
X6630071Y-9160357D01*
X6630071Y-9231786D01*
X6644357Y-9260357D01*
X6658643Y-9274643D01*
X6687214Y-9288929D01*
X6744357Y-9288929D01*
X6772928Y-9274643D01*
X6787214Y-9260357D01*
X6801500Y-9231786D01*
X6915786Y-9103214D02*
X6915786Y-9160357D01*
X7030071Y-9103214D02*
X7030071Y-9160357D01*
X7472928Y-9517500D02*
X7458643Y-9503214D01*
X7430071Y-9460357D01*
X7415786Y-9431786D01*
X7401500Y-9388929D01*
X7387214Y-9317500D01*
X7387214Y-9260357D01*
X7401500Y-9188929D01*
X7415786Y-9146072D01*
X7430071Y-9117500D01*
X7458643Y-9074643D01*
X7472928Y-9060357D01*
X7744357Y-9403214D02*
X7572928Y-9403214D01*
X7658643Y-9403214D02*
X7658643Y-9103214D01*
X7630071Y-9146072D01*
X7601500Y-9174643D01*
X7572928Y-9188929D01*
X7858643Y-9131786D02*
X7872928Y-9117500D01*
X7901500Y-9103214D01*
X7972928Y-9103214D01*
X8001500Y-9117500D01*
X8015786Y-9131786D01*
X8030071Y-9160357D01*
X8030071Y-9188929D01*
X8015786Y-9231786D01*
X7844357Y-9403214D01*
X8030071Y-9403214D01*
X8387214Y-9403214D02*
X8387214Y-9103214D01*
X8515786Y-9403214D02*
X8515786Y-9246072D01*
X8501500Y-9217500D01*
X8472928Y-9203214D01*
X8430071Y-9203214D01*
X8401500Y-9217500D01*
X8387214Y-9231786D01*
X8701500Y-9403214D02*
X8672928Y-9388929D01*
X8658643Y-9374643D01*
X8644357Y-9346072D01*
X8644357Y-9260357D01*
X8658643Y-9231786D01*
X8672928Y-9217500D01*
X8701500Y-9203214D01*
X8744357Y-9203214D01*
X8772928Y-9217500D01*
X8787214Y-9231786D01*
X8801500Y-9260357D01*
X8801500Y-9346072D01*
X8787214Y-9374643D01*
X8772928Y-9388929D01*
X8744357Y-9403214D01*
X8701500Y-9403214D01*
X8972928Y-9403214D02*
X8944357Y-9388929D01*
X8930071Y-9360357D01*
X8930071Y-9103214D01*
X9201500Y-9388929D02*
X9172928Y-9403214D01*
X9115786Y-9403214D01*
X9087214Y-9388929D01*
X9072928Y-9360357D01*
X9072928Y-9246072D01*
X9087214Y-9217500D01*
X9115786Y-9203214D01*
X9172928Y-9203214D01*
X9201500Y-9217500D01*
X9215786Y-9246072D01*
X9215786Y-9274643D01*
X9072928Y-9303214D01*
X9330071Y-9388929D02*
X9358643Y-9403214D01*
X9415786Y-9403214D01*
X9444357Y-9388929D01*
X9458643Y-9360357D01*
X9458643Y-9346072D01*
X9444357Y-9317500D01*
X9415786Y-9303214D01*
X9372928Y-9303214D01*
X9344357Y-9288929D01*
X9330071Y-9260357D01*
X9330071Y-9246072D01*
X9344357Y-9217500D01*
X9372928Y-9203214D01*
X9415786Y-9203214D01*
X9444357Y-9217500D01*
X9558643Y-9517500D02*
X9572928Y-9503214D01*
X9601500Y-9460357D01*
X9615786Y-9431786D01*
X9630071Y-9388929D01*
X9644357Y-9317500D01*
X9644357Y-9260357D01*
X9630071Y-9188929D01*
X9615786Y-9146072D01*
X9601500Y-9117500D01*
X9572928Y-9074643D01*
X9558643Y-9060357D01*
M02*
