M48
;DRILL file {KiCad 5.0.1} date Sat 17 Nov 2018 00:43:47 AEDT
;FORMAT={-:-/ absolute / metric / decimal}
FMAT,2
METRIC,TZ
T1C0.400
T2C0.508
T3C0.998
T4C1.000
%
G90
G05
M71
T1
X35.306Y-46.736
X37.846Y-63.373
X38.1Y-31.75
X38.1Y-33.02
X38.1Y-58.42
X39.37Y-58.42
X40.386Y-46.482
X40.386Y-50.038
X40.386Y-63.754
X40.513Y-55.898
X40.894Y-37.846
X42.926Y-54.61
T2
X47.125Y-50.041
X47.125Y-56.639
T3
X45.72Y-41.432
X45.72Y-44.928
T4
X30.48Y-30.48
X30.48Y-33.02
X30.48Y-35.56
X30.48Y-38.1
X30.48Y-45.212
X30.48Y-47.752
X30.48Y-50.292
X30.48Y-52.832
X30.48Y-59.69
X30.48Y-62.23
X30.48Y-64.77
X30.48Y-67.31
T0
M30
