G04 #@! TF.GenerationSoftware,KiCad,Pcbnew,5.0.1*
G04 #@! TF.CreationDate,2018-11-17T00:42:23+11:00*
G04 #@! TF.ProjectId,grove-level-shifter,67726F76652D6C6576656C2D73686966,rev?*
G04 #@! TF.SameCoordinates,Original*
G04 #@! TF.FileFunction,Soldermask,Top*
G04 #@! TF.FilePolarity,Negative*
%FSLAX46Y46*%
G04 Gerber Fmt 4.6, Leading zero omitted, Abs format (unit mm)*
G04 Created by KiCad (PCBNEW 5.0.1) date Sat 17 Nov 2018 00:42:23 AEDT*
%MOMM*%
%LPD*%
G01*
G04 APERTURE LIST*
%ADD10C,0.050000*%
G04 APERTURE END LIST*
D10*
G36*
X46837800Y-69909890D02*
X45237200Y-69909890D01*
X45237200Y-66808150D01*
X46837800Y-66808150D01*
X46837800Y-69909890D01*
X46837800Y-69909890D01*
G37*
G36*
X36042800Y-69909890D02*
X34442200Y-69909890D01*
X34442200Y-66808150D01*
X36042800Y-66808150D01*
X36042800Y-69909890D01*
X36042800Y-69909890D01*
G37*
G36*
X31381000Y-68211000D02*
X29579000Y-68211000D01*
X29579000Y-66409000D01*
X31381000Y-66409000D01*
X31381000Y-68211000D01*
X31381000Y-68211000D01*
G37*
G36*
X30590442Y-63875518D02*
X30656627Y-63882037D01*
X30769853Y-63916384D01*
X30826467Y-63933557D01*
X30965087Y-64007652D01*
X30982991Y-64017222D01*
X31018729Y-64046552D01*
X31120186Y-64129814D01*
X31203448Y-64231271D01*
X31232778Y-64267009D01*
X31232779Y-64267011D01*
X31316443Y-64423533D01*
X31316443Y-64423534D01*
X31367963Y-64593373D01*
X31385359Y-64770000D01*
X31367963Y-64946627D01*
X31333616Y-65059853D01*
X31316443Y-65116467D01*
X31242348Y-65255087D01*
X31232778Y-65272991D01*
X31203448Y-65308729D01*
X31120186Y-65410186D01*
X31018729Y-65493448D01*
X30982991Y-65522778D01*
X30982989Y-65522779D01*
X30826467Y-65606443D01*
X30769853Y-65623616D01*
X30656627Y-65657963D01*
X30590442Y-65664482D01*
X30524260Y-65671000D01*
X30435740Y-65671000D01*
X30369558Y-65664482D01*
X30303373Y-65657963D01*
X30190147Y-65623616D01*
X30133533Y-65606443D01*
X29977011Y-65522779D01*
X29977009Y-65522778D01*
X29941271Y-65493448D01*
X29839814Y-65410186D01*
X29756552Y-65308729D01*
X29727222Y-65272991D01*
X29717652Y-65255087D01*
X29643557Y-65116467D01*
X29626384Y-65059853D01*
X29592037Y-64946627D01*
X29574641Y-64770000D01*
X29592037Y-64593373D01*
X29643557Y-64423534D01*
X29643557Y-64423533D01*
X29727221Y-64267011D01*
X29727222Y-64267009D01*
X29756552Y-64231271D01*
X29839814Y-64129814D01*
X29941271Y-64046552D01*
X29977009Y-64017222D01*
X29994913Y-64007652D01*
X30133533Y-63933557D01*
X30190147Y-63916384D01*
X30303373Y-63882037D01*
X30369558Y-63875518D01*
X30435740Y-63869000D01*
X30524260Y-63869000D01*
X30590442Y-63875518D01*
X30590442Y-63875518D01*
G37*
G36*
X30590443Y-61335519D02*
X30656627Y-61342037D01*
X30769853Y-61376384D01*
X30826467Y-61393557D01*
X30965087Y-61467652D01*
X30982991Y-61477222D01*
X31018729Y-61506552D01*
X31120186Y-61589814D01*
X31203448Y-61691271D01*
X31232778Y-61727009D01*
X31232779Y-61727011D01*
X31316443Y-61883533D01*
X31316443Y-61883534D01*
X31367963Y-62053373D01*
X31385359Y-62230000D01*
X31367963Y-62406627D01*
X31333616Y-62519853D01*
X31316443Y-62576467D01*
X31242348Y-62715087D01*
X31232778Y-62732991D01*
X31203448Y-62768729D01*
X31120186Y-62870186D01*
X31018729Y-62953448D01*
X30982991Y-62982778D01*
X30982989Y-62982779D01*
X30826467Y-63066443D01*
X30769853Y-63083616D01*
X30656627Y-63117963D01*
X30590443Y-63124481D01*
X30524260Y-63131000D01*
X30435740Y-63131000D01*
X30369557Y-63124481D01*
X30303373Y-63117963D01*
X30190147Y-63083616D01*
X30133533Y-63066443D01*
X29977011Y-62982779D01*
X29977009Y-62982778D01*
X29941271Y-62953448D01*
X29839814Y-62870186D01*
X29756552Y-62768729D01*
X29727222Y-62732991D01*
X29717652Y-62715087D01*
X29643557Y-62576467D01*
X29626384Y-62519853D01*
X29592037Y-62406627D01*
X29574641Y-62230000D01*
X29592037Y-62053373D01*
X29643557Y-61883534D01*
X29643557Y-61883533D01*
X29727221Y-61727011D01*
X29727222Y-61727009D01*
X29756552Y-61691271D01*
X29839814Y-61589814D01*
X29941271Y-61506552D01*
X29977009Y-61477222D01*
X29994913Y-61467652D01*
X30133533Y-61393557D01*
X30190147Y-61376384D01*
X30303373Y-61342037D01*
X30369557Y-61335519D01*
X30435740Y-61329000D01*
X30524260Y-61329000D01*
X30590443Y-61335519D01*
X30590443Y-61335519D01*
G37*
G36*
X44194930Y-62281000D02*
X43084550Y-62281000D01*
X43084550Y-59440880D01*
X44194930Y-59440880D01*
X44194930Y-62281000D01*
X44194930Y-62281000D01*
G37*
G36*
X42193410Y-62281000D02*
X41083030Y-62281000D01*
X41083030Y-59440880D01*
X42193410Y-59440880D01*
X42193410Y-62281000D01*
X42193410Y-62281000D01*
G37*
G36*
X40196970Y-62281000D02*
X39086590Y-62281000D01*
X39086590Y-59440880D01*
X40196970Y-59440880D01*
X40196970Y-62281000D01*
X40196970Y-62281000D01*
G37*
G36*
X38195450Y-62281000D02*
X37085070Y-62281000D01*
X37085070Y-59440880D01*
X38195450Y-59440880D01*
X38195450Y-62281000D01*
X38195450Y-62281000D01*
G37*
G36*
X30590442Y-58795518D02*
X30656627Y-58802037D01*
X30769853Y-58836384D01*
X30826467Y-58853557D01*
X30965087Y-58927652D01*
X30982991Y-58937222D01*
X31018729Y-58966552D01*
X31120186Y-59049814D01*
X31203448Y-59151271D01*
X31232778Y-59187009D01*
X31232779Y-59187011D01*
X31316443Y-59343533D01*
X31316443Y-59343534D01*
X31367963Y-59513373D01*
X31385359Y-59690000D01*
X31367963Y-59866627D01*
X31333616Y-59979853D01*
X31316443Y-60036467D01*
X31242348Y-60175087D01*
X31232778Y-60192991D01*
X31203448Y-60228729D01*
X31120186Y-60330186D01*
X31018729Y-60413448D01*
X30982991Y-60442778D01*
X30982989Y-60442779D01*
X30826467Y-60526443D01*
X30769853Y-60543616D01*
X30656627Y-60577963D01*
X30590443Y-60584481D01*
X30524260Y-60591000D01*
X30435740Y-60591000D01*
X30369557Y-60584481D01*
X30303373Y-60577963D01*
X30190147Y-60543616D01*
X30133533Y-60526443D01*
X29977011Y-60442779D01*
X29977009Y-60442778D01*
X29941271Y-60413448D01*
X29839814Y-60330186D01*
X29756552Y-60228729D01*
X29727222Y-60192991D01*
X29717652Y-60175087D01*
X29643557Y-60036467D01*
X29626384Y-59979853D01*
X29592037Y-59866627D01*
X29574641Y-59690000D01*
X29592037Y-59513373D01*
X29643557Y-59343534D01*
X29643557Y-59343533D01*
X29727221Y-59187011D01*
X29727222Y-59187009D01*
X29756552Y-59151271D01*
X29839814Y-59049814D01*
X29941271Y-58966552D01*
X29977009Y-58937222D01*
X29994913Y-58927652D01*
X30133533Y-58853557D01*
X30190147Y-58836384D01*
X30303373Y-58802037D01*
X30369558Y-58795518D01*
X30435740Y-58789000D01*
X30524260Y-58789000D01*
X30590442Y-58795518D01*
X30590442Y-58795518D01*
G37*
G36*
X45023898Y-55899553D02*
X45165417Y-55942483D01*
X45295844Y-56012197D01*
X45410163Y-56106017D01*
X45503983Y-56220336D01*
X45573697Y-56350763D01*
X45616627Y-56492283D01*
X45627490Y-56602582D01*
X45627490Y-56874459D01*
X45616627Y-56984758D01*
X45573697Y-57126277D01*
X45503983Y-57256704D01*
X45410166Y-57371020D01*
X45410164Y-57371021D01*
X45410163Y-57371023D01*
X45410159Y-57371026D01*
X45295839Y-57464845D01*
X45165416Y-57534557D01*
X45023897Y-57577487D01*
X44876720Y-57591982D01*
X44729542Y-57577487D01*
X44588023Y-57534557D01*
X44457596Y-57464843D01*
X44343280Y-57371026D01*
X44343279Y-57371024D01*
X44343277Y-57371023D01*
X44296367Y-57313862D01*
X44249455Y-57256699D01*
X44179743Y-57126276D01*
X44136813Y-56984757D01*
X44125950Y-56874458D01*
X44125950Y-56602581D01*
X44136813Y-56492282D01*
X44179743Y-56350763D01*
X44249457Y-56220336D01*
X44343274Y-56106020D01*
X44343276Y-56106019D01*
X44343277Y-56106017D01*
X44400437Y-56059108D01*
X44457601Y-56012195D01*
X44588024Y-55942483D01*
X44729543Y-55899553D01*
X44876720Y-55885058D01*
X45023898Y-55899553D01*
X45023898Y-55899553D01*
G37*
G36*
X47742200Y-56088548D02*
X47742203Y-56088549D01*
X47847575Y-56120513D01*
X47944686Y-56172420D01*
X48029805Y-56242275D01*
X48099660Y-56327394D01*
X48144863Y-56411963D01*
X48151566Y-56424503D01*
X48183532Y-56529880D01*
X48194324Y-56639460D01*
X48183532Y-56749040D01*
X48183531Y-56749043D01*
X48151567Y-56854415D01*
X48099660Y-56951526D01*
X48029805Y-57036645D01*
X47944686Y-57106500D01*
X47847575Y-57158407D01*
X47761817Y-57184421D01*
X47742200Y-57190372D01*
X47660078Y-57198460D01*
X46589162Y-57198460D01*
X46507040Y-57190372D01*
X46487423Y-57184421D01*
X46401665Y-57158407D01*
X46304554Y-57106500D01*
X46219435Y-57036645D01*
X46149580Y-56951526D01*
X46097673Y-56854415D01*
X46065709Y-56749043D01*
X46065708Y-56749040D01*
X46054916Y-56639460D01*
X46065708Y-56529880D01*
X46097674Y-56424503D01*
X46104377Y-56411963D01*
X46149580Y-56327394D01*
X46219435Y-56242275D01*
X46304554Y-56172420D01*
X46401665Y-56120513D01*
X46507037Y-56088549D01*
X46507040Y-56088548D01*
X46589162Y-56080460D01*
X47660078Y-56080460D01*
X47742200Y-56088548D01*
X47742200Y-56088548D01*
G37*
G36*
X47416588Y-53576386D02*
X47598751Y-53651840D01*
X47762698Y-53761386D01*
X47902114Y-53900802D01*
X48011660Y-54064749D01*
X48087114Y-54246912D01*
X48125580Y-54440293D01*
X48125580Y-54637467D01*
X48087114Y-54830848D01*
X48011660Y-55013011D01*
X47902114Y-55176958D01*
X47762698Y-55316374D01*
X47598751Y-55425920D01*
X47416588Y-55501374D01*
X47223207Y-55539840D01*
X47026033Y-55539840D01*
X46832652Y-55501374D01*
X46650489Y-55425920D01*
X46486542Y-55316374D01*
X46347126Y-55176958D01*
X46237580Y-55013011D01*
X46162126Y-54830848D01*
X46123660Y-54637467D01*
X46123660Y-54440293D01*
X46162126Y-54246912D01*
X46237580Y-54064749D01*
X46347126Y-53900802D01*
X46486542Y-53761386D01*
X46650489Y-53651840D01*
X46832652Y-53576386D01*
X47026033Y-53537920D01*
X47223207Y-53537920D01*
X47416588Y-53576386D01*
X47416588Y-53576386D01*
G37*
G36*
X45273390Y-51792878D02*
X45297915Y-51795293D01*
X45345114Y-51809611D01*
X45388612Y-51832861D01*
X45426739Y-51864151D01*
X45458029Y-51902278D01*
X45481279Y-51945776D01*
X45495597Y-51992975D01*
X45500431Y-52042060D01*
X45495597Y-52091145D01*
X45481279Y-52138344D01*
X45458029Y-52181842D01*
X45426739Y-52219969D01*
X45388612Y-52251259D01*
X45377981Y-52256941D01*
X45357608Y-52270554D01*
X45340281Y-52287881D01*
X45326667Y-52308255D01*
X45317290Y-52330894D01*
X45312509Y-52354928D01*
X45312509Y-52379432D01*
X45317289Y-52403465D01*
X45326667Y-52426104D01*
X45340281Y-52446479D01*
X45357608Y-52463806D01*
X45377981Y-52477419D01*
X45388612Y-52483101D01*
X45426739Y-52514391D01*
X45458029Y-52552518D01*
X45481279Y-52596016D01*
X45495597Y-52643215D01*
X45500431Y-52692300D01*
X45495597Y-52741385D01*
X45481279Y-52788584D01*
X45458029Y-52832082D01*
X45426739Y-52870209D01*
X45388612Y-52901499D01*
X45380357Y-52905911D01*
X45359984Y-52919524D01*
X45342657Y-52936851D01*
X45329043Y-52957225D01*
X45319666Y-52979864D01*
X45314885Y-53003898D01*
X45314885Y-53028402D01*
X45319665Y-53052435D01*
X45329043Y-53075074D01*
X45342657Y-53095449D01*
X45359984Y-53112776D01*
X45380357Y-53126389D01*
X45388612Y-53130801D01*
X45426739Y-53162091D01*
X45458029Y-53200218D01*
X45481279Y-53243716D01*
X45495597Y-53290915D01*
X45500431Y-53340000D01*
X45495597Y-53389085D01*
X45481279Y-53436284D01*
X45458029Y-53479782D01*
X45426739Y-53517909D01*
X45388612Y-53549199D01*
X45380357Y-53553611D01*
X45359984Y-53567224D01*
X45342657Y-53584551D01*
X45329043Y-53604925D01*
X45319666Y-53627564D01*
X45314885Y-53651598D01*
X45314885Y-53676102D01*
X45319665Y-53700135D01*
X45329043Y-53722774D01*
X45342657Y-53743149D01*
X45359984Y-53760476D01*
X45380357Y-53774089D01*
X45388612Y-53778501D01*
X45426739Y-53809791D01*
X45458029Y-53847918D01*
X45481279Y-53891416D01*
X45495597Y-53938615D01*
X45500431Y-53987700D01*
X45495597Y-54036785D01*
X45481279Y-54083984D01*
X45458029Y-54127482D01*
X45426739Y-54165609D01*
X45388612Y-54196899D01*
X45377981Y-54202581D01*
X45357608Y-54216194D01*
X45340281Y-54233521D01*
X45326667Y-54253895D01*
X45317290Y-54276534D01*
X45312509Y-54300568D01*
X45312509Y-54325072D01*
X45317289Y-54349105D01*
X45326667Y-54371744D01*
X45340281Y-54392119D01*
X45357608Y-54409446D01*
X45377981Y-54423059D01*
X45388612Y-54428741D01*
X45426739Y-54460031D01*
X45458029Y-54498158D01*
X45481279Y-54541656D01*
X45495597Y-54588855D01*
X45500431Y-54637940D01*
X45495597Y-54687025D01*
X45481279Y-54734224D01*
X45458029Y-54777722D01*
X45426739Y-54815849D01*
X45388612Y-54847139D01*
X45345114Y-54870389D01*
X45297915Y-54884707D01*
X45273390Y-54887122D01*
X45261128Y-54888330D01*
X44136712Y-54888330D01*
X44124450Y-54887122D01*
X44099925Y-54884707D01*
X44052726Y-54870389D01*
X44009228Y-54847139D01*
X43971101Y-54815849D01*
X43939811Y-54777722D01*
X43916561Y-54734224D01*
X43902243Y-54687025D01*
X43897409Y-54637940D01*
X43902243Y-54588855D01*
X43916561Y-54541656D01*
X43939811Y-54498158D01*
X43971101Y-54460031D01*
X44009228Y-54428741D01*
X44019859Y-54423059D01*
X44040232Y-54409446D01*
X44057559Y-54392119D01*
X44071173Y-54371745D01*
X44080550Y-54349106D01*
X44085331Y-54325072D01*
X44085331Y-54300568D01*
X44080551Y-54276535D01*
X44071173Y-54253896D01*
X44057559Y-54233521D01*
X44040232Y-54216194D01*
X44019859Y-54202581D01*
X44009228Y-54196899D01*
X43971101Y-54165609D01*
X43939811Y-54127482D01*
X43916561Y-54083984D01*
X43902243Y-54036785D01*
X43897409Y-53987700D01*
X43902243Y-53938615D01*
X43916561Y-53891416D01*
X43939811Y-53847918D01*
X43971101Y-53809791D01*
X44009228Y-53778501D01*
X44017483Y-53774089D01*
X44037856Y-53760476D01*
X44055183Y-53743149D01*
X44068797Y-53722775D01*
X44078174Y-53700136D01*
X44082955Y-53676102D01*
X44082955Y-53651598D01*
X44078175Y-53627565D01*
X44068797Y-53604926D01*
X44055183Y-53584551D01*
X44037856Y-53567224D01*
X44017483Y-53553611D01*
X44009228Y-53549199D01*
X43971101Y-53517909D01*
X43939811Y-53479782D01*
X43916561Y-53436284D01*
X43902243Y-53389085D01*
X43897409Y-53340000D01*
X43902243Y-53290915D01*
X43916561Y-53243716D01*
X43939811Y-53200218D01*
X43971101Y-53162091D01*
X44009228Y-53130801D01*
X44017483Y-53126389D01*
X44037856Y-53112776D01*
X44055183Y-53095449D01*
X44068797Y-53075075D01*
X44078174Y-53052436D01*
X44082955Y-53028402D01*
X44082955Y-53003898D01*
X44078175Y-52979865D01*
X44068797Y-52957226D01*
X44055183Y-52936851D01*
X44037856Y-52919524D01*
X44017483Y-52905911D01*
X44009228Y-52901499D01*
X43971101Y-52870209D01*
X43939811Y-52832082D01*
X43916561Y-52788584D01*
X43902243Y-52741385D01*
X43897409Y-52692300D01*
X43902243Y-52643215D01*
X43916561Y-52596016D01*
X43939811Y-52552518D01*
X43971101Y-52514391D01*
X44009228Y-52483101D01*
X44019859Y-52477419D01*
X44040232Y-52463806D01*
X44057559Y-52446479D01*
X44071173Y-52426105D01*
X44080550Y-52403466D01*
X44085331Y-52379432D01*
X44085331Y-52354928D01*
X44080551Y-52330895D01*
X44071173Y-52308256D01*
X44057559Y-52287881D01*
X44040232Y-52270554D01*
X44019859Y-52256941D01*
X44009228Y-52251259D01*
X43971101Y-52219969D01*
X43939811Y-52181842D01*
X43916561Y-52138344D01*
X43902243Y-52091145D01*
X43897409Y-52042060D01*
X43902243Y-51992975D01*
X43916561Y-51945776D01*
X43939811Y-51902278D01*
X43971101Y-51864151D01*
X44009228Y-51832861D01*
X44052726Y-51809611D01*
X44099925Y-51795293D01*
X44124450Y-51792878D01*
X44136712Y-51791670D01*
X45261128Y-51791670D01*
X45273390Y-51792878D01*
X45273390Y-51792878D01*
G37*
G36*
X31381000Y-53733000D02*
X29579000Y-53733000D01*
X29579000Y-51931000D01*
X31381000Y-51931000D01*
X31381000Y-53733000D01*
X31381000Y-53733000D01*
G37*
G36*
X47416588Y-51178626D02*
X47598751Y-51254080D01*
X47762698Y-51363626D01*
X47902114Y-51503042D01*
X48011660Y-51666989D01*
X48087114Y-51849152D01*
X48125580Y-52042533D01*
X48125580Y-52239707D01*
X48087114Y-52433088D01*
X48011660Y-52615251D01*
X47902114Y-52779198D01*
X47762698Y-52918614D01*
X47598751Y-53028160D01*
X47416588Y-53103614D01*
X47223207Y-53142080D01*
X47026033Y-53142080D01*
X46832652Y-53103614D01*
X46650489Y-53028160D01*
X46486542Y-52918614D01*
X46347126Y-52779198D01*
X46237580Y-52615251D01*
X46162126Y-52433088D01*
X46123660Y-52239707D01*
X46123660Y-52042533D01*
X46162126Y-51849152D01*
X46237580Y-51666989D01*
X46347126Y-51503042D01*
X46486542Y-51363626D01*
X46650489Y-51254080D01*
X46832652Y-51178626D01*
X47026033Y-51140160D01*
X47223207Y-51140160D01*
X47416588Y-51178626D01*
X47416588Y-51178626D01*
G37*
G36*
X41248530Y-52123540D02*
X34966710Y-52123540D01*
X34966710Y-50522940D01*
X41248530Y-50522940D01*
X41248530Y-52123540D01*
X41248530Y-52123540D01*
G37*
G36*
X30590442Y-49397518D02*
X30656627Y-49404037D01*
X30769853Y-49438384D01*
X30826467Y-49455557D01*
X30890208Y-49489628D01*
X30982991Y-49539222D01*
X31018729Y-49568552D01*
X31120186Y-49651814D01*
X31183097Y-49728473D01*
X31232778Y-49789009D01*
X31232779Y-49789011D01*
X31316443Y-49945533D01*
X31316443Y-49945534D01*
X31367963Y-50115373D01*
X31385359Y-50292000D01*
X31367963Y-50468627D01*
X31351487Y-50522940D01*
X31316443Y-50638467D01*
X31300762Y-50667803D01*
X31232778Y-50794991D01*
X31203448Y-50830729D01*
X31120186Y-50932186D01*
X31018729Y-51015448D01*
X30982991Y-51044778D01*
X30982989Y-51044779D01*
X30826467Y-51128443D01*
X30787840Y-51140160D01*
X30656627Y-51179963D01*
X30590443Y-51186481D01*
X30524260Y-51193000D01*
X30435740Y-51193000D01*
X30369558Y-51186482D01*
X30303373Y-51179963D01*
X30172160Y-51140160D01*
X30133533Y-51128443D01*
X29977011Y-51044779D01*
X29977009Y-51044778D01*
X29941271Y-51015448D01*
X29839814Y-50932186D01*
X29756552Y-50830729D01*
X29727222Y-50794991D01*
X29659238Y-50667803D01*
X29643557Y-50638467D01*
X29608513Y-50522940D01*
X29592037Y-50468627D01*
X29574641Y-50292000D01*
X29592037Y-50115373D01*
X29643557Y-49945534D01*
X29643557Y-49945533D01*
X29727221Y-49789011D01*
X29727222Y-49789009D01*
X29776903Y-49728473D01*
X29839814Y-49651814D01*
X29941271Y-49568552D01*
X29977009Y-49539222D01*
X30069792Y-49489628D01*
X30133533Y-49455557D01*
X30190147Y-49438384D01*
X30303373Y-49404037D01*
X30369558Y-49397518D01*
X30435740Y-49391000D01*
X30524260Y-49391000D01*
X30590442Y-49397518D01*
X30590442Y-49397518D01*
G37*
G36*
X45023898Y-49102513D02*
X45165417Y-49145443D01*
X45295844Y-49215157D01*
X45410163Y-49308977D01*
X45503983Y-49423296D01*
X45573697Y-49553723D01*
X45616627Y-49695243D01*
X45627490Y-49805542D01*
X45627490Y-50077419D01*
X45616627Y-50187718D01*
X45573697Y-50329237D01*
X45503983Y-50459664D01*
X45410166Y-50573980D01*
X45410164Y-50573981D01*
X45410163Y-50573983D01*
X45379021Y-50599540D01*
X45295839Y-50667805D01*
X45165416Y-50737517D01*
X45023897Y-50780447D01*
X44876720Y-50794942D01*
X44729542Y-50780447D01*
X44588023Y-50737517D01*
X44457596Y-50667803D01*
X44343280Y-50573986D01*
X44343279Y-50573984D01*
X44343277Y-50573983D01*
X44296367Y-50516822D01*
X44249455Y-50459659D01*
X44179743Y-50329236D01*
X44136813Y-50187717D01*
X44125950Y-50077418D01*
X44125950Y-49805541D01*
X44136813Y-49695242D01*
X44179743Y-49553723D01*
X44249457Y-49423296D01*
X44343274Y-49308980D01*
X44343276Y-49308979D01*
X44343277Y-49308977D01*
X44400437Y-49262068D01*
X44457601Y-49215155D01*
X44588024Y-49145443D01*
X44729543Y-49102513D01*
X44876720Y-49088018D01*
X45023898Y-49102513D01*
X45023898Y-49102513D01*
G37*
G36*
X47742200Y-49489628D02*
X47742203Y-49489629D01*
X47847575Y-49521593D01*
X47944686Y-49573500D01*
X47944688Y-49573501D01*
X47944687Y-49573501D01*
X48029805Y-49643355D01*
X48099659Y-49728473D01*
X48151566Y-49825583D01*
X48183532Y-49930960D01*
X48194324Y-50040540D01*
X48183532Y-50150120D01*
X48183531Y-50150123D01*
X48151567Y-50255495D01*
X48099660Y-50352606D01*
X48029805Y-50437725D01*
X47944686Y-50507580D01*
X47847575Y-50559487D01*
X47761817Y-50585501D01*
X47742200Y-50591452D01*
X47660078Y-50599540D01*
X46589162Y-50599540D01*
X46507040Y-50591452D01*
X46487423Y-50585501D01*
X46401665Y-50559487D01*
X46304554Y-50507580D01*
X46219435Y-50437725D01*
X46149580Y-50352606D01*
X46097673Y-50255495D01*
X46065709Y-50150123D01*
X46065708Y-50150120D01*
X46054916Y-50040540D01*
X46065708Y-49930960D01*
X46097674Y-49825583D01*
X46149581Y-49728473D01*
X46219435Y-49643355D01*
X46304553Y-49573501D01*
X46304552Y-49573501D01*
X46304554Y-49573500D01*
X46401665Y-49521593D01*
X46507037Y-49489629D01*
X46507040Y-49489628D01*
X46589162Y-49481540D01*
X47660078Y-49481540D01*
X47742200Y-49489628D01*
X47742200Y-49489628D01*
G37*
G36*
X30590442Y-46857518D02*
X30656627Y-46864037D01*
X30769853Y-46898384D01*
X30826467Y-46915557D01*
X30965087Y-46989652D01*
X30982991Y-46999222D01*
X31018729Y-47028552D01*
X31120186Y-47111814D01*
X31203448Y-47213271D01*
X31232778Y-47249009D01*
X31232779Y-47249011D01*
X31316443Y-47405533D01*
X31316443Y-47405534D01*
X31367963Y-47575373D01*
X31385359Y-47752000D01*
X31367963Y-47928627D01*
X31333616Y-48041853D01*
X31316443Y-48098467D01*
X31242348Y-48237087D01*
X31232778Y-48254991D01*
X31203448Y-48290729D01*
X31120186Y-48392186D01*
X31018729Y-48475448D01*
X30982991Y-48504778D01*
X30982989Y-48504779D01*
X30826467Y-48588443D01*
X30769853Y-48605616D01*
X30656627Y-48639963D01*
X30590443Y-48646481D01*
X30524260Y-48653000D01*
X30435740Y-48653000D01*
X30369557Y-48646481D01*
X30303373Y-48639963D01*
X30190147Y-48605616D01*
X30133533Y-48588443D01*
X29977011Y-48504779D01*
X29977009Y-48504778D01*
X29941271Y-48475448D01*
X29839814Y-48392186D01*
X29756552Y-48290729D01*
X29727222Y-48254991D01*
X29717652Y-48237087D01*
X29643557Y-48098467D01*
X29626384Y-48041853D01*
X29592037Y-47928627D01*
X29574641Y-47752000D01*
X29592037Y-47575373D01*
X29643557Y-47405534D01*
X29643557Y-47405533D01*
X29727221Y-47249011D01*
X29727222Y-47249009D01*
X29756552Y-47213271D01*
X29839814Y-47111814D01*
X29941271Y-47028552D01*
X29977009Y-46999222D01*
X29994913Y-46989652D01*
X30133533Y-46915557D01*
X30190147Y-46898384D01*
X30303373Y-46864037D01*
X30369558Y-46857518D01*
X30435740Y-46851000D01*
X30524260Y-46851000D01*
X30590442Y-46857518D01*
X30590442Y-46857518D01*
G37*
G36*
X30590443Y-44317519D02*
X30656627Y-44324037D01*
X30769853Y-44358384D01*
X30826467Y-44375557D01*
X30965087Y-44449652D01*
X30982991Y-44459222D01*
X31018729Y-44488552D01*
X31120186Y-44571814D01*
X31203448Y-44673271D01*
X31232778Y-44709009D01*
X31232779Y-44709011D01*
X31316443Y-44865533D01*
X31316443Y-44865534D01*
X31367963Y-45035373D01*
X31385359Y-45212000D01*
X31367963Y-45388627D01*
X31333616Y-45501853D01*
X31316443Y-45558467D01*
X31242348Y-45697087D01*
X31232778Y-45714991D01*
X31203448Y-45750729D01*
X31120186Y-45852186D01*
X31018729Y-45935448D01*
X30982991Y-45964778D01*
X30982989Y-45964779D01*
X30826467Y-46048443D01*
X30769853Y-46065616D01*
X30656627Y-46099963D01*
X30590442Y-46106482D01*
X30524260Y-46113000D01*
X30435740Y-46113000D01*
X30369558Y-46106482D01*
X30303373Y-46099963D01*
X30190147Y-46065616D01*
X30133533Y-46048443D01*
X29977011Y-45964779D01*
X29977009Y-45964778D01*
X29941271Y-45935448D01*
X29839814Y-45852186D01*
X29756552Y-45750729D01*
X29727222Y-45714991D01*
X29717652Y-45697087D01*
X29643557Y-45558467D01*
X29626384Y-45501853D01*
X29592037Y-45388627D01*
X29574641Y-45212000D01*
X29592037Y-45035373D01*
X29643557Y-44865534D01*
X29643557Y-44865533D01*
X29727221Y-44709011D01*
X29727222Y-44709009D01*
X29756552Y-44673271D01*
X29839814Y-44571814D01*
X29941271Y-44488552D01*
X29977009Y-44459222D01*
X29994913Y-44449652D01*
X30133533Y-44375557D01*
X30190147Y-44358384D01*
X30303373Y-44324037D01*
X30369557Y-44317519D01*
X30435740Y-44311000D01*
X30524260Y-44311000D01*
X30590443Y-44317519D01*
X30590443Y-44317519D01*
G37*
G36*
X41248530Y-45997060D02*
X34951470Y-45997060D01*
X34951470Y-44396460D01*
X41248530Y-44396460D01*
X41248530Y-45997060D01*
X41248530Y-45997060D01*
G37*
G36*
X46695560Y-45903080D02*
X44744440Y-45903080D01*
X44744440Y-43951960D01*
X46695560Y-43951960D01*
X46695560Y-45903080D01*
X46695560Y-45903080D01*
G37*
G36*
X46004557Y-40494410D02*
X46004559Y-40494411D01*
X46004560Y-40494411D01*
X46182101Y-40567950D01*
X46182102Y-40567951D01*
X46341886Y-40674715D01*
X46477765Y-40810594D01*
X46477767Y-40810597D01*
X46584530Y-40970379D01*
X46658069Y-41147920D01*
X46695560Y-41336396D01*
X46695560Y-41528564D01*
X46658069Y-41717040D01*
X46584530Y-41894581D01*
X46584529Y-41894582D01*
X46477765Y-42054366D01*
X46341886Y-42190245D01*
X46341883Y-42190247D01*
X46182101Y-42297010D01*
X46004560Y-42370549D01*
X46004559Y-42370549D01*
X46004557Y-42370550D01*
X45816086Y-42408040D01*
X45623914Y-42408040D01*
X45435443Y-42370550D01*
X45435441Y-42370549D01*
X45435440Y-42370549D01*
X45257899Y-42297010D01*
X45098117Y-42190247D01*
X45098114Y-42190245D01*
X44962235Y-42054366D01*
X44855471Y-41894582D01*
X44855470Y-41894581D01*
X44781931Y-41717040D01*
X44744440Y-41528564D01*
X44744440Y-41336396D01*
X44781931Y-41147920D01*
X44855470Y-40970379D01*
X44962233Y-40810597D01*
X44962235Y-40810594D01*
X45098114Y-40674715D01*
X45257898Y-40567951D01*
X45257899Y-40567950D01*
X45435440Y-40494411D01*
X45435441Y-40494411D01*
X45435443Y-40494410D01*
X45623914Y-40456920D01*
X45816086Y-40456920D01*
X46004557Y-40494410D01*
X46004557Y-40494410D01*
G37*
G36*
X30590442Y-37205518D02*
X30656627Y-37212037D01*
X30769853Y-37246384D01*
X30826467Y-37263557D01*
X30965087Y-37337652D01*
X30982991Y-37347222D01*
X31018729Y-37376552D01*
X31120186Y-37459814D01*
X31203448Y-37561271D01*
X31232778Y-37597009D01*
X31232779Y-37597011D01*
X31316443Y-37753533D01*
X31316443Y-37753534D01*
X31367963Y-37923373D01*
X31385359Y-38100000D01*
X31367963Y-38276627D01*
X31333616Y-38389853D01*
X31316443Y-38446467D01*
X31242348Y-38585087D01*
X31232778Y-38602991D01*
X31203448Y-38638729D01*
X31120186Y-38740186D01*
X31018729Y-38823448D01*
X30982991Y-38852778D01*
X30982989Y-38852779D01*
X30826467Y-38936443D01*
X30769853Y-38953616D01*
X30656627Y-38987963D01*
X30590443Y-38994481D01*
X30524260Y-39001000D01*
X30435740Y-39001000D01*
X30369557Y-38994481D01*
X30303373Y-38987963D01*
X30190147Y-38953616D01*
X30133533Y-38936443D01*
X29977011Y-38852779D01*
X29977009Y-38852778D01*
X29941271Y-38823448D01*
X29839814Y-38740186D01*
X29756552Y-38638729D01*
X29727222Y-38602991D01*
X29717652Y-38585087D01*
X29643557Y-38446467D01*
X29626384Y-38389853D01*
X29592037Y-38276627D01*
X29574641Y-38100000D01*
X29592037Y-37923373D01*
X29643557Y-37753534D01*
X29643557Y-37753533D01*
X29727221Y-37597011D01*
X29727222Y-37597009D01*
X29756552Y-37561271D01*
X29839814Y-37459814D01*
X29941271Y-37376552D01*
X29977009Y-37347222D01*
X29994913Y-37337652D01*
X30133533Y-37263557D01*
X30190147Y-37246384D01*
X30303373Y-37212037D01*
X30369558Y-37205518D01*
X30435740Y-37199000D01*
X30524260Y-37199000D01*
X30590442Y-37205518D01*
X30590442Y-37205518D01*
G37*
G36*
X38195450Y-37079120D02*
X37085070Y-37079120D01*
X37085070Y-34239000D01*
X38195450Y-34239000D01*
X38195450Y-37079120D01*
X38195450Y-37079120D01*
G37*
G36*
X44194930Y-37079120D02*
X43084550Y-37079120D01*
X43084550Y-34239000D01*
X44194930Y-34239000D01*
X44194930Y-37079120D01*
X44194930Y-37079120D01*
G37*
G36*
X42193410Y-37079120D02*
X41083030Y-37079120D01*
X41083030Y-34239000D01*
X42193410Y-34239000D01*
X42193410Y-37079120D01*
X42193410Y-37079120D01*
G37*
G36*
X40196970Y-37079120D02*
X39086590Y-37079120D01*
X39086590Y-34239000D01*
X40196970Y-34239000D01*
X40196970Y-37079120D01*
X40196970Y-37079120D01*
G37*
G36*
X30590443Y-34665519D02*
X30656627Y-34672037D01*
X30769853Y-34706384D01*
X30826467Y-34723557D01*
X30965087Y-34797652D01*
X30982991Y-34807222D01*
X31018729Y-34836552D01*
X31120186Y-34919814D01*
X31203448Y-35021271D01*
X31232778Y-35057009D01*
X31232779Y-35057011D01*
X31316443Y-35213533D01*
X31316443Y-35213534D01*
X31367963Y-35383373D01*
X31385359Y-35560000D01*
X31367963Y-35736627D01*
X31333616Y-35849853D01*
X31316443Y-35906467D01*
X31242348Y-36045087D01*
X31232778Y-36062991D01*
X31203448Y-36098729D01*
X31120186Y-36200186D01*
X31018729Y-36283448D01*
X30982991Y-36312778D01*
X30982989Y-36312779D01*
X30826467Y-36396443D01*
X30769853Y-36413616D01*
X30656627Y-36447963D01*
X30590442Y-36454482D01*
X30524260Y-36461000D01*
X30435740Y-36461000D01*
X30369558Y-36454482D01*
X30303373Y-36447963D01*
X30190147Y-36413616D01*
X30133533Y-36396443D01*
X29977011Y-36312779D01*
X29977009Y-36312778D01*
X29941271Y-36283448D01*
X29839814Y-36200186D01*
X29756552Y-36098729D01*
X29727222Y-36062991D01*
X29717652Y-36045087D01*
X29643557Y-35906467D01*
X29626384Y-35849853D01*
X29592037Y-35736627D01*
X29574641Y-35560000D01*
X29592037Y-35383373D01*
X29643557Y-35213534D01*
X29643557Y-35213533D01*
X29727221Y-35057011D01*
X29727222Y-35057009D01*
X29756552Y-35021271D01*
X29839814Y-34919814D01*
X29941271Y-34836552D01*
X29977009Y-34807222D01*
X29994913Y-34797652D01*
X30133533Y-34723557D01*
X30190147Y-34706384D01*
X30303373Y-34672037D01*
X30369557Y-34665519D01*
X30435740Y-34659000D01*
X30524260Y-34659000D01*
X30590443Y-34665519D01*
X30590443Y-34665519D01*
G37*
G36*
X30590443Y-32125519D02*
X30656627Y-32132037D01*
X30769853Y-32166384D01*
X30826467Y-32183557D01*
X30965087Y-32257652D01*
X30982991Y-32267222D01*
X31018729Y-32296552D01*
X31120186Y-32379814D01*
X31203448Y-32481271D01*
X31232778Y-32517009D01*
X31232779Y-32517011D01*
X31316443Y-32673533D01*
X31316443Y-32673534D01*
X31367963Y-32843373D01*
X31385359Y-33020000D01*
X31367963Y-33196627D01*
X31333616Y-33309853D01*
X31316443Y-33366467D01*
X31242348Y-33505087D01*
X31232778Y-33522991D01*
X31203448Y-33558729D01*
X31120186Y-33660186D01*
X31018729Y-33743448D01*
X30982991Y-33772778D01*
X30982989Y-33772779D01*
X30826467Y-33856443D01*
X30769853Y-33873616D01*
X30656627Y-33907963D01*
X30590443Y-33914481D01*
X30524260Y-33921000D01*
X30435740Y-33921000D01*
X30369557Y-33914481D01*
X30303373Y-33907963D01*
X30190147Y-33873616D01*
X30133533Y-33856443D01*
X29977011Y-33772779D01*
X29977009Y-33772778D01*
X29941271Y-33743448D01*
X29839814Y-33660186D01*
X29756552Y-33558729D01*
X29727222Y-33522991D01*
X29717652Y-33505087D01*
X29643557Y-33366467D01*
X29626384Y-33309853D01*
X29592037Y-33196627D01*
X29574641Y-33020000D01*
X29592037Y-32843373D01*
X29643557Y-32673534D01*
X29643557Y-32673533D01*
X29727221Y-32517011D01*
X29727222Y-32517009D01*
X29756552Y-32481271D01*
X29839814Y-32379814D01*
X29941271Y-32296552D01*
X29977009Y-32267222D01*
X29994913Y-32257652D01*
X30133533Y-32183557D01*
X30190147Y-32166384D01*
X30303373Y-32132037D01*
X30369557Y-32125519D01*
X30435740Y-32119000D01*
X30524260Y-32119000D01*
X30590443Y-32125519D01*
X30590443Y-32125519D01*
G37*
G36*
X31381000Y-31381000D02*
X29579000Y-31381000D01*
X29579000Y-29579000D01*
X31381000Y-29579000D01*
X31381000Y-31381000D01*
X31381000Y-31381000D01*
G37*
G36*
X46837800Y-29711850D02*
X45237200Y-29711850D01*
X45237200Y-26610110D01*
X46837800Y-26610110D01*
X46837800Y-29711850D01*
X46837800Y-29711850D01*
G37*
G36*
X36042800Y-29711850D02*
X34442200Y-29711850D01*
X34442200Y-26610110D01*
X36042800Y-26610110D01*
X36042800Y-29711850D01*
X36042800Y-29711850D01*
G37*
M02*
