G04 #@! TF.GenerationSoftware,KiCad,Pcbnew,5.0.1*
G04 #@! TF.CreationDate,2018-11-17T00:42:23+11:00*
G04 #@! TF.ProjectId,grove-level-shifter,67726F76652D6C6576656C2D73686966,rev?*
G04 #@! TF.SameCoordinates,Original*
G04 #@! TF.FileFunction,Copper,L2,Bot,Signal*
G04 #@! TF.FilePolarity,Positive*
%FSLAX46Y46*%
G04 Gerber Fmt 4.6, Leading zero omitted, Abs format (unit mm)*
G04 Created by KiCad (PCBNEW 5.0.1) date Sat 17 Nov 2018 00:42:23 AEDT*
%MOMM*%
%LPD*%
G01*
G04 APERTURE LIST*
G04 #@! TA.AperFunction,EtchedComponent*
%ADD10C,0.010000*%
G04 #@! TD*
G04 #@! TA.AperFunction,SMDPad,CuDef*
%ADD11R,1.200000X0.750000*%
G04 #@! TD*
G04 #@! TA.AperFunction,SMDPad,CuDef*
%ADD12R,1.008380X2.738120*%
G04 #@! TD*
G04 #@! TA.AperFunction,SMDPad,CuDef*
%ADD13R,1.498600X2.999740*%
G04 #@! TD*
G04 #@! TA.AperFunction,ComponentPad*
%ADD14O,1.700000X1.700000*%
G04 #@! TD*
G04 #@! TA.AperFunction,ComponentPad*
%ADD15R,1.700000X1.700000*%
G04 #@! TD*
G04 #@! TA.AperFunction,ComponentPad*
%ADD16O,2.032000X1.016000*%
G04 #@! TD*
G04 #@! TA.AperFunction,ComponentPad*
%ADD17C,1.849120*%
G04 #@! TD*
G04 #@! TA.AperFunction,ComponentPad*
%ADD18R,1.849120X1.849120*%
G04 #@! TD*
G04 #@! TA.AperFunction,SMDPad,CuDef*
%ADD19R,0.900000X1.200000*%
G04 #@! TD*
G04 #@! TA.AperFunction,ViaPad*
%ADD20C,0.800000*%
G04 #@! TD*
G04 #@! TA.AperFunction,Conductor*
%ADD21C,0.250000*%
G04 #@! TD*
G04 #@! TA.AperFunction,Conductor*
%ADD22C,0.600000*%
G04 #@! TD*
G04 #@! TA.AperFunction,Conductor*
%ADD23C,0.254000*%
G04 #@! TD*
G04 APERTURE END LIST*
D10*
G04 #@! TO.C,Z1*
G36*
X38838910Y-44667652D02*
X38917454Y-44667222D01*
X38974298Y-44666058D01*
X39013105Y-44663793D01*
X39037538Y-44660060D01*
X39051262Y-44654494D01*
X39057940Y-44646727D01*
X39061236Y-44636395D01*
X39061556Y-44635057D01*
X39066562Y-44610921D01*
X39075829Y-44563299D01*
X39088392Y-44497259D01*
X39103287Y-44417872D01*
X39119551Y-44330204D01*
X39120119Y-44327125D01*
X39136410Y-44241211D01*
X39151652Y-44165304D01*
X39164861Y-44103955D01*
X39175054Y-44061718D01*
X39181248Y-44043145D01*
X39181543Y-44042816D01*
X39199788Y-44033747D01*
X39237405Y-44018633D01*
X39286271Y-44000738D01*
X39286543Y-44000642D01*
X39348093Y-43977507D01*
X39420657Y-43948035D01*
X39489057Y-43918403D01*
X39492294Y-43916938D01*
X39603702Y-43866374D01*
X39850399Y-44034840D01*
X39926077Y-44086197D01*
X39994631Y-44132111D01*
X40052088Y-44169970D01*
X40094476Y-44197163D01*
X40117825Y-44211079D01*
X40120042Y-44212111D01*
X40137010Y-44207516D01*
X40168701Y-44185345D01*
X40216352Y-44144553D01*
X40281198Y-44084095D01*
X40347397Y-44019773D01*
X40411214Y-43956388D01*
X40468329Y-43898549D01*
X40515305Y-43849825D01*
X40548703Y-43813790D01*
X40565085Y-43794016D01*
X40565694Y-43792998D01*
X40567505Y-43779428D01*
X40560683Y-43757267D01*
X40543540Y-43723522D01*
X40514393Y-43675200D01*
X40471555Y-43609308D01*
X40414448Y-43524483D01*
X40363766Y-43449823D01*
X40318461Y-43382860D01*
X40281150Y-43327484D01*
X40254452Y-43287580D01*
X40240985Y-43267038D01*
X40240137Y-43265644D01*
X40241781Y-43245962D01*
X40254245Y-43207707D01*
X40275048Y-43158111D01*
X40282462Y-43142272D01*
X40314814Y-43071710D01*
X40349328Y-42991647D01*
X40377365Y-42922371D01*
X40397568Y-42870955D01*
X40413615Y-42831881D01*
X40422888Y-42811459D01*
X40424041Y-42809886D01*
X40441096Y-42807279D01*
X40481298Y-42800137D01*
X40539302Y-42789477D01*
X40609763Y-42776315D01*
X40687335Y-42761667D01*
X40766672Y-42746551D01*
X40842431Y-42731982D01*
X40909264Y-42718978D01*
X40961828Y-42708555D01*
X40994776Y-42701730D01*
X41002857Y-42699801D01*
X41011205Y-42695038D01*
X41017506Y-42684282D01*
X41022045Y-42663902D01*
X41025104Y-42630266D01*
X41026967Y-42579745D01*
X41027918Y-42508708D01*
X41028240Y-42413524D01*
X41028257Y-42374508D01*
X41028257Y-42057201D01*
X40952057Y-42042161D01*
X40909663Y-42034005D01*
X40846400Y-42022101D01*
X40769962Y-42007884D01*
X40688043Y-41992790D01*
X40665400Y-41988645D01*
X40589806Y-41973947D01*
X40523953Y-41959495D01*
X40473366Y-41946625D01*
X40443574Y-41936678D01*
X40438612Y-41933713D01*
X40426426Y-41912717D01*
X40408953Y-41872033D01*
X40389577Y-41819678D01*
X40385734Y-41808400D01*
X40360339Y-41738477D01*
X40328817Y-41659582D01*
X40297969Y-41588734D01*
X40297817Y-41588405D01*
X40246447Y-41477267D01*
X40415399Y-41228747D01*
X40584352Y-40980228D01*
X40367429Y-40762942D01*
X40301819Y-40698274D01*
X40241979Y-40641267D01*
X40191267Y-40594967D01*
X40153046Y-40562416D01*
X40130675Y-40546657D01*
X40127466Y-40545657D01*
X40108626Y-40553531D01*
X40070180Y-40575422D01*
X40016330Y-40608733D01*
X39951276Y-40650869D01*
X39880940Y-40698057D01*
X39809555Y-40746190D01*
X39745908Y-40788072D01*
X39694041Y-40821129D01*
X39657995Y-40842782D01*
X39641867Y-40850457D01*
X39622189Y-40843963D01*
X39584875Y-40826850D01*
X39537621Y-40802674D01*
X39532612Y-40799987D01*
X39468977Y-40768073D01*
X39425341Y-40752421D01*
X39398202Y-40752255D01*
X39384057Y-40766796D01*
X39383975Y-40767000D01*
X39376905Y-40784221D01*
X39360042Y-40825101D01*
X39334695Y-40886475D01*
X39302171Y-40965181D01*
X39263778Y-41058053D01*
X39220822Y-41161928D01*
X39179222Y-41262498D01*
X39133504Y-41373484D01*
X39091526Y-41476297D01*
X39054548Y-41567785D01*
X39023827Y-41644799D01*
X39000622Y-41704185D01*
X38986190Y-41742791D01*
X38981743Y-41757200D01*
X38992896Y-41773728D01*
X39022069Y-41800070D01*
X39060971Y-41829113D01*
X39171757Y-41920961D01*
X39258351Y-42026241D01*
X39319716Y-42142734D01*
X39354815Y-42268224D01*
X39362608Y-42400493D01*
X39356943Y-42461543D01*
X39326078Y-42588205D01*
X39272920Y-42700059D01*
X39200767Y-42795999D01*
X39112917Y-42874924D01*
X39012665Y-42935730D01*
X38903310Y-42977313D01*
X38788147Y-42998572D01*
X38670475Y-42998401D01*
X38553590Y-42975699D01*
X38440789Y-42929362D01*
X38335369Y-42858287D01*
X38291368Y-42818089D01*
X38206979Y-42714871D01*
X38148222Y-42602075D01*
X38114704Y-42482990D01*
X38106035Y-42360905D01*
X38121823Y-42239107D01*
X38161678Y-42120884D01*
X38225207Y-42009525D01*
X38312021Y-41908316D01*
X38409029Y-41829113D01*
X38449437Y-41798838D01*
X38477982Y-41772781D01*
X38488257Y-41757175D01*
X38482877Y-41740157D01*
X38467575Y-41699500D01*
X38443612Y-41638358D01*
X38412244Y-41559881D01*
X38374732Y-41467220D01*
X38332333Y-41363528D01*
X38290663Y-41262474D01*
X38244690Y-41151393D01*
X38202107Y-41048459D01*
X38164221Y-40956835D01*
X38132340Y-40879684D01*
X38107771Y-40820169D01*
X38091820Y-40781456D01*
X38085910Y-40767000D01*
X38071948Y-40752315D01*
X38044940Y-40752358D01*
X38001413Y-40767901D01*
X37937890Y-40799716D01*
X37937388Y-40799987D01*
X37889560Y-40824677D01*
X37850897Y-40842662D01*
X37829095Y-40850386D01*
X37828133Y-40850457D01*
X37811721Y-40842622D01*
X37775487Y-40820835D01*
X37723474Y-40787672D01*
X37659725Y-40745709D01*
X37589060Y-40698057D01*
X37517116Y-40649809D01*
X37452274Y-40607849D01*
X37398735Y-40574773D01*
X37360697Y-40553179D01*
X37342533Y-40545657D01*
X37325808Y-40555543D01*
X37292180Y-40583174D01*
X37245010Y-40625505D01*
X37187658Y-40679495D01*
X37123484Y-40742101D01*
X37102497Y-40763017D01*
X36885499Y-40980377D01*
X37050668Y-41222780D01*
X37100864Y-41297219D01*
X37144919Y-41364028D01*
X37180362Y-41419335D01*
X37204719Y-41459271D01*
X37215522Y-41479964D01*
X37215838Y-41481437D01*
X37210143Y-41500942D01*
X37194826Y-41540178D01*
X37172537Y-41592570D01*
X37156893Y-41627645D01*
X37127641Y-41694799D01*
X37100094Y-41762642D01*
X37078737Y-41819966D01*
X37072935Y-41837428D01*
X37056452Y-41884062D01*
X37040340Y-41920095D01*
X37031490Y-41933713D01*
X37011960Y-41942048D01*
X36969334Y-41953863D01*
X36909145Y-41967819D01*
X36836922Y-41982578D01*
X36804600Y-41988645D01*
X36722522Y-42003727D01*
X36643795Y-42018331D01*
X36576109Y-42031020D01*
X36527160Y-42040358D01*
X36517943Y-42042161D01*
X36441743Y-42057201D01*
X36441743Y-42374508D01*
X36441914Y-42478846D01*
X36442616Y-42557787D01*
X36444134Y-42614962D01*
X36446749Y-42654001D01*
X36450746Y-42678535D01*
X36456409Y-42692195D01*
X36464020Y-42698611D01*
X36467143Y-42699801D01*
X36485978Y-42704020D01*
X36527588Y-42712438D01*
X36586630Y-42724039D01*
X36657757Y-42737805D01*
X36735625Y-42752720D01*
X36814887Y-42767768D01*
X36890198Y-42781931D01*
X36956213Y-42794194D01*
X37007587Y-42803539D01*
X37038975Y-42808950D01*
X37045959Y-42809886D01*
X37052285Y-42822404D01*
X37066290Y-42855754D01*
X37085355Y-42903623D01*
X37092634Y-42922371D01*
X37121996Y-42994805D01*
X37156571Y-43074830D01*
X37187537Y-43142272D01*
X37210323Y-43193841D01*
X37225482Y-43236215D01*
X37230542Y-43262166D01*
X37229736Y-43265644D01*
X37219041Y-43282064D01*
X37194620Y-43318583D01*
X37159095Y-43371313D01*
X37115087Y-43436365D01*
X37065217Y-43509849D01*
X37055356Y-43524355D01*
X36997492Y-43610296D01*
X36954956Y-43675739D01*
X36926054Y-43723696D01*
X36909090Y-43757180D01*
X36902367Y-43779205D01*
X36904190Y-43792783D01*
X36904236Y-43792869D01*
X36918586Y-43810703D01*
X36950323Y-43845183D01*
X36996010Y-43892732D01*
X37052204Y-43949778D01*
X37115468Y-44012745D01*
X37122602Y-44019773D01*
X37202330Y-44096980D01*
X37263857Y-44153670D01*
X37308421Y-44190890D01*
X37337257Y-44209685D01*
X37349958Y-44212111D01*
X37368494Y-44201529D01*
X37406961Y-44177084D01*
X37461386Y-44141388D01*
X37527798Y-44097053D01*
X37602225Y-44046689D01*
X37619601Y-44034840D01*
X37866297Y-43866374D01*
X37977706Y-43916938D01*
X38045457Y-43946405D01*
X38118183Y-43976041D01*
X38180703Y-43999670D01*
X38183457Y-44000642D01*
X38232360Y-44018543D01*
X38270057Y-44033680D01*
X38288425Y-44042790D01*
X38288456Y-44042816D01*
X38294285Y-44059283D01*
X38304192Y-44099781D01*
X38317195Y-44159758D01*
X38332309Y-44234660D01*
X38348552Y-44319936D01*
X38349881Y-44327125D01*
X38366175Y-44414986D01*
X38381133Y-44494740D01*
X38393791Y-44561319D01*
X38403186Y-44609653D01*
X38408354Y-44634675D01*
X38408444Y-44635057D01*
X38411589Y-44645701D01*
X38417704Y-44653738D01*
X38430453Y-44659533D01*
X38453500Y-44663453D01*
X38490509Y-44665865D01*
X38545144Y-44667135D01*
X38621067Y-44667629D01*
X38721944Y-44667714D01*
X38735000Y-44667714D01*
X38838910Y-44667652D01*
X38838910Y-44667652D01*
G37*
X38838910Y-44667652D02*
X38917454Y-44667222D01*
X38974298Y-44666058D01*
X39013105Y-44663793D01*
X39037538Y-44660060D01*
X39051262Y-44654494D01*
X39057940Y-44646727D01*
X39061236Y-44636395D01*
X39061556Y-44635057D01*
X39066562Y-44610921D01*
X39075829Y-44563299D01*
X39088392Y-44497259D01*
X39103287Y-44417872D01*
X39119551Y-44330204D01*
X39120119Y-44327125D01*
X39136410Y-44241211D01*
X39151652Y-44165304D01*
X39164861Y-44103955D01*
X39175054Y-44061718D01*
X39181248Y-44043145D01*
X39181543Y-44042816D01*
X39199788Y-44033747D01*
X39237405Y-44018633D01*
X39286271Y-44000738D01*
X39286543Y-44000642D01*
X39348093Y-43977507D01*
X39420657Y-43948035D01*
X39489057Y-43918403D01*
X39492294Y-43916938D01*
X39603702Y-43866374D01*
X39850399Y-44034840D01*
X39926077Y-44086197D01*
X39994631Y-44132111D01*
X40052088Y-44169970D01*
X40094476Y-44197163D01*
X40117825Y-44211079D01*
X40120042Y-44212111D01*
X40137010Y-44207516D01*
X40168701Y-44185345D01*
X40216352Y-44144553D01*
X40281198Y-44084095D01*
X40347397Y-44019773D01*
X40411214Y-43956388D01*
X40468329Y-43898549D01*
X40515305Y-43849825D01*
X40548703Y-43813790D01*
X40565085Y-43794016D01*
X40565694Y-43792998D01*
X40567505Y-43779428D01*
X40560683Y-43757267D01*
X40543540Y-43723522D01*
X40514393Y-43675200D01*
X40471555Y-43609308D01*
X40414448Y-43524483D01*
X40363766Y-43449823D01*
X40318461Y-43382860D01*
X40281150Y-43327484D01*
X40254452Y-43287580D01*
X40240985Y-43267038D01*
X40240137Y-43265644D01*
X40241781Y-43245962D01*
X40254245Y-43207707D01*
X40275048Y-43158111D01*
X40282462Y-43142272D01*
X40314814Y-43071710D01*
X40349328Y-42991647D01*
X40377365Y-42922371D01*
X40397568Y-42870955D01*
X40413615Y-42831881D01*
X40422888Y-42811459D01*
X40424041Y-42809886D01*
X40441096Y-42807279D01*
X40481298Y-42800137D01*
X40539302Y-42789477D01*
X40609763Y-42776315D01*
X40687335Y-42761667D01*
X40766672Y-42746551D01*
X40842431Y-42731982D01*
X40909264Y-42718978D01*
X40961828Y-42708555D01*
X40994776Y-42701730D01*
X41002857Y-42699801D01*
X41011205Y-42695038D01*
X41017506Y-42684282D01*
X41022045Y-42663902D01*
X41025104Y-42630266D01*
X41026967Y-42579745D01*
X41027918Y-42508708D01*
X41028240Y-42413524D01*
X41028257Y-42374508D01*
X41028257Y-42057201D01*
X40952057Y-42042161D01*
X40909663Y-42034005D01*
X40846400Y-42022101D01*
X40769962Y-42007884D01*
X40688043Y-41992790D01*
X40665400Y-41988645D01*
X40589806Y-41973947D01*
X40523953Y-41959495D01*
X40473366Y-41946625D01*
X40443574Y-41936678D01*
X40438612Y-41933713D01*
X40426426Y-41912717D01*
X40408953Y-41872033D01*
X40389577Y-41819678D01*
X40385734Y-41808400D01*
X40360339Y-41738477D01*
X40328817Y-41659582D01*
X40297969Y-41588734D01*
X40297817Y-41588405D01*
X40246447Y-41477267D01*
X40415399Y-41228747D01*
X40584352Y-40980228D01*
X40367429Y-40762942D01*
X40301819Y-40698274D01*
X40241979Y-40641267D01*
X40191267Y-40594967D01*
X40153046Y-40562416D01*
X40130675Y-40546657D01*
X40127466Y-40545657D01*
X40108626Y-40553531D01*
X40070180Y-40575422D01*
X40016330Y-40608733D01*
X39951276Y-40650869D01*
X39880940Y-40698057D01*
X39809555Y-40746190D01*
X39745908Y-40788072D01*
X39694041Y-40821129D01*
X39657995Y-40842782D01*
X39641867Y-40850457D01*
X39622189Y-40843963D01*
X39584875Y-40826850D01*
X39537621Y-40802674D01*
X39532612Y-40799987D01*
X39468977Y-40768073D01*
X39425341Y-40752421D01*
X39398202Y-40752255D01*
X39384057Y-40766796D01*
X39383975Y-40767000D01*
X39376905Y-40784221D01*
X39360042Y-40825101D01*
X39334695Y-40886475D01*
X39302171Y-40965181D01*
X39263778Y-41058053D01*
X39220822Y-41161928D01*
X39179222Y-41262498D01*
X39133504Y-41373484D01*
X39091526Y-41476297D01*
X39054548Y-41567785D01*
X39023827Y-41644799D01*
X39000622Y-41704185D01*
X38986190Y-41742791D01*
X38981743Y-41757200D01*
X38992896Y-41773728D01*
X39022069Y-41800070D01*
X39060971Y-41829113D01*
X39171757Y-41920961D01*
X39258351Y-42026241D01*
X39319716Y-42142734D01*
X39354815Y-42268224D01*
X39362608Y-42400493D01*
X39356943Y-42461543D01*
X39326078Y-42588205D01*
X39272920Y-42700059D01*
X39200767Y-42795999D01*
X39112917Y-42874924D01*
X39012665Y-42935730D01*
X38903310Y-42977313D01*
X38788147Y-42998572D01*
X38670475Y-42998401D01*
X38553590Y-42975699D01*
X38440789Y-42929362D01*
X38335369Y-42858287D01*
X38291368Y-42818089D01*
X38206979Y-42714871D01*
X38148222Y-42602075D01*
X38114704Y-42482990D01*
X38106035Y-42360905D01*
X38121823Y-42239107D01*
X38161678Y-42120884D01*
X38225207Y-42009525D01*
X38312021Y-41908316D01*
X38409029Y-41829113D01*
X38449437Y-41798838D01*
X38477982Y-41772781D01*
X38488257Y-41757175D01*
X38482877Y-41740157D01*
X38467575Y-41699500D01*
X38443612Y-41638358D01*
X38412244Y-41559881D01*
X38374732Y-41467220D01*
X38332333Y-41363528D01*
X38290663Y-41262474D01*
X38244690Y-41151393D01*
X38202107Y-41048459D01*
X38164221Y-40956835D01*
X38132340Y-40879684D01*
X38107771Y-40820169D01*
X38091820Y-40781456D01*
X38085910Y-40767000D01*
X38071948Y-40752315D01*
X38044940Y-40752358D01*
X38001413Y-40767901D01*
X37937890Y-40799716D01*
X37937388Y-40799987D01*
X37889560Y-40824677D01*
X37850897Y-40842662D01*
X37829095Y-40850386D01*
X37828133Y-40850457D01*
X37811721Y-40842622D01*
X37775487Y-40820835D01*
X37723474Y-40787672D01*
X37659725Y-40745709D01*
X37589060Y-40698057D01*
X37517116Y-40649809D01*
X37452274Y-40607849D01*
X37398735Y-40574773D01*
X37360697Y-40553179D01*
X37342533Y-40545657D01*
X37325808Y-40555543D01*
X37292180Y-40583174D01*
X37245010Y-40625505D01*
X37187658Y-40679495D01*
X37123484Y-40742101D01*
X37102497Y-40763017D01*
X36885499Y-40980377D01*
X37050668Y-41222780D01*
X37100864Y-41297219D01*
X37144919Y-41364028D01*
X37180362Y-41419335D01*
X37204719Y-41459271D01*
X37215522Y-41479964D01*
X37215838Y-41481437D01*
X37210143Y-41500942D01*
X37194826Y-41540178D01*
X37172537Y-41592570D01*
X37156893Y-41627645D01*
X37127641Y-41694799D01*
X37100094Y-41762642D01*
X37078737Y-41819966D01*
X37072935Y-41837428D01*
X37056452Y-41884062D01*
X37040340Y-41920095D01*
X37031490Y-41933713D01*
X37011960Y-41942048D01*
X36969334Y-41953863D01*
X36909145Y-41967819D01*
X36836922Y-41982578D01*
X36804600Y-41988645D01*
X36722522Y-42003727D01*
X36643795Y-42018331D01*
X36576109Y-42031020D01*
X36527160Y-42040358D01*
X36517943Y-42042161D01*
X36441743Y-42057201D01*
X36441743Y-42374508D01*
X36441914Y-42478846D01*
X36442616Y-42557787D01*
X36444134Y-42614962D01*
X36446749Y-42654001D01*
X36450746Y-42678535D01*
X36456409Y-42692195D01*
X36464020Y-42698611D01*
X36467143Y-42699801D01*
X36485978Y-42704020D01*
X36527588Y-42712438D01*
X36586630Y-42724039D01*
X36657757Y-42737805D01*
X36735625Y-42752720D01*
X36814887Y-42767768D01*
X36890198Y-42781931D01*
X36956213Y-42794194D01*
X37007587Y-42803539D01*
X37038975Y-42808950D01*
X37045959Y-42809886D01*
X37052285Y-42822404D01*
X37066290Y-42855754D01*
X37085355Y-42903623D01*
X37092634Y-42922371D01*
X37121996Y-42994805D01*
X37156571Y-43074830D01*
X37187537Y-43142272D01*
X37210323Y-43193841D01*
X37225482Y-43236215D01*
X37230542Y-43262166D01*
X37229736Y-43265644D01*
X37219041Y-43282064D01*
X37194620Y-43318583D01*
X37159095Y-43371313D01*
X37115087Y-43436365D01*
X37065217Y-43509849D01*
X37055356Y-43524355D01*
X36997492Y-43610296D01*
X36954956Y-43675739D01*
X36926054Y-43723696D01*
X36909090Y-43757180D01*
X36902367Y-43779205D01*
X36904190Y-43792783D01*
X36904236Y-43792869D01*
X36918586Y-43810703D01*
X36950323Y-43845183D01*
X36996010Y-43892732D01*
X37052204Y-43949778D01*
X37115468Y-44012745D01*
X37122602Y-44019773D01*
X37202330Y-44096980D01*
X37263857Y-44153670D01*
X37308421Y-44190890D01*
X37337257Y-44209685D01*
X37349958Y-44212111D01*
X37368494Y-44201529D01*
X37406961Y-44177084D01*
X37461386Y-44141388D01*
X37527798Y-44097053D01*
X37602225Y-44046689D01*
X37619601Y-44034840D01*
X37866297Y-43866374D01*
X37977706Y-43916938D01*
X38045457Y-43946405D01*
X38118183Y-43976041D01*
X38180703Y-43999670D01*
X38183457Y-44000642D01*
X38232360Y-44018543D01*
X38270057Y-44033680D01*
X38288425Y-44042790D01*
X38288456Y-44042816D01*
X38294285Y-44059283D01*
X38304192Y-44099781D01*
X38317195Y-44159758D01*
X38332309Y-44234660D01*
X38348552Y-44319936D01*
X38349881Y-44327125D01*
X38366175Y-44414986D01*
X38381133Y-44494740D01*
X38393791Y-44561319D01*
X38403186Y-44609653D01*
X38408354Y-44634675D01*
X38408444Y-44635057D01*
X38411589Y-44645701D01*
X38417704Y-44653738D01*
X38430453Y-44659533D01*
X38453500Y-44663453D01*
X38490509Y-44665865D01*
X38545144Y-44667135D01*
X38621067Y-44667629D01*
X38721944Y-44667714D01*
X38735000Y-44667714D01*
X38838910Y-44667652D01*
G04 #@! TD*
D11*
G04 #@! TO.P,C1,1*
G04 #@! TO.N,GND*
X38420000Y-47498000D03*
G04 #@! TO.P,C1,2*
G04 #@! TO.N,+3V3*
X40320000Y-47498000D03*
G04 #@! TD*
G04 #@! TO.P,C2,2*
G04 #@! TO.N,GND*
X38420000Y-49276000D03*
G04 #@! TO.P,C2,1*
G04 #@! TO.N,+5V*
X40320000Y-49276000D03*
G04 #@! TD*
D12*
G04 #@! TO.P,J2,1*
G04 #@! TO.N,IN_2_DATA*
X43639740Y-35659060D03*
G04 #@! TO.P,J2,2*
G04 #@! TO.N,IN_2_CLK*
X41638220Y-35659060D03*
G04 #@! TO.P,J2,3*
G04 #@! TO.N,+3V3*
X39641780Y-35659060D03*
G04 #@! TO.P,J2,4*
G04 #@! TO.N,GND*
X37640260Y-35659060D03*
D13*
G04 #@! TO.P,J2,SS1*
G04 #@! TO.N,N/C*
X46037500Y-28160980D03*
G04 #@! TO.P,J2,SS2*
X35242500Y-28160980D03*
G04 #@! TD*
D12*
G04 #@! TO.P,J4,1*
G04 #@! TO.N,OUT_2_DATA*
X37640260Y-60860940D03*
G04 #@! TO.P,J4,2*
G04 #@! TO.N,OUT_2_CLK*
X39641780Y-60860940D03*
G04 #@! TO.P,J4,3*
G04 #@! TO.N,+5V*
X41638220Y-60860940D03*
G04 #@! TO.P,J4,4*
G04 #@! TO.N,GND*
X43639740Y-60860940D03*
D13*
G04 #@! TO.P,J4,SS1*
G04 #@! TO.N,N/C*
X35242500Y-68359020D03*
G04 #@! TO.P,J4,SS2*
X46037500Y-68359020D03*
G04 #@! TD*
D14*
G04 #@! TO.P,J5,4*
G04 #@! TO.N,GND*
X30480000Y-45212000D03*
G04 #@! TO.P,J5,3*
G04 #@! TO.N,+3V3*
X30480000Y-47752000D03*
G04 #@! TO.P,J5,2*
G04 #@! TO.N,GND*
X30480000Y-50292000D03*
D15*
G04 #@! TO.P,J5,1*
G04 #@! TO.N,+5V*
X30480000Y-52832000D03*
G04 #@! TD*
D14*
G04 #@! TO.P,J6,4*
G04 #@! TO.N,Net-(J6-Pad4)*
X30480000Y-38100000D03*
G04 #@! TO.P,J6,3*
G04 #@! TO.N,Net-(J6-Pad3)*
X30480000Y-35560000D03*
G04 #@! TO.P,J6,2*
G04 #@! TO.N,Net-(J6-Pad2)*
X30480000Y-33020000D03*
D15*
G04 #@! TO.P,J6,1*
G04 #@! TO.N,Net-(J6-Pad1)*
X30480000Y-30480000D03*
G04 #@! TD*
G04 #@! TO.P,J7,1*
G04 #@! TO.N,Net-(J7-Pad1)*
X30480000Y-67310000D03*
D14*
G04 #@! TO.P,J7,2*
G04 #@! TO.N,Net-(J7-Pad2)*
X30480000Y-64770000D03*
G04 #@! TO.P,J7,3*
G04 #@! TO.N,Net-(J7-Pad3)*
X30480000Y-62230000D03*
G04 #@! TO.P,J7,4*
G04 #@! TO.N,Net-(J7-Pad4)*
X30480000Y-59690000D03*
G04 #@! TD*
D16*
G04 #@! TO.P,J8,S5*
G04 #@! TO.N,GND*
X47124620Y-50040540D03*
G04 #@! TO.P,J8,S2*
X47124620Y-56639460D03*
G04 #@! TD*
D17*
G04 #@! TO.P,J9,2*
G04 #@! TO.N,GND*
X45720000Y-41432480D03*
D18*
G04 #@! TO.P,J9,1*
G04 #@! TO.N,+5V*
X45720000Y-44927520D03*
G04 #@! TD*
D19*
G04 #@! TO.P,R1,2*
G04 #@! TO.N,Net-(R1-Pad2)*
X36322000Y-47160000D03*
G04 #@! TO.P,R1,1*
G04 #@! TO.N,+3V3*
X36322000Y-49360000D03*
G04 #@! TD*
D20*
G04 #@! TO.N,GND*
X37846000Y-63373000D03*
G04 #@! TO.N,+3V3*
X40386000Y-46482000D03*
X40894000Y-37846000D03*
G04 #@! TO.N,+5V*
X40386000Y-50038000D03*
X42926000Y-54610000D03*
X40386000Y-63754000D03*
X40513000Y-55897780D03*
G04 #@! TO.N,IN_2_DATA*
X38100000Y-31750000D03*
G04 #@! TO.N,IN_2_CLK*
X38100000Y-33020000D03*
G04 #@! TO.N,OUT_2_DATA*
X38100000Y-58420000D03*
G04 #@! TO.N,OUT_2_CLK*
X39370000Y-58420000D03*
G04 #@! TO.N,Net-(R1-Pad2)*
X35306000Y-46736000D03*
G04 #@! TD*
D21*
G04 #@! TO.N,+3V3*
X40320000Y-47498000D02*
X40320000Y-46548000D01*
X40320000Y-46548000D02*
X40386000Y-46482000D01*
X39641780Y-37278120D02*
X39641780Y-35659060D01*
X40209660Y-37846000D02*
X39641780Y-37278120D01*
X40894000Y-37846000D02*
X40209660Y-37846000D01*
X36322000Y-49210000D02*
X36322000Y-49360000D01*
X37022000Y-48510000D02*
X36322000Y-49210000D01*
X39933000Y-48510000D02*
X37022000Y-48510000D01*
X40320000Y-48123000D02*
X39933000Y-48510000D01*
X40320000Y-47498000D02*
X40320000Y-48123000D01*
X32088000Y-49360000D02*
X30480000Y-47752000D01*
X36322000Y-49360000D02*
X32088000Y-49360000D01*
G04 #@! TO.N,+5V*
X40320000Y-49276000D02*
X40320000Y-49972000D01*
X40320000Y-49972000D02*
X40386000Y-50038000D01*
D22*
X44395440Y-44927520D02*
X42926000Y-46396960D01*
X45720000Y-44927520D02*
X44395440Y-44927520D01*
X42926000Y-46396960D02*
X42926000Y-54610000D01*
X41638220Y-55897780D02*
X41638220Y-60860940D01*
X42926000Y-54610000D02*
X41638220Y-55897780D01*
X31730000Y-52832000D02*
X34795780Y-55897780D01*
X30480000Y-52832000D02*
X31730000Y-52832000D01*
X40386000Y-63754000D02*
X41148000Y-63754000D01*
X41638220Y-63263780D02*
X41638220Y-60860940D01*
X41148000Y-63754000D02*
X41638220Y-63263780D01*
X34795780Y-55897780D02*
X40513000Y-55897780D01*
X40513000Y-55897780D02*
X41638220Y-55897780D01*
D21*
G04 #@! TO.N,IN_2_DATA*
X40595550Y-31750000D02*
X38100000Y-31750000D01*
X43639740Y-35659060D02*
X43639740Y-34794190D01*
X43639740Y-34794190D02*
X40595550Y-31750000D01*
G04 #@! TO.N,IN_2_CLK*
X41638220Y-35659060D02*
X41638220Y-34018220D01*
X41638220Y-34018220D02*
X40640000Y-33020000D01*
X40640000Y-33020000D02*
X38100000Y-33020000D01*
G04 #@! TO.N,OUT_2_DATA*
X37640260Y-58879740D02*
X37640260Y-60860940D01*
X38100000Y-58420000D02*
X37640260Y-58879740D01*
G04 #@! TO.N,OUT_2_CLK*
X39641780Y-58691780D02*
X39641780Y-60860940D01*
X39370000Y-58420000D02*
X39641780Y-58691780D01*
G04 #@! TO.N,Net-(R1-Pad2)*
X36322000Y-47160000D02*
X35730000Y-47160000D01*
X35730000Y-47160000D02*
X35306000Y-46736000D01*
G04 #@! TD*
D23*
G04 #@! TO.N,GND*
G36*
X34035391Y-26203301D02*
X33895043Y-26413345D01*
X33845760Y-26661110D01*
X33845760Y-29660850D01*
X33895043Y-29908615D01*
X34035391Y-30118659D01*
X34245435Y-30259007D01*
X34493200Y-30308290D01*
X35991800Y-30308290D01*
X36239565Y-30259007D01*
X36449609Y-30118659D01*
X36589957Y-29908615D01*
X36639240Y-29660850D01*
X36639240Y-26661110D01*
X36589957Y-26413345D01*
X36449609Y-26203301D01*
X36309975Y-26110000D01*
X44970025Y-26110000D01*
X44830391Y-26203301D01*
X44690043Y-26413345D01*
X44640760Y-26661110D01*
X44640760Y-29660850D01*
X44690043Y-29908615D01*
X44830391Y-30118659D01*
X45040435Y-30259007D01*
X45288200Y-30308290D01*
X46786800Y-30308290D01*
X47034565Y-30259007D01*
X47244609Y-30118659D01*
X47384957Y-29908615D01*
X47434240Y-29660850D01*
X47434240Y-26661110D01*
X47384957Y-26413345D01*
X47244609Y-26203301D01*
X47142195Y-26134869D01*
X47443698Y-26172958D01*
X47868893Y-26341305D01*
X48238858Y-26610101D01*
X48530356Y-26962462D01*
X48725067Y-27376244D01*
X48817093Y-27858662D01*
X48820000Y-27951164D01*
X48820001Y-68535326D01*
X48757042Y-69033699D01*
X48588697Y-69458889D01*
X48319899Y-69828859D01*
X47967541Y-70120355D01*
X47553756Y-70315067D01*
X47124504Y-70396951D01*
X47244609Y-70316699D01*
X47384957Y-70106655D01*
X47434240Y-69858890D01*
X47434240Y-66859150D01*
X47384957Y-66611385D01*
X47244609Y-66401341D01*
X47034565Y-66260993D01*
X46786800Y-66211710D01*
X45288200Y-66211710D01*
X45040435Y-66260993D01*
X44830391Y-66401341D01*
X44690043Y-66611385D01*
X44640760Y-66859150D01*
X44640760Y-69858890D01*
X44690043Y-70106655D01*
X44830391Y-70316699D01*
X44970025Y-70410000D01*
X36309975Y-70410000D01*
X36449609Y-70316699D01*
X36589957Y-70106655D01*
X36639240Y-69858890D01*
X36639240Y-66859150D01*
X36589957Y-66611385D01*
X36449609Y-66401341D01*
X36239565Y-66260993D01*
X35991800Y-66211710D01*
X34493200Y-66211710D01*
X34245435Y-66260993D01*
X34035391Y-66401341D01*
X33895043Y-66611385D01*
X33845760Y-66859150D01*
X33845760Y-69858890D01*
X33895043Y-70106655D01*
X34035391Y-70316699D01*
X34175025Y-70410000D01*
X30524667Y-70410000D01*
X30026301Y-70347042D01*
X29601111Y-70178697D01*
X29231141Y-69909899D01*
X28939645Y-69557541D01*
X28744933Y-69143756D01*
X28652907Y-68661339D01*
X28650000Y-68568836D01*
X28650000Y-59690000D01*
X28965908Y-59690000D01*
X29081161Y-60269418D01*
X29409375Y-60760625D01*
X29707761Y-60960000D01*
X29409375Y-61159375D01*
X29081161Y-61650582D01*
X28965908Y-62230000D01*
X29081161Y-62809418D01*
X29409375Y-63300625D01*
X29707761Y-63500000D01*
X29409375Y-63699375D01*
X29081161Y-64190582D01*
X28965908Y-64770000D01*
X29081161Y-65349418D01*
X29409375Y-65840625D01*
X29427619Y-65852816D01*
X29382235Y-65861843D01*
X29172191Y-66002191D01*
X29031843Y-66212235D01*
X28982560Y-66460000D01*
X28982560Y-68160000D01*
X29031843Y-68407765D01*
X29172191Y-68617809D01*
X29382235Y-68758157D01*
X29630000Y-68807440D01*
X31330000Y-68807440D01*
X31577765Y-68758157D01*
X31787809Y-68617809D01*
X31928157Y-68407765D01*
X31977440Y-68160000D01*
X31977440Y-66460000D01*
X31928157Y-66212235D01*
X31787809Y-66002191D01*
X31577765Y-65861843D01*
X31532381Y-65852816D01*
X31550625Y-65840625D01*
X31878839Y-65349418D01*
X31994092Y-64770000D01*
X31878839Y-64190582D01*
X31550625Y-63699375D01*
X31252239Y-63500000D01*
X31550625Y-63300625D01*
X31878839Y-62809418D01*
X31994092Y-62230000D01*
X31878839Y-61650582D01*
X31550625Y-61159375D01*
X31252239Y-60960000D01*
X31550625Y-60760625D01*
X31878839Y-60269418D01*
X31994092Y-59690000D01*
X31878839Y-59110582D01*
X31550625Y-58619375D01*
X31059418Y-58291161D01*
X30626256Y-58205000D01*
X30333744Y-58205000D01*
X29900582Y-58291161D01*
X29409375Y-58619375D01*
X29081161Y-59110582D01*
X28965908Y-59690000D01*
X28650000Y-59690000D01*
X28650000Y-51982000D01*
X28982560Y-51982000D01*
X28982560Y-53682000D01*
X29031843Y-53929765D01*
X29172191Y-54139809D01*
X29382235Y-54280157D01*
X29630000Y-54329440D01*
X31330000Y-54329440D01*
X31577765Y-54280157D01*
X31744475Y-54168764D01*
X34069519Y-56493808D01*
X34121683Y-56571877D01*
X34412897Y-56766460D01*
X34430961Y-56778530D01*
X34795780Y-56851097D01*
X34887866Y-56832780D01*
X40065704Y-56832780D01*
X40307126Y-56932780D01*
X40703220Y-56932780D01*
X40703221Y-59016030D01*
X40676221Y-59034071D01*
X40640000Y-59088279D01*
X40603779Y-59034071D01*
X40401780Y-58899099D01*
X40401780Y-58766627D01*
X40416668Y-58691780D01*
X40404026Y-58628225D01*
X40405000Y-58625874D01*
X40405000Y-58214126D01*
X40247431Y-57833720D01*
X39956280Y-57542569D01*
X39575874Y-57385000D01*
X39164126Y-57385000D01*
X38783720Y-57542569D01*
X38735000Y-57591289D01*
X38686280Y-57542569D01*
X38305874Y-57385000D01*
X37894126Y-57385000D01*
X37513720Y-57542569D01*
X37222569Y-57833720D01*
X37065000Y-58214126D01*
X37065000Y-58372715D01*
X36924356Y-58583204D01*
X36880260Y-58804889D01*
X36880260Y-58804893D01*
X36865372Y-58879740D01*
X36870518Y-58905608D01*
X36678261Y-59034071D01*
X36537913Y-59244115D01*
X36488630Y-59491880D01*
X36488630Y-62230000D01*
X36537913Y-62477765D01*
X36678261Y-62687809D01*
X36888305Y-62828157D01*
X37136070Y-62877440D01*
X38144450Y-62877440D01*
X38392215Y-62828157D01*
X38602259Y-62687809D01*
X38641020Y-62629800D01*
X38679781Y-62687809D01*
X38889825Y-62828157D01*
X39137590Y-62877440D01*
X39798849Y-62877440D01*
X39508569Y-63167720D01*
X39351000Y-63548126D01*
X39351000Y-63959874D01*
X39508569Y-64340280D01*
X39799720Y-64631431D01*
X40180126Y-64789000D01*
X40591874Y-64789000D01*
X40833296Y-64689000D01*
X41055914Y-64689000D01*
X41148000Y-64707317D01*
X41240086Y-64689000D01*
X41512819Y-64634750D01*
X41822097Y-64428097D01*
X41874261Y-64350028D01*
X42234248Y-63990041D01*
X42312317Y-63937877D01*
X42518970Y-63628599D01*
X42573220Y-63355866D01*
X42573220Y-63355865D01*
X42591537Y-63263780D01*
X42573220Y-63171694D01*
X42573220Y-62705849D01*
X42600219Y-62687809D01*
X42638317Y-62630792D01*
X42775851Y-62768327D01*
X43009240Y-62865000D01*
X43353990Y-62865000D01*
X43512740Y-62706250D01*
X43512740Y-60987940D01*
X43766740Y-60987940D01*
X43766740Y-62706250D01*
X43925490Y-62865000D01*
X44270240Y-62865000D01*
X44503629Y-62768327D01*
X44682257Y-62589698D01*
X44778930Y-62356309D01*
X44778930Y-61146690D01*
X44620180Y-60987940D01*
X43766740Y-60987940D01*
X43512740Y-60987940D01*
X43492740Y-60987940D01*
X43492740Y-60733940D01*
X43512740Y-60733940D01*
X43512740Y-59015630D01*
X43766740Y-59015630D01*
X43766740Y-60733940D01*
X44620180Y-60733940D01*
X44778930Y-60575190D01*
X44778930Y-59365571D01*
X44682257Y-59132182D01*
X44503629Y-58953553D01*
X44270240Y-58856880D01*
X43925490Y-58856880D01*
X43766740Y-59015630D01*
X43512740Y-59015630D01*
X43353990Y-58856880D01*
X43009240Y-58856880D01*
X42775851Y-58953553D01*
X42638317Y-59091088D01*
X42600219Y-59034071D01*
X42573220Y-59016031D01*
X42573220Y-56942594D01*
X45514549Y-56942594D01*
X45718594Y-57357881D01*
X46061880Y-57646854D01*
X46489620Y-57782460D01*
X46997620Y-57782460D01*
X46997620Y-56766460D01*
X47251620Y-56766460D01*
X47251620Y-57782460D01*
X47759620Y-57782460D01*
X48187360Y-57646854D01*
X48530646Y-57357881D01*
X48734691Y-56942594D01*
X48608642Y-56766460D01*
X47251620Y-56766460D01*
X46997620Y-56766460D01*
X45640598Y-56766460D01*
X45514549Y-56942594D01*
X42573220Y-56942594D01*
X42573220Y-56336326D01*
X45514549Y-56336326D01*
X45640598Y-56512460D01*
X46997620Y-56512460D01*
X46997620Y-55496460D01*
X47251620Y-55496460D01*
X47251620Y-56512460D01*
X48608642Y-56512460D01*
X48734691Y-56336326D01*
X48530646Y-55921039D01*
X48187360Y-55632066D01*
X47759620Y-55496460D01*
X47251620Y-55496460D01*
X46997620Y-55496460D01*
X46489620Y-55496460D01*
X46061880Y-55632066D01*
X45718594Y-55921039D01*
X45514549Y-56336326D01*
X42573220Y-56336326D01*
X42573220Y-56285069D01*
X43270859Y-55587431D01*
X43512280Y-55487431D01*
X43803431Y-55196280D01*
X43961000Y-54815874D01*
X43961000Y-54404126D01*
X43861000Y-54162704D01*
X43861000Y-50343674D01*
X45514549Y-50343674D01*
X45718594Y-50758961D01*
X46061880Y-51047934D01*
X46489620Y-51183540D01*
X46997620Y-51183540D01*
X46997620Y-50167540D01*
X47251620Y-50167540D01*
X47251620Y-51183540D01*
X47759620Y-51183540D01*
X48187360Y-51047934D01*
X48530646Y-50758961D01*
X48734691Y-50343674D01*
X48608642Y-50167540D01*
X47251620Y-50167540D01*
X46997620Y-50167540D01*
X45640598Y-50167540D01*
X45514549Y-50343674D01*
X43861000Y-50343674D01*
X43861000Y-49737406D01*
X45514549Y-49737406D01*
X45640598Y-49913540D01*
X46997620Y-49913540D01*
X46997620Y-48897540D01*
X47251620Y-48897540D01*
X47251620Y-49913540D01*
X48608642Y-49913540D01*
X48734691Y-49737406D01*
X48530646Y-49322119D01*
X48187360Y-49033146D01*
X47759620Y-48897540D01*
X47251620Y-48897540D01*
X46997620Y-48897540D01*
X46489620Y-48897540D01*
X46061880Y-49033146D01*
X45718594Y-49322119D01*
X45514549Y-49737406D01*
X43861000Y-49737406D01*
X43861000Y-46784249D01*
X44336722Y-46308528D01*
X44337631Y-46309889D01*
X44547675Y-46450237D01*
X44795440Y-46499520D01*
X46644560Y-46499520D01*
X46892325Y-46450237D01*
X47102369Y-46309889D01*
X47242717Y-46099845D01*
X47292000Y-45852080D01*
X47292000Y-44002960D01*
X47242717Y-43755195D01*
X47102369Y-43545151D01*
X46892325Y-43404803D01*
X46644560Y-43355520D01*
X44795440Y-43355520D01*
X44547675Y-43404803D01*
X44337631Y-43545151D01*
X44197283Y-43755195D01*
X44148000Y-44002960D01*
X44148000Y-44023422D01*
X44030621Y-44046770D01*
X43721343Y-44253423D01*
X43669181Y-44331489D01*
X42329972Y-45670699D01*
X42251903Y-45722863D01*
X42136404Y-45895720D01*
X42045250Y-46032142D01*
X41972683Y-46396960D01*
X41991000Y-46489046D01*
X41991001Y-54162702D01*
X41948569Y-54265141D01*
X41250931Y-54962780D01*
X40960296Y-54962780D01*
X40718874Y-54862780D01*
X40307126Y-54862780D01*
X40065704Y-54962780D01*
X35183069Y-54962780D01*
X32456261Y-52235972D01*
X32404097Y-52157903D01*
X32094819Y-51951250D01*
X31966236Y-51925673D01*
X31928157Y-51734235D01*
X31787809Y-51524191D01*
X31577765Y-51383843D01*
X31474292Y-51363261D01*
X31751645Y-51058924D01*
X31921476Y-50648890D01*
X31800155Y-50419000D01*
X30607000Y-50419000D01*
X30607000Y-50439000D01*
X30353000Y-50439000D01*
X30353000Y-50419000D01*
X29159845Y-50419000D01*
X29038524Y-50648890D01*
X29208355Y-51058924D01*
X29485708Y-51363261D01*
X29382235Y-51383843D01*
X29172191Y-51524191D01*
X29031843Y-51734235D01*
X28982560Y-51982000D01*
X28650000Y-51982000D01*
X28650000Y-47752000D01*
X28965908Y-47752000D01*
X29081161Y-48331418D01*
X29409375Y-48822625D01*
X29728478Y-49035843D01*
X29598642Y-49096817D01*
X29208355Y-49525076D01*
X29038524Y-49935110D01*
X29159845Y-50165000D01*
X30353000Y-50165000D01*
X30353000Y-50145000D01*
X30607000Y-50145000D01*
X30607000Y-50165000D01*
X31800155Y-50165000D01*
X31841881Y-50085933D01*
X32013148Y-50120000D01*
X32013152Y-50120000D01*
X32087999Y-50134888D01*
X32162846Y-50120000D01*
X35256386Y-50120000D01*
X35273843Y-50207765D01*
X35414191Y-50417809D01*
X35624235Y-50558157D01*
X35872000Y-50607440D01*
X36772000Y-50607440D01*
X37019765Y-50558157D01*
X37229809Y-50417809D01*
X37370157Y-50207765D01*
X37388172Y-50117197D01*
X37460302Y-50189327D01*
X37693691Y-50286000D01*
X38134250Y-50286000D01*
X38293000Y-50127250D01*
X38293000Y-49403000D01*
X38273000Y-49403000D01*
X38273000Y-49270000D01*
X38567000Y-49270000D01*
X38567000Y-49403000D01*
X38547000Y-49403000D01*
X38547000Y-50127250D01*
X38705750Y-50286000D01*
X39146309Y-50286000D01*
X39351000Y-50201214D01*
X39351000Y-50243874D01*
X39508569Y-50624280D01*
X39799720Y-50915431D01*
X40180126Y-51073000D01*
X40591874Y-51073000D01*
X40972280Y-50915431D01*
X41263431Y-50624280D01*
X41421000Y-50243874D01*
X41421000Y-50044170D01*
X41518157Y-49898765D01*
X41567440Y-49651000D01*
X41567440Y-48901000D01*
X41518157Y-48653235D01*
X41377809Y-48443191D01*
X41293714Y-48387000D01*
X41377809Y-48330809D01*
X41518157Y-48120765D01*
X41567440Y-47873000D01*
X41567440Y-47123000D01*
X41518157Y-46875235D01*
X41410272Y-46713774D01*
X41421000Y-46687874D01*
X41421000Y-46276126D01*
X41263431Y-45895720D01*
X40972280Y-45604569D01*
X40591874Y-45447000D01*
X40180126Y-45447000D01*
X39799720Y-45604569D01*
X39508569Y-45895720D01*
X39351000Y-46276126D01*
X39351000Y-46572786D01*
X39146309Y-46488000D01*
X38705750Y-46488000D01*
X38547000Y-46646750D01*
X38547000Y-47371000D01*
X38567000Y-47371000D01*
X38567000Y-47625000D01*
X38547000Y-47625000D01*
X38547000Y-47645000D01*
X38293000Y-47645000D01*
X38293000Y-47625000D01*
X38273000Y-47625000D01*
X38273000Y-47371000D01*
X38293000Y-47371000D01*
X38293000Y-46646750D01*
X38134250Y-46488000D01*
X37693691Y-46488000D01*
X37460302Y-46584673D01*
X37419440Y-46625535D01*
X37419440Y-46560000D01*
X37370157Y-46312235D01*
X37229809Y-46102191D01*
X37019765Y-45961843D01*
X36772000Y-45912560D01*
X35946271Y-45912560D01*
X35892280Y-45858569D01*
X35511874Y-45701000D01*
X35100126Y-45701000D01*
X34719720Y-45858569D01*
X34428569Y-46149720D01*
X34271000Y-46530126D01*
X34271000Y-46941874D01*
X34428569Y-47322280D01*
X34719720Y-47613431D01*
X35100126Y-47771000D01*
X35226748Y-47771000D01*
X35273843Y-48007765D01*
X35414191Y-48217809D01*
X35477334Y-48260000D01*
X35414191Y-48302191D01*
X35273843Y-48512235D01*
X35256386Y-48600000D01*
X32402803Y-48600000D01*
X31921209Y-48118407D01*
X31994092Y-47752000D01*
X31878839Y-47172582D01*
X31550625Y-46681375D01*
X31231522Y-46468157D01*
X31361358Y-46407183D01*
X31751645Y-45978924D01*
X31921476Y-45568890D01*
X31800155Y-45339000D01*
X30607000Y-45339000D01*
X30607000Y-45359000D01*
X30353000Y-45359000D01*
X30353000Y-45339000D01*
X29159845Y-45339000D01*
X29038524Y-45568890D01*
X29208355Y-45978924D01*
X29598642Y-46407183D01*
X29728478Y-46468157D01*
X29409375Y-46681375D01*
X29081161Y-47172582D01*
X28965908Y-47752000D01*
X28650000Y-47752000D01*
X28650000Y-44855110D01*
X29038524Y-44855110D01*
X29159845Y-45085000D01*
X30353000Y-45085000D01*
X30353000Y-43891181D01*
X30607000Y-43891181D01*
X30607000Y-45085000D01*
X31800155Y-45085000D01*
X31921476Y-44855110D01*
X31751645Y-44445076D01*
X31361358Y-44016817D01*
X30836892Y-43770514D01*
X30607000Y-43891181D01*
X30353000Y-43891181D01*
X30123108Y-43770514D01*
X29598642Y-44016817D01*
X29208355Y-44445076D01*
X29038524Y-44855110D01*
X28650000Y-44855110D01*
X28650000Y-42057201D01*
X35801743Y-42057201D01*
X35801743Y-42374508D01*
X35801847Y-42375033D01*
X35801744Y-42375557D01*
X35801915Y-42479895D01*
X35802380Y-42482212D01*
X35801939Y-42484537D01*
X35802641Y-42563478D01*
X35803813Y-42569106D01*
X35802841Y-42574773D01*
X35804359Y-42631948D01*
X35807258Y-42644736D01*
X35805565Y-42657736D01*
X35808180Y-42696775D01*
X35816143Y-42726325D01*
X35815077Y-42756911D01*
X35819074Y-42781445D01*
X35845048Y-42850903D01*
X35859537Y-42923631D01*
X35865200Y-42937291D01*
X35879666Y-42958927D01*
X35879994Y-42960360D01*
X35880878Y-42961605D01*
X35888050Y-42986420D01*
X35902478Y-43004481D01*
X35906539Y-43015341D01*
X35922917Y-43032902D01*
X35926620Y-43042487D01*
X35956490Y-43073828D01*
X36003997Y-43144880D01*
X36017475Y-43153880D01*
X36024617Y-43163933D01*
X36035122Y-43170525D01*
X36043909Y-43181525D01*
X36051520Y-43187941D01*
X36080470Y-43203909D01*
X36098905Y-43223252D01*
X36165535Y-43252745D01*
X36211671Y-43283551D01*
X36216888Y-43284587D01*
X36236135Y-43296665D01*
X36239258Y-43297855D01*
X36255895Y-43300672D01*
X36270178Y-43308550D01*
X36298857Y-43311757D01*
X36327251Y-43324325D01*
X36346086Y-43328544D01*
X36352839Y-43328706D01*
X36359072Y-43331312D01*
X36400682Y-43339730D01*
X36402509Y-43339736D01*
X36404196Y-43340430D01*
X36410240Y-43341618D01*
X36406806Y-43345388D01*
X36377904Y-43393345D01*
X36369832Y-43415733D01*
X36355143Y-43434455D01*
X36338179Y-43467939D01*
X36323230Y-43521414D01*
X36296972Y-43570335D01*
X36290249Y-43592360D01*
X36289048Y-43604336D01*
X36283752Y-43615146D01*
X36279892Y-43676442D01*
X36270949Y-43708434D01*
X36271473Y-43712779D01*
X36267954Y-43723990D01*
X36272227Y-43772138D01*
X36265341Y-43840829D01*
X36267913Y-43849360D01*
X36267290Y-43855699D01*
X36268379Y-43859285D01*
X36268059Y-43864368D01*
X36269882Y-43877946D01*
X36285725Y-43924227D01*
X36290029Y-43972728D01*
X36316499Y-44023422D01*
X36317673Y-44030938D01*
X36323311Y-44040183D01*
X36339848Y-44094640D01*
X36339894Y-44094727D01*
X36347088Y-44103488D01*
X36350756Y-44114203D01*
X36383000Y-44150780D01*
X36405611Y-44194084D01*
X36419961Y-44211917D01*
X36436479Y-44225742D01*
X36447695Y-44244133D01*
X36479432Y-44278613D01*
X36485069Y-44282727D01*
X36488829Y-44288605D01*
X36534516Y-44336154D01*
X36537842Y-44338474D01*
X36540070Y-44341863D01*
X36596264Y-44398909D01*
X36598927Y-44400718D01*
X36600722Y-44403390D01*
X36663986Y-44466357D01*
X36665378Y-44467282D01*
X36666319Y-44468668D01*
X36673453Y-44475696D01*
X36675791Y-44477233D01*
X36677381Y-44479532D01*
X36757109Y-44556739D01*
X36763900Y-44561121D01*
X36768661Y-44567651D01*
X36830188Y-44624341D01*
X36843676Y-44632576D01*
X36853597Y-44644880D01*
X36898161Y-44682100D01*
X36931663Y-44700380D01*
X36958954Y-44727055D01*
X36987790Y-44745850D01*
X37090353Y-44786968D01*
X37117368Y-44801708D01*
X37127924Y-44802840D01*
X37181312Y-44829491D01*
X37198362Y-44830692D01*
X37217182Y-44838320D01*
X37229884Y-44840746D01*
X37330274Y-44839982D01*
X37430411Y-44847034D01*
X37454351Y-44839037D01*
X37479592Y-44838845D01*
X37572042Y-44799723D01*
X37667261Y-44767916D01*
X37685797Y-44757334D01*
X37697413Y-44747246D01*
X37711754Y-44741688D01*
X37750221Y-44717244D01*
X37753612Y-44714005D01*
X37757961Y-44712247D01*
X37769658Y-44704575D01*
X37774944Y-44731769D01*
X37776387Y-44735296D01*
X37776415Y-44739105D01*
X37781583Y-44764127D01*
X37785094Y-44772431D01*
X37785410Y-44781442D01*
X37785500Y-44781824D01*
X37791934Y-44795936D01*
X37792725Y-44808818D01*
X37794273Y-44811990D01*
X37794676Y-44816408D01*
X37797821Y-44827052D01*
X37815567Y-44860837D01*
X37818454Y-44878457D01*
X37854498Y-44936577D01*
X37878832Y-44994128D01*
X37885102Y-45000306D01*
X37889084Y-45009042D01*
X37891589Y-45011377D01*
X37902255Y-45033231D01*
X37908370Y-45041268D01*
X37912046Y-45044519D01*
X37913941Y-45048126D01*
X37934079Y-45064898D01*
X37950065Y-45090675D01*
X38025688Y-45145004D01*
X38095442Y-45206682D01*
X38126335Y-45217310D01*
X38152870Y-45236373D01*
X38165619Y-45242167D01*
X38246000Y-45261011D01*
X38323138Y-45290472D01*
X38346185Y-45294392D01*
X38379594Y-45293460D01*
X38411877Y-45302098D01*
X38448887Y-45304510D01*
X38462366Y-45302730D01*
X38475636Y-45305692D01*
X38530271Y-45306962D01*
X38535641Y-45306023D01*
X38540980Y-45307121D01*
X38616903Y-45307615D01*
X38618715Y-45307267D01*
X38620528Y-45307629D01*
X38721405Y-45307714D01*
X38721675Y-45307661D01*
X38721944Y-45307714D01*
X38735000Y-45307714D01*
X38735191Y-45307676D01*
X38735382Y-45307714D01*
X38839292Y-45307652D01*
X38840853Y-45307340D01*
X38842414Y-45307642D01*
X38920958Y-45307212D01*
X38925744Y-45306233D01*
X38930557Y-45307088D01*
X38987401Y-45305924D01*
X38999409Y-45303279D01*
X39011589Y-45304971D01*
X39050396Y-45302706D01*
X39079611Y-45295101D01*
X39109766Y-45296451D01*
X39134199Y-45292718D01*
X39204557Y-45267198D01*
X39278072Y-45253140D01*
X39291796Y-45247574D01*
X39314157Y-45232871D01*
X39339937Y-45225692D01*
X39358017Y-45211535D01*
X39368949Y-45207570D01*
X39403944Y-45175573D01*
X39409028Y-45171593D01*
X39412767Y-45170080D01*
X39419042Y-45163906D01*
X39500448Y-45110380D01*
X39515480Y-45088240D01*
X39536551Y-45071741D01*
X39543228Y-45063974D01*
X39544614Y-45061519D01*
X39546819Y-45059761D01*
X39566682Y-45023844D01*
X39579333Y-45012129D01*
X39584305Y-45001319D01*
X39590778Y-44994951D01*
X39610647Y-44948069D01*
X39640715Y-44903782D01*
X39644805Y-44883988D01*
X39665961Y-44846501D01*
X39666301Y-44843705D01*
X39667667Y-44841235D01*
X39670963Y-44830903D01*
X39673656Y-44807060D01*
X39683682Y-44785261D01*
X39684002Y-44783923D01*
X39684380Y-44774091D01*
X39688219Y-44765032D01*
X39693225Y-44740896D01*
X39693258Y-44736883D01*
X39694778Y-44733169D01*
X39700348Y-44704548D01*
X39703645Y-44705888D01*
X39706511Y-44708650D01*
X39748899Y-44735843D01*
X39758865Y-44739755D01*
X39766817Y-44746926D01*
X39790166Y-44760842D01*
X39796986Y-44763263D01*
X39801519Y-44767217D01*
X39826186Y-44775517D01*
X39847737Y-44791297D01*
X39849954Y-44792329D01*
X39942395Y-44814884D01*
X40025492Y-44844383D01*
X40030134Y-44844143D01*
X40038195Y-44846856D01*
X40065736Y-44844977D01*
X40092552Y-44851520D01*
X40189474Y-44836536D01*
X40226714Y-44833995D01*
X40245036Y-44833049D01*
X40275277Y-44832402D01*
X40279908Y-44830366D01*
X40287331Y-44829860D01*
X40304299Y-44825266D01*
X40323261Y-44815852D01*
X40339336Y-44813367D01*
X40388726Y-44783352D01*
X40403009Y-44776261D01*
X40503885Y-44731923D01*
X40535576Y-44709752D01*
X40557398Y-44686975D01*
X40584903Y-44671530D01*
X40632554Y-44630738D01*
X40641070Y-44619910D01*
X40652785Y-44612662D01*
X40717631Y-44552204D01*
X40721555Y-44546754D01*
X40727192Y-44543104D01*
X40793391Y-44478782D01*
X40795422Y-44475835D01*
X40798406Y-44473856D01*
X40862223Y-44410471D01*
X40863988Y-44407849D01*
X40866604Y-44406077D01*
X40923718Y-44348238D01*
X40925864Y-44344982D01*
X40929066Y-44342757D01*
X40976042Y-44294034D01*
X40979509Y-44288635D01*
X40984702Y-44284872D01*
X41018100Y-44248837D01*
X41027546Y-44233468D01*
X41041543Y-44222089D01*
X41057925Y-44202316D01*
X41081311Y-44159048D01*
X41114308Y-44122579D01*
X41114917Y-44121561D01*
X41116422Y-44117343D01*
X41119382Y-44113980D01*
X41130110Y-44082558D01*
X41133169Y-44078800D01*
X41143168Y-44045345D01*
X41148855Y-44036091D01*
X41149312Y-44033232D01*
X41176659Y-43982634D01*
X41181606Y-43934682D01*
X41198846Y-43886372D01*
X41198622Y-43881899D01*
X41200070Y-43877659D01*
X41201881Y-43864090D01*
X41201082Y-43851563D01*
X41204675Y-43839541D01*
X41198065Y-43775146D01*
X41202286Y-43734237D01*
X41197521Y-43718263D01*
X41198770Y-43707818D01*
X41189902Y-43676229D01*
X41185990Y-43614881D01*
X41180459Y-43603616D01*
X41179178Y-43591131D01*
X41172356Y-43568971D01*
X41146174Y-43520468D01*
X41131275Y-43467397D01*
X41114132Y-43433652D01*
X41099565Y-43415128D01*
X41091564Y-43392963D01*
X41062417Y-43344641D01*
X41059660Y-43341617D01*
X41086310Y-43336332D01*
X41088871Y-43335273D01*
X41091645Y-43335251D01*
X41124592Y-43328426D01*
X41133599Y-43324611D01*
X41143374Y-43324240D01*
X41151455Y-43322311D01*
X41168381Y-43314535D01*
X41172937Y-43314265D01*
X41235551Y-43283878D01*
X41320020Y-43255685D01*
X41328368Y-43250923D01*
X41348162Y-43233743D01*
X41354536Y-43231043D01*
X41358192Y-43227328D01*
X41378368Y-43218059D01*
X41384249Y-43211713D01*
X41397594Y-43205237D01*
X41453439Y-43142364D01*
X41516953Y-43087236D01*
X41528412Y-43064296D01*
X41541405Y-43051882D01*
X41548902Y-43034889D01*
X41563427Y-43018536D01*
X41569728Y-43007780D01*
X41583632Y-42967655D01*
X41588716Y-42961365D01*
X41601559Y-42917857D01*
X41628542Y-42863839D01*
X41629339Y-42852565D01*
X41642200Y-42823413D01*
X41646739Y-42803033D01*
X41647166Y-42784309D01*
X41651490Y-42771830D01*
X41650350Y-42752575D01*
X41659415Y-42721867D01*
X41662474Y-42688231D01*
X41660631Y-42670851D01*
X41664669Y-42653850D01*
X41666532Y-42603330D01*
X41665319Y-42595787D01*
X41666910Y-42588312D01*
X41667685Y-42530418D01*
X44801667Y-42530418D01*
X44891086Y-42789448D01*
X45473472Y-43003367D01*
X46093391Y-42978132D01*
X46548914Y-42789448D01*
X46638333Y-42530418D01*
X45720000Y-41612085D01*
X44801667Y-42530418D01*
X41667685Y-42530418D01*
X41667861Y-42517276D01*
X41667267Y-42514068D01*
X41667914Y-42510873D01*
X41668236Y-42415689D01*
X41668052Y-42414747D01*
X41668240Y-42413803D01*
X41668257Y-42374787D01*
X41668229Y-42374647D01*
X41668257Y-42374508D01*
X41668257Y-42057201D01*
X41655868Y-41994916D01*
X41655774Y-41931415D01*
X41631746Y-41873649D01*
X41619540Y-41812284D01*
X41584259Y-41759482D01*
X41559871Y-41700850D01*
X41515565Y-41656675D01*
X41480805Y-41604653D01*
X41428004Y-41569373D01*
X41383034Y-41524535D01*
X41325195Y-41500677D01*
X41273174Y-41465918D01*
X41210892Y-41453529D01*
X41152186Y-41429314D01*
X41075986Y-41414274D01*
X41074417Y-41414276D01*
X41072966Y-41413686D01*
X41064650Y-41412086D01*
X41113625Y-41340048D01*
X41139101Y-41279912D01*
X41175430Y-41225640D01*
X41183358Y-41185952D01*
X44149113Y-41185952D01*
X44174348Y-41805871D01*
X44363032Y-42261394D01*
X44622062Y-42350813D01*
X45540395Y-41432480D01*
X45899605Y-41432480D01*
X46817938Y-42350813D01*
X47076968Y-42261394D01*
X47290887Y-41679008D01*
X47265652Y-41059089D01*
X47076968Y-40603566D01*
X46817938Y-40514147D01*
X45899605Y-41432480D01*
X45540395Y-41432480D01*
X44622062Y-40514147D01*
X44363032Y-40603566D01*
X44149113Y-41185952D01*
X41183358Y-41185952D01*
X41187333Y-41166060D01*
X41211033Y-41110115D01*
X41211557Y-41044806D01*
X41224351Y-40980763D01*
X41212548Y-40921164D01*
X41213035Y-40860407D01*
X41188527Y-40799871D01*
X41175839Y-40735804D01*
X41142126Y-40685257D01*
X41119326Y-40628941D01*
X41073517Y-40582391D01*
X41037278Y-40528058D01*
X40844087Y-40334542D01*
X44801667Y-40334542D01*
X45720000Y-41252875D01*
X46638333Y-40334542D01*
X46548914Y-40075512D01*
X45966528Y-39861593D01*
X45346609Y-39886828D01*
X44891086Y-40075512D01*
X44801667Y-40334542D01*
X40844087Y-40334542D01*
X40820356Y-40310772D01*
X40818169Y-40309308D01*
X40816693Y-40307133D01*
X40751083Y-40242465D01*
X40746455Y-40239421D01*
X40743266Y-40234890D01*
X40683425Y-40177883D01*
X40677594Y-40174188D01*
X40673500Y-40168626D01*
X40622788Y-40122326D01*
X40613186Y-40116523D01*
X40606229Y-40107724D01*
X40568008Y-40075172D01*
X40547418Y-40063679D01*
X40540416Y-40055014D01*
X40532645Y-40050784D01*
X40521619Y-40039201D01*
X40499248Y-40023442D01*
X40428438Y-39992045D01*
X40370503Y-39953600D01*
X40344876Y-39948587D01*
X40321083Y-39935637D01*
X40317874Y-39934638D01*
X40293017Y-39932000D01*
X40270967Y-39922223D01*
X40201325Y-39920506D01*
X40125432Y-39905660D01*
X40097692Y-39911269D01*
X40069553Y-39908283D01*
X40041489Y-39916565D01*
X40021327Y-39916068D01*
X39963292Y-39938448D01*
X39880671Y-39955155D01*
X39861831Y-39963029D01*
X39844475Y-39974706D01*
X39830049Y-39978963D01*
X39818000Y-39988700D01*
X39791950Y-39997369D01*
X39753504Y-40019260D01*
X39744568Y-40027003D01*
X39733494Y-40031141D01*
X39679644Y-40064452D01*
X39674694Y-40069066D01*
X39668404Y-40071567D01*
X39603349Y-40113703D01*
X39599573Y-40117373D01*
X39594714Y-40119396D01*
X39565886Y-40138737D01*
X39534830Y-40134105D01*
X39519699Y-40130999D01*
X39515120Y-40129739D01*
X39514151Y-40129860D01*
X39429256Y-40112433D01*
X39402117Y-40112267D01*
X39396133Y-40113419D01*
X39394442Y-40113167D01*
X39394245Y-40113216D01*
X39389368Y-40112316D01*
X39273369Y-40137059D01*
X39156906Y-40159485D01*
X39151491Y-40163056D01*
X39145146Y-40164409D01*
X39047438Y-40231665D01*
X38948430Y-40296947D01*
X38944794Y-40302318D01*
X38939450Y-40305996D01*
X38925305Y-40320537D01*
X38857966Y-40424392D01*
X38856456Y-40426705D01*
X38791927Y-40523937D01*
X38785058Y-40540670D01*
X38768504Y-40580800D01*
X38743208Y-40642050D01*
X38743207Y-40642052D01*
X38734920Y-40662105D01*
X38723829Y-40635264D01*
X38699345Y-40575955D01*
X38683887Y-40538439D01*
X38678315Y-40524809D01*
X38612995Y-40426069D01*
X38549732Y-40326014D01*
X38535770Y-40311329D01*
X38528636Y-40306298D01*
X38523775Y-40299047D01*
X38426863Y-40234515D01*
X38331706Y-40167400D01*
X38323189Y-40165481D01*
X38315923Y-40160643D01*
X38201683Y-40138108D01*
X38088095Y-40112519D01*
X38079888Y-40113937D01*
X38076749Y-40113149D01*
X38075836Y-40113284D01*
X38070929Y-40112316D01*
X38043921Y-40112359D01*
X37957236Y-40129745D01*
X37955614Y-40129542D01*
X37948471Y-40131503D01*
X37937299Y-40133744D01*
X37903989Y-40138664D01*
X37873582Y-40118272D01*
X37868651Y-40116220D01*
X37864817Y-40112497D01*
X37799975Y-40070537D01*
X37793637Y-40068020D01*
X37788647Y-40063374D01*
X37735108Y-40030298D01*
X37723814Y-40026085D01*
X37714696Y-40018205D01*
X37676658Y-39996611D01*
X37638762Y-39984054D01*
X37605565Y-39961876D01*
X37587401Y-39954354D01*
X37542809Y-39945488D01*
X37501835Y-39925801D01*
X37455187Y-39923223D01*
X37439618Y-39918064D01*
X37414196Y-39919916D01*
X37342480Y-39905657D01*
X37297890Y-39914530D01*
X37252500Y-39912022D01*
X37176531Y-39938681D01*
X37167753Y-39940428D01*
X37139664Y-39943211D01*
X37131318Y-39947678D01*
X37097566Y-39954395D01*
X37059769Y-39979655D01*
X37016872Y-39994708D01*
X37000147Y-40004594D01*
X36963211Y-40037661D01*
X36919505Y-40061056D01*
X36885877Y-40088687D01*
X36876903Y-40099635D01*
X36864723Y-40106854D01*
X36817554Y-40149185D01*
X36812904Y-40155391D01*
X36806327Y-40159504D01*
X36748974Y-40213494D01*
X36745604Y-40218222D01*
X36740741Y-40221385D01*
X36676567Y-40283991D01*
X36674600Y-40286857D01*
X36671703Y-40288786D01*
X36650716Y-40309703D01*
X36650257Y-40310388D01*
X36649572Y-40310846D01*
X36432574Y-40528206D01*
X36396150Y-40582817D01*
X36350155Y-40629654D01*
X36327541Y-40685683D01*
X36294012Y-40735952D01*
X36281259Y-40800348D01*
X36256690Y-40861219D01*
X36257238Y-40921640D01*
X36245500Y-40980910D01*
X36258360Y-41045279D01*
X36258955Y-41110925D01*
X36282585Y-41166539D01*
X36294421Y-41225787D01*
X36330935Y-41280335D01*
X36356606Y-41340755D01*
X36405332Y-41412265D01*
X36404294Y-41412262D01*
X36395077Y-41414066D01*
X36394568Y-41414275D01*
X36394014Y-41414274D01*
X36317814Y-41429314D01*
X36259108Y-41453529D01*
X36196826Y-41465918D01*
X36144805Y-41500677D01*
X36086966Y-41524535D01*
X36041996Y-41569373D01*
X35989195Y-41604653D01*
X35954435Y-41656675D01*
X35910129Y-41700850D01*
X35885741Y-41759482D01*
X35850460Y-41812284D01*
X35838254Y-41873649D01*
X35814226Y-41931415D01*
X35814132Y-41994918D01*
X35801743Y-42057201D01*
X28650000Y-42057201D01*
X28650000Y-33020000D01*
X28965908Y-33020000D01*
X29081161Y-33599418D01*
X29409375Y-34090625D01*
X29707761Y-34290000D01*
X29409375Y-34489375D01*
X29081161Y-34980582D01*
X28965908Y-35560000D01*
X29081161Y-36139418D01*
X29409375Y-36630625D01*
X29707761Y-36830000D01*
X29409375Y-37029375D01*
X29081161Y-37520582D01*
X28965908Y-38100000D01*
X29081161Y-38679418D01*
X29409375Y-39170625D01*
X29900582Y-39498839D01*
X30333744Y-39585000D01*
X30626256Y-39585000D01*
X31059418Y-39498839D01*
X31550625Y-39170625D01*
X31878839Y-38679418D01*
X31994092Y-38100000D01*
X31878839Y-37520582D01*
X31550625Y-37029375D01*
X31252239Y-36830000D01*
X31550625Y-36630625D01*
X31878839Y-36139418D01*
X31917548Y-35944810D01*
X36501070Y-35944810D01*
X36501070Y-37154429D01*
X36597743Y-37387818D01*
X36776371Y-37566447D01*
X37009760Y-37663120D01*
X37354510Y-37663120D01*
X37513260Y-37504370D01*
X37513260Y-35786060D01*
X36659820Y-35786060D01*
X36501070Y-35944810D01*
X31917548Y-35944810D01*
X31994092Y-35560000D01*
X31878839Y-34980582D01*
X31550625Y-34489375D01*
X31252239Y-34290000D01*
X31441273Y-34163691D01*
X36501070Y-34163691D01*
X36501070Y-35373310D01*
X36659820Y-35532060D01*
X37513260Y-35532060D01*
X37513260Y-35512060D01*
X37767260Y-35512060D01*
X37767260Y-35532060D01*
X37787260Y-35532060D01*
X37787260Y-35786060D01*
X37767260Y-35786060D01*
X37767260Y-37504370D01*
X37926010Y-37663120D01*
X38270760Y-37663120D01*
X38504149Y-37566447D01*
X38641683Y-37428912D01*
X38679781Y-37485929D01*
X38889825Y-37626277D01*
X38971181Y-37642459D01*
X39093851Y-37826049D01*
X39157310Y-37868451D01*
X39619331Y-38330473D01*
X39661731Y-38393929D01*
X39913123Y-38561904D01*
X40134808Y-38606000D01*
X40134812Y-38606000D01*
X40204064Y-38619775D01*
X40307720Y-38723431D01*
X40688126Y-38881000D01*
X41099874Y-38881000D01*
X41480280Y-38723431D01*
X41771431Y-38432280D01*
X41929000Y-38051874D01*
X41929000Y-37675560D01*
X42142410Y-37675560D01*
X42390175Y-37626277D01*
X42600219Y-37485929D01*
X42638980Y-37427920D01*
X42677741Y-37485929D01*
X42887785Y-37626277D01*
X43135550Y-37675560D01*
X44143930Y-37675560D01*
X44391695Y-37626277D01*
X44601739Y-37485929D01*
X44742087Y-37275885D01*
X44791370Y-37028120D01*
X44791370Y-34290000D01*
X44742087Y-34042235D01*
X44601739Y-33832191D01*
X44391695Y-33691843D01*
X44143930Y-33642560D01*
X43562912Y-33642560D01*
X41185881Y-31265530D01*
X41143479Y-31202071D01*
X40892087Y-31034096D01*
X40670402Y-30990000D01*
X40670397Y-30990000D01*
X40595550Y-30975112D01*
X40520703Y-30990000D01*
X38803711Y-30990000D01*
X38686280Y-30872569D01*
X38305874Y-30715000D01*
X37894126Y-30715000D01*
X37513720Y-30872569D01*
X37222569Y-31163720D01*
X37065000Y-31544126D01*
X37065000Y-31955874D01*
X37222569Y-32336280D01*
X37271289Y-32385000D01*
X37222569Y-32433720D01*
X37065000Y-32814126D01*
X37065000Y-33225874D01*
X37222569Y-33606280D01*
X37271289Y-33655000D01*
X37009760Y-33655000D01*
X36776371Y-33751673D01*
X36597743Y-33930302D01*
X36501070Y-34163691D01*
X31441273Y-34163691D01*
X31550625Y-34090625D01*
X31878839Y-33599418D01*
X31994092Y-33020000D01*
X31878839Y-32440582D01*
X31550625Y-31949375D01*
X31532381Y-31937184D01*
X31577765Y-31928157D01*
X31787809Y-31787809D01*
X31928157Y-31577765D01*
X31977440Y-31330000D01*
X31977440Y-29630000D01*
X31928157Y-29382235D01*
X31787809Y-29172191D01*
X31577765Y-29031843D01*
X31330000Y-28982560D01*
X29630000Y-28982560D01*
X29382235Y-29031843D01*
X29172191Y-29172191D01*
X29031843Y-29382235D01*
X28982560Y-29630000D01*
X28982560Y-31330000D01*
X29031843Y-31577765D01*
X29172191Y-31787809D01*
X29382235Y-31928157D01*
X29427619Y-31937184D01*
X29409375Y-31949375D01*
X29081161Y-32440582D01*
X28965908Y-33020000D01*
X28650000Y-33020000D01*
X28650000Y-27984666D01*
X28712958Y-27486302D01*
X28881305Y-27061107D01*
X29150101Y-26691142D01*
X29502462Y-26399644D01*
X29916244Y-26204933D01*
X30398662Y-26112907D01*
X30491164Y-26110000D01*
X34175025Y-26110000D01*
X34035391Y-26203301D01*
X34035391Y-26203301D01*
G37*
X34035391Y-26203301D02*
X33895043Y-26413345D01*
X33845760Y-26661110D01*
X33845760Y-29660850D01*
X33895043Y-29908615D01*
X34035391Y-30118659D01*
X34245435Y-30259007D01*
X34493200Y-30308290D01*
X35991800Y-30308290D01*
X36239565Y-30259007D01*
X36449609Y-30118659D01*
X36589957Y-29908615D01*
X36639240Y-29660850D01*
X36639240Y-26661110D01*
X36589957Y-26413345D01*
X36449609Y-26203301D01*
X36309975Y-26110000D01*
X44970025Y-26110000D01*
X44830391Y-26203301D01*
X44690043Y-26413345D01*
X44640760Y-26661110D01*
X44640760Y-29660850D01*
X44690043Y-29908615D01*
X44830391Y-30118659D01*
X45040435Y-30259007D01*
X45288200Y-30308290D01*
X46786800Y-30308290D01*
X47034565Y-30259007D01*
X47244609Y-30118659D01*
X47384957Y-29908615D01*
X47434240Y-29660850D01*
X47434240Y-26661110D01*
X47384957Y-26413345D01*
X47244609Y-26203301D01*
X47142195Y-26134869D01*
X47443698Y-26172958D01*
X47868893Y-26341305D01*
X48238858Y-26610101D01*
X48530356Y-26962462D01*
X48725067Y-27376244D01*
X48817093Y-27858662D01*
X48820000Y-27951164D01*
X48820001Y-68535326D01*
X48757042Y-69033699D01*
X48588697Y-69458889D01*
X48319899Y-69828859D01*
X47967541Y-70120355D01*
X47553756Y-70315067D01*
X47124504Y-70396951D01*
X47244609Y-70316699D01*
X47384957Y-70106655D01*
X47434240Y-69858890D01*
X47434240Y-66859150D01*
X47384957Y-66611385D01*
X47244609Y-66401341D01*
X47034565Y-66260993D01*
X46786800Y-66211710D01*
X45288200Y-66211710D01*
X45040435Y-66260993D01*
X44830391Y-66401341D01*
X44690043Y-66611385D01*
X44640760Y-66859150D01*
X44640760Y-69858890D01*
X44690043Y-70106655D01*
X44830391Y-70316699D01*
X44970025Y-70410000D01*
X36309975Y-70410000D01*
X36449609Y-70316699D01*
X36589957Y-70106655D01*
X36639240Y-69858890D01*
X36639240Y-66859150D01*
X36589957Y-66611385D01*
X36449609Y-66401341D01*
X36239565Y-66260993D01*
X35991800Y-66211710D01*
X34493200Y-66211710D01*
X34245435Y-66260993D01*
X34035391Y-66401341D01*
X33895043Y-66611385D01*
X33845760Y-66859150D01*
X33845760Y-69858890D01*
X33895043Y-70106655D01*
X34035391Y-70316699D01*
X34175025Y-70410000D01*
X30524667Y-70410000D01*
X30026301Y-70347042D01*
X29601111Y-70178697D01*
X29231141Y-69909899D01*
X28939645Y-69557541D01*
X28744933Y-69143756D01*
X28652907Y-68661339D01*
X28650000Y-68568836D01*
X28650000Y-59690000D01*
X28965908Y-59690000D01*
X29081161Y-60269418D01*
X29409375Y-60760625D01*
X29707761Y-60960000D01*
X29409375Y-61159375D01*
X29081161Y-61650582D01*
X28965908Y-62230000D01*
X29081161Y-62809418D01*
X29409375Y-63300625D01*
X29707761Y-63500000D01*
X29409375Y-63699375D01*
X29081161Y-64190582D01*
X28965908Y-64770000D01*
X29081161Y-65349418D01*
X29409375Y-65840625D01*
X29427619Y-65852816D01*
X29382235Y-65861843D01*
X29172191Y-66002191D01*
X29031843Y-66212235D01*
X28982560Y-66460000D01*
X28982560Y-68160000D01*
X29031843Y-68407765D01*
X29172191Y-68617809D01*
X29382235Y-68758157D01*
X29630000Y-68807440D01*
X31330000Y-68807440D01*
X31577765Y-68758157D01*
X31787809Y-68617809D01*
X31928157Y-68407765D01*
X31977440Y-68160000D01*
X31977440Y-66460000D01*
X31928157Y-66212235D01*
X31787809Y-66002191D01*
X31577765Y-65861843D01*
X31532381Y-65852816D01*
X31550625Y-65840625D01*
X31878839Y-65349418D01*
X31994092Y-64770000D01*
X31878839Y-64190582D01*
X31550625Y-63699375D01*
X31252239Y-63500000D01*
X31550625Y-63300625D01*
X31878839Y-62809418D01*
X31994092Y-62230000D01*
X31878839Y-61650582D01*
X31550625Y-61159375D01*
X31252239Y-60960000D01*
X31550625Y-60760625D01*
X31878839Y-60269418D01*
X31994092Y-59690000D01*
X31878839Y-59110582D01*
X31550625Y-58619375D01*
X31059418Y-58291161D01*
X30626256Y-58205000D01*
X30333744Y-58205000D01*
X29900582Y-58291161D01*
X29409375Y-58619375D01*
X29081161Y-59110582D01*
X28965908Y-59690000D01*
X28650000Y-59690000D01*
X28650000Y-51982000D01*
X28982560Y-51982000D01*
X28982560Y-53682000D01*
X29031843Y-53929765D01*
X29172191Y-54139809D01*
X29382235Y-54280157D01*
X29630000Y-54329440D01*
X31330000Y-54329440D01*
X31577765Y-54280157D01*
X31744475Y-54168764D01*
X34069519Y-56493808D01*
X34121683Y-56571877D01*
X34412897Y-56766460D01*
X34430961Y-56778530D01*
X34795780Y-56851097D01*
X34887866Y-56832780D01*
X40065704Y-56832780D01*
X40307126Y-56932780D01*
X40703220Y-56932780D01*
X40703221Y-59016030D01*
X40676221Y-59034071D01*
X40640000Y-59088279D01*
X40603779Y-59034071D01*
X40401780Y-58899099D01*
X40401780Y-58766627D01*
X40416668Y-58691780D01*
X40404026Y-58628225D01*
X40405000Y-58625874D01*
X40405000Y-58214126D01*
X40247431Y-57833720D01*
X39956280Y-57542569D01*
X39575874Y-57385000D01*
X39164126Y-57385000D01*
X38783720Y-57542569D01*
X38735000Y-57591289D01*
X38686280Y-57542569D01*
X38305874Y-57385000D01*
X37894126Y-57385000D01*
X37513720Y-57542569D01*
X37222569Y-57833720D01*
X37065000Y-58214126D01*
X37065000Y-58372715D01*
X36924356Y-58583204D01*
X36880260Y-58804889D01*
X36880260Y-58804893D01*
X36865372Y-58879740D01*
X36870518Y-58905608D01*
X36678261Y-59034071D01*
X36537913Y-59244115D01*
X36488630Y-59491880D01*
X36488630Y-62230000D01*
X36537913Y-62477765D01*
X36678261Y-62687809D01*
X36888305Y-62828157D01*
X37136070Y-62877440D01*
X38144450Y-62877440D01*
X38392215Y-62828157D01*
X38602259Y-62687809D01*
X38641020Y-62629800D01*
X38679781Y-62687809D01*
X38889825Y-62828157D01*
X39137590Y-62877440D01*
X39798849Y-62877440D01*
X39508569Y-63167720D01*
X39351000Y-63548126D01*
X39351000Y-63959874D01*
X39508569Y-64340280D01*
X39799720Y-64631431D01*
X40180126Y-64789000D01*
X40591874Y-64789000D01*
X40833296Y-64689000D01*
X41055914Y-64689000D01*
X41148000Y-64707317D01*
X41240086Y-64689000D01*
X41512819Y-64634750D01*
X41822097Y-64428097D01*
X41874261Y-64350028D01*
X42234248Y-63990041D01*
X42312317Y-63937877D01*
X42518970Y-63628599D01*
X42573220Y-63355866D01*
X42573220Y-63355865D01*
X42591537Y-63263780D01*
X42573220Y-63171694D01*
X42573220Y-62705849D01*
X42600219Y-62687809D01*
X42638317Y-62630792D01*
X42775851Y-62768327D01*
X43009240Y-62865000D01*
X43353990Y-62865000D01*
X43512740Y-62706250D01*
X43512740Y-60987940D01*
X43766740Y-60987940D01*
X43766740Y-62706250D01*
X43925490Y-62865000D01*
X44270240Y-62865000D01*
X44503629Y-62768327D01*
X44682257Y-62589698D01*
X44778930Y-62356309D01*
X44778930Y-61146690D01*
X44620180Y-60987940D01*
X43766740Y-60987940D01*
X43512740Y-60987940D01*
X43492740Y-60987940D01*
X43492740Y-60733940D01*
X43512740Y-60733940D01*
X43512740Y-59015630D01*
X43766740Y-59015630D01*
X43766740Y-60733940D01*
X44620180Y-60733940D01*
X44778930Y-60575190D01*
X44778930Y-59365571D01*
X44682257Y-59132182D01*
X44503629Y-58953553D01*
X44270240Y-58856880D01*
X43925490Y-58856880D01*
X43766740Y-59015630D01*
X43512740Y-59015630D01*
X43353990Y-58856880D01*
X43009240Y-58856880D01*
X42775851Y-58953553D01*
X42638317Y-59091088D01*
X42600219Y-59034071D01*
X42573220Y-59016031D01*
X42573220Y-56942594D01*
X45514549Y-56942594D01*
X45718594Y-57357881D01*
X46061880Y-57646854D01*
X46489620Y-57782460D01*
X46997620Y-57782460D01*
X46997620Y-56766460D01*
X47251620Y-56766460D01*
X47251620Y-57782460D01*
X47759620Y-57782460D01*
X48187360Y-57646854D01*
X48530646Y-57357881D01*
X48734691Y-56942594D01*
X48608642Y-56766460D01*
X47251620Y-56766460D01*
X46997620Y-56766460D01*
X45640598Y-56766460D01*
X45514549Y-56942594D01*
X42573220Y-56942594D01*
X42573220Y-56336326D01*
X45514549Y-56336326D01*
X45640598Y-56512460D01*
X46997620Y-56512460D01*
X46997620Y-55496460D01*
X47251620Y-55496460D01*
X47251620Y-56512460D01*
X48608642Y-56512460D01*
X48734691Y-56336326D01*
X48530646Y-55921039D01*
X48187360Y-55632066D01*
X47759620Y-55496460D01*
X47251620Y-55496460D01*
X46997620Y-55496460D01*
X46489620Y-55496460D01*
X46061880Y-55632066D01*
X45718594Y-55921039D01*
X45514549Y-56336326D01*
X42573220Y-56336326D01*
X42573220Y-56285069D01*
X43270859Y-55587431D01*
X43512280Y-55487431D01*
X43803431Y-55196280D01*
X43961000Y-54815874D01*
X43961000Y-54404126D01*
X43861000Y-54162704D01*
X43861000Y-50343674D01*
X45514549Y-50343674D01*
X45718594Y-50758961D01*
X46061880Y-51047934D01*
X46489620Y-51183540D01*
X46997620Y-51183540D01*
X46997620Y-50167540D01*
X47251620Y-50167540D01*
X47251620Y-51183540D01*
X47759620Y-51183540D01*
X48187360Y-51047934D01*
X48530646Y-50758961D01*
X48734691Y-50343674D01*
X48608642Y-50167540D01*
X47251620Y-50167540D01*
X46997620Y-50167540D01*
X45640598Y-50167540D01*
X45514549Y-50343674D01*
X43861000Y-50343674D01*
X43861000Y-49737406D01*
X45514549Y-49737406D01*
X45640598Y-49913540D01*
X46997620Y-49913540D01*
X46997620Y-48897540D01*
X47251620Y-48897540D01*
X47251620Y-49913540D01*
X48608642Y-49913540D01*
X48734691Y-49737406D01*
X48530646Y-49322119D01*
X48187360Y-49033146D01*
X47759620Y-48897540D01*
X47251620Y-48897540D01*
X46997620Y-48897540D01*
X46489620Y-48897540D01*
X46061880Y-49033146D01*
X45718594Y-49322119D01*
X45514549Y-49737406D01*
X43861000Y-49737406D01*
X43861000Y-46784249D01*
X44336722Y-46308528D01*
X44337631Y-46309889D01*
X44547675Y-46450237D01*
X44795440Y-46499520D01*
X46644560Y-46499520D01*
X46892325Y-46450237D01*
X47102369Y-46309889D01*
X47242717Y-46099845D01*
X47292000Y-45852080D01*
X47292000Y-44002960D01*
X47242717Y-43755195D01*
X47102369Y-43545151D01*
X46892325Y-43404803D01*
X46644560Y-43355520D01*
X44795440Y-43355520D01*
X44547675Y-43404803D01*
X44337631Y-43545151D01*
X44197283Y-43755195D01*
X44148000Y-44002960D01*
X44148000Y-44023422D01*
X44030621Y-44046770D01*
X43721343Y-44253423D01*
X43669181Y-44331489D01*
X42329972Y-45670699D01*
X42251903Y-45722863D01*
X42136404Y-45895720D01*
X42045250Y-46032142D01*
X41972683Y-46396960D01*
X41991000Y-46489046D01*
X41991001Y-54162702D01*
X41948569Y-54265141D01*
X41250931Y-54962780D01*
X40960296Y-54962780D01*
X40718874Y-54862780D01*
X40307126Y-54862780D01*
X40065704Y-54962780D01*
X35183069Y-54962780D01*
X32456261Y-52235972D01*
X32404097Y-52157903D01*
X32094819Y-51951250D01*
X31966236Y-51925673D01*
X31928157Y-51734235D01*
X31787809Y-51524191D01*
X31577765Y-51383843D01*
X31474292Y-51363261D01*
X31751645Y-51058924D01*
X31921476Y-50648890D01*
X31800155Y-50419000D01*
X30607000Y-50419000D01*
X30607000Y-50439000D01*
X30353000Y-50439000D01*
X30353000Y-50419000D01*
X29159845Y-50419000D01*
X29038524Y-50648890D01*
X29208355Y-51058924D01*
X29485708Y-51363261D01*
X29382235Y-51383843D01*
X29172191Y-51524191D01*
X29031843Y-51734235D01*
X28982560Y-51982000D01*
X28650000Y-51982000D01*
X28650000Y-47752000D01*
X28965908Y-47752000D01*
X29081161Y-48331418D01*
X29409375Y-48822625D01*
X29728478Y-49035843D01*
X29598642Y-49096817D01*
X29208355Y-49525076D01*
X29038524Y-49935110D01*
X29159845Y-50165000D01*
X30353000Y-50165000D01*
X30353000Y-50145000D01*
X30607000Y-50145000D01*
X30607000Y-50165000D01*
X31800155Y-50165000D01*
X31841881Y-50085933D01*
X32013148Y-50120000D01*
X32013152Y-50120000D01*
X32087999Y-50134888D01*
X32162846Y-50120000D01*
X35256386Y-50120000D01*
X35273843Y-50207765D01*
X35414191Y-50417809D01*
X35624235Y-50558157D01*
X35872000Y-50607440D01*
X36772000Y-50607440D01*
X37019765Y-50558157D01*
X37229809Y-50417809D01*
X37370157Y-50207765D01*
X37388172Y-50117197D01*
X37460302Y-50189327D01*
X37693691Y-50286000D01*
X38134250Y-50286000D01*
X38293000Y-50127250D01*
X38293000Y-49403000D01*
X38273000Y-49403000D01*
X38273000Y-49270000D01*
X38567000Y-49270000D01*
X38567000Y-49403000D01*
X38547000Y-49403000D01*
X38547000Y-50127250D01*
X38705750Y-50286000D01*
X39146309Y-50286000D01*
X39351000Y-50201214D01*
X39351000Y-50243874D01*
X39508569Y-50624280D01*
X39799720Y-50915431D01*
X40180126Y-51073000D01*
X40591874Y-51073000D01*
X40972280Y-50915431D01*
X41263431Y-50624280D01*
X41421000Y-50243874D01*
X41421000Y-50044170D01*
X41518157Y-49898765D01*
X41567440Y-49651000D01*
X41567440Y-48901000D01*
X41518157Y-48653235D01*
X41377809Y-48443191D01*
X41293714Y-48387000D01*
X41377809Y-48330809D01*
X41518157Y-48120765D01*
X41567440Y-47873000D01*
X41567440Y-47123000D01*
X41518157Y-46875235D01*
X41410272Y-46713774D01*
X41421000Y-46687874D01*
X41421000Y-46276126D01*
X41263431Y-45895720D01*
X40972280Y-45604569D01*
X40591874Y-45447000D01*
X40180126Y-45447000D01*
X39799720Y-45604569D01*
X39508569Y-45895720D01*
X39351000Y-46276126D01*
X39351000Y-46572786D01*
X39146309Y-46488000D01*
X38705750Y-46488000D01*
X38547000Y-46646750D01*
X38547000Y-47371000D01*
X38567000Y-47371000D01*
X38567000Y-47625000D01*
X38547000Y-47625000D01*
X38547000Y-47645000D01*
X38293000Y-47645000D01*
X38293000Y-47625000D01*
X38273000Y-47625000D01*
X38273000Y-47371000D01*
X38293000Y-47371000D01*
X38293000Y-46646750D01*
X38134250Y-46488000D01*
X37693691Y-46488000D01*
X37460302Y-46584673D01*
X37419440Y-46625535D01*
X37419440Y-46560000D01*
X37370157Y-46312235D01*
X37229809Y-46102191D01*
X37019765Y-45961843D01*
X36772000Y-45912560D01*
X35946271Y-45912560D01*
X35892280Y-45858569D01*
X35511874Y-45701000D01*
X35100126Y-45701000D01*
X34719720Y-45858569D01*
X34428569Y-46149720D01*
X34271000Y-46530126D01*
X34271000Y-46941874D01*
X34428569Y-47322280D01*
X34719720Y-47613431D01*
X35100126Y-47771000D01*
X35226748Y-47771000D01*
X35273843Y-48007765D01*
X35414191Y-48217809D01*
X35477334Y-48260000D01*
X35414191Y-48302191D01*
X35273843Y-48512235D01*
X35256386Y-48600000D01*
X32402803Y-48600000D01*
X31921209Y-48118407D01*
X31994092Y-47752000D01*
X31878839Y-47172582D01*
X31550625Y-46681375D01*
X31231522Y-46468157D01*
X31361358Y-46407183D01*
X31751645Y-45978924D01*
X31921476Y-45568890D01*
X31800155Y-45339000D01*
X30607000Y-45339000D01*
X30607000Y-45359000D01*
X30353000Y-45359000D01*
X30353000Y-45339000D01*
X29159845Y-45339000D01*
X29038524Y-45568890D01*
X29208355Y-45978924D01*
X29598642Y-46407183D01*
X29728478Y-46468157D01*
X29409375Y-46681375D01*
X29081161Y-47172582D01*
X28965908Y-47752000D01*
X28650000Y-47752000D01*
X28650000Y-44855110D01*
X29038524Y-44855110D01*
X29159845Y-45085000D01*
X30353000Y-45085000D01*
X30353000Y-43891181D01*
X30607000Y-43891181D01*
X30607000Y-45085000D01*
X31800155Y-45085000D01*
X31921476Y-44855110D01*
X31751645Y-44445076D01*
X31361358Y-44016817D01*
X30836892Y-43770514D01*
X30607000Y-43891181D01*
X30353000Y-43891181D01*
X30123108Y-43770514D01*
X29598642Y-44016817D01*
X29208355Y-44445076D01*
X29038524Y-44855110D01*
X28650000Y-44855110D01*
X28650000Y-42057201D01*
X35801743Y-42057201D01*
X35801743Y-42374508D01*
X35801847Y-42375033D01*
X35801744Y-42375557D01*
X35801915Y-42479895D01*
X35802380Y-42482212D01*
X35801939Y-42484537D01*
X35802641Y-42563478D01*
X35803813Y-42569106D01*
X35802841Y-42574773D01*
X35804359Y-42631948D01*
X35807258Y-42644736D01*
X35805565Y-42657736D01*
X35808180Y-42696775D01*
X35816143Y-42726325D01*
X35815077Y-42756911D01*
X35819074Y-42781445D01*
X35845048Y-42850903D01*
X35859537Y-42923631D01*
X35865200Y-42937291D01*
X35879666Y-42958927D01*
X35879994Y-42960360D01*
X35880878Y-42961605D01*
X35888050Y-42986420D01*
X35902478Y-43004481D01*
X35906539Y-43015341D01*
X35922917Y-43032902D01*
X35926620Y-43042487D01*
X35956490Y-43073828D01*
X36003997Y-43144880D01*
X36017475Y-43153880D01*
X36024617Y-43163933D01*
X36035122Y-43170525D01*
X36043909Y-43181525D01*
X36051520Y-43187941D01*
X36080470Y-43203909D01*
X36098905Y-43223252D01*
X36165535Y-43252745D01*
X36211671Y-43283551D01*
X36216888Y-43284587D01*
X36236135Y-43296665D01*
X36239258Y-43297855D01*
X36255895Y-43300672D01*
X36270178Y-43308550D01*
X36298857Y-43311757D01*
X36327251Y-43324325D01*
X36346086Y-43328544D01*
X36352839Y-43328706D01*
X36359072Y-43331312D01*
X36400682Y-43339730D01*
X36402509Y-43339736D01*
X36404196Y-43340430D01*
X36410240Y-43341618D01*
X36406806Y-43345388D01*
X36377904Y-43393345D01*
X36369832Y-43415733D01*
X36355143Y-43434455D01*
X36338179Y-43467939D01*
X36323230Y-43521414D01*
X36296972Y-43570335D01*
X36290249Y-43592360D01*
X36289048Y-43604336D01*
X36283752Y-43615146D01*
X36279892Y-43676442D01*
X36270949Y-43708434D01*
X36271473Y-43712779D01*
X36267954Y-43723990D01*
X36272227Y-43772138D01*
X36265341Y-43840829D01*
X36267913Y-43849360D01*
X36267290Y-43855699D01*
X36268379Y-43859285D01*
X36268059Y-43864368D01*
X36269882Y-43877946D01*
X36285725Y-43924227D01*
X36290029Y-43972728D01*
X36316499Y-44023422D01*
X36317673Y-44030938D01*
X36323311Y-44040183D01*
X36339848Y-44094640D01*
X36339894Y-44094727D01*
X36347088Y-44103488D01*
X36350756Y-44114203D01*
X36383000Y-44150780D01*
X36405611Y-44194084D01*
X36419961Y-44211917D01*
X36436479Y-44225742D01*
X36447695Y-44244133D01*
X36479432Y-44278613D01*
X36485069Y-44282727D01*
X36488829Y-44288605D01*
X36534516Y-44336154D01*
X36537842Y-44338474D01*
X36540070Y-44341863D01*
X36596264Y-44398909D01*
X36598927Y-44400718D01*
X36600722Y-44403390D01*
X36663986Y-44466357D01*
X36665378Y-44467282D01*
X36666319Y-44468668D01*
X36673453Y-44475696D01*
X36675791Y-44477233D01*
X36677381Y-44479532D01*
X36757109Y-44556739D01*
X36763900Y-44561121D01*
X36768661Y-44567651D01*
X36830188Y-44624341D01*
X36843676Y-44632576D01*
X36853597Y-44644880D01*
X36898161Y-44682100D01*
X36931663Y-44700380D01*
X36958954Y-44727055D01*
X36987790Y-44745850D01*
X37090353Y-44786968D01*
X37117368Y-44801708D01*
X37127924Y-44802840D01*
X37181312Y-44829491D01*
X37198362Y-44830692D01*
X37217182Y-44838320D01*
X37229884Y-44840746D01*
X37330274Y-44839982D01*
X37430411Y-44847034D01*
X37454351Y-44839037D01*
X37479592Y-44838845D01*
X37572042Y-44799723D01*
X37667261Y-44767916D01*
X37685797Y-44757334D01*
X37697413Y-44747246D01*
X37711754Y-44741688D01*
X37750221Y-44717244D01*
X37753612Y-44714005D01*
X37757961Y-44712247D01*
X37769658Y-44704575D01*
X37774944Y-44731769D01*
X37776387Y-44735296D01*
X37776415Y-44739105D01*
X37781583Y-44764127D01*
X37785094Y-44772431D01*
X37785410Y-44781442D01*
X37785500Y-44781824D01*
X37791934Y-44795936D01*
X37792725Y-44808818D01*
X37794273Y-44811990D01*
X37794676Y-44816408D01*
X37797821Y-44827052D01*
X37815567Y-44860837D01*
X37818454Y-44878457D01*
X37854498Y-44936577D01*
X37878832Y-44994128D01*
X37885102Y-45000306D01*
X37889084Y-45009042D01*
X37891589Y-45011377D01*
X37902255Y-45033231D01*
X37908370Y-45041268D01*
X37912046Y-45044519D01*
X37913941Y-45048126D01*
X37934079Y-45064898D01*
X37950065Y-45090675D01*
X38025688Y-45145004D01*
X38095442Y-45206682D01*
X38126335Y-45217310D01*
X38152870Y-45236373D01*
X38165619Y-45242167D01*
X38246000Y-45261011D01*
X38323138Y-45290472D01*
X38346185Y-45294392D01*
X38379594Y-45293460D01*
X38411877Y-45302098D01*
X38448887Y-45304510D01*
X38462366Y-45302730D01*
X38475636Y-45305692D01*
X38530271Y-45306962D01*
X38535641Y-45306023D01*
X38540980Y-45307121D01*
X38616903Y-45307615D01*
X38618715Y-45307267D01*
X38620528Y-45307629D01*
X38721405Y-45307714D01*
X38721675Y-45307661D01*
X38721944Y-45307714D01*
X38735000Y-45307714D01*
X38735191Y-45307676D01*
X38735382Y-45307714D01*
X38839292Y-45307652D01*
X38840853Y-45307340D01*
X38842414Y-45307642D01*
X38920958Y-45307212D01*
X38925744Y-45306233D01*
X38930557Y-45307088D01*
X38987401Y-45305924D01*
X38999409Y-45303279D01*
X39011589Y-45304971D01*
X39050396Y-45302706D01*
X39079611Y-45295101D01*
X39109766Y-45296451D01*
X39134199Y-45292718D01*
X39204557Y-45267198D01*
X39278072Y-45253140D01*
X39291796Y-45247574D01*
X39314157Y-45232871D01*
X39339937Y-45225692D01*
X39358017Y-45211535D01*
X39368949Y-45207570D01*
X39403944Y-45175573D01*
X39409028Y-45171593D01*
X39412767Y-45170080D01*
X39419042Y-45163906D01*
X39500448Y-45110380D01*
X39515480Y-45088240D01*
X39536551Y-45071741D01*
X39543228Y-45063974D01*
X39544614Y-45061519D01*
X39546819Y-45059761D01*
X39566682Y-45023844D01*
X39579333Y-45012129D01*
X39584305Y-45001319D01*
X39590778Y-44994951D01*
X39610647Y-44948069D01*
X39640715Y-44903782D01*
X39644805Y-44883988D01*
X39665961Y-44846501D01*
X39666301Y-44843705D01*
X39667667Y-44841235D01*
X39670963Y-44830903D01*
X39673656Y-44807060D01*
X39683682Y-44785261D01*
X39684002Y-44783923D01*
X39684380Y-44774091D01*
X39688219Y-44765032D01*
X39693225Y-44740896D01*
X39693258Y-44736883D01*
X39694778Y-44733169D01*
X39700348Y-44704548D01*
X39703645Y-44705888D01*
X39706511Y-44708650D01*
X39748899Y-44735843D01*
X39758865Y-44739755D01*
X39766817Y-44746926D01*
X39790166Y-44760842D01*
X39796986Y-44763263D01*
X39801519Y-44767217D01*
X39826186Y-44775517D01*
X39847737Y-44791297D01*
X39849954Y-44792329D01*
X39942395Y-44814884D01*
X40025492Y-44844383D01*
X40030134Y-44844143D01*
X40038195Y-44846856D01*
X40065736Y-44844977D01*
X40092552Y-44851520D01*
X40189474Y-44836536D01*
X40226714Y-44833995D01*
X40245036Y-44833049D01*
X40275277Y-44832402D01*
X40279908Y-44830366D01*
X40287331Y-44829860D01*
X40304299Y-44825266D01*
X40323261Y-44815852D01*
X40339336Y-44813367D01*
X40388726Y-44783352D01*
X40403009Y-44776261D01*
X40503885Y-44731923D01*
X40535576Y-44709752D01*
X40557398Y-44686975D01*
X40584903Y-44671530D01*
X40632554Y-44630738D01*
X40641070Y-44619910D01*
X40652785Y-44612662D01*
X40717631Y-44552204D01*
X40721555Y-44546754D01*
X40727192Y-44543104D01*
X40793391Y-44478782D01*
X40795422Y-44475835D01*
X40798406Y-44473856D01*
X40862223Y-44410471D01*
X40863988Y-44407849D01*
X40866604Y-44406077D01*
X40923718Y-44348238D01*
X40925864Y-44344982D01*
X40929066Y-44342757D01*
X40976042Y-44294034D01*
X40979509Y-44288635D01*
X40984702Y-44284872D01*
X41018100Y-44248837D01*
X41027546Y-44233468D01*
X41041543Y-44222089D01*
X41057925Y-44202316D01*
X41081311Y-44159048D01*
X41114308Y-44122579D01*
X41114917Y-44121561D01*
X41116422Y-44117343D01*
X41119382Y-44113980D01*
X41130110Y-44082558D01*
X41133169Y-44078800D01*
X41143168Y-44045345D01*
X41148855Y-44036091D01*
X41149312Y-44033232D01*
X41176659Y-43982634D01*
X41181606Y-43934682D01*
X41198846Y-43886372D01*
X41198622Y-43881899D01*
X41200070Y-43877659D01*
X41201881Y-43864090D01*
X41201082Y-43851563D01*
X41204675Y-43839541D01*
X41198065Y-43775146D01*
X41202286Y-43734237D01*
X41197521Y-43718263D01*
X41198770Y-43707818D01*
X41189902Y-43676229D01*
X41185990Y-43614881D01*
X41180459Y-43603616D01*
X41179178Y-43591131D01*
X41172356Y-43568971D01*
X41146174Y-43520468D01*
X41131275Y-43467397D01*
X41114132Y-43433652D01*
X41099565Y-43415128D01*
X41091564Y-43392963D01*
X41062417Y-43344641D01*
X41059660Y-43341617D01*
X41086310Y-43336332D01*
X41088871Y-43335273D01*
X41091645Y-43335251D01*
X41124592Y-43328426D01*
X41133599Y-43324611D01*
X41143374Y-43324240D01*
X41151455Y-43322311D01*
X41168381Y-43314535D01*
X41172937Y-43314265D01*
X41235551Y-43283878D01*
X41320020Y-43255685D01*
X41328368Y-43250923D01*
X41348162Y-43233743D01*
X41354536Y-43231043D01*
X41358192Y-43227328D01*
X41378368Y-43218059D01*
X41384249Y-43211713D01*
X41397594Y-43205237D01*
X41453439Y-43142364D01*
X41516953Y-43087236D01*
X41528412Y-43064296D01*
X41541405Y-43051882D01*
X41548902Y-43034889D01*
X41563427Y-43018536D01*
X41569728Y-43007780D01*
X41583632Y-42967655D01*
X41588716Y-42961365D01*
X41601559Y-42917857D01*
X41628542Y-42863839D01*
X41629339Y-42852565D01*
X41642200Y-42823413D01*
X41646739Y-42803033D01*
X41647166Y-42784309D01*
X41651490Y-42771830D01*
X41650350Y-42752575D01*
X41659415Y-42721867D01*
X41662474Y-42688231D01*
X41660631Y-42670851D01*
X41664669Y-42653850D01*
X41666532Y-42603330D01*
X41665319Y-42595787D01*
X41666910Y-42588312D01*
X41667685Y-42530418D01*
X44801667Y-42530418D01*
X44891086Y-42789448D01*
X45473472Y-43003367D01*
X46093391Y-42978132D01*
X46548914Y-42789448D01*
X46638333Y-42530418D01*
X45720000Y-41612085D01*
X44801667Y-42530418D01*
X41667685Y-42530418D01*
X41667861Y-42517276D01*
X41667267Y-42514068D01*
X41667914Y-42510873D01*
X41668236Y-42415689D01*
X41668052Y-42414747D01*
X41668240Y-42413803D01*
X41668257Y-42374787D01*
X41668229Y-42374647D01*
X41668257Y-42374508D01*
X41668257Y-42057201D01*
X41655868Y-41994916D01*
X41655774Y-41931415D01*
X41631746Y-41873649D01*
X41619540Y-41812284D01*
X41584259Y-41759482D01*
X41559871Y-41700850D01*
X41515565Y-41656675D01*
X41480805Y-41604653D01*
X41428004Y-41569373D01*
X41383034Y-41524535D01*
X41325195Y-41500677D01*
X41273174Y-41465918D01*
X41210892Y-41453529D01*
X41152186Y-41429314D01*
X41075986Y-41414274D01*
X41074417Y-41414276D01*
X41072966Y-41413686D01*
X41064650Y-41412086D01*
X41113625Y-41340048D01*
X41139101Y-41279912D01*
X41175430Y-41225640D01*
X41183358Y-41185952D01*
X44149113Y-41185952D01*
X44174348Y-41805871D01*
X44363032Y-42261394D01*
X44622062Y-42350813D01*
X45540395Y-41432480D01*
X45899605Y-41432480D01*
X46817938Y-42350813D01*
X47076968Y-42261394D01*
X47290887Y-41679008D01*
X47265652Y-41059089D01*
X47076968Y-40603566D01*
X46817938Y-40514147D01*
X45899605Y-41432480D01*
X45540395Y-41432480D01*
X44622062Y-40514147D01*
X44363032Y-40603566D01*
X44149113Y-41185952D01*
X41183358Y-41185952D01*
X41187333Y-41166060D01*
X41211033Y-41110115D01*
X41211557Y-41044806D01*
X41224351Y-40980763D01*
X41212548Y-40921164D01*
X41213035Y-40860407D01*
X41188527Y-40799871D01*
X41175839Y-40735804D01*
X41142126Y-40685257D01*
X41119326Y-40628941D01*
X41073517Y-40582391D01*
X41037278Y-40528058D01*
X40844087Y-40334542D01*
X44801667Y-40334542D01*
X45720000Y-41252875D01*
X46638333Y-40334542D01*
X46548914Y-40075512D01*
X45966528Y-39861593D01*
X45346609Y-39886828D01*
X44891086Y-40075512D01*
X44801667Y-40334542D01*
X40844087Y-40334542D01*
X40820356Y-40310772D01*
X40818169Y-40309308D01*
X40816693Y-40307133D01*
X40751083Y-40242465D01*
X40746455Y-40239421D01*
X40743266Y-40234890D01*
X40683425Y-40177883D01*
X40677594Y-40174188D01*
X40673500Y-40168626D01*
X40622788Y-40122326D01*
X40613186Y-40116523D01*
X40606229Y-40107724D01*
X40568008Y-40075172D01*
X40547418Y-40063679D01*
X40540416Y-40055014D01*
X40532645Y-40050784D01*
X40521619Y-40039201D01*
X40499248Y-40023442D01*
X40428438Y-39992045D01*
X40370503Y-39953600D01*
X40344876Y-39948587D01*
X40321083Y-39935637D01*
X40317874Y-39934638D01*
X40293017Y-39932000D01*
X40270967Y-39922223D01*
X40201325Y-39920506D01*
X40125432Y-39905660D01*
X40097692Y-39911269D01*
X40069553Y-39908283D01*
X40041489Y-39916565D01*
X40021327Y-39916068D01*
X39963292Y-39938448D01*
X39880671Y-39955155D01*
X39861831Y-39963029D01*
X39844475Y-39974706D01*
X39830049Y-39978963D01*
X39818000Y-39988700D01*
X39791950Y-39997369D01*
X39753504Y-40019260D01*
X39744568Y-40027003D01*
X39733494Y-40031141D01*
X39679644Y-40064452D01*
X39674694Y-40069066D01*
X39668404Y-40071567D01*
X39603349Y-40113703D01*
X39599573Y-40117373D01*
X39594714Y-40119396D01*
X39565886Y-40138737D01*
X39534830Y-40134105D01*
X39519699Y-40130999D01*
X39515120Y-40129739D01*
X39514151Y-40129860D01*
X39429256Y-40112433D01*
X39402117Y-40112267D01*
X39396133Y-40113419D01*
X39394442Y-40113167D01*
X39394245Y-40113216D01*
X39389368Y-40112316D01*
X39273369Y-40137059D01*
X39156906Y-40159485D01*
X39151491Y-40163056D01*
X39145146Y-40164409D01*
X39047438Y-40231665D01*
X38948430Y-40296947D01*
X38944794Y-40302318D01*
X38939450Y-40305996D01*
X38925305Y-40320537D01*
X38857966Y-40424392D01*
X38856456Y-40426705D01*
X38791927Y-40523937D01*
X38785058Y-40540670D01*
X38768504Y-40580800D01*
X38743208Y-40642050D01*
X38743207Y-40642052D01*
X38734920Y-40662105D01*
X38723829Y-40635264D01*
X38699345Y-40575955D01*
X38683887Y-40538439D01*
X38678315Y-40524809D01*
X38612995Y-40426069D01*
X38549732Y-40326014D01*
X38535770Y-40311329D01*
X38528636Y-40306298D01*
X38523775Y-40299047D01*
X38426863Y-40234515D01*
X38331706Y-40167400D01*
X38323189Y-40165481D01*
X38315923Y-40160643D01*
X38201683Y-40138108D01*
X38088095Y-40112519D01*
X38079888Y-40113937D01*
X38076749Y-40113149D01*
X38075836Y-40113284D01*
X38070929Y-40112316D01*
X38043921Y-40112359D01*
X37957236Y-40129745D01*
X37955614Y-40129542D01*
X37948471Y-40131503D01*
X37937299Y-40133744D01*
X37903989Y-40138664D01*
X37873582Y-40118272D01*
X37868651Y-40116220D01*
X37864817Y-40112497D01*
X37799975Y-40070537D01*
X37793637Y-40068020D01*
X37788647Y-40063374D01*
X37735108Y-40030298D01*
X37723814Y-40026085D01*
X37714696Y-40018205D01*
X37676658Y-39996611D01*
X37638762Y-39984054D01*
X37605565Y-39961876D01*
X37587401Y-39954354D01*
X37542809Y-39945488D01*
X37501835Y-39925801D01*
X37455187Y-39923223D01*
X37439618Y-39918064D01*
X37414196Y-39919916D01*
X37342480Y-39905657D01*
X37297890Y-39914530D01*
X37252500Y-39912022D01*
X37176531Y-39938681D01*
X37167753Y-39940428D01*
X37139664Y-39943211D01*
X37131318Y-39947678D01*
X37097566Y-39954395D01*
X37059769Y-39979655D01*
X37016872Y-39994708D01*
X37000147Y-40004594D01*
X36963211Y-40037661D01*
X36919505Y-40061056D01*
X36885877Y-40088687D01*
X36876903Y-40099635D01*
X36864723Y-40106854D01*
X36817554Y-40149185D01*
X36812904Y-40155391D01*
X36806327Y-40159504D01*
X36748974Y-40213494D01*
X36745604Y-40218222D01*
X36740741Y-40221385D01*
X36676567Y-40283991D01*
X36674600Y-40286857D01*
X36671703Y-40288786D01*
X36650716Y-40309703D01*
X36650257Y-40310388D01*
X36649572Y-40310846D01*
X36432574Y-40528206D01*
X36396150Y-40582817D01*
X36350155Y-40629654D01*
X36327541Y-40685683D01*
X36294012Y-40735952D01*
X36281259Y-40800348D01*
X36256690Y-40861219D01*
X36257238Y-40921640D01*
X36245500Y-40980910D01*
X36258360Y-41045279D01*
X36258955Y-41110925D01*
X36282585Y-41166539D01*
X36294421Y-41225787D01*
X36330935Y-41280335D01*
X36356606Y-41340755D01*
X36405332Y-41412265D01*
X36404294Y-41412262D01*
X36395077Y-41414066D01*
X36394568Y-41414275D01*
X36394014Y-41414274D01*
X36317814Y-41429314D01*
X36259108Y-41453529D01*
X36196826Y-41465918D01*
X36144805Y-41500677D01*
X36086966Y-41524535D01*
X36041996Y-41569373D01*
X35989195Y-41604653D01*
X35954435Y-41656675D01*
X35910129Y-41700850D01*
X35885741Y-41759482D01*
X35850460Y-41812284D01*
X35838254Y-41873649D01*
X35814226Y-41931415D01*
X35814132Y-41994918D01*
X35801743Y-42057201D01*
X28650000Y-42057201D01*
X28650000Y-33020000D01*
X28965908Y-33020000D01*
X29081161Y-33599418D01*
X29409375Y-34090625D01*
X29707761Y-34290000D01*
X29409375Y-34489375D01*
X29081161Y-34980582D01*
X28965908Y-35560000D01*
X29081161Y-36139418D01*
X29409375Y-36630625D01*
X29707761Y-36830000D01*
X29409375Y-37029375D01*
X29081161Y-37520582D01*
X28965908Y-38100000D01*
X29081161Y-38679418D01*
X29409375Y-39170625D01*
X29900582Y-39498839D01*
X30333744Y-39585000D01*
X30626256Y-39585000D01*
X31059418Y-39498839D01*
X31550625Y-39170625D01*
X31878839Y-38679418D01*
X31994092Y-38100000D01*
X31878839Y-37520582D01*
X31550625Y-37029375D01*
X31252239Y-36830000D01*
X31550625Y-36630625D01*
X31878839Y-36139418D01*
X31917548Y-35944810D01*
X36501070Y-35944810D01*
X36501070Y-37154429D01*
X36597743Y-37387818D01*
X36776371Y-37566447D01*
X37009760Y-37663120D01*
X37354510Y-37663120D01*
X37513260Y-37504370D01*
X37513260Y-35786060D01*
X36659820Y-35786060D01*
X36501070Y-35944810D01*
X31917548Y-35944810D01*
X31994092Y-35560000D01*
X31878839Y-34980582D01*
X31550625Y-34489375D01*
X31252239Y-34290000D01*
X31441273Y-34163691D01*
X36501070Y-34163691D01*
X36501070Y-35373310D01*
X36659820Y-35532060D01*
X37513260Y-35532060D01*
X37513260Y-35512060D01*
X37767260Y-35512060D01*
X37767260Y-35532060D01*
X37787260Y-35532060D01*
X37787260Y-35786060D01*
X37767260Y-35786060D01*
X37767260Y-37504370D01*
X37926010Y-37663120D01*
X38270760Y-37663120D01*
X38504149Y-37566447D01*
X38641683Y-37428912D01*
X38679781Y-37485929D01*
X38889825Y-37626277D01*
X38971181Y-37642459D01*
X39093851Y-37826049D01*
X39157310Y-37868451D01*
X39619331Y-38330473D01*
X39661731Y-38393929D01*
X39913123Y-38561904D01*
X40134808Y-38606000D01*
X40134812Y-38606000D01*
X40204064Y-38619775D01*
X40307720Y-38723431D01*
X40688126Y-38881000D01*
X41099874Y-38881000D01*
X41480280Y-38723431D01*
X41771431Y-38432280D01*
X41929000Y-38051874D01*
X41929000Y-37675560D01*
X42142410Y-37675560D01*
X42390175Y-37626277D01*
X42600219Y-37485929D01*
X42638980Y-37427920D01*
X42677741Y-37485929D01*
X42887785Y-37626277D01*
X43135550Y-37675560D01*
X44143930Y-37675560D01*
X44391695Y-37626277D01*
X44601739Y-37485929D01*
X44742087Y-37275885D01*
X44791370Y-37028120D01*
X44791370Y-34290000D01*
X44742087Y-34042235D01*
X44601739Y-33832191D01*
X44391695Y-33691843D01*
X44143930Y-33642560D01*
X43562912Y-33642560D01*
X41185881Y-31265530D01*
X41143479Y-31202071D01*
X40892087Y-31034096D01*
X40670402Y-30990000D01*
X40670397Y-30990000D01*
X40595550Y-30975112D01*
X40520703Y-30990000D01*
X38803711Y-30990000D01*
X38686280Y-30872569D01*
X38305874Y-30715000D01*
X37894126Y-30715000D01*
X37513720Y-30872569D01*
X37222569Y-31163720D01*
X37065000Y-31544126D01*
X37065000Y-31955874D01*
X37222569Y-32336280D01*
X37271289Y-32385000D01*
X37222569Y-32433720D01*
X37065000Y-32814126D01*
X37065000Y-33225874D01*
X37222569Y-33606280D01*
X37271289Y-33655000D01*
X37009760Y-33655000D01*
X36776371Y-33751673D01*
X36597743Y-33930302D01*
X36501070Y-34163691D01*
X31441273Y-34163691D01*
X31550625Y-34090625D01*
X31878839Y-33599418D01*
X31994092Y-33020000D01*
X31878839Y-32440582D01*
X31550625Y-31949375D01*
X31532381Y-31937184D01*
X31577765Y-31928157D01*
X31787809Y-31787809D01*
X31928157Y-31577765D01*
X31977440Y-31330000D01*
X31977440Y-29630000D01*
X31928157Y-29382235D01*
X31787809Y-29172191D01*
X31577765Y-29031843D01*
X31330000Y-28982560D01*
X29630000Y-28982560D01*
X29382235Y-29031843D01*
X29172191Y-29172191D01*
X29031843Y-29382235D01*
X28982560Y-29630000D01*
X28982560Y-31330000D01*
X29031843Y-31577765D01*
X29172191Y-31787809D01*
X29382235Y-31928157D01*
X29427619Y-31937184D01*
X29409375Y-31949375D01*
X29081161Y-32440582D01*
X28965908Y-33020000D01*
X28650000Y-33020000D01*
X28650000Y-27984666D01*
X28712958Y-27486302D01*
X28881305Y-27061107D01*
X29150101Y-26691142D01*
X29502462Y-26399644D01*
X29916244Y-26204933D01*
X30398662Y-26112907D01*
X30491164Y-26110000D01*
X34175025Y-26110000D01*
X34035391Y-26203301D01*
G04 #@! TD*
M02*
