%FSLAX45Y45*%
G04 Gerber Fmt 4.5, Leading zero omitted, Abs format (unit mm)*
G04 Created by KiCad (PCBNEW 5.0.1) date Sat 17 Nov 2018 00:40:31 AEDT*
%MOMM*%
%LPD*%
G01*
G04 APERTURE LIST*
%ADD10C,0.150000*%
%ADD11C,0.200000*%
%ADD12C,0.300000*%
G04 APERTURE END LIST*
D10*
X3048000Y-2540000D02*
X4699000Y-2540000D01*
X2794000Y-6858000D02*
X2794000Y-2794000D01*
X4699000Y-7112000D02*
X3048000Y-7112000D01*
X4953000Y-2794000D02*
X4953000Y-6858000D01*
X4953000Y-6858000D02*
G75*
G02X4699000Y-7112000I-254000J0D01*
G01*
X3048000Y-7112000D02*
G75*
G02X2794000Y-6858000I0J254000D01*
G01*
X2794000Y-2794000D02*
G75*
G02X3048000Y-2540000I254000J0D01*
G01*
X4699000Y-2540000D02*
G75*
G02X4953000Y-2794000I0J-254000D01*
G01*
D11*
D12*
X3072928Y-7585214D02*
X3072928Y-7285214D01*
X3144357Y-7285214D01*
X3187214Y-7299500D01*
X3215786Y-7328071D01*
X3230071Y-7356643D01*
X3244357Y-7413786D01*
X3244357Y-7456643D01*
X3230071Y-7513786D01*
X3215786Y-7542357D01*
X3187214Y-7570929D01*
X3144357Y-7585214D01*
X3072928Y-7585214D01*
X3372928Y-7585214D02*
X3372928Y-7385214D01*
X3372928Y-7442357D02*
X3387214Y-7413786D01*
X3401500Y-7399500D01*
X3430071Y-7385214D01*
X3458643Y-7385214D01*
X3558643Y-7585214D02*
X3558643Y-7385214D01*
X3558643Y-7285214D02*
X3544357Y-7299500D01*
X3558643Y-7313786D01*
X3572928Y-7299500D01*
X3558643Y-7285214D01*
X3558643Y-7313786D01*
X3744357Y-7585214D02*
X3715786Y-7570929D01*
X3701500Y-7542357D01*
X3701500Y-7285214D01*
X3901500Y-7585214D02*
X3872928Y-7570929D01*
X3858643Y-7542357D01*
X3858643Y-7285214D01*
X4244357Y-7585214D02*
X4244357Y-7285214D01*
X4344357Y-7499500D01*
X4444357Y-7285214D01*
X4444357Y-7585214D01*
X4715786Y-7585214D02*
X4715786Y-7428071D01*
X4701500Y-7399500D01*
X4672928Y-7385214D01*
X4615786Y-7385214D01*
X4587214Y-7399500D01*
X4715786Y-7570929D02*
X4687214Y-7585214D01*
X4615786Y-7585214D01*
X4587214Y-7570929D01*
X4572928Y-7542357D01*
X4572928Y-7513786D01*
X4587214Y-7485214D01*
X4615786Y-7470929D01*
X4687214Y-7470929D01*
X4715786Y-7456643D01*
X4858643Y-7385214D02*
X4858643Y-7685214D01*
X4858643Y-7399500D02*
X4887214Y-7385214D01*
X4944357Y-7385214D01*
X4972928Y-7399500D01*
X4987214Y-7413786D01*
X5001500Y-7442357D01*
X5001500Y-7528071D01*
X4987214Y-7556643D01*
X4972928Y-7570929D01*
X4944357Y-7585214D01*
X4887214Y-7585214D01*
X4858643Y-7570929D01*
X5130071Y-7556643D02*
X5144357Y-7570929D01*
X5130071Y-7585214D01*
X5115786Y-7570929D01*
X5130071Y-7556643D01*
X5130071Y-7585214D01*
X5130071Y-7399500D02*
X5144357Y-7413786D01*
X5130071Y-7428071D01*
X5115786Y-7413786D01*
X5130071Y-7399500D01*
X5130071Y-7428071D01*
M02*
