M48
METRIC,TZ
T1C0.400
T2C2.200
%
G90
G05
T1
X126111Y-84455
X127381Y-84455
X128524Y-84455
X129794Y-84455
X130302Y-91440
X131064Y-84455
X132334Y-84455
X132461Y-92329
X133858Y-91694
X137100Y-91059
X138430Y-98552
X142494Y-90170
X144399Y-91821
X144413Y-90167
X145542Y-90170
X146558Y-90170
X150622Y-90424
X151765Y-90424
X153035Y-90424
X154200Y-90400
X154650Y-93100
X159131Y-91821
X159200Y-89600
X163322Y-92075
X167400Y-98600
X168021Y-91186
X168021Y-92202
X168529Y-84440
X168529Y-93472
X169799Y-93472
X171069Y-93472
X171958Y-92075
X173101Y-98552
X174371Y-98552
X175641Y-98552
T2
X123825Y-91440
X177165Y-91440
T0
M30
