G04 #@! TF.FileFunction,Legend,Bot*
%FSLAX46Y46*%
G04 Gerber Fmt 4.6, Leading zero omitted, Abs format (unit mm)*
G04 Created by KiCad (PCBNEW 4.0.7) date Mon Dec  4 22:09:09 2017*
%MOMM*%
%LPD*%
G01*
G04 APERTURE LIST*
%ADD10C,0.100000*%
%ADD11C,0.200000*%
%ADD12C,0.120000*%
%ADD13C,0.254000*%
%ADD14C,0.150000*%
%ADD15C,0.097790*%
G04 APERTURE END LIST*
D10*
D11*
X168346381Y-86320953D02*
X168346381Y-85749524D01*
X168346381Y-86035238D02*
X167346381Y-86035238D01*
X167489238Y-85940000D01*
X167584476Y-85844762D01*
X167632095Y-85749524D01*
X168346381Y-86797143D02*
X168346381Y-86987619D01*
X168298762Y-87082858D01*
X168251143Y-87130477D01*
X168108286Y-87225715D01*
X167917810Y-87273334D01*
X167536857Y-87273334D01*
X167441619Y-87225715D01*
X167394000Y-87178096D01*
X167346381Y-87082858D01*
X167346381Y-86892381D01*
X167394000Y-86797143D01*
X167441619Y-86749524D01*
X167536857Y-86701905D01*
X167774952Y-86701905D01*
X167870190Y-86749524D01*
X167917810Y-86797143D01*
X167965429Y-86892381D01*
X167965429Y-87082858D01*
X167917810Y-87178096D01*
X167870190Y-87225715D01*
X167774952Y-87273334D01*
X167441619Y-88416191D02*
X167394000Y-88463810D01*
X167346381Y-88559048D01*
X167346381Y-88797144D01*
X167394000Y-88892382D01*
X167441619Y-88940001D01*
X167536857Y-88987620D01*
X167632095Y-88987620D01*
X167774952Y-88940001D01*
X168346381Y-88368572D01*
X168346381Y-88987620D01*
X167346381Y-89606667D02*
X167346381Y-89701906D01*
X167394000Y-89797144D01*
X167441619Y-89844763D01*
X167536857Y-89892382D01*
X167727333Y-89940001D01*
X167965429Y-89940001D01*
X168155905Y-89892382D01*
X168251143Y-89844763D01*
X168298762Y-89797144D01*
X168346381Y-89701906D01*
X168346381Y-89606667D01*
X168298762Y-89511429D01*
X168251143Y-89463810D01*
X168155905Y-89416191D01*
X167965429Y-89368572D01*
X167727333Y-89368572D01*
X167536857Y-89416191D01*
X167441619Y-89463810D01*
X167394000Y-89511429D01*
X167346381Y-89606667D01*
X168346381Y-91130477D02*
X167346381Y-91130477D01*
X167441619Y-91559048D02*
X167394000Y-91606667D01*
X167346381Y-91701905D01*
X167346381Y-91940001D01*
X167394000Y-92035239D01*
X167441619Y-92082858D01*
X167536857Y-92130477D01*
X167632095Y-92130477D01*
X167774952Y-92082858D01*
X168346381Y-91511429D01*
X168346381Y-92130477D01*
X168251143Y-93130477D02*
X168298762Y-93082858D01*
X168346381Y-92940001D01*
X168346381Y-92844763D01*
X168298762Y-92701905D01*
X168203524Y-92606667D01*
X168108286Y-92559048D01*
X167917810Y-92511429D01*
X167774952Y-92511429D01*
X167584476Y-92559048D01*
X167489238Y-92606667D01*
X167394000Y-92701905D01*
X167346381Y-92844763D01*
X167346381Y-92940001D01*
X167394000Y-93082858D01*
X167441619Y-93130477D01*
X167965429Y-94320953D02*
X167965429Y-95082858D01*
X168346381Y-94701906D02*
X167584476Y-94701906D01*
X167965429Y-96320953D02*
X167965429Y-97082858D01*
X158805619Y-86297142D02*
X158758000Y-86344761D01*
X158710381Y-86439999D01*
X158710381Y-86678095D01*
X158758000Y-86773333D01*
X158805619Y-86820952D01*
X158900857Y-86868571D01*
X158996095Y-86868571D01*
X159138952Y-86820952D01*
X159710381Y-86249523D01*
X159710381Y-86868571D01*
X159710381Y-89344762D02*
X159710381Y-88773333D01*
X159710381Y-89059047D02*
X158710381Y-89059047D01*
X158853238Y-88963809D01*
X158948476Y-88868571D01*
X158996095Y-88773333D01*
X158710381Y-90249524D02*
X158710381Y-89773333D01*
X159186571Y-89725714D01*
X159138952Y-89773333D01*
X159091333Y-89868571D01*
X159091333Y-90106667D01*
X159138952Y-90201905D01*
X159186571Y-90249524D01*
X159281810Y-90297143D01*
X159519905Y-90297143D01*
X159615143Y-90249524D01*
X159662762Y-90201905D01*
X159710381Y-90106667D01*
X159710381Y-89868571D01*
X159662762Y-89773333D01*
X159615143Y-89725714D01*
X159329429Y-93011429D02*
X159329429Y-93773334D01*
X159710381Y-93392382D02*
X158948476Y-93392382D01*
X159329429Y-95773334D02*
X159329429Y-96535239D01*
X151328381Y-86868571D02*
X151328381Y-86297142D01*
X151328381Y-86582856D02*
X150328381Y-86582856D01*
X150471238Y-86487618D01*
X150566476Y-86392380D01*
X150614095Y-86297142D01*
X151328381Y-89344762D02*
X151328381Y-88773333D01*
X151328381Y-89059047D02*
X150328381Y-89059047D01*
X150471238Y-88963809D01*
X150566476Y-88868571D01*
X150614095Y-88773333D01*
X150661714Y-90201905D02*
X151328381Y-90201905D01*
X150280762Y-89963809D02*
X150995048Y-89725714D01*
X150995048Y-90344762D01*
X150947429Y-93011429D02*
X150947429Y-93773334D01*
X151328381Y-93392382D02*
X150566476Y-93392382D01*
X150947429Y-95773334D02*
X150947429Y-96535239D01*
X141819381Y-86535237D02*
X141819381Y-86630476D01*
X141867000Y-86725714D01*
X141914619Y-86773333D01*
X142009857Y-86820952D01*
X142200333Y-86868571D01*
X142438429Y-86868571D01*
X142628905Y-86820952D01*
X142724143Y-86773333D01*
X142771762Y-86725714D01*
X142819381Y-86630476D01*
X142819381Y-86535237D01*
X142771762Y-86439999D01*
X142724143Y-86392380D01*
X142628905Y-86344761D01*
X142438429Y-86297142D01*
X142200333Y-86297142D01*
X142009857Y-86344761D01*
X141914619Y-86392380D01*
X141867000Y-86439999D01*
X141819381Y-86535237D01*
X142819381Y-89344762D02*
X142819381Y-88773333D01*
X142819381Y-89059047D02*
X141819381Y-89059047D01*
X141962238Y-88963809D01*
X142057476Y-88868571D01*
X142105095Y-88773333D01*
X141819381Y-89678095D02*
X141819381Y-90297143D01*
X142200333Y-89963809D01*
X142200333Y-90106667D01*
X142247952Y-90201905D01*
X142295571Y-90249524D01*
X142390810Y-90297143D01*
X142628905Y-90297143D01*
X142724143Y-90249524D01*
X142771762Y-90201905D01*
X142819381Y-90106667D01*
X142819381Y-89820952D01*
X142771762Y-89725714D01*
X142724143Y-89678095D01*
X142438429Y-93011429D02*
X142438429Y-93773334D01*
X142819381Y-93392382D02*
X142057476Y-93392382D01*
X142438429Y-95773334D02*
X142438429Y-96535239D01*
D12*
X143308524Y-84442714D02*
X143308524Y-84968905D01*
X143339476Y-85030810D01*
X143370428Y-85061762D01*
X143432333Y-85092714D01*
X143525190Y-85092714D01*
X143587095Y-85061762D01*
X143308524Y-84845095D02*
X143370428Y-84876048D01*
X143494238Y-84876048D01*
X143556143Y-84845095D01*
X143587095Y-84814143D01*
X143618047Y-84752238D01*
X143618047Y-84566524D01*
X143587095Y-84504619D01*
X143556143Y-84473667D01*
X143494238Y-84442714D01*
X143370428Y-84442714D01*
X143308524Y-84473667D01*
X142999000Y-84876048D02*
X142999000Y-84442714D01*
X142999000Y-84226048D02*
X143029952Y-84257000D01*
X142999000Y-84287952D01*
X142968048Y-84257000D01*
X142999000Y-84226048D01*
X142999000Y-84287952D01*
X142782333Y-84442714D02*
X142534714Y-84442714D01*
X142689476Y-84226048D02*
X142689476Y-84783190D01*
X142658524Y-84845095D01*
X142596619Y-84876048D01*
X142534714Y-84876048D01*
X142318047Y-84876048D02*
X142318047Y-84226048D01*
X142039476Y-84876048D02*
X142039476Y-84535571D01*
X142070428Y-84473667D01*
X142132333Y-84442714D01*
X142225190Y-84442714D01*
X142287095Y-84473667D01*
X142318047Y-84504619D01*
X141451381Y-84442714D02*
X141451381Y-84876048D01*
X141729952Y-84442714D02*
X141729952Y-84783190D01*
X141699000Y-84845095D01*
X141637095Y-84876048D01*
X141544238Y-84876048D01*
X141482333Y-84845095D01*
X141451381Y-84814143D01*
X141141857Y-84876048D02*
X141141857Y-84226048D01*
X141141857Y-84473667D02*
X141079952Y-84442714D01*
X140956143Y-84442714D01*
X140894238Y-84473667D01*
X140863286Y-84504619D01*
X140832333Y-84566524D01*
X140832333Y-84752238D01*
X140863286Y-84814143D01*
X140894238Y-84845095D01*
X140956143Y-84876048D01*
X141079952Y-84876048D01*
X141141857Y-84845095D01*
X140553762Y-84814143D02*
X140522810Y-84845095D01*
X140553762Y-84876048D01*
X140584714Y-84845095D01*
X140553762Y-84814143D01*
X140553762Y-84876048D01*
X139965667Y-84845095D02*
X140027571Y-84876048D01*
X140151381Y-84876048D01*
X140213286Y-84845095D01*
X140244238Y-84814143D01*
X140275190Y-84752238D01*
X140275190Y-84566524D01*
X140244238Y-84504619D01*
X140213286Y-84473667D01*
X140151381Y-84442714D01*
X140027571Y-84442714D01*
X139965667Y-84473667D01*
X139594238Y-84876048D02*
X139656143Y-84845095D01*
X139687095Y-84814143D01*
X139718047Y-84752238D01*
X139718047Y-84566524D01*
X139687095Y-84504619D01*
X139656143Y-84473667D01*
X139594238Y-84442714D01*
X139501381Y-84442714D01*
X139439476Y-84473667D01*
X139408524Y-84504619D01*
X139377571Y-84566524D01*
X139377571Y-84752238D01*
X139408524Y-84814143D01*
X139439476Y-84845095D01*
X139501381Y-84876048D01*
X139594238Y-84876048D01*
X139099000Y-84876048D02*
X139099000Y-84442714D01*
X139099000Y-84504619D02*
X139068048Y-84473667D01*
X139006143Y-84442714D01*
X138913286Y-84442714D01*
X138851381Y-84473667D01*
X138820429Y-84535571D01*
X138820429Y-84876048D01*
X138820429Y-84535571D02*
X138789476Y-84473667D01*
X138727572Y-84442714D01*
X138634714Y-84442714D01*
X138572810Y-84473667D01*
X138541857Y-84535571D01*
X138541857Y-84876048D01*
X137768047Y-84195095D02*
X138325190Y-85030810D01*
X137551381Y-84442714D02*
X137551381Y-84999857D01*
X137582333Y-85061762D01*
X137644238Y-85092714D01*
X137675191Y-85092714D01*
X137551381Y-84226048D02*
X137582333Y-84257000D01*
X137551381Y-84287952D01*
X137520429Y-84257000D01*
X137551381Y-84226048D01*
X137551381Y-84287952D01*
X137241857Y-84876048D02*
X137241857Y-84442714D01*
X137241857Y-84226048D02*
X137272809Y-84257000D01*
X137241857Y-84287952D01*
X137210905Y-84257000D01*
X137241857Y-84226048D01*
X137241857Y-84287952D01*
X136932333Y-84876048D02*
X136932333Y-84442714D01*
X136932333Y-84504619D02*
X136901381Y-84473667D01*
X136839476Y-84442714D01*
X136746619Y-84442714D01*
X136684714Y-84473667D01*
X136653762Y-84535571D01*
X136653762Y-84876048D01*
X136653762Y-84535571D02*
X136622809Y-84473667D01*
X136560905Y-84442714D01*
X136468047Y-84442714D01*
X136406143Y-84473667D01*
X136375190Y-84535571D01*
X136375190Y-84876048D01*
X136065666Y-84876048D02*
X136065666Y-84442714D01*
X136065666Y-84504619D02*
X136034714Y-84473667D01*
X135972809Y-84442714D01*
X135879952Y-84442714D01*
X135818047Y-84473667D01*
X135787095Y-84535571D01*
X135787095Y-84876048D01*
X135787095Y-84535571D02*
X135756142Y-84473667D01*
X135694238Y-84442714D01*
X135601380Y-84442714D01*
X135539476Y-84473667D01*
X135508523Y-84535571D01*
X135508523Y-84876048D01*
X135106142Y-84876048D02*
X135168047Y-84845095D01*
X135198999Y-84814143D01*
X135229951Y-84752238D01*
X135229951Y-84566524D01*
X135198999Y-84504619D01*
X135168047Y-84473667D01*
X135106142Y-84442714D01*
X135013285Y-84442714D01*
X134951380Y-84473667D01*
X134920428Y-84504619D01*
X134889475Y-84566524D01*
X134889475Y-84752238D01*
X134920428Y-84814143D01*
X134951380Y-84845095D01*
X135013285Y-84876048D01*
X135106142Y-84876048D01*
X134146618Y-84195095D02*
X134703761Y-85030810D01*
X133929952Y-84876048D02*
X133929952Y-84442714D01*
X133929952Y-84504619D02*
X133899000Y-84473667D01*
X133837095Y-84442714D01*
X133744238Y-84442714D01*
X133682333Y-84473667D01*
X133651381Y-84535571D01*
X133651381Y-84876048D01*
X133651381Y-84535571D02*
X133620428Y-84473667D01*
X133558524Y-84442714D01*
X133465666Y-84442714D01*
X133403762Y-84473667D01*
X133372809Y-84535571D01*
X133372809Y-84876048D01*
X133063285Y-84876048D02*
X133063285Y-84442714D01*
X133063285Y-84226048D02*
X133094237Y-84257000D01*
X133063285Y-84287952D01*
X133032333Y-84257000D01*
X133063285Y-84226048D01*
X133063285Y-84287952D01*
X132475190Y-84845095D02*
X132537094Y-84876048D01*
X132660904Y-84876048D01*
X132722809Y-84845095D01*
X132753761Y-84814143D01*
X132784713Y-84752238D01*
X132784713Y-84566524D01*
X132753761Y-84504619D01*
X132722809Y-84473667D01*
X132660904Y-84442714D01*
X132537094Y-84442714D01*
X132475190Y-84473667D01*
X132196618Y-84876048D02*
X132196618Y-84442714D01*
X132196618Y-84566524D02*
X132165666Y-84504619D01*
X132134713Y-84473667D01*
X132072809Y-84442714D01*
X132010904Y-84442714D01*
X131701380Y-84876048D02*
X131763285Y-84845095D01*
X131794237Y-84814143D01*
X131825189Y-84752238D01*
X131825189Y-84566524D01*
X131794237Y-84504619D01*
X131763285Y-84473667D01*
X131701380Y-84442714D01*
X131608523Y-84442714D01*
X131546618Y-84473667D01*
X131515666Y-84504619D01*
X131484713Y-84566524D01*
X131484713Y-84752238D01*
X131515666Y-84814143D01*
X131546618Y-84845095D01*
X131608523Y-84876048D01*
X131701380Y-84876048D01*
X131206142Y-84876048D02*
X131206142Y-84226048D01*
X131206142Y-84473667D02*
X131144237Y-84442714D01*
X131020428Y-84442714D01*
X130958523Y-84473667D01*
X130927571Y-84504619D01*
X130896618Y-84566524D01*
X130896618Y-84752238D01*
X130927571Y-84814143D01*
X130958523Y-84845095D01*
X131020428Y-84876048D01*
X131144237Y-84876048D01*
X131206142Y-84845095D01*
X130618047Y-84876048D02*
X130618047Y-84442714D01*
X130618047Y-84226048D02*
X130648999Y-84257000D01*
X130618047Y-84287952D01*
X130587095Y-84257000D01*
X130618047Y-84226048D01*
X130618047Y-84287952D01*
X130401380Y-84442714D02*
X130153761Y-84442714D01*
X130308523Y-84226048D02*
X130308523Y-84783190D01*
X130277571Y-84845095D01*
X130215666Y-84876048D01*
X130153761Y-84876048D01*
X129937094Y-84628429D02*
X129441856Y-84628429D01*
X129132332Y-84876048D02*
X129132332Y-84226048D01*
X129132332Y-84473667D02*
X129070427Y-84442714D01*
X128946618Y-84442714D01*
X128884713Y-84473667D01*
X128853761Y-84504619D01*
X128822808Y-84566524D01*
X128822808Y-84752238D01*
X128853761Y-84814143D01*
X128884713Y-84845095D01*
X128946618Y-84876048D01*
X129070427Y-84876048D01*
X129132332Y-84845095D01*
X128451380Y-84876048D02*
X128513285Y-84845095D01*
X128544237Y-84814143D01*
X128575189Y-84752238D01*
X128575189Y-84566524D01*
X128544237Y-84504619D01*
X128513285Y-84473667D01*
X128451380Y-84442714D01*
X128358523Y-84442714D01*
X128296618Y-84473667D01*
X128265666Y-84504619D01*
X128234713Y-84566524D01*
X128234713Y-84752238D01*
X128265666Y-84814143D01*
X128296618Y-84845095D01*
X128358523Y-84876048D01*
X128451380Y-84876048D01*
X127677571Y-84876048D02*
X127677571Y-84535571D01*
X127708523Y-84473667D01*
X127770428Y-84442714D01*
X127894237Y-84442714D01*
X127956142Y-84473667D01*
X127677571Y-84845095D02*
X127739475Y-84876048D01*
X127894237Y-84876048D01*
X127956142Y-84845095D01*
X127987094Y-84783190D01*
X127987094Y-84721286D01*
X127956142Y-84659381D01*
X127894237Y-84628429D01*
X127739475Y-84628429D01*
X127677571Y-84597476D01*
X127368047Y-84876048D02*
X127368047Y-84442714D01*
X127368047Y-84566524D02*
X127337095Y-84504619D01*
X127306142Y-84473667D01*
X127244238Y-84442714D01*
X127182333Y-84442714D01*
X126687095Y-84876048D02*
X126687095Y-84226048D01*
X126687095Y-84845095D02*
X126748999Y-84876048D01*
X126872809Y-84876048D01*
X126934714Y-84845095D01*
X126965666Y-84814143D01*
X126996618Y-84752238D01*
X126996618Y-84566524D01*
X126965666Y-84504619D01*
X126934714Y-84473667D01*
X126872809Y-84442714D01*
X126748999Y-84442714D01*
X126687095Y-84473667D01*
X126408523Y-84845095D02*
X126346619Y-84876048D01*
X126222809Y-84876048D01*
X126160904Y-84845095D01*
X126129952Y-84783190D01*
X126129952Y-84752238D01*
X126160904Y-84690333D01*
X126222809Y-84659381D01*
X126315666Y-84659381D01*
X126377571Y-84628429D01*
X126408523Y-84566524D01*
X126408523Y-84535571D01*
X126377571Y-84473667D01*
X126315666Y-84442714D01*
X126222809Y-84442714D01*
X126160904Y-84473667D01*
D13*
X147427000Y-85400000D02*
X147427000Y-87700000D01*
X143227000Y-85400000D02*
X143227000Y-97600000D01*
X147427000Y-85400000D02*
X148327000Y-85400000D01*
X148327000Y-85400000D02*
X148327000Y-87700000D01*
X148327000Y-87700000D02*
X147427000Y-87700000D01*
X147427000Y-95300000D02*
X147427000Y-97600000D01*
X147427000Y-95300000D02*
X148327000Y-95300000D01*
X148327000Y-95300000D02*
X148327000Y-97600000D01*
X148327000Y-97600000D02*
X147427000Y-97600000D01*
X143227000Y-85400000D02*
X143927000Y-85400000D01*
X147427000Y-85400000D02*
X146781000Y-85400000D01*
X143227000Y-97600000D02*
X143927000Y-97600000D01*
X147427000Y-97600000D02*
X146781000Y-97600000D01*
X147427000Y-89100000D02*
X147427000Y-89800000D01*
X147427000Y-91100000D02*
X147427000Y-91800000D01*
X147427000Y-93100000D02*
X147427000Y-93800000D01*
X155927000Y-85400000D02*
X155927000Y-87700000D01*
X151727000Y-85400000D02*
X151727000Y-97600000D01*
X155927000Y-85400000D02*
X156827000Y-85400000D01*
X156827000Y-85400000D02*
X156827000Y-87700000D01*
X156827000Y-87700000D02*
X155927000Y-87700000D01*
X155927000Y-95300000D02*
X155927000Y-97600000D01*
X155927000Y-95300000D02*
X156827000Y-95300000D01*
X156827000Y-95300000D02*
X156827000Y-97600000D01*
X156827000Y-97600000D02*
X155927000Y-97600000D01*
X151727000Y-85400000D02*
X152427000Y-85400000D01*
X155927000Y-85400000D02*
X155281000Y-85400000D01*
X151727000Y-97600000D02*
X152427000Y-97600000D01*
X155927000Y-97600000D02*
X155281000Y-97600000D01*
X155927000Y-89100000D02*
X155927000Y-89800000D01*
X155927000Y-91100000D02*
X155927000Y-91800000D01*
X155927000Y-93100000D02*
X155927000Y-93800000D01*
X164427000Y-85340000D02*
X164427000Y-87640000D01*
X160227000Y-85340000D02*
X160227000Y-97540000D01*
X164427000Y-85340000D02*
X165327000Y-85340000D01*
X165327000Y-85340000D02*
X165327000Y-87640000D01*
X165327000Y-87640000D02*
X164427000Y-87640000D01*
X164427000Y-95240000D02*
X164427000Y-97540000D01*
X164427000Y-95240000D02*
X165327000Y-95240000D01*
X165327000Y-95240000D02*
X165327000Y-97540000D01*
X165327000Y-97540000D02*
X164427000Y-97540000D01*
X160227000Y-85340000D02*
X160927000Y-85340000D01*
X164427000Y-85340000D02*
X163781000Y-85340000D01*
X160227000Y-97540000D02*
X160927000Y-97540000D01*
X164427000Y-97540000D02*
X163781000Y-97540000D01*
X164427000Y-89040000D02*
X164427000Y-89740000D01*
X164427000Y-91040000D02*
X164427000Y-91740000D01*
X164427000Y-93040000D02*
X164427000Y-93740000D01*
X172927000Y-85340000D02*
X172927000Y-87640000D01*
X168727000Y-85340000D02*
X168727000Y-97540000D01*
X172927000Y-85340000D02*
X173827000Y-85340000D01*
X173827000Y-85340000D02*
X173827000Y-87640000D01*
X173827000Y-87640000D02*
X172927000Y-87640000D01*
X172927000Y-95240000D02*
X172927000Y-97540000D01*
X172927000Y-95240000D02*
X173827000Y-95240000D01*
X173827000Y-95240000D02*
X173827000Y-97540000D01*
X173827000Y-97540000D02*
X172927000Y-97540000D01*
X168727000Y-85340000D02*
X169427000Y-85340000D01*
X172927000Y-85340000D02*
X172281000Y-85340000D01*
X168727000Y-97540000D02*
X169427000Y-97540000D01*
X172927000Y-97540000D02*
X172281000Y-97540000D01*
X172927000Y-89040000D02*
X172927000Y-89740000D01*
X172927000Y-91040000D02*
X172927000Y-91740000D01*
X172927000Y-93040000D02*
X172927000Y-93740000D01*
D14*
X127600000Y-85500000D02*
X127600000Y-97500000D01*
X139600000Y-85500000D02*
X127600000Y-85500000D01*
X139600000Y-97500000D02*
X139600000Y-85500000D01*
X127600000Y-97500000D02*
X139600000Y-97500000D01*
D15*
X144715233Y-91442383D02*
X145318483Y-91442383D01*
X145439133Y-91402167D01*
X145519567Y-91321733D01*
X145559783Y-91201083D01*
X145559783Y-91120650D01*
X144795667Y-91804334D02*
X144755450Y-91844550D01*
X144715233Y-91924984D01*
X144715233Y-92126067D01*
X144755450Y-92206500D01*
X144795667Y-92246717D01*
X144876100Y-92286934D01*
X144956533Y-92286934D01*
X145077183Y-92246717D01*
X145559783Y-91764117D01*
X145559783Y-92286934D01*
X153315233Y-91242383D02*
X153918483Y-91242383D01*
X154039133Y-91202167D01*
X154119567Y-91121733D01*
X154159783Y-91001083D01*
X154159783Y-90920650D01*
X153315233Y-91564117D02*
X153315233Y-92086934D01*
X153636967Y-91805417D01*
X153636967Y-91926067D01*
X153677183Y-92006500D01*
X153717400Y-92046717D01*
X153797833Y-92086934D01*
X153998917Y-92086934D01*
X154079350Y-92046717D01*
X154119567Y-92006500D01*
X154159783Y-91926067D01*
X154159783Y-91684767D01*
X154119567Y-91604334D01*
X154079350Y-91564117D01*
X161915233Y-91242383D02*
X162518483Y-91242383D01*
X162639133Y-91202167D01*
X162719567Y-91121733D01*
X162759783Y-91001083D01*
X162759783Y-90920650D01*
X162196750Y-92006500D02*
X162759783Y-92006500D01*
X161875017Y-91805417D02*
X162478267Y-91604334D01*
X162478267Y-92127150D01*
X170515233Y-91242383D02*
X171118483Y-91242383D01*
X171239133Y-91202167D01*
X171319567Y-91121733D01*
X171359783Y-91001083D01*
X171359783Y-90920650D01*
X170515233Y-92046717D02*
X170515233Y-91644550D01*
X170917400Y-91604334D01*
X170877183Y-91644550D01*
X170836967Y-91724984D01*
X170836967Y-91926067D01*
X170877183Y-92006500D01*
X170917400Y-92046717D01*
X170997833Y-92086934D01*
X171198917Y-92086934D01*
X171279350Y-92046717D01*
X171319567Y-92006500D01*
X171359783Y-91926067D01*
X171359783Y-91724984D01*
X171319567Y-91644550D01*
X171279350Y-91604334D01*
D14*
X134552381Y-90857143D02*
X134552381Y-90380952D01*
X133552381Y-90380952D01*
X134504762Y-91142857D02*
X134552381Y-91285714D01*
X134552381Y-91523810D01*
X134504762Y-91619048D01*
X134457143Y-91666667D01*
X134361905Y-91714286D01*
X134266667Y-91714286D01*
X134171429Y-91666667D01*
X134123810Y-91619048D01*
X134076190Y-91523810D01*
X134028571Y-91333333D01*
X133980952Y-91238095D01*
X133933333Y-91190476D01*
X133838095Y-91142857D01*
X133742857Y-91142857D01*
X133647619Y-91190476D01*
X133600000Y-91238095D01*
X133552381Y-91333333D01*
X133552381Y-91571429D01*
X133600000Y-91714286D01*
X134552381Y-92666667D02*
X134552381Y-92095238D01*
X134552381Y-92380952D02*
X133552381Y-92380952D01*
X133695238Y-92285714D01*
X133790476Y-92190476D01*
X133838095Y-92095238D01*
M02*
