G04 #@! TF.FileFunction,Legend,Top*
%FSLAX46Y46*%
G04 Gerber Fmt 4.6, Leading zero omitted, Abs format (unit mm)*
G04 Created by KiCad (PCBNEW 4.0.7) date Thu Nov 30 10:56:44 2017*
%MOMM*%
%LPD*%
G01*
G04 APERTURE LIST*
%ADD10C,0.100000*%
%ADD11C,0.406400*%
%ADD12C,0.150000*%
G04 APERTURE END LIST*
D10*
D11*
X178945000Y-95880000D02*
X122045000Y-95880000D01*
X122045000Y-95880000D02*
X122045000Y-87000000D01*
X122045000Y-87000000D02*
X178945000Y-87000000D01*
X178945000Y-87000000D02*
X178945000Y-95880000D01*
D12*
X162687000Y-90605429D02*
X162687000Y-91694000D01*
X162614428Y-91911714D01*
X162469285Y-92056857D01*
X162251571Y-92129429D01*
X162106428Y-92129429D01*
X164211000Y-92129429D02*
X163340143Y-92129429D01*
X163775571Y-92129429D02*
X163775571Y-90605429D01*
X163630428Y-90823143D01*
X163485286Y-90968286D01*
X163340143Y-91040857D01*
X125058715Y-92129429D02*
X125058715Y-91113429D01*
X125058715Y-91258571D02*
X125131287Y-91186000D01*
X125276429Y-91113429D01*
X125494144Y-91113429D01*
X125639287Y-91186000D01*
X125711858Y-91331143D01*
X125711858Y-92129429D01*
X125711858Y-91331143D02*
X125784429Y-91186000D01*
X125929572Y-91113429D01*
X126147287Y-91113429D01*
X126292429Y-91186000D01*
X126365001Y-91331143D01*
X126365001Y-92129429D01*
X127090715Y-92129429D02*
X127090715Y-91113429D01*
X127090715Y-90605429D02*
X127018144Y-90678000D01*
X127090715Y-90750571D01*
X127163287Y-90678000D01*
X127090715Y-90605429D01*
X127090715Y-90750571D01*
X128469572Y-92056857D02*
X128324429Y-92129429D01*
X128034143Y-92129429D01*
X127889001Y-92056857D01*
X127816429Y-91984286D01*
X127743858Y-91839143D01*
X127743858Y-91403714D01*
X127816429Y-91258571D01*
X127889001Y-91186000D01*
X128034143Y-91113429D01*
X128324429Y-91113429D01*
X128469572Y-91186000D01*
X129122715Y-92129429D02*
X129122715Y-91113429D01*
X129122715Y-91403714D02*
X129195287Y-91258571D01*
X129267858Y-91186000D01*
X129413001Y-91113429D01*
X129558144Y-91113429D01*
X130283858Y-92129429D02*
X130138716Y-92056857D01*
X130066144Y-91984286D01*
X129993573Y-91839143D01*
X129993573Y-91403714D01*
X130066144Y-91258571D01*
X130138716Y-91186000D01*
X130283858Y-91113429D01*
X130501573Y-91113429D01*
X130646716Y-91186000D01*
X130719287Y-91258571D01*
X130791858Y-91403714D01*
X130791858Y-91839143D01*
X130719287Y-91984286D01*
X130646716Y-92056857D01*
X130501573Y-92129429D01*
X130283858Y-92129429D01*
X131445001Y-92129429D02*
X131445001Y-90605429D01*
X131445001Y-91186000D02*
X131590144Y-91113429D01*
X131880430Y-91113429D01*
X132025573Y-91186000D01*
X132098144Y-91258571D01*
X132170715Y-91403714D01*
X132170715Y-91839143D01*
X132098144Y-91984286D01*
X132025573Y-92056857D01*
X131880430Y-92129429D01*
X131590144Y-92129429D01*
X131445001Y-92056857D01*
X132823858Y-92129429D02*
X132823858Y-91113429D01*
X132823858Y-90605429D02*
X132751287Y-90678000D01*
X132823858Y-90750571D01*
X132896430Y-90678000D01*
X132823858Y-90605429D01*
X132823858Y-90750571D01*
X133331858Y-91113429D02*
X133912429Y-91113429D01*
X133549572Y-90605429D02*
X133549572Y-91911714D01*
X133622144Y-92056857D01*
X133767286Y-92129429D01*
X133912429Y-92129429D01*
X134057572Y-92274571D02*
X135218715Y-92274571D01*
X135509001Y-92056857D02*
X135654144Y-92129429D01*
X135944429Y-92129429D01*
X136089572Y-92056857D01*
X136162144Y-91911714D01*
X136162144Y-91839143D01*
X136089572Y-91694000D01*
X135944429Y-91621429D01*
X135726715Y-91621429D01*
X135581572Y-91548857D01*
X135509001Y-91403714D01*
X135509001Y-91331143D01*
X135581572Y-91186000D01*
X135726715Y-91113429D01*
X135944429Y-91113429D01*
X136089572Y-91186000D01*
X136815286Y-92129429D02*
X136815286Y-91113429D01*
X136815286Y-91258571D02*
X136887858Y-91186000D01*
X137033000Y-91113429D01*
X137250715Y-91113429D01*
X137395858Y-91186000D01*
X137468429Y-91331143D01*
X137468429Y-92129429D01*
X137468429Y-91331143D02*
X137541000Y-91186000D01*
X137686143Y-91113429D01*
X137903858Y-91113429D01*
X138049000Y-91186000D01*
X138121572Y-91331143D01*
X138121572Y-92129429D01*
X139500429Y-92129429D02*
X139500429Y-90605429D01*
X139500429Y-92056857D02*
X139355286Y-92129429D01*
X139065000Y-92129429D01*
X138919858Y-92056857D01*
X138847286Y-91984286D01*
X138774715Y-91839143D01*
X138774715Y-91403714D01*
X138847286Y-91258571D01*
X138919858Y-91186000D01*
X139065000Y-91113429D01*
X139355286Y-91113429D01*
X139500429Y-91186000D01*
X139863286Y-92274571D02*
X141024429Y-92274571D01*
X141314715Y-92056857D02*
X141459858Y-92129429D01*
X141750143Y-92129429D01*
X141895286Y-92056857D01*
X141967858Y-91911714D01*
X141967858Y-91839143D01*
X141895286Y-91694000D01*
X141750143Y-91621429D01*
X141532429Y-91621429D01*
X141387286Y-91548857D01*
X141314715Y-91403714D01*
X141314715Y-91331143D01*
X141387286Y-91186000D01*
X141532429Y-91113429D01*
X141750143Y-91113429D01*
X141895286Y-91186000D01*
X142838714Y-92129429D02*
X142693572Y-92056857D01*
X142621000Y-91984286D01*
X142548429Y-91839143D01*
X142548429Y-91403714D01*
X142621000Y-91258571D01*
X142693572Y-91186000D01*
X142838714Y-91113429D01*
X143056429Y-91113429D01*
X143201572Y-91186000D01*
X143274143Y-91258571D01*
X143346714Y-91403714D01*
X143346714Y-91839143D01*
X143274143Y-91984286D01*
X143201572Y-92056857D01*
X143056429Y-92129429D01*
X142838714Y-92129429D01*
X144653000Y-92056857D02*
X144507857Y-92129429D01*
X144217571Y-92129429D01*
X144072429Y-92056857D01*
X143999857Y-91984286D01*
X143927286Y-91839143D01*
X143927286Y-91403714D01*
X143999857Y-91258571D01*
X144072429Y-91186000D01*
X144217571Y-91113429D01*
X144507857Y-91113429D01*
X144653000Y-91186000D01*
X145306143Y-92129429D02*
X145306143Y-90605429D01*
X145451286Y-91548857D02*
X145886715Y-92129429D01*
X145886715Y-91113429D02*
X145306143Y-91694000D01*
X147120429Y-92056857D02*
X146975286Y-92129429D01*
X146685000Y-92129429D01*
X146539857Y-92056857D01*
X146467286Y-91911714D01*
X146467286Y-91331143D01*
X146539857Y-91186000D01*
X146685000Y-91113429D01*
X146975286Y-91113429D01*
X147120429Y-91186000D01*
X147193000Y-91331143D01*
X147193000Y-91476286D01*
X146467286Y-91621429D01*
X147628429Y-91113429D02*
X148209000Y-91113429D01*
X147846143Y-90605429D02*
X147846143Y-91911714D01*
X147918715Y-92056857D01*
X148063857Y-92129429D01*
X148209000Y-92129429D01*
M02*
