G04 #@! TF.FileFunction,Copper,L1,Top,Signal*
%FSLAX46Y46*%
G04 Gerber Fmt 4.6, Leading zero omitted, Abs format (unit mm)*
G04 Created by KiCad (PCBNEW 4.0.7) date Thu Nov 30 10:56:44 2017*
%MOMM*%
%LPD*%
G01*
G04 APERTURE LIST*
%ADD10C,0.100000*%
%ADD11R,1.020000X4.000000*%
%ADD12C,0.600000*%
%ADD13C,0.200000*%
G04 APERTURE END LIST*
D10*
D11*
X175260000Y-95940000D03*
X173990000Y-95940000D03*
X172720000Y-95940000D03*
X171450000Y-95940000D03*
X170180000Y-95940000D03*
X168910000Y-95940000D03*
X167640000Y-95940000D03*
X166370000Y-95940000D03*
X165100000Y-95940000D03*
X163830000Y-95940000D03*
X162560000Y-95940000D03*
X161290000Y-95940000D03*
X160020000Y-95940000D03*
X158750000Y-95940000D03*
X157480000Y-95940000D03*
X156210000Y-95940000D03*
X154940000Y-95940000D03*
X153670000Y-95940000D03*
X152400000Y-95940000D03*
X151130000Y-95940000D03*
X149860000Y-95940000D03*
X148590000Y-95940000D03*
X147320000Y-95940000D03*
X146050000Y-95940000D03*
X144780000Y-95940000D03*
X143510000Y-95940000D03*
X142240000Y-95940000D03*
X140970000Y-95940000D03*
X139700000Y-95940000D03*
X138430000Y-95940000D03*
X137160000Y-95940000D03*
X135890000Y-95940000D03*
X134620000Y-95940000D03*
X133350000Y-95940000D03*
X132080000Y-95940000D03*
X130810000Y-95940000D03*
X129540000Y-95940000D03*
X128270000Y-95940000D03*
X127000000Y-95940000D03*
X125730000Y-95940000D03*
X125730000Y-86940000D03*
X127000000Y-86940000D03*
X128270000Y-86940000D03*
X129540000Y-86940000D03*
X130810000Y-86940000D03*
X132080000Y-86940000D03*
X133350000Y-86940000D03*
X134620000Y-86940000D03*
X135890000Y-86940000D03*
X137160000Y-86940000D03*
X138430000Y-86940000D03*
X139700000Y-86940000D03*
X140970000Y-86940000D03*
X142240000Y-86940000D03*
X143510000Y-86940000D03*
X144780000Y-86940000D03*
X146050000Y-86940000D03*
X147320000Y-86940000D03*
X148590000Y-86940000D03*
X149860000Y-86940000D03*
X151130000Y-86940000D03*
X152400000Y-86940000D03*
X153670000Y-86940000D03*
X154940000Y-86940000D03*
X156210000Y-86940000D03*
X157480000Y-86940000D03*
X158750000Y-86940000D03*
X160020000Y-86940000D03*
X161290000Y-86940000D03*
X162560000Y-86940000D03*
X163830000Y-86940000D03*
X165100000Y-86940000D03*
X166370000Y-86940000D03*
X167640000Y-86940000D03*
X168910000Y-86940000D03*
X170180000Y-86940000D03*
X171450000Y-86940000D03*
X172720000Y-86940000D03*
X173990000Y-86940000D03*
X175260000Y-86940000D03*
D12*
X130302000Y-91440000D03*
X137000000Y-89477988D03*
X145600000Y-90200000D03*
X168400000Y-84439966D03*
X151799987Y-90400009D03*
X159200000Y-89600000D03*
X150600000Y-90400000D03*
X153000000Y-90400000D03*
X146600000Y-90199994D03*
X154200000Y-90400000D03*
X144400000Y-90200000D03*
X154600000Y-92999994D03*
X143000014Y-90200000D03*
X136651994Y-92710000D03*
X138430000Y-98552000D03*
X168000006Y-90600000D03*
X135382000Y-90932000D03*
X168008576Y-91772344D03*
X167400000Y-98600000D03*
X159000000Y-92400000D03*
X163600000Y-92400004D03*
X142500000Y-84500000D03*
X139007556Y-84444583D03*
X176500000Y-94500000D03*
D13*
X130002001Y-91739999D02*
X130302000Y-91440000D01*
X129540000Y-92202000D02*
X130002001Y-91739999D01*
X129540000Y-95940000D02*
X129540000Y-92202000D01*
X138746277Y-90800001D02*
X137424264Y-89477988D01*
X144999999Y-90800001D02*
X138746277Y-90800001D01*
X145600000Y-90200000D02*
X144999999Y-90800001D01*
X137424264Y-89477988D02*
X137000000Y-89477988D01*
X168824264Y-84439966D02*
X168400000Y-84439966D01*
X169879966Y-84439966D02*
X168824264Y-84439966D01*
X170180000Y-84740000D02*
X169879966Y-84439966D01*
X170180000Y-86940000D02*
X170180000Y-84740000D01*
X173990000Y-86940000D02*
X170180000Y-86940000D01*
X127000000Y-95940000D02*
X130810000Y-95940000D01*
X139700000Y-95940000D02*
X139700000Y-94450000D01*
X139700000Y-94450000D02*
X140750000Y-93400000D01*
X140750000Y-93400000D02*
X148799996Y-93400000D01*
X148799996Y-93400000D02*
X151499988Y-90700008D01*
X151499988Y-90700008D02*
X151799987Y-90400009D01*
X160800000Y-88000000D02*
X159200000Y-89600000D01*
X160020000Y-86940000D02*
X163830000Y-86940000D01*
X137160000Y-95940000D02*
X140970000Y-95940000D01*
X151130000Y-93740000D02*
X152400000Y-92470000D01*
X152400000Y-92470000D02*
X152400000Y-90111998D01*
X151130000Y-95940000D02*
X151130000Y-93740000D01*
X149860000Y-86940000D02*
X149860000Y-89660000D01*
X152400000Y-90111998D02*
X152088001Y-89799999D01*
X150300001Y-90100001D02*
X150600000Y-90400000D01*
X152088001Y-89799999D02*
X151200001Y-89799999D01*
X149860000Y-89660000D02*
X150300001Y-90100001D01*
X150899999Y-90100001D02*
X150600000Y-90400000D01*
X151200001Y-89799999D02*
X150899999Y-90100001D01*
X148590000Y-86940000D02*
X152400000Y-86940000D01*
X148590000Y-95940000D02*
X152400000Y-95940000D01*
X153670000Y-95940000D02*
X153670000Y-93740000D01*
X153670000Y-93740000D02*
X153000000Y-93070000D01*
X153000000Y-93070000D02*
X153000000Y-90824264D01*
X153000000Y-90824264D02*
X153000000Y-90400000D01*
X147320000Y-89479994D02*
X146899999Y-89899995D01*
X147320000Y-86940000D02*
X147320000Y-89479994D01*
X146899999Y-89899995D02*
X146600000Y-90199994D01*
X154940000Y-94228005D02*
X153900001Y-93188006D01*
X154940000Y-95940000D02*
X154940000Y-94228005D01*
X153900001Y-90699999D02*
X154200000Y-90400000D01*
X153900001Y-93188006D02*
X153900001Y-90699999D01*
X144699999Y-89900001D02*
X144400000Y-90200000D01*
X144900009Y-89900001D02*
X144699999Y-89900001D01*
X146050000Y-86940000D02*
X146050000Y-88750010D01*
X146050000Y-88750010D02*
X144900009Y-89900001D01*
X155024264Y-92999994D02*
X154600000Y-92999994D01*
X156210000Y-95940000D02*
X156210000Y-93740000D01*
X156210000Y-93740000D02*
X155469994Y-92999994D01*
X155469994Y-92999994D02*
X155024264Y-92999994D01*
X144780000Y-88844278D02*
X143424278Y-90200000D01*
X144780000Y-86940000D02*
X144780000Y-88844278D01*
X143424278Y-90200000D02*
X143000014Y-90200000D01*
X136651994Y-92285736D02*
X136651994Y-92710000D01*
X136651994Y-91171994D02*
X136651994Y-92285736D01*
X134620000Y-89140000D02*
X136651994Y-91171994D01*
X134620000Y-86940000D02*
X134620000Y-89140000D01*
X138854264Y-98552000D02*
X138430000Y-98552000D01*
X165958000Y-98552000D02*
X138854264Y-98552000D01*
X166370000Y-98140000D02*
X165958000Y-98552000D01*
X166370000Y-95940000D02*
X166370000Y-98140000D01*
X166370000Y-92230006D02*
X167700007Y-90899999D01*
X166370000Y-95940000D02*
X166370000Y-92230006D01*
X167700007Y-90899999D02*
X168000006Y-90600000D01*
X133350000Y-86940000D02*
X133350000Y-89140000D01*
X133350000Y-89140000D02*
X135142000Y-90932000D01*
X135142000Y-90932000D02*
X135382000Y-90932000D01*
X167708577Y-92072343D02*
X168008576Y-91772344D01*
X167640000Y-95940000D02*
X167640000Y-92140920D01*
X167640000Y-92140920D02*
X167708577Y-92072343D01*
X167640000Y-98360000D02*
X167400000Y-98600000D01*
X167640000Y-95940000D02*
X167640000Y-98360000D01*
X158750000Y-92650000D02*
X159000000Y-92400000D01*
X158750000Y-95940000D02*
X158750000Y-92650000D01*
X163830000Y-92630004D02*
X163600000Y-92400004D01*
X163830000Y-95940000D02*
X163830000Y-92630004D01*
X142240000Y-86940000D02*
X135890000Y-86940000D01*
X142500000Y-84500000D02*
X142500000Y-86120000D01*
X142500000Y-86120000D02*
X142240000Y-86380000D01*
X142240000Y-86380000D02*
X142240000Y-86940000D01*
X165100000Y-95940000D02*
X158750000Y-95940000D01*
X132080000Y-86940000D02*
X125730000Y-86940000D01*
X139007556Y-84444583D02*
X130545417Y-84444583D01*
X130545417Y-84444583D02*
X129540000Y-85450000D01*
X129540000Y-85450000D02*
X129540000Y-86940000D01*
X175260000Y-95940000D02*
X168910000Y-95940000D01*
X176500000Y-94500000D02*
X176500000Y-94700000D01*
X176500000Y-94700000D02*
X175260000Y-95940000D01*
M02*
