G04 #@! TF.FileFunction,Copper,L1,Top,Signal*
%FSLAX46Y46*%
G04 Gerber Fmt 4.6, Leading zero omitted, Abs format (unit mm)*
G04 Created by KiCad (PCBNEW 4.0.7) date Mon Dec  4 22:09:09 2017*
%MOMM*%
%LPD*%
G01*
G04 APERTURE LIST*
%ADD10C,0.100000*%
%ADD11R,1.020000X4.000000*%
%ADD12C,0.600000*%
%ADD13C,0.200000*%
%ADD14C,0.254000*%
G04 APERTURE END LIST*
D10*
D11*
X175260000Y-95940000D03*
X173990000Y-95940000D03*
X172720000Y-95940000D03*
X171450000Y-95940000D03*
X170180000Y-95940000D03*
X168910000Y-95940000D03*
X167640000Y-95940000D03*
X166370000Y-95940000D03*
X165100000Y-95940000D03*
X163830000Y-95940000D03*
X162560000Y-95940000D03*
X161290000Y-95940000D03*
X160020000Y-95940000D03*
X158750000Y-95940000D03*
X157480000Y-95940000D03*
X156210000Y-95940000D03*
X154940000Y-95940000D03*
X153670000Y-95940000D03*
X152400000Y-95940000D03*
X151130000Y-95940000D03*
X149860000Y-95940000D03*
X148590000Y-95940000D03*
X147320000Y-95940000D03*
X146050000Y-95940000D03*
X144780000Y-95940000D03*
X143510000Y-95940000D03*
X142240000Y-95940000D03*
X140970000Y-95940000D03*
X139700000Y-95940000D03*
X138430000Y-95940000D03*
X137160000Y-95940000D03*
X135890000Y-95940000D03*
X134620000Y-95940000D03*
X133350000Y-95940000D03*
X132080000Y-95940000D03*
X130810000Y-95940000D03*
X129540000Y-95940000D03*
X128270000Y-95940000D03*
X127000000Y-95940000D03*
X125730000Y-95940000D03*
X125730000Y-86940000D03*
X127000000Y-86940000D03*
X128270000Y-86940000D03*
X129540000Y-86940000D03*
X130810000Y-86940000D03*
X132080000Y-86940000D03*
X133350000Y-86940000D03*
X134620000Y-86940000D03*
X135890000Y-86940000D03*
X137160000Y-86940000D03*
X138430000Y-86940000D03*
X139700000Y-86940000D03*
X140970000Y-86940000D03*
X142240000Y-86940000D03*
X143510000Y-86940000D03*
X144780000Y-86940000D03*
X146050000Y-86940000D03*
X147320000Y-86940000D03*
X148590000Y-86940000D03*
X149860000Y-86940000D03*
X151130000Y-86940000D03*
X152400000Y-86940000D03*
X153670000Y-86940000D03*
X154940000Y-86940000D03*
X156210000Y-86940000D03*
X157480000Y-86940000D03*
X158750000Y-86940000D03*
X160020000Y-86940000D03*
X161290000Y-86940000D03*
X162560000Y-86940000D03*
X163830000Y-86940000D03*
X165100000Y-86940000D03*
X166370000Y-86940000D03*
X167640000Y-86940000D03*
X168910000Y-86940000D03*
X170180000Y-86940000D03*
X171450000Y-86940000D03*
X172720000Y-86940000D03*
X173990000Y-86940000D03*
X175260000Y-86940000D03*
D12*
X145542000Y-90170000D03*
X168529000Y-84439998D03*
X137099982Y-91059000D03*
X130302000Y-91440000D03*
X151765000Y-90424000D03*
X159200000Y-89600000D03*
X150622000Y-90424000D03*
X146558000Y-90170000D03*
X153035004Y-90424000D03*
X144413288Y-90166684D03*
X154200000Y-90400000D03*
X144398998Y-91821000D03*
X154649632Y-93100010D03*
X132461000Y-92329000D03*
X168021000Y-91186000D03*
X138430000Y-98552000D03*
X133858000Y-91694006D03*
X168021000Y-92202000D03*
X167400000Y-98600000D03*
X159131000Y-91821000D03*
X142494000Y-90170000D03*
X163322000Y-92075000D03*
X171958000Y-92075000D03*
X175641000Y-98552000D03*
X174371000Y-98552000D03*
X173101000Y-98552000D03*
X171069000Y-93472000D03*
X168529000Y-93472000D03*
X169799000Y-93472000D03*
X132334000Y-84455000D03*
X131064000Y-84455000D03*
X129794000Y-84455000D03*
X127381004Y-84455000D03*
X128524000Y-84455000D03*
X126111000Y-84455000D03*
D13*
X144821473Y-92515017D02*
X145542000Y-91794490D01*
X138555999Y-92515017D02*
X144821473Y-92515017D01*
X137099982Y-91059000D02*
X138555999Y-92515017D01*
X145542000Y-90594264D02*
X145542000Y-90170000D01*
X145542000Y-91794490D02*
X145542000Y-90594264D01*
X169879966Y-84439966D02*
X168529032Y-84439966D01*
X168529032Y-84439966D02*
X168529000Y-84439998D01*
X173689966Y-84439966D02*
X171831000Y-84439966D01*
X171831000Y-84439966D02*
X170942000Y-84439966D01*
X172720000Y-86940000D02*
X172720000Y-84740000D01*
X172720000Y-84740000D02*
X172419966Y-84439966D01*
X172419966Y-84439966D02*
X171831000Y-84439966D01*
X171149966Y-84439966D02*
X170942000Y-84439966D01*
X173990000Y-84740000D02*
X173689966Y-84439966D01*
X170942000Y-84439966D02*
X169799000Y-84439966D01*
X173990000Y-86940000D02*
X173990000Y-84740000D01*
X169879966Y-84439966D02*
X169799000Y-84439966D01*
X171450000Y-86940000D02*
X171450000Y-84740000D01*
X171450000Y-84740000D02*
X171149966Y-84439966D01*
X130048000Y-93091000D02*
X129159000Y-93091000D01*
X128270000Y-93740000D02*
X128919000Y-93091000D01*
X129159000Y-93091000D02*
X127508000Y-93091000D01*
X128270000Y-95940000D02*
X128270000Y-93740000D01*
X128919000Y-93091000D02*
X129159000Y-93091000D01*
X130302000Y-93091000D02*
X130048000Y-93091000D01*
X129540000Y-93740000D02*
X130048000Y-93232000D01*
X129540000Y-95940000D02*
X129540000Y-93740000D01*
X130048000Y-93232000D02*
X130048000Y-93091000D01*
X127508000Y-93091000D02*
X127000000Y-93599000D01*
X127000000Y-93599000D02*
X127000000Y-95940000D01*
X130302000Y-93091000D02*
X130810000Y-93599000D01*
X130810000Y-93599000D02*
X130810000Y-95940000D01*
X130302000Y-91440000D02*
X130302000Y-93091000D01*
X170180000Y-84740000D02*
X169879966Y-84439966D01*
X170180000Y-86940000D02*
X170180000Y-84740000D01*
X151465001Y-90723999D02*
X151765000Y-90424000D01*
X149244011Y-92944989D02*
X151465001Y-90723999D01*
X142240000Y-92944989D02*
X149244011Y-92944989D01*
X161417000Y-89600000D02*
X163003000Y-89600000D01*
X163003000Y-89600000D02*
X163830000Y-88773000D01*
X163830000Y-88773000D02*
X163830000Y-86940000D01*
X160020000Y-86940000D02*
X160020000Y-89140000D01*
X160020000Y-89140000D02*
X159560000Y-89600000D01*
X159560000Y-89600000D02*
X159200000Y-89600000D01*
X159200000Y-89600000D02*
X160401000Y-89600000D01*
X160830000Y-89600000D02*
X160401000Y-89600000D01*
X160401000Y-89600000D02*
X161417000Y-89600000D01*
X161290000Y-86940000D02*
X161290000Y-89140000D01*
X161290000Y-89140000D02*
X160830000Y-89600000D01*
X162560000Y-86940000D02*
X162560000Y-89140000D01*
X162560000Y-89140000D02*
X162100000Y-89600000D01*
X162100000Y-89600000D02*
X161417000Y-89600000D01*
X141351000Y-92944989D02*
X142240000Y-92944989D01*
X140970000Y-95940000D02*
X140970000Y-93740000D01*
X140970000Y-93740000D02*
X141765011Y-92944989D01*
X141765011Y-92944989D02*
X142240000Y-92944989D01*
X139700000Y-95940000D02*
X139700000Y-93726000D01*
X140481011Y-92944989D02*
X141351000Y-92944989D01*
X139700000Y-93726000D02*
X140481011Y-92944989D01*
X137955011Y-92944989D02*
X140208000Y-92944989D01*
X140208000Y-92944989D02*
X141351000Y-92944989D01*
X138430000Y-93740000D02*
X139225011Y-92944989D01*
X138430000Y-95940000D02*
X138430000Y-93740000D01*
X139225011Y-92944989D02*
X140208000Y-92944989D01*
X137160000Y-95940000D02*
X137160000Y-93740000D01*
X137160000Y-93740000D02*
X137955011Y-92944989D01*
X150921999Y-90124001D02*
X150622000Y-90424000D01*
X151048997Y-90124001D02*
X150921999Y-90124001D01*
X150322001Y-90124001D02*
X150622000Y-90424000D01*
X149860000Y-89662000D02*
X150322001Y-90124001D01*
X149860000Y-89535000D02*
X149860000Y-89662000D01*
X151130000Y-86940000D02*
X151130000Y-90042998D01*
X151130000Y-90042998D02*
X151048997Y-90124001D01*
X151765000Y-89742993D02*
X151430005Y-89742993D01*
X151430005Y-89742993D02*
X151048997Y-90124001D01*
X151525000Y-93345000D02*
X152365001Y-92504999D01*
X152365001Y-92504999D02*
X152365001Y-90076999D01*
X152365001Y-90076999D02*
X152030995Y-89742993D01*
X152030995Y-89742993D02*
X151765000Y-89742993D01*
X152400000Y-86940000D02*
X152400000Y-89140000D01*
X152400000Y-89140000D02*
X151797007Y-89742993D01*
X151797007Y-89742993D02*
X151765000Y-89742993D01*
X148590000Y-86940000D02*
X148590000Y-89140000D01*
X148590000Y-89140000D02*
X148985000Y-89535000D01*
X148985000Y-89535000D02*
X149860000Y-89535000D01*
X149860000Y-86940000D02*
X149860000Y-89535000D01*
X151525000Y-93345000D02*
X150749000Y-93345000D01*
X150749000Y-93345000D02*
X148971000Y-93345000D01*
X149860000Y-95940000D02*
X149860000Y-93740000D01*
X150255000Y-93345000D02*
X150749000Y-93345000D01*
X149860000Y-93740000D02*
X150255000Y-93345000D01*
X148971000Y-93345000D02*
X148590000Y-93726000D01*
X148590000Y-93726000D02*
X148590000Y-95940000D01*
X152146000Y-93345000D02*
X152400000Y-93599000D01*
X152400000Y-93599000D02*
X152400000Y-95940000D01*
X151130000Y-93740000D02*
X151525000Y-93345000D01*
X151525000Y-93345000D02*
X152146000Y-93345000D01*
X151130000Y-95940000D02*
X151130000Y-93740000D01*
X146857999Y-89870001D02*
X146558000Y-90170000D01*
X147320000Y-89408000D02*
X146857999Y-89870001D01*
X147320000Y-86940000D02*
X147320000Y-89408000D01*
X153035004Y-90848264D02*
X153035004Y-90424000D01*
X153035004Y-93105004D02*
X153035004Y-90848264D01*
X153670000Y-95940000D02*
X153670000Y-93740000D01*
X153670000Y-93740000D02*
X153035004Y-93105004D01*
X144933325Y-89866685D02*
X144713287Y-89866685D01*
X146050000Y-86940000D02*
X146050000Y-88750010D01*
X144713287Y-89866685D02*
X144413288Y-90166684D01*
X146050000Y-88750010D02*
X144933325Y-89866685D01*
X153900001Y-90699999D02*
X154200000Y-90400000D01*
X154940000Y-93740000D02*
X154900012Y-93700012D01*
X154940000Y-95940000D02*
X154940000Y-93740000D01*
X153900001Y-93238383D02*
X153900001Y-90699999D01*
X154361630Y-93700012D02*
X153900001Y-93238383D01*
X154900012Y-93700012D02*
X154361630Y-93700012D01*
X144098999Y-91521001D02*
X144398998Y-91821000D01*
X143718001Y-91140003D02*
X144098999Y-91521001D01*
X144780000Y-88729736D02*
X143718001Y-89791735D01*
X143718001Y-89791735D02*
X143718001Y-91140003D01*
X144780000Y-86940000D02*
X144780000Y-88729736D01*
X155073896Y-93100010D02*
X154649632Y-93100010D01*
X156210000Y-93740000D02*
X155570010Y-93100010D01*
X156210000Y-95940000D02*
X156210000Y-93740000D01*
X155570010Y-93100010D02*
X155073896Y-93100010D01*
X132885264Y-92329000D02*
X132461000Y-92329000D01*
X134238002Y-92329000D02*
X132885264Y-92329000D01*
X134620000Y-91947002D02*
X134238002Y-92329000D01*
X134620000Y-86940000D02*
X134620000Y-91947002D01*
X167721001Y-91485999D02*
X168021000Y-91186000D01*
X166370000Y-92837000D02*
X167721001Y-91485999D01*
X166370000Y-95940000D02*
X166370000Y-92837000D01*
X138854264Y-98552000D02*
X138430000Y-98552000D01*
X165958000Y-98552000D02*
X138854264Y-98552000D01*
X166370000Y-98140000D02*
X165958000Y-98552000D01*
X166370000Y-95940000D02*
X166370000Y-98140000D01*
X133350000Y-86940000D02*
X133350000Y-91186006D01*
X133558001Y-91394007D02*
X133858000Y-91694006D01*
X133350000Y-91186006D02*
X133558001Y-91394007D01*
X167721001Y-92501999D02*
X168021000Y-92202000D01*
X167640000Y-92583000D02*
X167721001Y-92501999D01*
X167640000Y-95940000D02*
X167640000Y-92583000D01*
X167640000Y-98360000D02*
X167400000Y-98600000D01*
X167640000Y-95940000D02*
X167640000Y-98360000D01*
X142240000Y-86940000D02*
X142240000Y-89916000D01*
X142240000Y-89916000D02*
X142494000Y-90170000D01*
X175260000Y-95940000D02*
X175260000Y-98171000D01*
X175260000Y-98171000D02*
X175641000Y-98552000D01*
X174071001Y-98252001D02*
X174371000Y-98552000D01*
X173990000Y-98171000D02*
X174071001Y-98252001D01*
X173990000Y-95940000D02*
X173990000Y-98171000D01*
X172720000Y-95940000D02*
X172720000Y-98140000D01*
X172720000Y-98140000D02*
X173101000Y-98521000D01*
X173101000Y-98521000D02*
X173101000Y-98552000D01*
X171450000Y-95940000D02*
X171450000Y-93740000D01*
X171450000Y-93740000D02*
X171182000Y-93472000D01*
X171182000Y-93472000D02*
X171069000Y-93472000D01*
X168642000Y-93472000D02*
X168529000Y-93472000D01*
X168910000Y-93740000D02*
X168642000Y-93472000D01*
X168910000Y-95940000D02*
X168910000Y-93740000D01*
X170180000Y-95940000D02*
X170180000Y-93740000D01*
X170180000Y-93740000D02*
X169912000Y-93472000D01*
X169912000Y-93472000D02*
X169799000Y-93472000D01*
X132080000Y-86940000D02*
X132080000Y-84709000D01*
X132080000Y-84709000D02*
X132334000Y-84455000D01*
X130810000Y-86940000D02*
X130810000Y-84740000D01*
X130810000Y-84740000D02*
X131064000Y-84486000D01*
X131064000Y-84486000D02*
X131064000Y-84455000D01*
X129540000Y-86940000D02*
X129540000Y-84740000D01*
X129540000Y-84740000D02*
X129794000Y-84486000D01*
X129794000Y-84486000D02*
X129794000Y-84455000D01*
X127285000Y-84455000D02*
X127381004Y-84455000D01*
X127000000Y-84740000D02*
X127285000Y-84455000D01*
X127000000Y-86940000D02*
X127000000Y-84740000D01*
X128270000Y-86940000D02*
X128270000Y-84709000D01*
X128270000Y-84709000D02*
X128524000Y-84455000D01*
X125730000Y-86940000D02*
X125730000Y-84740000D01*
X125730000Y-84740000D02*
X126015000Y-84455000D01*
X126015000Y-84455000D02*
X126111000Y-84455000D01*
D14*
G36*
X177871023Y-84697167D02*
X178609439Y-85190561D01*
X179102833Y-85928977D01*
X179290000Y-86869931D01*
X179290000Y-96130069D01*
X179102833Y-97071023D01*
X178609439Y-97809439D01*
X177871023Y-98302833D01*
X176930069Y-98490000D01*
X176576055Y-98490000D01*
X176576162Y-98366833D01*
X176434117Y-98023057D01*
X176406270Y-97995161D01*
X176417440Y-97940000D01*
X176417440Y-93940000D01*
X176373162Y-93704683D01*
X176234090Y-93488559D01*
X176021890Y-93343569D01*
X175770000Y-93292560D01*
X174750000Y-93292560D01*
X174620411Y-93316944D01*
X174500000Y-93292560D01*
X173480000Y-93292560D01*
X173350411Y-93316944D01*
X173230000Y-93292560D01*
X172210000Y-93292560D01*
X172080411Y-93316944D01*
X172027101Y-93306148D01*
X171987904Y-93247486D01*
X171862117Y-92943057D01*
X171599327Y-92679808D01*
X171255799Y-92537162D01*
X170883833Y-92536838D01*
X170540057Y-92678883D01*
X170434046Y-92784710D01*
X170329327Y-92679808D01*
X169985799Y-92537162D01*
X169613833Y-92536838D01*
X169270057Y-92678883D01*
X169164046Y-92784710D01*
X169059327Y-92679808D01*
X168867991Y-92600358D01*
X168955838Y-92388799D01*
X168956162Y-92016833D01*
X168859792Y-91783599D01*
X175429699Y-91783599D01*
X175693281Y-92421515D01*
X176180918Y-92910004D01*
X176818373Y-93174699D01*
X177508599Y-93175301D01*
X178146515Y-92911719D01*
X178635004Y-92424082D01*
X178899699Y-91786627D01*
X178900301Y-91096401D01*
X178636719Y-90458485D01*
X178149082Y-89969996D01*
X177511627Y-89705301D01*
X176821401Y-89704699D01*
X176183485Y-89968281D01*
X175694996Y-90455918D01*
X175430301Y-91093373D01*
X175429699Y-91783599D01*
X168859792Y-91783599D01*
X168822617Y-91693629D01*
X168955838Y-91372799D01*
X168956162Y-91000833D01*
X168814117Y-90657057D01*
X168551327Y-90393808D01*
X168207799Y-90251162D01*
X167835833Y-90250838D01*
X167492057Y-90392883D01*
X167228808Y-90655673D01*
X167086162Y-90999201D01*
X167086090Y-91081463D01*
X165850277Y-92317277D01*
X165690949Y-92555728D01*
X165635000Y-92837000D01*
X165635000Y-93305000D01*
X165385750Y-93305000D01*
X165227000Y-93463750D01*
X165227000Y-93868693D01*
X165212560Y-93940000D01*
X165212560Y-96087000D01*
X164973000Y-96087000D01*
X164973000Y-96067000D01*
X163957000Y-96067000D01*
X163957000Y-96087000D01*
X163703000Y-96087000D01*
X163703000Y-96067000D01*
X162687000Y-96067000D01*
X162687000Y-96087000D01*
X162433000Y-96087000D01*
X162433000Y-96067000D01*
X161417000Y-96067000D01*
X161417000Y-96087000D01*
X161163000Y-96087000D01*
X161163000Y-96067000D01*
X160147000Y-96067000D01*
X160147000Y-96087000D01*
X159893000Y-96087000D01*
X159893000Y-96067000D01*
X158877000Y-96067000D01*
X158877000Y-96087000D01*
X158637440Y-96087000D01*
X158637440Y-93940000D01*
X158623000Y-93863258D01*
X158623000Y-93813690D01*
X158875000Y-93813690D01*
X158875000Y-95654250D01*
X158877000Y-95656250D01*
X158877000Y-95813000D01*
X159893000Y-95813000D01*
X159893000Y-95656250D01*
X159895000Y-95654250D01*
X159895000Y-93813690D01*
X160145000Y-93813690D01*
X160145000Y-95654250D01*
X160147000Y-95656250D01*
X160147000Y-95813000D01*
X161163000Y-95813000D01*
X161163000Y-95656250D01*
X161165000Y-95654250D01*
X161165000Y-93813690D01*
X161415000Y-93813690D01*
X161415000Y-95654250D01*
X161417000Y-95656250D01*
X161417000Y-95813000D01*
X162433000Y-95813000D01*
X162433000Y-95656250D01*
X162435000Y-95654250D01*
X162435000Y-93813690D01*
X162685000Y-93813690D01*
X162685000Y-95654250D01*
X162687000Y-95656250D01*
X162687000Y-95813000D01*
X163703000Y-95813000D01*
X163703000Y-95656250D01*
X163705000Y-95654250D01*
X163705000Y-93813690D01*
X163955000Y-93813690D01*
X163955000Y-95654250D01*
X163957000Y-95656250D01*
X163957000Y-95813000D01*
X164973000Y-95813000D01*
X164973000Y-95656250D01*
X164975000Y-95654250D01*
X164975000Y-93813690D01*
X164973000Y-93808862D01*
X164973000Y-93463750D01*
X164814250Y-93305000D01*
X164115750Y-93305000D01*
X163957000Y-93463750D01*
X163957000Y-93808862D01*
X163955000Y-93813690D01*
X163705000Y-93813690D01*
X163703000Y-93808862D01*
X163703000Y-93463750D01*
X163544250Y-93305000D01*
X162845750Y-93305000D01*
X162687000Y-93463750D01*
X162687000Y-93808862D01*
X162685000Y-93813690D01*
X162435000Y-93813690D01*
X162433000Y-93808862D01*
X162433000Y-93463750D01*
X162274250Y-93305000D01*
X161575750Y-93305000D01*
X161417000Y-93463750D01*
X161417000Y-93808862D01*
X161415000Y-93813690D01*
X161165000Y-93813690D01*
X161163000Y-93808862D01*
X161163000Y-93463750D01*
X161004250Y-93305000D01*
X160305750Y-93305000D01*
X160147000Y-93463750D01*
X160147000Y-93808862D01*
X160145000Y-93813690D01*
X159895000Y-93813690D01*
X159893000Y-93808862D01*
X159893000Y-93463750D01*
X159734250Y-93305000D01*
X159035750Y-93305000D01*
X158877000Y-93463750D01*
X158877000Y-93808862D01*
X158875000Y-93813690D01*
X158623000Y-93813690D01*
X158623000Y-93463750D01*
X158464250Y-93305000D01*
X158113691Y-93305000D01*
X158093247Y-93313468D01*
X157990000Y-93292560D01*
X156970000Y-93292560D01*
X156840411Y-93316944D01*
X156787101Y-93306148D01*
X156729724Y-93220277D01*
X156089733Y-92580287D01*
X155851282Y-92420959D01*
X155570010Y-92365010D01*
X155237051Y-92365010D01*
X155179959Y-92307818D01*
X154836431Y-92165172D01*
X154635001Y-92164997D01*
X154635001Y-91231933D01*
X154728943Y-91193117D01*
X154992192Y-90930327D01*
X155134838Y-90586799D01*
X155135162Y-90214833D01*
X154993117Y-89871057D01*
X154730327Y-89607808D01*
X154681276Y-89587440D01*
X155450000Y-89587440D01*
X155579589Y-89563056D01*
X155700000Y-89587440D01*
X156720000Y-89587440D01*
X156849589Y-89563056D01*
X156970000Y-89587440D01*
X157990000Y-89587440D01*
X158119589Y-89563056D01*
X158240000Y-89587440D01*
X158265010Y-89587440D01*
X158264838Y-89785167D01*
X158406883Y-90128943D01*
X158669673Y-90392192D01*
X159013201Y-90534838D01*
X159385167Y-90535162D01*
X159728943Y-90393117D01*
X159787162Y-90335000D01*
X163003000Y-90335000D01*
X163284272Y-90279051D01*
X163522723Y-90119723D01*
X164055007Y-89587440D01*
X164340000Y-89587440D01*
X164469589Y-89563056D01*
X164590000Y-89587440D01*
X165610000Y-89587440D01*
X165739589Y-89563056D01*
X165860000Y-89587440D01*
X166880000Y-89587440D01*
X167009589Y-89563056D01*
X167130000Y-89587440D01*
X168150000Y-89587440D01*
X168279589Y-89563056D01*
X168400000Y-89587440D01*
X169420000Y-89587440D01*
X169549589Y-89563056D01*
X169670000Y-89587440D01*
X170690000Y-89587440D01*
X170819589Y-89563056D01*
X170940000Y-89587440D01*
X171960000Y-89587440D01*
X172089589Y-89563056D01*
X172210000Y-89587440D01*
X173230000Y-89587440D01*
X173359589Y-89563056D01*
X173480000Y-89587440D01*
X174500000Y-89587440D01*
X174629589Y-89563056D01*
X174750000Y-89587440D01*
X175770000Y-89587440D01*
X176005317Y-89543162D01*
X176221441Y-89404090D01*
X176366431Y-89191890D01*
X176417440Y-88940000D01*
X176417440Y-84940000D01*
X176373162Y-84704683D01*
X176247887Y-84510000D01*
X176930069Y-84510000D01*
X177871023Y-84697167D01*
X177871023Y-84697167D01*
G37*
X177871023Y-84697167D02*
X178609439Y-85190561D01*
X179102833Y-85928977D01*
X179290000Y-86869931D01*
X179290000Y-96130069D01*
X179102833Y-97071023D01*
X178609439Y-97809439D01*
X177871023Y-98302833D01*
X176930069Y-98490000D01*
X176576055Y-98490000D01*
X176576162Y-98366833D01*
X176434117Y-98023057D01*
X176406270Y-97995161D01*
X176417440Y-97940000D01*
X176417440Y-93940000D01*
X176373162Y-93704683D01*
X176234090Y-93488559D01*
X176021890Y-93343569D01*
X175770000Y-93292560D01*
X174750000Y-93292560D01*
X174620411Y-93316944D01*
X174500000Y-93292560D01*
X173480000Y-93292560D01*
X173350411Y-93316944D01*
X173230000Y-93292560D01*
X172210000Y-93292560D01*
X172080411Y-93316944D01*
X172027101Y-93306148D01*
X171987904Y-93247486D01*
X171862117Y-92943057D01*
X171599327Y-92679808D01*
X171255799Y-92537162D01*
X170883833Y-92536838D01*
X170540057Y-92678883D01*
X170434046Y-92784710D01*
X170329327Y-92679808D01*
X169985799Y-92537162D01*
X169613833Y-92536838D01*
X169270057Y-92678883D01*
X169164046Y-92784710D01*
X169059327Y-92679808D01*
X168867991Y-92600358D01*
X168955838Y-92388799D01*
X168956162Y-92016833D01*
X168859792Y-91783599D01*
X175429699Y-91783599D01*
X175693281Y-92421515D01*
X176180918Y-92910004D01*
X176818373Y-93174699D01*
X177508599Y-93175301D01*
X178146515Y-92911719D01*
X178635004Y-92424082D01*
X178899699Y-91786627D01*
X178900301Y-91096401D01*
X178636719Y-90458485D01*
X178149082Y-89969996D01*
X177511627Y-89705301D01*
X176821401Y-89704699D01*
X176183485Y-89968281D01*
X175694996Y-90455918D01*
X175430301Y-91093373D01*
X175429699Y-91783599D01*
X168859792Y-91783599D01*
X168822617Y-91693629D01*
X168955838Y-91372799D01*
X168956162Y-91000833D01*
X168814117Y-90657057D01*
X168551327Y-90393808D01*
X168207799Y-90251162D01*
X167835833Y-90250838D01*
X167492057Y-90392883D01*
X167228808Y-90655673D01*
X167086162Y-90999201D01*
X167086090Y-91081463D01*
X165850277Y-92317277D01*
X165690949Y-92555728D01*
X165635000Y-92837000D01*
X165635000Y-93305000D01*
X165385750Y-93305000D01*
X165227000Y-93463750D01*
X165227000Y-93868693D01*
X165212560Y-93940000D01*
X165212560Y-96087000D01*
X164973000Y-96087000D01*
X164973000Y-96067000D01*
X163957000Y-96067000D01*
X163957000Y-96087000D01*
X163703000Y-96087000D01*
X163703000Y-96067000D01*
X162687000Y-96067000D01*
X162687000Y-96087000D01*
X162433000Y-96087000D01*
X162433000Y-96067000D01*
X161417000Y-96067000D01*
X161417000Y-96087000D01*
X161163000Y-96087000D01*
X161163000Y-96067000D01*
X160147000Y-96067000D01*
X160147000Y-96087000D01*
X159893000Y-96087000D01*
X159893000Y-96067000D01*
X158877000Y-96067000D01*
X158877000Y-96087000D01*
X158637440Y-96087000D01*
X158637440Y-93940000D01*
X158623000Y-93863258D01*
X158623000Y-93813690D01*
X158875000Y-93813690D01*
X158875000Y-95654250D01*
X158877000Y-95656250D01*
X158877000Y-95813000D01*
X159893000Y-95813000D01*
X159893000Y-95656250D01*
X159895000Y-95654250D01*
X159895000Y-93813690D01*
X160145000Y-93813690D01*
X160145000Y-95654250D01*
X160147000Y-95656250D01*
X160147000Y-95813000D01*
X161163000Y-95813000D01*
X161163000Y-95656250D01*
X161165000Y-95654250D01*
X161165000Y-93813690D01*
X161415000Y-93813690D01*
X161415000Y-95654250D01*
X161417000Y-95656250D01*
X161417000Y-95813000D01*
X162433000Y-95813000D01*
X162433000Y-95656250D01*
X162435000Y-95654250D01*
X162435000Y-93813690D01*
X162685000Y-93813690D01*
X162685000Y-95654250D01*
X162687000Y-95656250D01*
X162687000Y-95813000D01*
X163703000Y-95813000D01*
X163703000Y-95656250D01*
X163705000Y-95654250D01*
X163705000Y-93813690D01*
X163955000Y-93813690D01*
X163955000Y-95654250D01*
X163957000Y-95656250D01*
X163957000Y-95813000D01*
X164973000Y-95813000D01*
X164973000Y-95656250D01*
X164975000Y-95654250D01*
X164975000Y-93813690D01*
X164973000Y-93808862D01*
X164973000Y-93463750D01*
X164814250Y-93305000D01*
X164115750Y-93305000D01*
X163957000Y-93463750D01*
X163957000Y-93808862D01*
X163955000Y-93813690D01*
X163705000Y-93813690D01*
X163703000Y-93808862D01*
X163703000Y-93463750D01*
X163544250Y-93305000D01*
X162845750Y-93305000D01*
X162687000Y-93463750D01*
X162687000Y-93808862D01*
X162685000Y-93813690D01*
X162435000Y-93813690D01*
X162433000Y-93808862D01*
X162433000Y-93463750D01*
X162274250Y-93305000D01*
X161575750Y-93305000D01*
X161417000Y-93463750D01*
X161417000Y-93808862D01*
X161415000Y-93813690D01*
X161165000Y-93813690D01*
X161163000Y-93808862D01*
X161163000Y-93463750D01*
X161004250Y-93305000D01*
X160305750Y-93305000D01*
X160147000Y-93463750D01*
X160147000Y-93808862D01*
X160145000Y-93813690D01*
X159895000Y-93813690D01*
X159893000Y-93808862D01*
X159893000Y-93463750D01*
X159734250Y-93305000D01*
X159035750Y-93305000D01*
X158877000Y-93463750D01*
X158877000Y-93808862D01*
X158875000Y-93813690D01*
X158623000Y-93813690D01*
X158623000Y-93463750D01*
X158464250Y-93305000D01*
X158113691Y-93305000D01*
X158093247Y-93313468D01*
X157990000Y-93292560D01*
X156970000Y-93292560D01*
X156840411Y-93316944D01*
X156787101Y-93306148D01*
X156729724Y-93220277D01*
X156089733Y-92580287D01*
X155851282Y-92420959D01*
X155570010Y-92365010D01*
X155237051Y-92365010D01*
X155179959Y-92307818D01*
X154836431Y-92165172D01*
X154635001Y-92164997D01*
X154635001Y-91231933D01*
X154728943Y-91193117D01*
X154992192Y-90930327D01*
X155134838Y-90586799D01*
X155135162Y-90214833D01*
X154993117Y-89871057D01*
X154730327Y-89607808D01*
X154681276Y-89587440D01*
X155450000Y-89587440D01*
X155579589Y-89563056D01*
X155700000Y-89587440D01*
X156720000Y-89587440D01*
X156849589Y-89563056D01*
X156970000Y-89587440D01*
X157990000Y-89587440D01*
X158119589Y-89563056D01*
X158240000Y-89587440D01*
X158265010Y-89587440D01*
X158264838Y-89785167D01*
X158406883Y-90128943D01*
X158669673Y-90392192D01*
X159013201Y-90534838D01*
X159385167Y-90535162D01*
X159728943Y-90393117D01*
X159787162Y-90335000D01*
X163003000Y-90335000D01*
X163284272Y-90279051D01*
X163522723Y-90119723D01*
X164055007Y-89587440D01*
X164340000Y-89587440D01*
X164469589Y-89563056D01*
X164590000Y-89587440D01*
X165610000Y-89587440D01*
X165739589Y-89563056D01*
X165860000Y-89587440D01*
X166880000Y-89587440D01*
X167009589Y-89563056D01*
X167130000Y-89587440D01*
X168150000Y-89587440D01*
X168279589Y-89563056D01*
X168400000Y-89587440D01*
X169420000Y-89587440D01*
X169549589Y-89563056D01*
X169670000Y-89587440D01*
X170690000Y-89587440D01*
X170819589Y-89563056D01*
X170940000Y-89587440D01*
X171960000Y-89587440D01*
X172089589Y-89563056D01*
X172210000Y-89587440D01*
X173230000Y-89587440D01*
X173359589Y-89563056D01*
X173480000Y-89587440D01*
X174500000Y-89587440D01*
X174629589Y-89563056D01*
X174750000Y-89587440D01*
X175770000Y-89587440D01*
X176005317Y-89543162D01*
X176221441Y-89404090D01*
X176366431Y-89191890D01*
X176417440Y-88940000D01*
X176417440Y-84940000D01*
X176373162Y-84704683D01*
X176247887Y-84510000D01*
X176930069Y-84510000D01*
X177871023Y-84697167D01*
G36*
X124623569Y-84688110D02*
X124572560Y-84940000D01*
X124572560Y-88940000D01*
X124616838Y-89175317D01*
X124755910Y-89391441D01*
X124968110Y-89536431D01*
X125220000Y-89587440D01*
X126240000Y-89587440D01*
X126369589Y-89563056D01*
X126490000Y-89587440D01*
X127510000Y-89587440D01*
X127639589Y-89563056D01*
X127760000Y-89587440D01*
X128780000Y-89587440D01*
X128909589Y-89563056D01*
X129030000Y-89587440D01*
X130050000Y-89587440D01*
X130179589Y-89563056D01*
X130300000Y-89587440D01*
X131320000Y-89587440D01*
X131449589Y-89563056D01*
X131570000Y-89587440D01*
X132590000Y-89587440D01*
X132615000Y-89582736D01*
X132615000Y-91186006D01*
X132657180Y-91398057D01*
X132647799Y-91394162D01*
X132275833Y-91393838D01*
X131932057Y-91535883D01*
X131668808Y-91798673D01*
X131526162Y-92142201D01*
X131525838Y-92514167D01*
X131667883Y-92857943D01*
X131930673Y-93121192D01*
X132274201Y-93263838D01*
X132646167Y-93264162D01*
X132989943Y-93122117D01*
X133048162Y-93064000D01*
X134238002Y-93064000D01*
X134519274Y-93008051D01*
X134757725Y-92848723D01*
X135139724Y-92466725D01*
X135299051Y-92228274D01*
X135311667Y-92164848D01*
X135355000Y-91947002D01*
X135355000Y-89575000D01*
X135604250Y-89575000D01*
X135763000Y-89416250D01*
X135763000Y-89011307D01*
X135777440Y-88940000D01*
X135777440Y-87225750D01*
X136015000Y-87225750D01*
X136015000Y-89066310D01*
X136017000Y-89071138D01*
X136017000Y-89416250D01*
X136175750Y-89575000D01*
X136874250Y-89575000D01*
X137033000Y-89416250D01*
X137033000Y-89071138D01*
X137035000Y-89066310D01*
X137035000Y-87225750D01*
X137285000Y-87225750D01*
X137285000Y-89066310D01*
X137287000Y-89071138D01*
X137287000Y-89416250D01*
X137445750Y-89575000D01*
X138144250Y-89575000D01*
X138303000Y-89416250D01*
X138303000Y-89071138D01*
X138305000Y-89066310D01*
X138305000Y-87225750D01*
X138555000Y-87225750D01*
X138555000Y-89066310D01*
X138557000Y-89071138D01*
X138557000Y-89416250D01*
X138715750Y-89575000D01*
X139414250Y-89575000D01*
X139573000Y-89416250D01*
X139573000Y-89071138D01*
X139575000Y-89066310D01*
X139575000Y-87225750D01*
X139825000Y-87225750D01*
X139825000Y-89066310D01*
X139827000Y-89071138D01*
X139827000Y-89416250D01*
X139985750Y-89575000D01*
X140684250Y-89575000D01*
X140843000Y-89416250D01*
X140843000Y-89071138D01*
X140845000Y-89066310D01*
X140845000Y-87225750D01*
X141095000Y-87225750D01*
X141095000Y-89066310D01*
X141097000Y-89071138D01*
X141097000Y-89416250D01*
X141255750Y-89575000D01*
X141954250Y-89575000D01*
X142113000Y-89416250D01*
X142113000Y-89071138D01*
X142115000Y-89066310D01*
X142115000Y-87225750D01*
X142113000Y-87223750D01*
X142113000Y-87067000D01*
X141097000Y-87067000D01*
X141097000Y-87223750D01*
X141095000Y-87225750D01*
X140845000Y-87225750D01*
X140843000Y-87223750D01*
X140843000Y-87067000D01*
X139827000Y-87067000D01*
X139827000Y-87223750D01*
X139825000Y-87225750D01*
X139575000Y-87225750D01*
X139573000Y-87223750D01*
X139573000Y-87067000D01*
X138557000Y-87067000D01*
X138557000Y-87223750D01*
X138555000Y-87225750D01*
X138305000Y-87225750D01*
X138303000Y-87223750D01*
X138303000Y-87067000D01*
X137287000Y-87067000D01*
X137287000Y-87223750D01*
X137285000Y-87225750D01*
X137035000Y-87225750D01*
X137033000Y-87223750D01*
X137033000Y-87067000D01*
X136017000Y-87067000D01*
X136017000Y-87223750D01*
X136015000Y-87225750D01*
X135777440Y-87225750D01*
X135777440Y-86793000D01*
X136017000Y-86793000D01*
X136017000Y-86813000D01*
X137033000Y-86813000D01*
X137033000Y-86793000D01*
X137287000Y-86793000D01*
X137287000Y-86813000D01*
X138303000Y-86813000D01*
X138303000Y-86793000D01*
X138557000Y-86793000D01*
X138557000Y-86813000D01*
X139573000Y-86813000D01*
X139573000Y-86793000D01*
X139827000Y-86793000D01*
X139827000Y-86813000D01*
X140843000Y-86813000D01*
X140843000Y-86793000D01*
X141097000Y-86793000D01*
X141097000Y-86813000D01*
X142113000Y-86813000D01*
X142113000Y-86793000D01*
X142352560Y-86793000D01*
X142352560Y-88940000D01*
X142367000Y-89016742D01*
X142367000Y-89416250D01*
X142525750Y-89575000D01*
X142876309Y-89575000D01*
X142896753Y-89566532D01*
X143000000Y-89587440D01*
X143023638Y-89587440D01*
X142983001Y-89791735D01*
X142983001Y-91140003D01*
X143030551Y-91379050D01*
X143038950Y-91421275D01*
X143198278Y-91659726D01*
X143318569Y-91780017D01*
X138860445Y-91780017D01*
X138035074Y-90954646D01*
X138035144Y-90873833D01*
X137893099Y-90530057D01*
X137630309Y-90266808D01*
X137286781Y-90124162D01*
X136914815Y-90123838D01*
X136571039Y-90265883D01*
X136307790Y-90528673D01*
X136165144Y-90872201D01*
X136164820Y-91244167D01*
X136306865Y-91587943D01*
X136569655Y-91851192D01*
X136913183Y-91993838D01*
X136995446Y-91993910D01*
X137431045Y-92429509D01*
X136640277Y-93220277D01*
X136583635Y-93305047D01*
X136520411Y-93316944D01*
X136400000Y-93292560D01*
X135380000Y-93292560D01*
X135250411Y-93316944D01*
X135130000Y-93292560D01*
X134110000Y-93292560D01*
X133980411Y-93316944D01*
X133860000Y-93292560D01*
X132840000Y-93292560D01*
X132710411Y-93316944D01*
X132590000Y-93292560D01*
X131570000Y-93292560D01*
X131483154Y-93308901D01*
X131329723Y-93079276D01*
X131037000Y-92786554D01*
X131037000Y-92027419D01*
X131094192Y-91970327D01*
X131236838Y-91626799D01*
X131237162Y-91254833D01*
X131095117Y-90911057D01*
X130832327Y-90647808D01*
X130488799Y-90505162D01*
X130116833Y-90504838D01*
X129773057Y-90646883D01*
X129509808Y-90909673D01*
X129367162Y-91253201D01*
X129366838Y-91625167D01*
X129508883Y-91968943D01*
X129567000Y-92027162D01*
X129567000Y-92356000D01*
X127508000Y-92356000D01*
X127273394Y-92402667D01*
X127226727Y-92411949D01*
X126988276Y-92571277D01*
X126480278Y-93079276D01*
X126480277Y-93079277D01*
X126326114Y-93309998D01*
X126240000Y-93292560D01*
X125220000Y-93292560D01*
X124984683Y-93336838D01*
X124768559Y-93475910D01*
X124623569Y-93688110D01*
X124572560Y-93940000D01*
X124572560Y-97940000D01*
X124616838Y-98175317D01*
X124755910Y-98391441D01*
X124900156Y-98490000D01*
X124069931Y-98490000D01*
X123128977Y-98302833D01*
X122390561Y-97809439D01*
X121897167Y-97071023D01*
X121710000Y-96130069D01*
X121710000Y-91783599D01*
X122089699Y-91783599D01*
X122353281Y-92421515D01*
X122840918Y-92910004D01*
X123478373Y-93174699D01*
X124168599Y-93175301D01*
X124806515Y-92911719D01*
X125295004Y-92424082D01*
X125559699Y-91786627D01*
X125560301Y-91096401D01*
X125296719Y-90458485D01*
X124809082Y-89969996D01*
X124171627Y-89705301D01*
X123481401Y-89704699D01*
X122843485Y-89968281D01*
X122354996Y-90455918D01*
X122090301Y-91093373D01*
X122089699Y-91783599D01*
X121710000Y-91783599D01*
X121710000Y-86869931D01*
X121897167Y-85928977D01*
X122390561Y-85190561D01*
X123128977Y-84697167D01*
X124069931Y-84510000D01*
X124745266Y-84510000D01*
X124623569Y-84688110D01*
X124623569Y-84688110D01*
G37*
X124623569Y-84688110D02*
X124572560Y-84940000D01*
X124572560Y-88940000D01*
X124616838Y-89175317D01*
X124755910Y-89391441D01*
X124968110Y-89536431D01*
X125220000Y-89587440D01*
X126240000Y-89587440D01*
X126369589Y-89563056D01*
X126490000Y-89587440D01*
X127510000Y-89587440D01*
X127639589Y-89563056D01*
X127760000Y-89587440D01*
X128780000Y-89587440D01*
X128909589Y-89563056D01*
X129030000Y-89587440D01*
X130050000Y-89587440D01*
X130179589Y-89563056D01*
X130300000Y-89587440D01*
X131320000Y-89587440D01*
X131449589Y-89563056D01*
X131570000Y-89587440D01*
X132590000Y-89587440D01*
X132615000Y-89582736D01*
X132615000Y-91186006D01*
X132657180Y-91398057D01*
X132647799Y-91394162D01*
X132275833Y-91393838D01*
X131932057Y-91535883D01*
X131668808Y-91798673D01*
X131526162Y-92142201D01*
X131525838Y-92514167D01*
X131667883Y-92857943D01*
X131930673Y-93121192D01*
X132274201Y-93263838D01*
X132646167Y-93264162D01*
X132989943Y-93122117D01*
X133048162Y-93064000D01*
X134238002Y-93064000D01*
X134519274Y-93008051D01*
X134757725Y-92848723D01*
X135139724Y-92466725D01*
X135299051Y-92228274D01*
X135311667Y-92164848D01*
X135355000Y-91947002D01*
X135355000Y-89575000D01*
X135604250Y-89575000D01*
X135763000Y-89416250D01*
X135763000Y-89011307D01*
X135777440Y-88940000D01*
X135777440Y-87225750D01*
X136015000Y-87225750D01*
X136015000Y-89066310D01*
X136017000Y-89071138D01*
X136017000Y-89416250D01*
X136175750Y-89575000D01*
X136874250Y-89575000D01*
X137033000Y-89416250D01*
X137033000Y-89071138D01*
X137035000Y-89066310D01*
X137035000Y-87225750D01*
X137285000Y-87225750D01*
X137285000Y-89066310D01*
X137287000Y-89071138D01*
X137287000Y-89416250D01*
X137445750Y-89575000D01*
X138144250Y-89575000D01*
X138303000Y-89416250D01*
X138303000Y-89071138D01*
X138305000Y-89066310D01*
X138305000Y-87225750D01*
X138555000Y-87225750D01*
X138555000Y-89066310D01*
X138557000Y-89071138D01*
X138557000Y-89416250D01*
X138715750Y-89575000D01*
X139414250Y-89575000D01*
X139573000Y-89416250D01*
X139573000Y-89071138D01*
X139575000Y-89066310D01*
X139575000Y-87225750D01*
X139825000Y-87225750D01*
X139825000Y-89066310D01*
X139827000Y-89071138D01*
X139827000Y-89416250D01*
X139985750Y-89575000D01*
X140684250Y-89575000D01*
X140843000Y-89416250D01*
X140843000Y-89071138D01*
X140845000Y-89066310D01*
X140845000Y-87225750D01*
X141095000Y-87225750D01*
X141095000Y-89066310D01*
X141097000Y-89071138D01*
X141097000Y-89416250D01*
X141255750Y-89575000D01*
X141954250Y-89575000D01*
X142113000Y-89416250D01*
X142113000Y-89071138D01*
X142115000Y-89066310D01*
X142115000Y-87225750D01*
X142113000Y-87223750D01*
X142113000Y-87067000D01*
X141097000Y-87067000D01*
X141097000Y-87223750D01*
X141095000Y-87225750D01*
X140845000Y-87225750D01*
X140843000Y-87223750D01*
X140843000Y-87067000D01*
X139827000Y-87067000D01*
X139827000Y-87223750D01*
X139825000Y-87225750D01*
X139575000Y-87225750D01*
X139573000Y-87223750D01*
X139573000Y-87067000D01*
X138557000Y-87067000D01*
X138557000Y-87223750D01*
X138555000Y-87225750D01*
X138305000Y-87225750D01*
X138303000Y-87223750D01*
X138303000Y-87067000D01*
X137287000Y-87067000D01*
X137287000Y-87223750D01*
X137285000Y-87225750D01*
X137035000Y-87225750D01*
X137033000Y-87223750D01*
X137033000Y-87067000D01*
X136017000Y-87067000D01*
X136017000Y-87223750D01*
X136015000Y-87225750D01*
X135777440Y-87225750D01*
X135777440Y-86793000D01*
X136017000Y-86793000D01*
X136017000Y-86813000D01*
X137033000Y-86813000D01*
X137033000Y-86793000D01*
X137287000Y-86793000D01*
X137287000Y-86813000D01*
X138303000Y-86813000D01*
X138303000Y-86793000D01*
X138557000Y-86793000D01*
X138557000Y-86813000D01*
X139573000Y-86813000D01*
X139573000Y-86793000D01*
X139827000Y-86793000D01*
X139827000Y-86813000D01*
X140843000Y-86813000D01*
X140843000Y-86793000D01*
X141097000Y-86793000D01*
X141097000Y-86813000D01*
X142113000Y-86813000D01*
X142113000Y-86793000D01*
X142352560Y-86793000D01*
X142352560Y-88940000D01*
X142367000Y-89016742D01*
X142367000Y-89416250D01*
X142525750Y-89575000D01*
X142876309Y-89575000D01*
X142896753Y-89566532D01*
X143000000Y-89587440D01*
X143023638Y-89587440D01*
X142983001Y-89791735D01*
X142983001Y-91140003D01*
X143030551Y-91379050D01*
X143038950Y-91421275D01*
X143198278Y-91659726D01*
X143318569Y-91780017D01*
X138860445Y-91780017D01*
X138035074Y-90954646D01*
X138035144Y-90873833D01*
X137893099Y-90530057D01*
X137630309Y-90266808D01*
X137286781Y-90124162D01*
X136914815Y-90123838D01*
X136571039Y-90265883D01*
X136307790Y-90528673D01*
X136165144Y-90872201D01*
X136164820Y-91244167D01*
X136306865Y-91587943D01*
X136569655Y-91851192D01*
X136913183Y-91993838D01*
X136995446Y-91993910D01*
X137431045Y-92429509D01*
X136640277Y-93220277D01*
X136583635Y-93305047D01*
X136520411Y-93316944D01*
X136400000Y-93292560D01*
X135380000Y-93292560D01*
X135250411Y-93316944D01*
X135130000Y-93292560D01*
X134110000Y-93292560D01*
X133980411Y-93316944D01*
X133860000Y-93292560D01*
X132840000Y-93292560D01*
X132710411Y-93316944D01*
X132590000Y-93292560D01*
X131570000Y-93292560D01*
X131483154Y-93308901D01*
X131329723Y-93079276D01*
X131037000Y-92786554D01*
X131037000Y-92027419D01*
X131094192Y-91970327D01*
X131236838Y-91626799D01*
X131237162Y-91254833D01*
X131095117Y-90911057D01*
X130832327Y-90647808D01*
X130488799Y-90505162D01*
X130116833Y-90504838D01*
X129773057Y-90646883D01*
X129509808Y-90909673D01*
X129367162Y-91253201D01*
X129366838Y-91625167D01*
X129508883Y-91968943D01*
X129567000Y-92027162D01*
X129567000Y-92356000D01*
X127508000Y-92356000D01*
X127273394Y-92402667D01*
X127226727Y-92411949D01*
X126988276Y-92571277D01*
X126480278Y-93079276D01*
X126480277Y-93079277D01*
X126326114Y-93309998D01*
X126240000Y-93292560D01*
X125220000Y-93292560D01*
X124984683Y-93336838D01*
X124768559Y-93475910D01*
X124623569Y-93688110D01*
X124572560Y-93940000D01*
X124572560Y-97940000D01*
X124616838Y-98175317D01*
X124755910Y-98391441D01*
X124900156Y-98490000D01*
X124069931Y-98490000D01*
X123128977Y-98302833D01*
X122390561Y-97809439D01*
X121897167Y-97071023D01*
X121710000Y-96130069D01*
X121710000Y-91783599D01*
X122089699Y-91783599D01*
X122353281Y-92421515D01*
X122840918Y-92910004D01*
X123478373Y-93174699D01*
X124168599Y-93175301D01*
X124806515Y-92911719D01*
X125295004Y-92424082D01*
X125559699Y-91786627D01*
X125560301Y-91096401D01*
X125296719Y-90458485D01*
X124809082Y-89969996D01*
X124171627Y-89705301D01*
X123481401Y-89704699D01*
X122843485Y-89968281D01*
X122354996Y-90455918D01*
X122090301Y-91093373D01*
X122089699Y-91783599D01*
X121710000Y-91783599D01*
X121710000Y-86869931D01*
X121897167Y-85928977D01*
X122390561Y-85190561D01*
X123128977Y-84697167D01*
X124069931Y-84510000D01*
X124745266Y-84510000D01*
X124623569Y-84688110D01*
M02*
