M48
METRIC,TZ
T1C0.400
T2C2.200
%
G90
G05
T1
X130302Y-91440
X135382Y-90932
X136652Y-92710
X137000Y-89478
X138430Y-98552
X139008Y-84445
X142500Y-84500
X143000Y-90200
X144400Y-90200
X145600Y-90200
X146600Y-90200
X150600Y-90400
X151800Y-90400
X153000Y-90400
X154200Y-90400
X154600Y-93000
X159000Y-92400
X159200Y-89600
X163600Y-92400
X167400Y-98600
X168000Y-90600
X168009Y-91772
X168400Y-84440
X176500Y-94500
T2
X123825Y-91440
X177165Y-91440
T0
M30
